ISO-10303-21;
HEADER;
/* Generated by software containing ST-Developer
 * from STEP Tools, Inc. (www.steptools.com) 
 */

FILE_DESCRIPTION(
/* description */ (''),
/* implementation_level */ '2;1');

FILE_NAME(
/* name */ 'AngleSupport.stp',
/* time_stamp */ '2025-09-15T15:52:41-04:00',
/* author */ ('Teddy'),
/* organization */ (''),
/* preprocessor_version */ 'ST-DEVELOPER v20.1',
/* originating_system */ 'Autodesk Inventor 2026',
/* authorisation */ '');

FILE_SCHEMA (('AUTOMOTIVE_DESIGN { 1 0 10303 214 3 1 1 }'));
ENDSEC;

DATA;
#10=MECHANICAL_DESIGN_GEOMETRIC_PRESENTATION_REPRESENTATION('',(#13),#763);
#11=SHAPE_REPRESENTATION_RELATIONSHIP('SRR','None',#774,#12);
#12=ADVANCED_BREP_SHAPE_REPRESENTATION('',(#14),#762);
#13=STYLED_ITEM('',(#783),#14);
#14=MANIFOLD_SOLID_BREP('Solid1',#455);
#15=FACE_BOUND('',#74,.T.);
#16=FACE_BOUND('',#75,.T.);
#17=FACE_BOUND('',#81,.T.);
#18=FACE_BOUND('',#84,.T.);
#19=FACE_BOUND('',#90,.T.);
#20=FACE_BOUND('',#91,.T.);
#21=FACE_BOUND('',#92,.T.);
#22=FACE_BOUND('',#93,.T.);
#23=FACE_BOUND('',#94,.T.);
#24=FACE_BOUND('',#96,.T.);
#25=FACE_BOUND('',#97,.T.);
#26=FACE_BOUND('',#98,.T.);
#27=FACE_BOUND('',#99,.T.);
#28=FACE_BOUND('',#100,.T.);
#29=PLANE('',#483);
#30=PLANE('',#484);
#31=PLANE('',#485);
#32=PLANE('',#486);
#33=PLANE('',#490);
#34=PLANE('',#491);
#35=PLANE('',#501);
#36=PLANE('',#502);
#37=PLANE('',#503);
#38=PLANE('',#504);
#39=PLANE('',#505);
#40=PLANE('',#512);
#41=PLANE('',#513);
#42=PLANE('',#514);
#43=FACE_OUTER_BOUND('',#65,.T.);
#44=FACE_OUTER_BOUND('',#66,.T.);
#45=FACE_OUTER_BOUND('',#67,.T.);
#46=FACE_OUTER_BOUND('',#68,.T.);
#47=FACE_OUTER_BOUND('',#69,.T.);
#48=FACE_OUTER_BOUND('',#70,.T.);
#49=FACE_OUTER_BOUND('',#71,.T.);
#50=FACE_OUTER_BOUND('',#72,.T.);
#51=FACE_OUTER_BOUND('',#73,.T.);
#52=FACE_OUTER_BOUND('',#76,.T.);
#53=FACE_OUTER_BOUND('',#77,.T.);
#54=FACE_OUTER_BOUND('',#78,.T.);
#55=FACE_OUTER_BOUND('',#79,.T.);
#56=FACE_OUTER_BOUND('',#80,.T.);
#57=FACE_OUTER_BOUND('',#82,.T.);
#58=FACE_OUTER_BOUND('',#83,.T.);
#59=FACE_OUTER_BOUND('',#85,.T.);
#60=FACE_OUTER_BOUND('',#86,.T.);
#61=FACE_OUTER_BOUND('',#87,.T.);
#62=FACE_OUTER_BOUND('',#88,.T.);
#63=FACE_OUTER_BOUND('',#89,.T.);
#64=FACE_OUTER_BOUND('',#95,.T.);
#65=EDGE_LOOP('',(#305,#306,#307,#308));
#66=EDGE_LOOP('',(#309,#310,#311,#312));
#67=EDGE_LOOP('',(#313,#314,#315,#316));
#68=EDGE_LOOP('',(#317,#318,#319,#320));
#69=EDGE_LOOP('',(#321,#322,#323,#324));
#70=EDGE_LOOP('',(#325,#326,#327,#328));
#71=EDGE_LOOP('',(#329,#330,#331,#332));
#72=EDGE_LOOP('',(#333,#334,#335,#336));
#73=EDGE_LOOP('',(#337,#338,#339,#340));
#74=EDGE_LOOP('',(#341));
#75=EDGE_LOOP('',(#342));
#76=EDGE_LOOP('',(#343,#344,#345,#346));
#77=EDGE_LOOP('',(#347,#348,#349,#350));
#78=EDGE_LOOP('',(#351,#352,#353,#354));
#79=EDGE_LOOP('',(#355,#356,#357,#358));
#80=EDGE_LOOP('',(#359,#360,#361,#362));
#81=EDGE_LOOP('',(#363));
#82=EDGE_LOOP('',(#364,#365,#366,#367));
#83=EDGE_LOOP('',(#368,#369,#370,#371));
#84=EDGE_LOOP('',(#372));
#85=EDGE_LOOP('',(#373,#374,#375,#376));
#86=EDGE_LOOP('',(#377,#378,#379,#380));
#87=EDGE_LOOP('',(#381,#382,#383,#384));
#88=EDGE_LOOP('',(#385,#386,#387,#388));
#89=EDGE_LOOP('',(#389,#390,#391,#392,#393,#394,#395));
#90=EDGE_LOOP('',(#396,#397,#398,#399));
#91=EDGE_LOOP('',(#400,#401,#402,#403));
#92=EDGE_LOOP('',(#404));
#93=EDGE_LOOP('',(#405));
#94=EDGE_LOOP('',(#406));
#95=EDGE_LOOP('',(#407,#408,#409,#410,#411,#412,#413));
#96=EDGE_LOOP('',(#414));
#97=EDGE_LOOP('',(#415));
#98=EDGE_LOOP('',(#416));
#99=EDGE_LOOP('',(#417,#418,#419,#420));
#100=EDGE_LOOP('',(#421,#422,#423,#424));
#101=LINE('',#642,#145);
#102=LINE('',#648,#146);
#103=LINE('',#653,#147);
#104=LINE('',#655,#148);
#105=LINE('',#657,#149);
#106=LINE('',#658,#150);
#107=LINE('',#661,#151);
#108=LINE('',#663,#152);
#109=LINE('',#664,#153);
#110=LINE('',#668,#154);
#111=LINE('',#670,#155);
#112=LINE('',#672,#156);
#113=LINE('',#673,#157);
#114=LINE('',#676,#158);
#115=LINE('',#678,#159);
#116=LINE('',#679,#160);
#117=LINE('',#685,#161);
#118=LINE('',#688,#162);
#119=LINE('',#691,#163);
#120=LINE('',#693,#164);
#121=LINE('',#694,#165);
#122=LINE('',#697,#166);
#123=LINE('',#699,#167);
#124=LINE('',#700,#168);
#125=LINE('',#705,#169);
#126=LINE('',#711,#170);
#127=LINE('',#717,#171);
#128=LINE('',#721,#172);
#129=LINE('',#723,#173);
#130=LINE('',#724,#174);
#131=LINE('',#726,#175);
#132=LINE('',#727,#176);
#133=LINE('',#730,#177);
#134=LINE('',#732,#178);
#135=LINE('',#733,#179);
#136=LINE('',#735,#180);
#137=LINE('',#736,#181);
#138=LINE('',#739,#182);
#139=LINE('',#741,#183);
#140=LINE('',#742,#184);
#141=LINE('',#747,#185);
#142=LINE('',#753,#186);
#143=LINE('',#756,#187);
#144=LINE('',#757,#188);
#145=VECTOR('',#521,0.086);
#146=VECTOR('',#528,0.086);
#147=VECTOR('',#533,0.393700787401575);
#148=VECTOR('',#534,0.393700787401575);
#149=VECTOR('',#535,0.393700787401575);
#150=VECTOR('',#536,0.393700787401575);
#151=VECTOR('',#539,0.393700787401575);
#152=VECTOR('',#540,0.393700787401575);
#153=VECTOR('',#541,0.393700787401575);
#154=VECTOR('',#544,0.393700787401575);
#155=VECTOR('',#545,0.393700787401575);
#156=VECTOR('',#546,0.393700787401575);
#157=VECTOR('',#547,0.393700787401575);
#158=VECTOR('',#550,0.393700787401575);
#159=VECTOR('',#551,0.393700787401575);
#160=VECTOR('',#552,0.393700787401575);
#161=VECTOR('',#557,0.393700787401575);
#162=VECTOR('',#560,0.393700787401575);
#163=VECTOR('',#563,0.393700787401575);
#164=VECTOR('',#564,0.393700787401575);
#165=VECTOR('',#565,0.393700787401575);
#166=VECTOR('',#568,0.393700787401575);
#167=VECTOR('',#569,0.393700787401575);
#168=VECTOR('',#570,0.393700787401575);
#169=VECTOR('',#575,0.0860000000000064);
#170=VECTOR('',#582,0.0859999999999998);
#171=VECTOR('',#589,0.0859999999999998);
#172=VECTOR('',#594,0.393700787401575);
#173=VECTOR('',#595,0.393700787401575);
#174=VECTOR('',#596,0.393700787401575);
#175=VECTOR('',#599,0.393700787401575);
#176=VECTOR('',#600,0.393700787401575);
#177=VECTOR('',#603,0.393700787401575);
#178=VECTOR('',#604,0.393700787401575);
#179=VECTOR('',#605,0.393700787401575);
#180=VECTOR('',#608,0.393700787401575);
#181=VECTOR('',#609,0.393700787401575);
#182=VECTOR('',#612,0.393700787401575);
#183=VECTOR('',#613,0.393700787401575);
#184=VECTOR('',#614,0.393700787401575);
#185=VECTOR('',#619,0.393700787401575);
#186=VECTOR('',#626,0.393700787401575);
#187=VECTOR('',#631,0.393700787401575);
#188=VECTOR('',#632,0.393700787401575);
#189=CIRCLE('',#478,0.086);
#190=CIRCLE('',#479,0.086);
#191=CIRCLE('',#481,0.086);
#192=CIRCLE('',#482,0.086);
#193=CIRCLE('',#488,0.25);
#194=CIRCLE('',#489,0.25);
#195=CIRCLE('',#493,0.0860000000000064);
#196=CIRCLE('',#494,0.0860000000000064);
#197=CIRCLE('',#496,0.0859999999999998);
#198=CIRCLE('',#497,0.0859999999999998);
#199=CIRCLE('',#499,0.0859999999999998);
#200=CIRCLE('',#500,0.0859999999999998);
#201=CIRCLE('',#507,1.);
#202=CIRCLE('',#508,1.);
#203=CIRCLE('',#510,0.25);
#204=CIRCLE('',#511,0.25);
#205=VERTEX_POINT('',#639);
#206=VERTEX_POINT('',#641);
#207=VERTEX_POINT('',#645);
#208=VERTEX_POINT('',#647);
#209=VERTEX_POINT('',#651);
#210=VERTEX_POINT('',#652);
#211=VERTEX_POINT('',#654);
#212=VERTEX_POINT('',#656);
#213=VERTEX_POINT('',#660);
#214=VERTEX_POINT('',#662);
#215=VERTEX_POINT('',#666);
#216=VERTEX_POINT('',#667);
#217=VERTEX_POINT('',#669);
#218=VERTEX_POINT('',#671);
#219=VERTEX_POINT('',#675);
#220=VERTEX_POINT('',#677);
#221=VERTEX_POINT('',#681);
#222=VERTEX_POINT('',#682);
#223=VERTEX_POINT('',#684);
#224=VERTEX_POINT('',#686);
#225=VERTEX_POINT('',#690);
#226=VERTEX_POINT('',#692);
#227=VERTEX_POINT('',#696);
#228=VERTEX_POINT('',#698);
#229=VERTEX_POINT('',#702);
#230=VERTEX_POINT('',#704);
#231=VERTEX_POINT('',#708);
#232=VERTEX_POINT('',#710);
#233=VERTEX_POINT('',#714);
#234=VERTEX_POINT('',#716);
#235=VERTEX_POINT('',#720);
#236=VERTEX_POINT('',#722);
#237=VERTEX_POINT('',#729);
#238=VERTEX_POINT('',#731);
#239=VERTEX_POINT('',#738);
#240=VERTEX_POINT('',#740);
#241=VERTEX_POINT('',#744);
#242=VERTEX_POINT('',#746);
#243=VERTEX_POINT('',#750);
#244=VERTEX_POINT('',#752);
#245=EDGE_CURVE('',#205,#205,#189,.T.);
#246=EDGE_CURVE('',#205,#206,#101,.T.);
#247=EDGE_CURVE('',#206,#206,#190,.T.);
#248=EDGE_CURVE('',#207,#207,#191,.T.);
#249=EDGE_CURVE('',#207,#208,#102,.T.);
#250=EDGE_CURVE('',#208,#208,#192,.T.);
#251=EDGE_CURVE('',#209,#210,#103,.T.);
#252=EDGE_CURVE('',#211,#210,#104,.T.);
#253=EDGE_CURVE('',#211,#212,#105,.T.);
#254=EDGE_CURVE('',#212,#209,#106,.T.);
#255=EDGE_CURVE('',#210,#213,#107,.T.);
#256=EDGE_CURVE('',#214,#213,#108,.T.);
#257=EDGE_CURVE('',#214,#211,#109,.T.);
#258=EDGE_CURVE('',#215,#216,#110,.T.);
#259=EDGE_CURVE('',#217,#216,#111,.T.);
#260=EDGE_CURVE('',#217,#218,#112,.T.);
#261=EDGE_CURVE('',#218,#215,#113,.T.);
#262=EDGE_CURVE('',#216,#219,#114,.T.);
#263=EDGE_CURVE('',#220,#219,#115,.T.);
#264=EDGE_CURVE('',#220,#217,#116,.T.);
#265=EDGE_CURVE('',#221,#222,#193,.T.);
#266=EDGE_CURVE('',#223,#222,#117,.T.);
#267=EDGE_CURVE('',#223,#224,#194,.T.);
#268=EDGE_CURVE('',#224,#221,#118,.T.);
#269=EDGE_CURVE('',#222,#225,#119,.T.);
#270=EDGE_CURVE('',#226,#225,#120,.T.);
#271=EDGE_CURVE('',#226,#223,#121,.T.);
#272=EDGE_CURVE('',#225,#227,#122,.T.);
#273=EDGE_CURVE('',#228,#227,#123,.T.);
#274=EDGE_CURVE('',#228,#226,#124,.T.);
#275=EDGE_CURVE('',#229,#229,#195,.T.);
#276=EDGE_CURVE('',#229,#230,#125,.T.);
#277=EDGE_CURVE('',#230,#230,#196,.T.);
#278=EDGE_CURVE('',#231,#231,#197,.T.);
#279=EDGE_CURVE('',#231,#232,#126,.T.);
#280=EDGE_CURVE('',#232,#232,#198,.T.);
#281=EDGE_CURVE('',#233,#233,#199,.T.);
#282=EDGE_CURVE('',#233,#234,#127,.T.);
#283=EDGE_CURVE('',#234,#234,#200,.T.);
#284=EDGE_CURVE('',#213,#235,#128,.T.);
#285=EDGE_CURVE('',#236,#235,#129,.T.);
#286=EDGE_CURVE('',#236,#214,#130,.T.);
#287=EDGE_CURVE('',#235,#209,#131,.T.);
#288=EDGE_CURVE('',#212,#236,#132,.T.);
#289=EDGE_CURVE('',#219,#237,#133,.T.);
#290=EDGE_CURVE('',#238,#237,#134,.T.);
#291=EDGE_CURVE('',#238,#220,#135,.T.);
#292=EDGE_CURVE('',#237,#215,#136,.T.);
#293=EDGE_CURVE('',#218,#238,#137,.T.);
#294=EDGE_CURVE('',#227,#239,#138,.T.);
#295=EDGE_CURVE('',#240,#239,#139,.T.);
#296=EDGE_CURVE('',#240,#228,#140,.T.);
#297=EDGE_CURVE('',#239,#241,#201,.T.);
#298=EDGE_CURVE('',#242,#241,#141,.T.);
#299=EDGE_CURVE('',#242,#240,#202,.T.);
#300=EDGE_CURVE('',#241,#243,#203,.T.);
#301=EDGE_CURVE('',#244,#243,#142,.T.);
#302=EDGE_CURVE('',#244,#242,#204,.T.);
#303=EDGE_CURVE('',#243,#221,#143,.T.);
#304=EDGE_CURVE('',#224,#244,#144,.T.);
#305=ORIENTED_EDGE('',*,*,#245,.F.);
#306=ORIENTED_EDGE('',*,*,#246,.T.);
#307=ORIENTED_EDGE('',*,*,#247,.F.);
#308=ORIENTED_EDGE('',*,*,#246,.F.);
#309=ORIENTED_EDGE('',*,*,#248,.F.);
#310=ORIENTED_EDGE('',*,*,#249,.T.);
#311=ORIENTED_EDGE('',*,*,#250,.F.);
#312=ORIENTED_EDGE('',*,*,#249,.F.);
#313=ORIENTED_EDGE('',*,*,#251,.T.);
#314=ORIENTED_EDGE('',*,*,#252,.F.);
#315=ORIENTED_EDGE('',*,*,#253,.T.);
#316=ORIENTED_EDGE('',*,*,#254,.T.);
#317=ORIENTED_EDGE('',*,*,#255,.T.);
#318=ORIENTED_EDGE('',*,*,#256,.F.);
#319=ORIENTED_EDGE('',*,*,#257,.T.);
#320=ORIENTED_EDGE('',*,*,#252,.T.);
#321=ORIENTED_EDGE('',*,*,#258,.T.);
#322=ORIENTED_EDGE('',*,*,#259,.F.);
#323=ORIENTED_EDGE('',*,*,#260,.T.);
#324=ORIENTED_EDGE('',*,*,#261,.T.);
#325=ORIENTED_EDGE('',*,*,#262,.T.);
#326=ORIENTED_EDGE('',*,*,#263,.F.);
#327=ORIENTED_EDGE('',*,*,#264,.T.);
#328=ORIENTED_EDGE('',*,*,#259,.T.);
#329=ORIENTED_EDGE('',*,*,#265,.T.);
#330=ORIENTED_EDGE('',*,*,#266,.F.);
#331=ORIENTED_EDGE('',*,*,#267,.T.);
#332=ORIENTED_EDGE('',*,*,#268,.T.);
#333=ORIENTED_EDGE('',*,*,#269,.T.);
#334=ORIENTED_EDGE('',*,*,#270,.F.);
#335=ORIENTED_EDGE('',*,*,#271,.T.);
#336=ORIENTED_EDGE('',*,*,#266,.T.);
#337=ORIENTED_EDGE('',*,*,#272,.T.);
#338=ORIENTED_EDGE('',*,*,#273,.F.);
#339=ORIENTED_EDGE('',*,*,#274,.T.);
#340=ORIENTED_EDGE('',*,*,#270,.T.);
#341=ORIENTED_EDGE('',*,*,#245,.T.);
#342=ORIENTED_EDGE('',*,*,#248,.T.);
#343=ORIENTED_EDGE('',*,*,#275,.T.);
#344=ORIENTED_EDGE('',*,*,#276,.T.);
#345=ORIENTED_EDGE('',*,*,#277,.T.);
#346=ORIENTED_EDGE('',*,*,#276,.F.);
#347=ORIENTED_EDGE('',*,*,#278,.T.);
#348=ORIENTED_EDGE('',*,*,#279,.T.);
#349=ORIENTED_EDGE('',*,*,#280,.T.);
#350=ORIENTED_EDGE('',*,*,#279,.F.);
#351=ORIENTED_EDGE('',*,*,#281,.T.);
#352=ORIENTED_EDGE('',*,*,#282,.T.);
#353=ORIENTED_EDGE('',*,*,#283,.T.);
#354=ORIENTED_EDGE('',*,*,#282,.F.);
#355=ORIENTED_EDGE('',*,*,#284,.T.);
#356=ORIENTED_EDGE('',*,*,#285,.F.);
#357=ORIENTED_EDGE('',*,*,#286,.T.);
#358=ORIENTED_EDGE('',*,*,#256,.T.);
#359=ORIENTED_EDGE('',*,*,#287,.T.);
#360=ORIENTED_EDGE('',*,*,#254,.F.);
#361=ORIENTED_EDGE('',*,*,#288,.T.);
#362=ORIENTED_EDGE('',*,*,#285,.T.);
#363=ORIENTED_EDGE('',*,*,#250,.T.);
#364=ORIENTED_EDGE('',*,*,#289,.T.);
#365=ORIENTED_EDGE('',*,*,#290,.F.);
#366=ORIENTED_EDGE('',*,*,#291,.T.);
#367=ORIENTED_EDGE('',*,*,#263,.T.);
#368=ORIENTED_EDGE('',*,*,#292,.T.);
#369=ORIENTED_EDGE('',*,*,#261,.F.);
#370=ORIENTED_EDGE('',*,*,#293,.T.);
#371=ORIENTED_EDGE('',*,*,#290,.T.);
#372=ORIENTED_EDGE('',*,*,#247,.T.);
#373=ORIENTED_EDGE('',*,*,#294,.T.);
#374=ORIENTED_EDGE('',*,*,#295,.F.);
#375=ORIENTED_EDGE('',*,*,#296,.T.);
#376=ORIENTED_EDGE('',*,*,#273,.T.);
#377=ORIENTED_EDGE('',*,*,#297,.T.);
#378=ORIENTED_EDGE('',*,*,#298,.F.);
#379=ORIENTED_EDGE('',*,*,#299,.T.);
#380=ORIENTED_EDGE('',*,*,#295,.T.);
#381=ORIENTED_EDGE('',*,*,#300,.T.);
#382=ORIENTED_EDGE('',*,*,#301,.F.);
#383=ORIENTED_EDGE('',*,*,#302,.T.);
#384=ORIENTED_EDGE('',*,*,#298,.T.);
#385=ORIENTED_EDGE('',*,*,#303,.T.);
#386=ORIENTED_EDGE('',*,*,#268,.F.);
#387=ORIENTED_EDGE('',*,*,#304,.T.);
#388=ORIENTED_EDGE('',*,*,#301,.T.);
#389=ORIENTED_EDGE('',*,*,#274,.F.);
#390=ORIENTED_EDGE('',*,*,#296,.F.);
#391=ORIENTED_EDGE('',*,*,#299,.F.);
#392=ORIENTED_EDGE('',*,*,#302,.F.);
#393=ORIENTED_EDGE('',*,*,#304,.F.);
#394=ORIENTED_EDGE('',*,*,#267,.F.);
#395=ORIENTED_EDGE('',*,*,#271,.F.);
#396=ORIENTED_EDGE('',*,*,#264,.F.);
#397=ORIENTED_EDGE('',*,*,#291,.F.);
#398=ORIENTED_EDGE('',*,*,#293,.F.);
#399=ORIENTED_EDGE('',*,*,#260,.F.);
#400=ORIENTED_EDGE('',*,*,#257,.F.);
#401=ORIENTED_EDGE('',*,*,#286,.F.);
#402=ORIENTED_EDGE('',*,*,#288,.F.);
#403=ORIENTED_EDGE('',*,*,#253,.F.);
#404=ORIENTED_EDGE('',*,*,#283,.F.);
#405=ORIENTED_EDGE('',*,*,#280,.F.);
#406=ORIENTED_EDGE('',*,*,#277,.F.);
#407=ORIENTED_EDGE('',*,*,#294,.F.);
#408=ORIENTED_EDGE('',*,*,#272,.F.);
#409=ORIENTED_EDGE('',*,*,#269,.F.);
#410=ORIENTED_EDGE('',*,*,#265,.F.);
#411=ORIENTED_EDGE('',*,*,#303,.F.);
#412=ORIENTED_EDGE('',*,*,#300,.F.);
#413=ORIENTED_EDGE('',*,*,#297,.F.);
#414=ORIENTED_EDGE('',*,*,#275,.F.);
#415=ORIENTED_EDGE('',*,*,#278,.F.);
#416=ORIENTED_EDGE('',*,*,#281,.F.);
#417=ORIENTED_EDGE('',*,*,#284,.F.);
#418=ORIENTED_EDGE('',*,*,#255,.F.);
#419=ORIENTED_EDGE('',*,*,#251,.F.);
#420=ORIENTED_EDGE('',*,*,#287,.F.);
#421=ORIENTED_EDGE('',*,*,#289,.F.);
#422=ORIENTED_EDGE('',*,*,#262,.F.);
#423=ORIENTED_EDGE('',*,*,#258,.F.);
#424=ORIENTED_EDGE('',*,*,#292,.F.);
#425=CYLINDRICAL_SURFACE('',#477,0.086);
#426=CYLINDRICAL_SURFACE('',#480,0.086);
#427=CYLINDRICAL_SURFACE('',#487,0.25);
#428=CYLINDRICAL_SURFACE('',#492,0.0860000000000064);
#429=CYLINDRICAL_SURFACE('',#495,0.0859999999999998);
#430=CYLINDRICAL_SURFACE('',#498,0.0859999999999998);
#431=CYLINDRICAL_SURFACE('',#506,1.);
#432=CYLINDRICAL_SURFACE('',#509,0.25);
#433=ADVANCED_FACE('',(#43),#425,.F.);
#434=ADVANCED_FACE('',(#44),#426,.F.);
#435=ADVANCED_FACE('',(#45),#29,.T.);
#436=ADVANCED_FACE('',(#46),#30,.T.);
#437=ADVANCED_FACE('',(#47),#31,.T.);
#438=ADVANCED_FACE('',(#48),#32,.T.);
#439=ADVANCED_FACE('',(#49),#427,.T.);
#440=ADVANCED_FACE('',(#50),#33,.T.);
#441=ADVANCED_FACE('',(#51,#15,#16),#34,.T.);
#442=ADVANCED_FACE('',(#52),#428,.F.);
#443=ADVANCED_FACE('',(#53),#429,.F.);
#444=ADVANCED_FACE('',(#54),#430,.F.);
#445=ADVANCED_FACE('',(#55),#35,.T.);
#446=ADVANCED_FACE('',(#56,#17),#36,.T.);
#447=ADVANCED_FACE('',(#57),#37,.T.);
#448=ADVANCED_FACE('',(#58,#18),#38,.T.);
#449=ADVANCED_FACE('',(#59),#39,.T.);
#450=ADVANCED_FACE('',(#60),#431,.F.);
#451=ADVANCED_FACE('',(#61),#432,.T.);
#452=ADVANCED_FACE('',(#62),#40,.T.);
#453=ADVANCED_FACE('',(#63,#19,#20,#21,#22,#23),#41,.F.);
#454=ADVANCED_FACE('',(#64,#24,#25,#26,#27,#28),#42,.T.);
#455=CLOSED_SHELL('',(#433,#434,#435,#436,#437,#438,#439,#440,#441,#442,
#443,#444,#445,#446,#447,#448,#449,#450,#451,#452,#453,#454));
#456=DERIVED_UNIT_ELEMENT(#458,1.);
#457=DERIVED_UNIT_ELEMENT(#768,-3.);
#458=(
CONVERSION_BASED_UNIT('gram',#460)
MASS_UNIT()
NAMED_UNIT(#765)
);
#459=(
MASS_UNIT()
NAMED_UNIT(*)
SI_UNIT(.KILO.,.GRAM.)
);
#460=MASS_MEASURE_WITH_UNIT(MASS_MEASURE(0.001),#459);
#461=DERIVED_UNIT((#456,#457));
#462=MEASURE_REPRESENTATION_ITEM('density measure',
POSITIVE_RATIO_MEASURE(0.952),#461);
#463=PROPERTY_DEFINITION_REPRESENTATION(#468,#465);
#464=PROPERTY_DEFINITION_REPRESENTATION(#469,#466);
#465=REPRESENTATION('material name',(#467),#762);
#466=REPRESENTATION('density',(#462),#762);
#467=DESCRIPTIVE_REPRESENTATION_ITEM('Plastic, Opaque Black',
'Plastic, Opaque Black');
#468=PROPERTY_DEFINITION('material property','material name',#776);
#469=PROPERTY_DEFINITION('material property','density of part',#776);
#470=DATE_TIME_ROLE('creation_date');
#471=APPLIED_DATE_AND_TIME_ASSIGNMENT(#472,#470,(#776));
#472=DATE_AND_TIME(#473,#474);
#473=CALENDAR_DATE(2025,14,9);
#474=LOCAL_TIME(0,0,0.,#475);
#475=COORDINATED_UNIVERSAL_TIME_OFFSET(0,0,.BEHIND.);
#476=AXIS2_PLACEMENT_3D('',#637,#515,#516);
#477=AXIS2_PLACEMENT_3D('',#638,#517,#518);
#478=AXIS2_PLACEMENT_3D('',#640,#519,#520);
#479=AXIS2_PLACEMENT_3D('',#643,#522,#523);
#480=AXIS2_PLACEMENT_3D('',#644,#524,#525);
#481=AXIS2_PLACEMENT_3D('',#646,#526,#527);
#482=AXIS2_PLACEMENT_3D('',#649,#529,#530);
#483=AXIS2_PLACEMENT_3D('',#650,#531,#532);
#484=AXIS2_PLACEMENT_3D('',#659,#537,#538);
#485=AXIS2_PLACEMENT_3D('',#665,#542,#543);
#486=AXIS2_PLACEMENT_3D('',#674,#548,#549);
#487=AXIS2_PLACEMENT_3D('',#680,#553,#554);
#488=AXIS2_PLACEMENT_3D('',#683,#555,#556);
#489=AXIS2_PLACEMENT_3D('',#687,#558,#559);
#490=AXIS2_PLACEMENT_3D('',#689,#561,#562);
#491=AXIS2_PLACEMENT_3D('',#695,#566,#567);
#492=AXIS2_PLACEMENT_3D('',#701,#571,#572);
#493=AXIS2_PLACEMENT_3D('',#703,#573,#574);
#494=AXIS2_PLACEMENT_3D('',#706,#576,#577);
#495=AXIS2_PLACEMENT_3D('',#707,#578,#579);
#496=AXIS2_PLACEMENT_3D('',#709,#580,#581);
#497=AXIS2_PLACEMENT_3D('',#712,#583,#584);
#498=AXIS2_PLACEMENT_3D('',#713,#585,#586);
#499=AXIS2_PLACEMENT_3D('',#715,#587,#588);
#500=AXIS2_PLACEMENT_3D('',#718,#590,#591);
#501=AXIS2_PLACEMENT_3D('',#719,#592,#593);
#502=AXIS2_PLACEMENT_3D('',#725,#597,#598);
#503=AXIS2_PLACEMENT_3D('',#728,#601,#602);
#504=AXIS2_PLACEMENT_3D('',#734,#606,#607);
#505=AXIS2_PLACEMENT_3D('',#737,#610,#611);
#506=AXIS2_PLACEMENT_3D('',#743,#615,#616);
#507=AXIS2_PLACEMENT_3D('',#745,#617,#618);
#508=AXIS2_PLACEMENT_3D('',#748,#620,#621);
#509=AXIS2_PLACEMENT_3D('',#749,#622,#623);
#510=AXIS2_PLACEMENT_3D('',#751,#624,#625);
#511=AXIS2_PLACEMENT_3D('',#754,#627,#628);
#512=AXIS2_PLACEMENT_3D('',#755,#629,#630);
#513=AXIS2_PLACEMENT_3D('',#758,#633,#634);
#514=AXIS2_PLACEMENT_3D('',#759,#635,#636);
#515=DIRECTION('axis',(0.,0.,1.));
#516=DIRECTION('refdir',(1.,0.,0.));
#517=DIRECTION('center_axis',(-0.943185802889513,-0.33226576896765,1.66096358014787E-15));
#518=DIRECTION('ref_axis',(2.01739325970512E-15,-7.27770128118557E-16,1.));
#519=DIRECTION('center_axis',(-0.943185802889513,-0.33226576896765,1.66903158546873E-15));
#520=DIRECTION('ref_axis',(2.01739325970512E-15,-7.27770128118557E-16,1.));
#521=DIRECTION('',(-0.943185802889513,-0.33226576896765,1.66096358014787E-15));
#522=DIRECTION('center_axis',(0.943185802889513,0.332265768967653,-1.66903158546873E-15));
#523=DIRECTION('ref_axis',(2.01739325970512E-15,-7.27770128118557E-16,1.));
#524=DIRECTION('center_axis',(-0.943185802889513,-0.33226576896765,1.66096358014787E-15));
#525=DIRECTION('ref_axis',(2.01739325970512E-15,-7.27770128118557E-16,1.));
#526=DIRECTION('center_axis',(-0.943185802889513,-0.33226576896765,1.66903158546873E-15));
#527=DIRECTION('ref_axis',(2.01739325970512E-15,-7.27770128118557E-16,1.));
#528=DIRECTION('',(-0.943185802889513,-0.33226576896765,1.66096358014787E-15));
#529=DIRECTION('center_axis',(0.943185802889513,0.332265768967652,-1.66903158546873E-15));
#530=DIRECTION('ref_axis',(2.01739325970512E-15,-7.27770128118557E-16,1.));
#531=DIRECTION('center_axis',(-0.332265768967652,0.943185802889513,1.57660647611383E-15));
#532=DIRECTION('ref_axis',(0.943185802889513,0.332265768967652,-1.5592875394198E-15));
#533=DIRECTION('',(-0.943185802889513,-0.332265768967652,1.16920676950613E-14));
#534=DIRECTION('',(-2.09805925913362E-15,9.32470781837166E-16,-1.));
#535=DIRECTION('',(0.943185802889513,0.332265768967652,-1.5592875394198E-15));
#536=DIRECTION('',(-2.09805925913362E-15,9.32470781837166E-16,-1.));
#537=DIRECTION('center_axis',(0.943185802889513,0.332265768967652,-1.66903158546873E-15));
#538=DIRECTION('ref_axis',(0.332265768967652,-0.943185802889513,-1.71855044197574E-15));
#539=DIRECTION('',(-0.332265768967652,0.943185802889513,-1.08445841074735E-14));
#540=DIRECTION('',(-2.09805925913362E-15,9.32470781837166E-16,-1.));
#541=DIRECTION('',(0.332265768967652,-0.943185802889513,-1.71855044197574E-15));
#542=DIRECTION('center_axis',(-0.332265768967652,0.943185802889513,1.57660647611383E-15));
#543=DIRECTION('ref_axis',(0.943185802889513,0.332265768967652,-1.5592875394198E-15));
#544=DIRECTION('',(-0.943185802889513,-0.332265768967652,1.16920676950613E-14));
#545=DIRECTION('',(-2.09805925913362E-15,9.32470781837166E-16,-1.));
#546=DIRECTION('',(0.943185802889513,0.332265768967652,-1.5592875394198E-15));
#547=DIRECTION('',(-2.09805925913362E-15,9.32470781837166E-16,-1.));
#548=DIRECTION('center_axis',(0.943185802889512,0.332265768967654,-1.66903158546873E-15));
#549=DIRECTION('ref_axis',(0.332265768967654,-0.943185802889512,-1.71855044197574E-15));
#550=DIRECTION('',(-0.332265768967654,0.943185802889512,-1.08445841074735E-14));
#551=DIRECTION('',(-2.09805925913362E-15,9.32470781837166E-16,-1.));
#552=DIRECTION('',(0.332265768967654,-0.943185802889512,-1.71855044197574E-15));
#553=DIRECTION('center_axis',(-2.09805925913362E-15,9.32470781837166E-16,
-1.));
#554=DIRECTION('ref_axis',(0.0817279533395607,-0.99665467522253,-1.10082145346052E-15));
#555=DIRECTION('center_axis',(7.42450817880087E-15,1.41133316319316E-14,
1.));
#556=DIRECTION('ref_axis',(0.0817279533395607,-0.99665467522253,-1.10082145346052E-15));
#557=DIRECTION('',(-2.09805925913362E-15,9.32470781837166E-16,-1.));
#558=DIRECTION('center_axis',(-2.04171335391605E-15,1.10281450509402E-15,
-1.));
#559=DIRECTION('ref_axis',(0.0817279533395607,-0.99665467522253,-1.26599028612678E-15));
#560=DIRECTION('',(-2.09805925913362E-15,9.32470781837166E-16,-1.));
#561=DIRECTION('center_axis',(0.0817279533395605,-0.99665467522253,-1.10082145346052E-15));
#562=DIRECTION('ref_axis',(-0.99665467522253,-0.0817279533395605,1.94475238723019E-15));
#563=DIRECTION('',(0.99665467522253,0.0817279533395605,-8.55312449671005E-15));
#564=DIRECTION('',(-2.09805925913362E-15,9.32470781837166E-16,-1.));
#565=DIRECTION('',(-0.99665467522253,-0.0817279533395605,1.94475238723019E-15));
#566=DIRECTION('center_axis',(0.943185802889513,0.33226576896765,-1.66903158546873E-15));
#567=DIRECTION('ref_axis',(0.33226576896765,-0.943185802889513,-1.71855044197574E-15));
#568=DIRECTION('',(-0.33226576896765,0.943185802889513,-1.08445841074735E-14));
#569=DIRECTION('',(-2.09805925913362E-15,9.32470781837166E-16,-1.));
#570=DIRECTION('',(0.33226576896765,-0.943185802889513,-1.71855044197574E-15));
#571=DIRECTION('center_axis',(-2.09805925913362E-15,9.32470781837166E-16,
-1.));
#572=DIRECTION('ref_axis',(0.239008633313882,0.971017442274561,4.03991117438221E-16));
#573=DIRECTION('center_axis',(-7.42450817880087E-15,-1.41133316319316E-14,
-1.));
#574=DIRECTION('ref_axis',(0.239008633313882,0.971017442274561,4.03991117438221E-16));
#575=DIRECTION('',(2.09805925913362E-15,-9.32470781837166E-16,1.));
#576=DIRECTION('center_axis',(2.04171335391605E-15,-1.10281450509402E-15,
1.));
#577=DIRECTION('ref_axis',(0.239008633313882,0.971017442274561,5.82865001701501E-16));
#578=DIRECTION('center_axis',(-2.09805925913362E-15,9.32470781837166E-16,
-1.));
#579=DIRECTION('ref_axis',(0.239008633313882,0.971017442274561,4.03991117438221E-16));
#580=DIRECTION('center_axis',(-7.42450817880087E-15,-1.41133316319316E-14,
-1.));
#581=DIRECTION('ref_axis',(0.239008633313882,0.971017442274561,4.03991117438221E-16));
#582=DIRECTION('',(2.09805925913362E-15,-9.32470781837166E-16,1.));
#583=DIRECTION('center_axis',(2.04171335391605E-15,-1.10281450509402E-15,
1.));
#584=DIRECTION('ref_axis',(0.239008633313882,0.971017442274561,5.82865001701501E-16));
#585=DIRECTION('center_axis',(-2.09805925913362E-15,9.32470781837166E-16,
-1.));
#586=DIRECTION('ref_axis',(0.239008633313882,0.971017442274561,4.03991117438221E-16));
#587=DIRECTION('center_axis',(-7.42450817880087E-15,-1.41133316319316E-14,
-1.));
#588=DIRECTION('ref_axis',(0.239008633313882,0.971017442274561,4.03991117438221E-16));
#589=DIRECTION('',(2.09805925913362E-15,-9.32470781837166E-16,1.));
#590=DIRECTION('center_axis',(2.04171335391605E-15,-1.10281450509402E-15,
1.));
#591=DIRECTION('ref_axis',(0.239008633313882,0.971017442274561,5.82865001701501E-16));
#592=DIRECTION('center_axis',(0.332265768967651,-0.943185802889513,-1.57660647611383E-15));
#593=DIRECTION('ref_axis',(-0.943185802889513,-0.332265768967651,1.5592875394198E-15));
#594=DIRECTION('',(0.943185802889513,0.332265768967651,-1.16920676950613E-14));
#595=DIRECTION('',(-2.09805925913362E-15,9.32470781837166E-16,-1.));
#596=DIRECTION('',(-0.943185802889513,-0.332265768967651,1.5592875394198E-15));
#597=DIRECTION('center_axis',(-0.943185802889513,-0.332265768967652,1.66903158546873E-15));
#598=DIRECTION('ref_axis',(-0.332265768967652,0.943185802889513,1.71855044197574E-15));
#599=DIRECTION('',(0.332265768967652,-0.943185802889513,1.08445841074735E-14));
#600=DIRECTION('',(-0.332265768967652,0.943185802889513,1.71855044197574E-15));
#601=DIRECTION('center_axis',(0.332265768967653,-0.943185802889513,-1.57660647611384E-15));
#602=DIRECTION('ref_axis',(-0.943185802889513,-0.332265768967653,1.5592875394198E-15));
#603=DIRECTION('',(0.943185802889513,0.332265768967653,-1.16920676950613E-14));
#604=DIRECTION('',(-2.09805925913362E-15,9.32470781837166E-16,-1.));
#605=DIRECTION('',(-0.943185802889513,-0.332265768967653,1.5592875394198E-15));
#606=DIRECTION('center_axis',(-0.943185802889513,-0.332265768967653,1.66903158546873E-15));
#607=DIRECTION('ref_axis',(-0.332265768967653,0.943185802889513,1.71855044197574E-15));
#608=DIRECTION('',(0.332265768967653,-0.943185802889513,1.08445841074735E-14));
#609=DIRECTION('',(-0.332265768967653,0.943185802889513,1.71855044197574E-15));
#610=DIRECTION('center_axis',(-0.332265768967652,0.943185802889513,1.57660647611383E-15));
#611=DIRECTION('ref_axis',(0.943185802889513,0.332265768967652,-1.5592875394198E-15));
#612=DIRECTION('',(-0.943185802889513,-0.332265768967652,1.16920676950613E-14));
#613=DIRECTION('',(-2.09805925913362E-15,9.32470781837166E-16,-1.));
#614=DIRECTION('',(0.943185802889513,0.332265768967652,-1.5592875394198E-15));
#615=DIRECTION('center_axis',(-2.09805925913362E-15,9.32470781837166E-16,
-1.));
#616=DIRECTION('ref_axis',(-0.332265768967652,0.943185802889513,1.57660647611383E-15));
#617=DIRECTION('center_axis',(-7.42450817880087E-15,-1.41133316319316E-14,
-1.));
#618=DIRECTION('ref_axis',(-0.332265768967652,0.943185802889513,1.57660647611383E-15));
#619=DIRECTION('',(-2.09805925913362E-15,9.32470781837166E-16,-1.));
#620=DIRECTION('center_axis',(2.04171335391605E-15,-1.10281450509402E-15,
1.));
#621=DIRECTION('ref_axis',(-0.332265768967652,0.943185802889513,1.71855044197574E-15));
#622=DIRECTION('center_axis',(-2.09805925913362E-15,9.32470781837166E-16,
-1.));
#623=DIRECTION('ref_axis',(-0.971017442274561,0.239008633313883,2.26012070271642E-15));
#624=DIRECTION('center_axis',(7.42450817880087E-15,1.41133316319316E-14,
1.));
#625=DIRECTION('ref_axis',(-0.971017442274561,0.239008633313883,2.26012070271642E-15));
#626=DIRECTION('',(-2.09805925913362E-15,9.32470781837166E-16,-1.));
#627=DIRECTION('center_axis',(-2.04171335391605E-15,1.10281450509402E-15,
-1.));
#628=DIRECTION('ref_axis',(-0.971017442274561,0.239008633313883,2.24612146643862E-15));
#629=DIRECTION('center_axis',(-0.971017442274561,0.239008633313882,2.26012070271642E-15));
#630=DIRECTION('ref_axis',(0.239008633313882,0.971017442274561,5.82865001701501E-16));
#631=DIRECTION('',(-0.239008633313882,-0.971017442274561,1.54788127360539E-14));
#632=DIRECTION('',(0.239008633313882,0.971017442274561,5.82865001701501E-16));
#633=DIRECTION('center_axis',(-2.04171335391605E-15,1.10281450509402E-15,
-1.));
#634=DIRECTION('ref_axis',(-1.,0.,2.04171335391605E-15));
#635=DIRECTION('center_axis',(-7.42450817880087E-15,-1.41133316319316E-14,
-1.));
#636=DIRECTION('ref_axis',(-1.,0.,7.42450817880087E-15));
#637=CARTESIAN_POINT('',(0.,0.,0.));
#638=CARTESIAN_POINT('Origin',(0.99417691949512,-2.9135031720999,-0.358499992952321));
#639=CARTESIAN_POINT('',(0.99417691949512,-2.9135031720999,-0.444499992952321));
#640=CARTESIAN_POINT('Origin',(0.99417691949512,-2.9135031720999,-0.358499992952321));
#641=CARTESIAN_POINT('',(0.669956799751833,-3.02771953018254,-0.444499992952321));
#642=CARTESIAN_POINT('',(0.99417691949512,-2.9135031720999,-0.444499992952321));
#643=CARTESIAN_POINT('Origin',(0.669956799751833,-3.02771953018254,-0.358499992952321));
#644=CARTESIAN_POINT('Origin',(0.828044035011295,-2.44191027065515,-0.35849999295232));
#645=CARTESIAN_POINT('',(0.828044035011295,-2.44191027065515,-0.44449999295232));
#646=CARTESIAN_POINT('Origin',(0.828044035011295,-2.44191027065515,-0.35849999295232));
#647=CARTESIAN_POINT('',(0.503823915268006,-2.55612662873778,-0.44449999295232));
#648=CARTESIAN_POINT('',(0.828044035011295,-2.44191027065515,-0.44449999295232));
#649=CARTESIAN_POINT('Origin',(0.503823915268007,-2.55612662873778,-0.35849999295232));
#650=CARTESIAN_POINT('Origin',(0.323681980847711,-2.79717669296369,-0.0625000000000047));
#651=CARTESIAN_POINT('',(0.559478431570088,-2.71411025072178,-0.562500000000018));
#652=CARTESIAN_POINT('',(0.32368198084771,-2.79717669296369,-0.562500000000015));
#653=CARTESIAN_POINT('',(0.0703732678707712,-2.88641236004609,-0.562500000000012));
#654=CARTESIAN_POINT('',(0.323681980847711,-2.79717669296369,-0.0625000000000047));
#655=CARTESIAN_POINT('',(0.323681980847711,-2.79717669296369,-0.0625000000000047));
#656=CARTESIAN_POINT('',(0.559478431570089,-2.71411025072178,-0.0625000000000051));
#657=CARTESIAN_POINT('',(0.323681980847711,-2.79717669296369,-0.0625000000000047));
#658=CARTESIAN_POINT('',(0.559478431570089,-2.71411025072178,-0.0625000000000051));
#659=CARTESIAN_POINT('Origin',(0.212372948243548,-2.48120944899571,-0.0625000000000041));
#660=CARTESIAN_POINT('',(0.212372948243547,-2.48120944899571,-0.562500000000018));
#661=CARTESIAN_POINT('',(0.239727270373315,-2.55885876075185,-0.562500000000017));
#662=CARTESIAN_POINT('',(0.212372948243548,-2.48120944899571,-0.0625000000000041));
#663=CARTESIAN_POINT('',(0.212372948243548,-2.48120944899571,-0.0625000000000041));
#664=CARTESIAN_POINT('',(0.212372948243548,-2.48120944899571,-0.0625000000000041));
#665=CARTESIAN_POINT('Origin',(0.489814865331538,-3.26876959440845,-0.0625000000000056));
#666=CARTESIAN_POINT('',(0.725611316053915,-3.18570315216653,-0.562500000000012));
#667=CARTESIAN_POINT('',(0.489814865331537,-3.26876959440845,-0.562500000000009));
#668=CARTESIAN_POINT('',(0.236506152354598,-3.35800526149084,-0.562500000000006));
#669=CARTESIAN_POINT('',(0.489814865331538,-3.26876959440845,-0.0625000000000056));
#670=CARTESIAN_POINT('',(0.489814865331538,-3.26876959440845,-0.0625000000000056));
#671=CARTESIAN_POINT('',(0.725611316053916,-3.18570315216654,-0.062500000000006));
#672=CARTESIAN_POINT('',(0.489814865331538,-3.26876959440845,-0.0625000000000056));
#673=CARTESIAN_POINT('',(0.725611316053916,-3.18570315216654,-0.062500000000006));
#674=CARTESIAN_POINT('Origin',(0.378505832727374,-2.95280235044046,-0.062500000000005));
#675=CARTESIAN_POINT('',(0.378505832727373,-2.95280235044046,-0.562500000000013));
#676=CARTESIAN_POINT('',(0.322793712615228,-2.79465521147423,-0.562500000000015));
#677=CARTESIAN_POINT('',(0.378505832727374,-2.95280235044046,-0.062500000000005));
#678=CARTESIAN_POINT('',(0.378505832727374,-2.95280235044046,-0.062500000000005));
#679=CARTESIAN_POINT('',(0.378505832727374,-2.95280235044046,-0.062500000000005));
#680=CARTESIAN_POINT('Origin',(-1.41687920977345,-3.42590360285547,-0.0625000000000018));
#681=CARTESIAN_POINT('',(-1.65963357034209,-3.36615144452699,-0.562499999999992));
#682=CARTESIAN_POINT('',(-1.39644722143856,-3.6750672716611,-0.56249999999999));
#683=CARTESIAN_POINT('Origin',(-1.41687920977345,-3.42590360285547,-0.562500000000008));
#684=CARTESIAN_POINT('',(-1.39644722143856,-3.6750672716611,-0.0625000000000022));
#685=CARTESIAN_POINT('',(-1.39644722143856,-3.6750672716611,-0.0625000000000022));
#686=CARTESIAN_POINT('',(-1.65963357034209,-3.366151444527,-0.0625000000000013));
#687=CARTESIAN_POINT('Origin',(-1.41687920977345,-3.42590360285547,-0.0625000000000018));
#688=CARTESIAN_POINT('',(-1.65963357034209,-3.366151444527,-0.0625000000000013));
#689=CARTESIAN_POINT('Origin',(1.18780754287187,-3.4631524951133,-0.0625000000000072));
#690=CARTESIAN_POINT('',(1.18780754287187,-3.4631524951133,-0.562500000000012));
#691=CARTESIAN_POINT('',(0.505301117613158,-3.51911957645473,-0.562500000000006));
#692=CARTESIAN_POINT('',(1.18780754287187,-3.4631524951133,-0.0625000000000072));
#693=CARTESIAN_POINT('',(1.18780754287187,-3.4631524951133,-0.0625000000000072));
#694=CARTESIAN_POINT('',(1.18780754287187,-3.4631524951133,-0.0625000000000072));
#695=CARTESIAN_POINT('Origin',(0.656182312523628,-1.95405521049008,-0.0625000000000045));
#696=CARTESIAN_POINT('',(0.656182312523627,-1.95405521049008,-0.562500000000029));
#697=CARTESIAN_POINT('',(0.741640237746189,-2.19664024133676,-0.562500000000026));
#698=CARTESIAN_POINT('',(0.656182312523628,-1.95405521049008,-0.0625000000000045));
#699=CARTESIAN_POINT('',(0.656182312523628,-1.95405521049008,-0.0625000000000045));
#700=CARTESIAN_POINT('',(0.656182312523628,-1.95405521049008,-0.0625000000000045));
#701=CARTESIAN_POINT('Origin',(-1.297374893622,-2.94039488377192,-0.0625000000000016));
#702=CARTESIAN_POINT('',(-1.31792963608699,-3.02390238380754,-0.562500000000008));
#703=CARTESIAN_POINT('Origin',(-1.297374893622,-2.94039488377192,-0.562500000000008));
#704=CARTESIAN_POINT('',(-1.31792963608699,-3.02390238380754,-0.0625000000000016));
#705=CARTESIAN_POINT('',(-1.31792963608699,-3.02390238380754,-0.0625000000000016));
#706=CARTESIAN_POINT('Origin',(-1.297374893622,-2.94039488377192,-0.0625000000000016));
#707=CARTESIAN_POINT('Origin',(-1.41687920977345,-3.42590360285547,-0.0625000000000018));
#708=CARTESIAN_POINT('',(-1.43743395223844,-3.50941110289108,-0.562500000000008));
#709=CARTESIAN_POINT('Origin',(-1.41687920977345,-3.42590360285547,-0.562500000000008));
#710=CARTESIAN_POINT('',(-1.43743395223844,-3.50941110289108,-0.0625000000000019));
#711=CARTESIAN_POINT('',(-1.43743395223844,-3.50941110289108,-0.0625000000000019));
#712=CARTESIAN_POINT('Origin',(-1.41687920977345,-3.42590360285547,-0.0625000000000018));
#713=CARTESIAN_POINT('Origin',(-1.17787057645957,-2.45488616058091,-0.0625000000000013));
#714=CARTESIAN_POINT('',(-1.19842531892456,-2.53839366061652,-0.562500000000008));
#715=CARTESIAN_POINT('Origin',(-1.17787057645957,-2.45488616058091,-0.562500000000008));
#716=CARTESIAN_POINT('',(-1.19842531892456,-2.53839366061652,-0.0625000000000013));
#717=CARTESIAN_POINT('',(-1.19842531892456,-2.53839366061652,-0.0625000000000013));
#718=CARTESIAN_POINT('Origin',(-1.17787057645957,-2.45488616058091,-0.0625000000000013));
#719=CARTESIAN_POINT('Origin',(0.448169398965926,-2.39814300675379,-0.0625000000000045));
#720=CARTESIAN_POINT('',(0.448169398965925,-2.39814300675379,-0.562500000000021));
#721=CARTESIAN_POINT('',(0.0769624606277969,-2.52891189495714,-0.562500000000017));
#722=CARTESIAN_POINT('',(0.448169398965926,-2.39814300675379,-0.0625000000000045));
#723=CARTESIAN_POINT('',(0.448169398965926,-2.39814300675379,-0.0625000000000045));
#724=CARTESIAN_POINT('',(0.448169398965926,-2.39814300675379,-0.0625000000000045));
#725=CARTESIAN_POINT('Origin',(0.559478431570089,-2.71411025072178,-0.0625000000000051));
#726=CARTESIAN_POINT('',(0.531178237397775,-2.63377594049393,-0.562500000000018));
#727=CARTESIAN_POINT('',(0.559478431570089,-2.71411025072178,-0.0625000000000051));
#728=CARTESIAN_POINT('Origin',(0.614302283449752,-2.86973590819855,-0.0625000000000054));
#729=CARTESIAN_POINT('',(0.614302283449751,-2.86973590819855,-0.562500000000016));
#730=CARTESIAN_POINT('',(0.243095345111623,-3.0005047964019,-0.562500000000011));
#731=CARTESIAN_POINT('',(0.614302283449752,-2.86973590819855,-0.0625000000000054));
#732=CARTESIAN_POINT('',(0.614302283449752,-2.86973590819855,-0.0625000000000054));
#733=CARTESIAN_POINT('',(0.614302283449752,-2.86973590819855,-0.0625000000000054));
#734=CARTESIAN_POINT('Origin',(0.725611316053916,-3.18570315216654,-0.062500000000006));
#735=CARTESIAN_POINT('',(0.614244679639688,-2.86957239121631,-0.562500000000016));
#736=CARTESIAN_POINT('',(0.725611316053916,-3.18570315216654,-0.062500000000006));
#737=CARTESIAN_POINT('Origin',(-0.279421429294861,-2.28364996877839,-0.0625000000000029));
#738=CARTESIAN_POINT('',(-0.279421429294862,-2.28364996877839,-0.562500000000017));
#739=CARTESIAN_POINT('',(-0.34493655659539,-2.3067296568789,-0.562500000000017));
#740=CARTESIAN_POINT('',(-0.279421429294861,-2.28364996877839,-0.0625000000000029));
#741=CARTESIAN_POINT('',(-0.279421429294861,-2.28364996877839,-0.0625000000000029));
#742=CARTESIAN_POINT('',(-0.279421429294861,-2.28364996877839,-0.0625000000000029));
#743=CARTESIAN_POINT('Origin',(-0.611687198262513,-1.34046416588887,-0.0625000000000012));
#744=CARTESIAN_POINT('',(-1.06463390082016,-2.2320017616425,-0.562500000000012));
#745=CARTESIAN_POINT('Origin',(-0.611687198262514,-1.34046416588887,-0.562500000000008));
#746=CARTESIAN_POINT('',(-1.06463390082016,-2.2320017616425,-0.0625000000000012));
#747=CARTESIAN_POINT('',(-1.06463390082016,-2.2320017616425,-0.0625000000000012));
#748=CARTESIAN_POINT('Origin',(-0.611687198262513,-1.34046416588887,-0.0625000000000012));
#749=CARTESIAN_POINT('Origin',(-1.17787057645957,-2.45488616058091,-0.0625000000000013));
#750=CARTESIAN_POINT('',(-1.42062493702821,-2.39513400225244,-0.562500000000007));
#751=CARTESIAN_POINT('Origin',(-1.17787057645957,-2.45488616058091,-0.562500000000008));
#752=CARTESIAN_POINT('',(-1.42062493702821,-2.39513400225244,-0.0625000000000007));
#753=CARTESIAN_POINT('',(-1.42062493702821,-2.39513400225244,-0.0625000000000007));
#754=CARTESIAN_POINT('Origin',(-1.17787057645957,-2.45488616058091,-0.0625000000000013));
#755=CARTESIAN_POINT('Origin',(-1.65963357034209,-3.366151444527,-0.0625000000000013));
#756=CARTESIAN_POINT('',(-1.55511350777142,-2.9415190686309,-0.562499999999999));
#757=CARTESIAN_POINT('',(-1.65963357034209,-3.366151444527,-0.0625000000000013));
#758=CARTESIAN_POINT('Origin',(-0.239535833450791,-2.81497940667277,-0.0625000000000036));
#759=CARTESIAN_POINT('Origin',(-0.239535833450792,-2.81497940667277,-0.56250000000001));
#760=UNCERTAINTY_MEASURE_WITH_UNIT(LENGTH_MEASURE(0.000393700787401575),
#766,'DISTANCE_ACCURACY_VALUE',
'Maximum model space distance between geometric entities at asserted c
onnectivities');
#761=UNCERTAINTY_MEASURE_WITH_UNIT(LENGTH_MEASURE(0.000393700787401575),
#766,'DISTANCE_ACCURACY_VALUE',
'Maximum model space distance between geometric entities at asserted c
onnectivities');
#762=(
GEOMETRIC_REPRESENTATION_CONTEXT(3)
GLOBAL_UNCERTAINTY_ASSIGNED_CONTEXT((#760))
GLOBAL_UNIT_ASSIGNED_CONTEXT((#766,#770,#771))
REPRESENTATION_CONTEXT('','3D')
);
#763=(
GEOMETRIC_REPRESENTATION_CONTEXT(3)
GLOBAL_UNCERTAINTY_ASSIGNED_CONTEXT((#761))
GLOBAL_UNIT_ASSIGNED_CONTEXT((#766,#770,#771))
REPRESENTATION_CONTEXT('','3D')
);
#764=DIMENSIONAL_EXPONENTS(1.,0.,0.,0.,0.,0.,0.);
#765=DIMENSIONAL_EXPONENTS(0.,1.,0.,0.,0.,0.,0.);
#766=(
CONVERSION_BASED_UNIT('inch',#769)
LENGTH_UNIT()
NAMED_UNIT(#764)
);
#767=(
LENGTH_UNIT()
NAMED_UNIT(*)
SI_UNIT(.MILLI.,.METRE.)
);
#768=(
LENGTH_UNIT()
NAMED_UNIT(*)
SI_UNIT(.CENTI.,.METRE.)
);
#769=LENGTH_MEASURE_WITH_UNIT(LENGTH_MEASURE(25.4),#767);
#770=(
NAMED_UNIT(*)
PLANE_ANGLE_UNIT()
SI_UNIT($,.RADIAN.)
);
#771=(
NAMED_UNIT(*)
SI_UNIT($,.STERADIAN.)
SOLID_ANGLE_UNIT()
);
#772=SHAPE_DEFINITION_REPRESENTATION(#773,#774);
#773=PRODUCT_DEFINITION_SHAPE('',$,#776);
#774=SHAPE_REPRESENTATION('',(#476),#762);
#775=PRODUCT_DEFINITION_CONTEXT('part definition',#780,'design');
#776=PRODUCT_DEFINITION('AngleSupport','AngleSupport',#777,#775);
#777=PRODUCT_DEFINITION_FORMATION('',$,#782);
#778=PRODUCT_RELATED_PRODUCT_CATEGORY('AngleSupport','AngleSupport',(#782));
#779=APPLICATION_PROTOCOL_DEFINITION('international standard',
'automotive_design',2009,#780);
#780=APPLICATION_CONTEXT(
'Core Data for Automotive Mechanical Design Process');
#781=PRODUCT_CONTEXT('part definition',#780,'mechanical');
#782=PRODUCT('AngleSupport','AngleSupport',$,(#781));
#783=PRESENTATION_STYLE_ASSIGNMENT((#784));
#784=SURFACE_STYLE_USAGE(.BOTH.,#787);
#785=SURFACE_STYLE_RENDERING_WITH_PROPERTIES($,#791,(#786));
#786=SURFACE_STYLE_TRANSPARENT(0.);
#787=SURFACE_SIDE_STYLE('',(#788,#785));
#788=SURFACE_STYLE_FILL_AREA(#789);
#789=FILL_AREA_STYLE('',(#790));
#790=FILL_AREA_STYLE_COLOUR('',#791);
#791=COLOUR_RGB('',0.0196078431372549,0.0196078431372549,0.0196078431372549);
ENDSEC;
END-ISO-10303-21;
