ISO-10303-21;
HEADER;
/* Generated by software containing ST-Developer
 * from STEP Tools, Inc. (www.steptools.com) 
 */

FILE_DESCRIPTION(
/* description */ (''),
/* implementation_level */ '2;1');

FILE_NAME(
/* name */ 'OdomRight.stp',
/* time_stamp */ '2025-10-05T01:32:32-04:00',
/* author */ ('Teddy'),
/* organization */ (''),
/* preprocessor_version */ 'ST-DEVELOPER v20.1',
/* originating_system */ 'Autodesk Inventor 2026',
/* authorisation */ '');

FILE_SCHEMA (('AUTOMOTIVE_DESIGN { 1 0 10303 214 3 1 1 }'));
ENDSEC;

DATA;
#10=MECHANICAL_DESIGN_GEOMETRIC_PRESENTATION_REPRESENTATION('',(#13),#1706);
#11=SHAPE_REPRESENTATION_RELATIONSHIP('SRR','None',#1717,#12);
#12=ADVANCED_BREP_SHAPE_REPRESENTATION('',(#14),#1705);
#13=STYLED_ITEM('',(#1726),#14);
#14=MANIFOLD_SOLID_BREP('Solid3',#922);
#15=TOROIDAL_SURFACE('',#1022,0.25,0.125);
#16=B_SPLINE_CURVE_WITH_KNOTS('',3,(#1399,#1400,#1401,#1402,#1403,#1404,
#1405,#1406,#1407,#1408),.UNSPECIFIED.,.F.,.F.,(4,2,2,2,4),(0.787969859847957,
0.839218112424941,0.95910908256765,1.07900005271036,1.13024830528734),
 .UNSPECIFIED.);
#17=B_SPLINE_CURVE_WITH_KNOTS('',3,(#1415,#1416,#1417,#1418,#1419,#1420,
#1421,#1422,#1423,#1424,#1425,#1426,#1427,#1428),.UNSPECIFIED.,.F.,.F.,
(4,2,2,2,2,2,4),(0.824611702618043,0.894060226965352,0.957030808844404,
1.02000139072346,1.09158018215782,1.16315897359218,1.30631655646091),
 .UNSPECIFIED.);
#18=B_SPLINE_CURVE_WITH_KNOTS('',3,(#1461,#1462,#1463,#1464,#1465,#1466,
#1467,#1468,#1469,#1470,#1471,#1472,#1473,#1474),.UNSPECIFIED.,.F.,.F.,
(4,2,2,2,2,2,4),(-0.583809370509774,-0.485905434377973,-0.372551425095492,
-0.226108853297466,-0.114048088367022,0.,0.000911681646780353),
 .UNSPECIFIED.);
#19=B_SPLINE_CURVE_WITH_KNOTS('',3,(#1552,#1553,#1554,#1555,#1556,#1557,
#1558,#1559,#1560,#1561,#1562,#1563,#1564,#1565),.UNSPECIFIED.,.F.,.F.,
(4,2,2,2,2,2,4),(0.,0.143157582868726,0.21473637430309,0.286315165737453,
0.349285747616505,0.412256329495556,0.481704853842866),.UNSPECIFIED.);
#20=B_SPLINE_CURVE_WITH_KNOTS('',3,(#1575,#1576,#1577,#1578,#1579,#1580,
#1581,#1582,#1583,#1584,#1585,#1586,#1587,#1588,#1589,#1590,#1591,#1592,
#1593,#1594,#1595,#1596,#1597,#1598,#1599,#1600,#1601,#1602,#1603,#1604,
#1605,#1606,#1607,#1608),.UNSPECIFIED.,.T.,.F.,(4,2,2,2,2,2,2,2,2,2,2,2,
2,2,2,2,4),(0.,0.0865776514256397,0.173155302851279,0.258607460870538,0.344059618889796,
0.429511776909054,0.514963934928313,0.601541586353952,0.688119237779592,
0.774696889205232,0.861274540630872,0.94672669865013,1.03217885666939,1.11763101468865,
1.2030831727079,1.28966082413354,1.37623847555919),.UNSPECIFIED.);
#21=B_SPLINE_CURVE_WITH_KNOTS('',3,(#1610,#1611,#1612,#1613,#1614,#1615,
#1616,#1617,#1618,#1619,#1620,#1621,#1622,#1623,#1624,#1625,#1626,#1627,
#1628,#1629,#1630,#1631,#1632,#1633,#1634,#1635,#1636,#1637,#1638,#1639,
#1640,#1641,#1642,#1643),.UNSPECIFIED.,.T.,.F.,(4,2,2,2,2,2,2,2,2,2,2,2,
2,2,2,2,4),(0.,0.0913160532599306,0.182632106519861,0.272426026267276,0.362219946014691,
0.452013865762106,0.541807785509521,0.633123838769451,0.724439892029382,
0.815755945289312,0.907071998549243,0.996865918296658,1.08665983804407,
1.17645375779149,1.2662476775389,1.35756373079883,1.44887978405876),
 .UNSPECIFIED.);
#22=B_SPLINE_CURVE_WITH_KNOTS('',3,(#1645,#1646,#1647,#1648,#1649,#1650,
#1651,#1652,#1653,#1654,#1655,#1656,#1657,#1658,#1659,#1660,#1661,#1662,
#1663,#1664,#1665,#1666,#1667,#1668,#1669,#1670,#1671,#1672,#1673,#1674,
#1675,#1676,#1677,#1678),.UNSPECIFIED.,.T.,.F.,(4,2,2,2,2,2,2,2,2,2,2,2,
2,2,2,2,4),(0.,0.0913160532599309,0.182632106519862,0.272426026267277,0.362219946014692,
0.452013865762107,0.541807785509522,0.633123838769453,0.724439892029384,
0.815755945289314,0.907071998549244,0.996865918296659,1.08665983804407,
1.17645375779149,1.2662476775389,1.35756373079883,1.44887978405876),
 .UNSPECIFIED.);
#23=B_SPLINE_CURVE_WITH_KNOTS('',3,(#1682,#1683,#1684,#1685,#1686,#1687,
#1688,#1689,#1690,#1691,#1692,#1693,#1694,#1695),.UNSPECIFIED.,.F.,.F.,
(4,2,2,2,2,2,4),(-0.528378323409564,-0.527554489859807,-0.424495881834378,
-0.323233102127995,-0.190901488143219,-0.0884700789169759,0.),
 .UNSPECIFIED.);
#24=CYLINDRICAL_SURFACE('',#959,0.125000000000001);
#25=CYLINDRICAL_SURFACE('',#968,0.125);
#26=CYLINDRICAL_SURFACE('',#971,0.125);
#27=CYLINDRICAL_SURFACE('',#973,0.125);
#28=CYLINDRICAL_SURFACE('',#975,0.683421719803486);
#29=CYLINDRICAL_SURFACE('',#977,0.125);
#30=CYLINDRICAL_SURFACE('',#981,0.250000000000024);
#31=CYLINDRICAL_SURFACE('',#986,0.125);
#32=CYLINDRICAL_SURFACE('',#989,0.125);
#33=CYLINDRICAL_SURFACE('',#995,0.125);
#34=CYLINDRICAL_SURFACE('',#1010,0.09);
#35=CYLINDRICAL_SURFACE('',#1011,0.082);
#36=CYLINDRICAL_SURFACE('',#1012,0.082);
#37=CYLINDRICAL_SURFACE('',#1013,0.125000000000001);
#38=CYLINDRICAL_SURFACE('',#1014,0.09);
#39=CYLINDRICAL_SURFACE('',#1016,0.125);
#40=CYLINDRICAL_SURFACE('',#1017,0.125);
#41=CYLINDRICAL_SURFACE('',#1019,0.125);
#42=CYLINDRICAL_SURFACE('',#1023,0.125);
#43=CYLINDRICAL_SURFACE('',#1024,0.09);
#44=CYLINDRICAL_SURFACE('',#1025,0.09);
#45=CYLINDRICAL_SURFACE('',#1026,0.0859999999999998);
#46=FACE_BOUND('',#147,.T.);
#47=FACE_BOUND('',#149,.T.);
#48=FACE_BOUND('',#150,.T.);
#49=FACE_BOUND('',#153,.T.);
#50=FACE_BOUND('',#154,.T.);
#51=FACE_BOUND('',#157,.T.);
#52=FACE_BOUND('',#173,.T.);
#53=FACE_BOUND('',#174,.T.);
#54=FACE_BOUND('',#175,.T.);
#55=FACE_BOUND('',#178,.T.);
#56=FACE_BOUND('',#180,.T.);
#57=FACE_BOUND('',#183,.T.);
#58=FACE_BOUND('',#187,.T.);
#59=FACE_BOUND('',#198,.T.);
#60=FACE_BOUND('',#199,.T.);
#61=FACE_BOUND('',#200,.T.);
#62=CIRCLE('',#946,0.125);
#63=CIRCLE('',#947,0.125);
#64=CIRCLE('',#948,0.125);
#65=CIRCLE('',#949,0.683421719803486);
#66=CIRCLE('',#950,0.125);
#67=CIRCLE('',#951,0.250000000000024);
#68=CIRCLE('',#952,0.125);
#69=CIRCLE('',#953,0.125);
#70=CIRCLE('',#954,0.125);
#71=CIRCLE('',#956,0.125000000000001);
#72=CIRCLE('',#957,0.09);
#73=CIRCLE('',#958,0.082);
#74=CIRCLE('',#960,0.125000000000001);
#75=CIRCLE('',#962,0.082);
#76=CIRCLE('',#963,0.09);
#77=CIRCLE('',#966,0.125000000000001);
#78=CIRCLE('',#967,0.09);
#79=CIRCLE('',#969,0.125);
#80=CIRCLE('',#972,0.125);
#81=CIRCLE('',#974,0.125);
#82=CIRCLE('',#976,0.683421719803486);
#83=CIRCLE('',#980,0.125);
#84=CIRCLE('',#982,0.250000000000024);
#85=CIRCLE('',#984,0.125);
#86=CIRCLE('',#988,0.25);
#87=CIRCLE('',#990,0.125);
#88=CIRCLE('',#992,0.09);
#89=CIRCLE('',#993,0.09);
#90=CIRCLE('',#994,0.0859999999999998);
#91=CIRCLE('',#996,0.125);
#92=CIRCLE('',#998,0.125000000000001);
#93=CIRCLE('',#999,0.09);
#94=CIRCLE('',#1001,0.082);
#95=CIRCLE('',#1004,0.082);
#96=CIRCLE('',#1008,0.125);
#97=CIRCLE('',#1009,0.125);
#98=CIRCLE('',#1020,0.125);
#99=FACE_OUTER_BOUND('',#145,.T.);
#100=FACE_OUTER_BOUND('',#146,.T.);
#101=FACE_OUTER_BOUND('',#148,.T.);
#102=FACE_OUTER_BOUND('',#151,.T.);
#103=FACE_OUTER_BOUND('',#152,.T.);
#104=FACE_OUTER_BOUND('',#155,.T.);
#105=FACE_OUTER_BOUND('',#156,.T.);
#106=FACE_OUTER_BOUND('',#158,.T.);
#107=FACE_OUTER_BOUND('',#159,.T.);
#108=FACE_OUTER_BOUND('',#160,.T.);
#109=FACE_OUTER_BOUND('',#161,.T.);
#110=FACE_OUTER_BOUND('',#162,.T.);
#111=FACE_OUTER_BOUND('',#163,.T.);
#112=FACE_OUTER_BOUND('',#164,.T.);
#113=FACE_OUTER_BOUND('',#165,.T.);
#114=FACE_OUTER_BOUND('',#166,.T.);
#115=FACE_OUTER_BOUND('',#167,.T.);
#116=FACE_OUTER_BOUND('',#168,.T.);
#117=FACE_OUTER_BOUND('',#169,.T.);
#118=FACE_OUTER_BOUND('',#170,.T.);
#119=FACE_OUTER_BOUND('',#171,.T.);
#120=FACE_OUTER_BOUND('',#172,.T.);
#121=FACE_OUTER_BOUND('',#176,.T.);
#122=FACE_OUTER_BOUND('',#177,.T.);
#123=FACE_OUTER_BOUND('',#179,.T.);
#124=FACE_OUTER_BOUND('',#181,.T.);
#125=FACE_OUTER_BOUND('',#182,.T.);
#126=FACE_OUTER_BOUND('',#184,.T.);
#127=FACE_OUTER_BOUND('',#185,.T.);
#128=FACE_OUTER_BOUND('',#186,.T.);
#129=FACE_OUTER_BOUND('',#188,.T.);
#130=FACE_OUTER_BOUND('',#189,.T.);
#131=FACE_OUTER_BOUND('',#190,.T.);
#132=FACE_OUTER_BOUND('',#191,.T.);
#133=FACE_OUTER_BOUND('',#192,.T.);
#134=FACE_OUTER_BOUND('',#193,.T.);
#135=FACE_OUTER_BOUND('',#194,.T.);
#136=FACE_OUTER_BOUND('',#195,.T.);
#137=FACE_OUTER_BOUND('',#196,.T.);
#138=FACE_OUTER_BOUND('',#197,.T.);
#139=FACE_OUTER_BOUND('',#201,.T.);
#140=FACE_OUTER_BOUND('',#202,.T.);
#141=FACE_OUTER_BOUND('',#203,.T.);
#142=FACE_OUTER_BOUND('',#204,.T.);
#143=FACE_OUTER_BOUND('',#205,.T.);
#144=FACE_OUTER_BOUND('',#206,.T.);
#145=EDGE_LOOP('',(#593,#594,#595,#596));
#146=EDGE_LOOP('',(#597,#598,#599,#600,#601,#602,#603,#604,#605,#606,#607,
#608,#609,#610,#611,#612,#613,#614,#615,#616,#617,#618));
#147=EDGE_LOOP('',(#619,#620,#621,#622));
#148=EDGE_LOOP('',(#623,#624,#625,#626,#627,#628));
#149=EDGE_LOOP('',(#629));
#150=EDGE_LOOP('',(#630));
#151=EDGE_LOOP('',(#631,#632,#633,#634));
#152=EDGE_LOOP('',(#635,#636,#637,#638,#639,#640));
#153=EDGE_LOOP('',(#641));
#154=EDGE_LOOP('',(#642));
#155=EDGE_LOOP('',(#643,#644,#645,#646));
#156=EDGE_LOOP('',(#647,#648,#649,#650,#651,#652));
#157=EDGE_LOOP('',(#653));
#158=EDGE_LOOP('',(#654,#655,#656,#657));
#159=EDGE_LOOP('',(#658,#659,#660,#661));
#160=EDGE_LOOP('',(#662,#663,#664,#665));
#161=EDGE_LOOP('',(#666,#667,#668,#669));
#162=EDGE_LOOP('',(#670,#671,#672,#673,#674,#675));
#163=EDGE_LOOP('',(#676,#677,#678,#679));
#164=EDGE_LOOP('',(#680,#681,#682,#683));
#165=EDGE_LOOP('',(#684,#685,#686,#687,#688,#689));
#166=EDGE_LOOP('',(#690,#691,#692,#693));
#167=EDGE_LOOP('',(#694,#695,#696,#697,#698,#699));
#168=EDGE_LOOP('',(#700,#701,#702,#703));
#169=EDGE_LOOP('',(#704,#705,#706,#707));
#170=EDGE_LOOP('',(#708,#709,#710,#711,#712,#713));
#171=EDGE_LOOP('',(#714,#715,#716,#717));
#172=EDGE_LOOP('',(#718,#719,#720,#721));
#173=EDGE_LOOP('',(#722));
#174=EDGE_LOOP('',(#723));
#175=EDGE_LOOP('',(#724));
#176=EDGE_LOOP('',(#725,#726,#727,#728));
#177=EDGE_LOOP('',(#729,#730,#731,#732,#733,#734));
#178=EDGE_LOOP('',(#735));
#179=EDGE_LOOP('',(#736,#737,#738,#739));
#180=EDGE_LOOP('',(#740));
#181=EDGE_LOOP('',(#741,#742,#743,#744));
#182=EDGE_LOOP('',(#745,#746,#747,#748));
#183=EDGE_LOOP('',(#749));
#184=EDGE_LOOP('',(#750,#751,#752,#753));
#185=EDGE_LOOP('',(#754,#755,#756,#757));
#186=EDGE_LOOP('',(#758,#759,#760,#761,#762,#763,#764,#765,#766,#767,#768,
#769,#770,#771,#772,#773,#774,#775,#776,#777,#778,#779));
#187=EDGE_LOOP('',(#780,#781,#782,#783));
#188=EDGE_LOOP('',(#784,#785,#786,#787));
#189=EDGE_LOOP('',(#788,#789,#790,#791));
#190=EDGE_LOOP('',(#792,#793,#794,#795));
#191=EDGE_LOOP('',(#796,#797,#798,#799));
#192=EDGE_LOOP('',(#800,#801,#802,#803));
#193=EDGE_LOOP('',(#804,#805,#806,#807));
#194=EDGE_LOOP('',(#808,#809,#810,#811,#812,#813));
#195=EDGE_LOOP('',(#814,#815,#816,#817));
#196=EDGE_LOOP('',(#818,#819,#820,#821));
#197=EDGE_LOOP('',(#822,#823,#824,#825));
#198=EDGE_LOOP('',(#826));
#199=EDGE_LOOP('',(#827));
#200=EDGE_LOOP('',(#828));
#201=EDGE_LOOP('',(#829,#830,#831,#832));
#202=EDGE_LOOP('',(#833,#834,#835,#836));
#203=EDGE_LOOP('',(#837,#838,#839,#840));
#204=EDGE_LOOP('',(#841,#842,#843,#844));
#205=EDGE_LOOP('',(#845,#846,#847,#848));
#206=EDGE_LOOP('',(#849,#850,#851,#852));
#207=LINE('',#1284,#292);
#208=LINE('',#1286,#293);
#209=LINE('',#1288,#294);
#210=LINE('',#1289,#295);
#211=LINE('',#1293,#296);
#212=LINE('',#1295,#297);
#213=LINE('',#1299,#298);
#214=LINE('',#1302,#299);
#215=LINE('',#1304,#300);
#216=LINE('',#1312,#301);
#217=LINE('',#1314,#302);
#218=LINE('',#1318,#303);
#219=LINE('',#1320,#304);
#220=LINE('',#1324,#305);
#221=LINE('',#1328,#306);
#222=LINE('',#1331,#307);
#223=LINE('',#1334,#308);
#224=LINE('',#1336,#309);
#225=LINE('',#1338,#310);
#226=LINE('',#1339,#311);
#227=LINE('',#1343,#312);
#228=LINE('',#1345,#313);
#229=LINE('',#1346,#314);
#230=LINE('',#1354,#315);
#231=LINE('',#1358,#316);
#232=LINE('',#1360,#317);
#233=LINE('',#1361,#318);
#234=LINE('',#1368,#319);
#235=LINE('',#1370,#320);
#236=LINE('',#1371,#321);
#237=LINE('',#1375,#322);
#238=LINE('',#1377,#323);
#239=LINE('',#1378,#324);
#240=LINE('',#1385,#325);
#241=LINE('',#1388,#326);
#242=LINE('',#1389,#327);
#243=LINE('',#1395,#328);
#244=LINE('',#1409,#329);
#245=LINE('',#1412,#330);
#246=LINE('',#1429,#331);
#247=LINE('',#1432,#332);
#248=LINE('',#1433,#333);
#249=LINE('',#1438,#334);
#250=LINE('',#1440,#335);
#251=LINE('',#1441,#336);
#252=LINE('',#1445,#337);
#253=LINE('',#1450,#338);
#254=LINE('',#1452,#339);
#255=LINE('',#1453,#340);
#256=LINE('',#1456,#341);
#257=LINE('',#1457,#342);
#258=LINE('',#1460,#343);
#259=LINE('',#1477,#344);
#260=LINE('',#1481,#345);
#261=LINE('',#1482,#346);
#262=LINE('',#1486,#347);
#263=LINE('',#1489,#348);
#264=LINE('',#1490,#349);
#265=LINE('',#1500,#350);
#266=LINE('',#1504,#351);
#267=LINE('',#1506,#352);
#268=LINE('',#1512,#353);
#269=LINE('',#1513,#354);
#270=LINE('',#1514,#355);
#271=LINE('',#1519,#356);
#272=LINE('',#1520,#357);
#273=LINE('',#1523,#358);
#274=LINE('',#1524,#359);
#275=LINE('',#1528,#360);
#276=LINE('',#1530,#361);
#277=LINE('',#1532,#362);
#278=LINE('',#1535,#363);
#279=LINE('',#1537,#364);
#280=LINE('',#1540,#365);
#281=LINE('',#1542,#366);
#282=LINE('',#1544,#367);
#283=LINE('',#1546,#368);
#284=LINE('',#1548,#369);
#285=LINE('',#1566,#370);
#286=LINE('',#1568,#371);
#287=LINE('',#1573,#372);
#288=LINE('',#1680,#373);
#289=LINE('',#1698,#374);
#290=LINE('',#1700,#375);
#291=LINE('',#1702,#376);
#292=VECTOR('',#1031,0.393700787401575);
#293=VECTOR('',#1032,0.393700787401575);
#294=VECTOR('',#1033,0.393700787401575);
#295=VECTOR('',#1034,0.393700787401575);
#296=VECTOR('',#1037,0.393700787401575);
#297=VECTOR('',#1038,0.393700787401575);
#298=VECTOR('',#1041,0.393700787401575);
#299=VECTOR('',#1044,0.393700787401575);
#300=VECTOR('',#1045,0.393700787401575);
#301=VECTOR('',#1052,0.393700787401575);
#302=VECTOR('',#1053,0.393700787401575);
#303=VECTOR('',#1056,0.393700787401575);
#304=VECTOR('',#1057,0.393700787401575);
#305=VECTOR('',#1060,0.393700787401575);
#306=VECTOR('',#1063,0.393700787401575);
#307=VECTOR('',#1066,0.393700787401575);
#308=VECTOR('',#1067,0.393700787401575);
#309=VECTOR('',#1068,0.393700787401575);
#310=VECTOR('',#1069,0.393700787401575);
#311=VECTOR('',#1070,0.393700787401575);
#312=VECTOR('',#1073,0.393700787401575);
#313=VECTOR('',#1074,0.393700787401575);
#314=VECTOR('',#1075,0.393700787401575);
#315=VECTOR('',#1084,0.393700787401575);
#316=VECTOR('',#1089,0.393700787401575);
#317=VECTOR('',#1090,0.393700787401575);
#318=VECTOR('',#1091,0.393700787401575);
#319=VECTOR('',#1098,0.393700787401575);
#320=VECTOR('',#1099,0.393700787401575);
#321=VECTOR('',#1100,0.393700787401575);
#322=VECTOR('',#1103,0.393700787401575);
#323=VECTOR('',#1104,0.393700787401575);
#324=VECTOR('',#1105,0.393700787401575);
#325=VECTOR('',#1114,0.393700787401575);
#326=VECTOR('',#1117,0.393700787401575);
#327=VECTOR('',#1118,0.393700787401575);
#328=VECTOR('',#1127,0.393700787401575);
#329=VECTOR('',#1130,0.393700787401575);
#330=VECTOR('',#1133,0.393700787401575);
#331=VECTOR('',#1136,0.393700787401575);
#332=VECTOR('',#1139,0.393700787401575);
#333=VECTOR('',#1140,0.393700787401575);
#334=VECTOR('',#1145,0.393700787401575);
#335=VECTOR('',#1146,0.393700787401575);
#336=VECTOR('',#1147,0.393700787401575);
#337=VECTOR('',#1152,0.393700787401575);
#338=VECTOR('',#1157,0.393700787401575);
#339=VECTOR('',#1158,0.393700787401575);
#340=VECTOR('',#1159,0.393700787401575);
#341=VECTOR('',#1162,0.393700787401575);
#342=VECTOR('',#1163,0.393700787401575);
#343=VECTOR('',#1166,0.393700787401575);
#344=VECTOR('',#1169,0.393700787401575);
#345=VECTOR('',#1172,0.393700787401575);
#346=VECTOR('',#1173,0.393700787401575);
#347=VECTOR('',#1178,0.393700787401575);
#348=VECTOR('',#1181,0.393700787401575);
#349=VECTOR('',#1182,0.393700787401575);
#350=VECTOR('',#1193,0.393700787401575);
#351=VECTOR('',#1196,0.393700787401575);
#352=VECTOR('',#1199,0.393700787401575);
#353=VECTOR('',#1204,0.393700787401575);
#354=VECTOR('',#1205,0.393700787401575);
#355=VECTOR('',#1206,0.393700787401575);
#356=VECTOR('',#1211,0.393700787401575);
#357=VECTOR('',#1212,0.393700787401575);
#358=VECTOR('',#1215,0.393700787401575);
#359=VECTOR('',#1216,0.393700787401575);
#360=VECTOR('',#1221,0.393700787401575);
#361=VECTOR('',#1224,0.393700787401575);
#362=VECTOR('',#1227,0.393700787401575);
#363=VECTOR('',#1230,0.393700787401575);
#364=VECTOR('',#1231,0.393700787401575);
#365=VECTOR('',#1236,0.09);
#366=VECTOR('',#1239,0.082);
#367=VECTOR('',#1242,0.082);
#368=VECTOR('',#1245,0.393700787401575);
#369=VECTOR('',#1248,0.09);
#370=VECTOR('',#1253,0.393700787401575);
#371=VECTOR('',#1256,0.393700787401575);
#372=VECTOR('',#1263,0.393700787401575);
#373=VECTOR('',#1266,0.393700787401575);
#374=VECTOR('',#1273,0.09);
#375=VECTOR('',#1276,0.09);
#376=VECTOR('',#1279,0.0859999999999998);
#377=VERTEX_POINT('',#1282);
#378=VERTEX_POINT('',#1283);
#379=VERTEX_POINT('',#1285);
#380=VERTEX_POINT('',#1287);
#381=VERTEX_POINT('',#1291);
#382=VERTEX_POINT('',#1292);
#383=VERTEX_POINT('',#1294);
#384=VERTEX_POINT('',#1296);
#385=VERTEX_POINT('',#1298);
#386=VERTEX_POINT('',#1300);
#387=VERTEX_POINT('',#1303);
#388=VERTEX_POINT('',#1305);
#389=VERTEX_POINT('',#1307);
#390=VERTEX_POINT('',#1309);
#391=VERTEX_POINT('',#1311);
#392=VERTEX_POINT('',#1313);
#393=VERTEX_POINT('',#1315);
#394=VERTEX_POINT('',#1317);
#395=VERTEX_POINT('',#1319);
#396=VERTEX_POINT('',#1321);
#397=VERTEX_POINT('',#1323);
#398=VERTEX_POINT('',#1325);
#399=VERTEX_POINT('',#1327);
#400=VERTEX_POINT('',#1329);
#401=VERTEX_POINT('',#1332);
#402=VERTEX_POINT('',#1333);
#403=VERTEX_POINT('',#1335);
#404=VERTEX_POINT('',#1337);
#405=VERTEX_POINT('',#1341);
#406=VERTEX_POINT('',#1342);
#407=VERTEX_POINT('',#1344);
#408=VERTEX_POINT('',#1348);
#409=VERTEX_POINT('',#1350);
#410=VERTEX_POINT('',#1353);
#411=VERTEX_POINT('',#1357);
#412=VERTEX_POINT('',#1359);
#413=VERTEX_POINT('',#1362);
#414=VERTEX_POINT('',#1364);
#415=VERTEX_POINT('',#1367);
#416=VERTEX_POINT('',#1369);
#417=VERTEX_POINT('',#1373);
#418=VERTEX_POINT('',#1374);
#419=VERTEX_POINT('',#1376);
#420=VERTEX_POINT('',#1380);
#421=VERTEX_POINT('',#1383);
#422=VERTEX_POINT('',#1387);
#423=VERTEX_POINT('',#1393);
#424=VERTEX_POINT('',#1397);
#425=VERTEX_POINT('',#1398);
#426=VERTEX_POINT('',#1410);
#427=VERTEX_POINT('',#1414);
#428=VERTEX_POINT('',#1431);
#429=VERTEX_POINT('',#1435);
#430=VERTEX_POINT('',#1437);
#431=VERTEX_POINT('',#1439);
#432=VERTEX_POINT('',#1443);
#433=VERTEX_POINT('',#1447);
#434=VERTEX_POINT('',#1448);
#435=VERTEX_POINT('',#1451);
#436=VERTEX_POINT('',#1455);
#437=VERTEX_POINT('',#1459);
#438=VERTEX_POINT('',#1476);
#439=VERTEX_POINT('',#1478);
#440=VERTEX_POINT('',#1480);
#441=VERTEX_POINT('',#1484);
#442=VERTEX_POINT('',#1488);
#443=VERTEX_POINT('',#1491);
#444=VERTEX_POINT('',#1493);
#445=VERTEX_POINT('',#1495);
#446=VERTEX_POINT('',#1498);
#447=VERTEX_POINT('',#1502);
#448=VERTEX_POINT('',#1503);
#449=VERTEX_POINT('',#1507);
#450=VERTEX_POINT('',#1510);
#451=VERTEX_POINT('',#1511);
#452=VERTEX_POINT('',#1515);
#453=VERTEX_POINT('',#1518);
#454=VERTEX_POINT('',#1522);
#455=VERTEX_POINT('',#1525);
#456=VERTEX_POINT('',#1533);
#457=VERTEX_POINT('',#1536);
#458=VERTEX_POINT('',#1551);
#459=VERTEX_POINT('',#1571);
#460=VERTEX_POINT('',#1574);
#461=VERTEX_POINT('',#1609);
#462=VERTEX_POINT('',#1644);
#463=EDGE_CURVE('',#377,#378,#207,.T.);
#464=EDGE_CURVE('',#379,#377,#208,.T.);
#465=EDGE_CURVE('',#380,#379,#209,.T.);
#466=EDGE_CURVE('',#378,#380,#210,.T.);
#467=EDGE_CURVE('',#381,#382,#211,.T.);
#468=EDGE_CURVE('',#382,#383,#212,.T.);
#469=EDGE_CURVE('',#384,#383,#62,.T.);
#470=EDGE_CURVE('',#384,#385,#213,.T.);
#471=EDGE_CURVE('',#386,#385,#63,.T.);
#472=EDGE_CURVE('',#386,#377,#214,.T.);
#473=EDGE_CURVE('',#387,#378,#215,.T.);
#474=EDGE_CURVE('',#388,#387,#64,.T.);
#475=EDGE_CURVE('',#388,#389,#65,.T.);
#476=EDGE_CURVE('',#390,#389,#66,.T.);
#477=EDGE_CURVE('',#390,#391,#216,.T.);
#478=EDGE_CURVE('',#391,#392,#217,.T.);
#479=EDGE_CURVE('',#392,#393,#67,.T.);
#480=EDGE_CURVE('',#393,#394,#218,.T.);
#481=EDGE_CURVE('',#394,#395,#219,.T.);
#482=EDGE_CURVE('',#396,#395,#68,.T.);
#483=EDGE_CURVE('',#396,#397,#220,.T.);
#484=EDGE_CURVE('',#398,#397,#69,.T.);
#485=EDGE_CURVE('',#398,#399,#221,.T.);
#486=EDGE_CURVE('',#400,#399,#70,.T.);
#487=EDGE_CURVE('',#400,#381,#222,.T.);
#488=EDGE_CURVE('',#401,#402,#223,.T.);
#489=EDGE_CURVE('',#402,#403,#224,.T.);
#490=EDGE_CURVE('',#403,#404,#225,.T.);
#491=EDGE_CURVE('',#404,#401,#226,.T.);
#492=EDGE_CURVE('',#405,#406,#227,.T.);
#493=EDGE_CURVE('',#407,#406,#228,.T.);
#494=EDGE_CURVE('',#387,#407,#229,.T.);
#495=EDGE_CURVE('',#380,#405,#71,.T.);
#496=EDGE_CURVE('',#408,#408,#72,.T.);
#497=EDGE_CURVE('',#409,#409,#73,.T.);
#498=EDGE_CURVE('',#410,#405,#230,.T.);
#499=EDGE_CURVE('',#410,#379,#74,.T.);
#500=EDGE_CURVE('',#411,#410,#231,.T.);
#501=EDGE_CURVE('',#412,#386,#232,.T.);
#502=EDGE_CURVE('',#411,#412,#233,.T.);
#503=EDGE_CURVE('',#413,#413,#75,.T.);
#504=EDGE_CURVE('',#414,#414,#76,.T.);
#505=EDGE_CURVE('',#415,#381,#234,.T.);
#506=EDGE_CURVE('',#416,#415,#235,.T.);
#507=EDGE_CURVE('',#382,#416,#236,.T.);
#508=EDGE_CURVE('',#417,#418,#237,.T.);
#509=EDGE_CURVE('',#419,#418,#238,.T.);
#510=EDGE_CURVE('',#383,#419,#239,.T.);
#511=EDGE_CURVE('',#416,#417,#77,.T.);
#512=EDGE_CURVE('',#420,#420,#78,.T.);
#513=EDGE_CURVE('',#419,#421,#79,.T.);
#514=EDGE_CURVE('',#421,#384,#240,.T.);
#515=EDGE_CURVE('',#422,#421,#241,.T.);
#516=EDGE_CURVE('',#385,#422,#242,.T.);
#517=EDGE_CURVE('',#422,#412,#80,.T.);
#518=EDGE_CURVE('',#407,#423,#81,.T.);
#519=EDGE_CURVE('',#423,#388,#243,.T.);
#520=EDGE_CURVE('',#424,#425,#16,.T.);
#521=EDGE_CURVE('',#389,#425,#244,.T.);
#522=EDGE_CURVE('',#426,#423,#82,.T.);
#523=EDGE_CURVE('',#424,#426,#245,.T.);
#524=EDGE_CURVE('',#425,#427,#17,.T.);
#525=EDGE_CURVE('',#427,#390,#246,.T.);
#526=EDGE_CURVE('',#428,#391,#247,.T.);
#527=EDGE_CURVE('',#427,#428,#248,.T.);
#528=EDGE_CURVE('',#429,#428,#83,.T.);
#529=EDGE_CURVE('',#430,#429,#249,.T.);
#530=EDGE_CURVE('',#431,#430,#250,.T.);
#531=EDGE_CURVE('',#392,#431,#251,.T.);
#532=EDGE_CURVE('',#432,#431,#84,.T.);
#533=EDGE_CURVE('',#393,#432,#252,.T.);
#534=EDGE_CURVE('',#433,#434,#85,.T.);
#535=EDGE_CURVE('',#394,#433,#253,.T.);
#536=EDGE_CURVE('',#435,#432,#254,.T.);
#537=EDGE_CURVE('',#434,#435,#255,.T.);
#538=EDGE_CURVE('',#395,#436,#256,.T.);
#539=EDGE_CURVE('',#433,#436,#257,.T.);
#540=EDGE_CURVE('',#437,#396,#258,.T.);
#541=EDGE_CURVE('',#436,#437,#18,.T.);
#542=EDGE_CURVE('',#397,#438,#259,.T.);
#543=EDGE_CURVE('',#439,#437,#86,.T.);
#544=EDGE_CURVE('',#440,#439,#260,.T.);
#545=EDGE_CURVE('',#438,#440,#261,.T.);
#546=EDGE_CURVE('',#438,#441,#87,.T.);
#547=EDGE_CURVE('',#441,#398,#262,.T.);
#548=EDGE_CURVE('',#442,#441,#263,.T.);
#549=EDGE_CURVE('',#399,#442,#264,.T.);
#550=EDGE_CURVE('',#443,#443,#88,.T.);
#551=EDGE_CURVE('',#444,#444,#89,.T.);
#552=EDGE_CURVE('',#445,#445,#90,.T.);
#553=EDGE_CURVE('',#442,#446,#91,.T.);
#554=EDGE_CURVE('',#446,#400,#265,.T.);
#555=EDGE_CURVE('',#447,#448,#266,.T.);
#556=EDGE_CURVE('',#448,#415,#92,.T.);
#557=EDGE_CURVE('',#447,#446,#267,.T.);
#558=EDGE_CURVE('',#449,#449,#93,.T.);
#559=EDGE_CURVE('',#450,#451,#268,.T.);
#560=EDGE_CURVE('',#402,#450,#269,.T.);
#561=EDGE_CURVE('',#401,#451,#270,.T.);
#562=EDGE_CURVE('',#452,#452,#94,.T.);
#563=EDGE_CURVE('',#453,#450,#271,.T.);
#564=EDGE_CURVE('',#403,#453,#272,.T.);
#565=EDGE_CURVE('',#454,#453,#273,.T.);
#566=EDGE_CURVE('',#404,#454,#274,.T.);
#567=EDGE_CURVE('',#455,#455,#95,.T.);
#568=EDGE_CURVE('',#451,#454,#275,.T.);
#569=EDGE_CURVE('',#406,#411,#276,.T.);
#570=EDGE_CURVE('',#418,#447,#277,.T.);
#571=EDGE_CURVE('',#456,#440,#96,.T.);
#572=EDGE_CURVE('',#456,#435,#278,.T.);
#573=EDGE_CURVE('',#430,#457,#279,.T.);
#574=EDGE_CURVE('',#426,#457,#97,.T.);
#575=EDGE_CURVE('',#408,#414,#280,.T.);
#576=EDGE_CURVE('',#409,#455,#281,.T.);
#577=EDGE_CURVE('',#452,#413,#282,.T.);
#578=EDGE_CURVE('',#448,#417,#283,.T.);
#579=EDGE_CURVE('',#420,#449,#284,.T.);
#580=EDGE_CURVE('',#458,#424,#19,.T.);
#581=EDGE_CURVE('',#429,#458,#285,.T.);
#582=EDGE_CURVE('',#457,#458,#286,.T.);
#583=EDGE_CURVE('',#436,#459,#98,.T.);
#584=EDGE_CURVE('',#459,#434,#287,.T.);
#585=EDGE_CURVE('',#460,#460,#20,.T.);
#586=EDGE_CURVE('',#461,#461,#21,.T.);
#587=EDGE_CURVE('',#462,#462,#22,.T.);
#588=EDGE_CURVE('',#459,#456,#288,.T.);
#589=EDGE_CURVE('',#439,#459,#23,.T.);
#590=EDGE_CURVE('',#462,#443,#289,.T.);
#591=EDGE_CURVE('',#461,#444,#290,.T.);
#592=EDGE_CURVE('',#460,#445,#291,.T.);
#593=ORIENTED_EDGE('',*,*,#463,.F.);
#594=ORIENTED_EDGE('',*,*,#464,.F.);
#595=ORIENTED_EDGE('',*,*,#465,.F.);
#596=ORIENTED_EDGE('',*,*,#466,.F.);
#597=ORIENTED_EDGE('',*,*,#467,.T.);
#598=ORIENTED_EDGE('',*,*,#468,.T.);
#599=ORIENTED_EDGE('',*,*,#469,.F.);
#600=ORIENTED_EDGE('',*,*,#470,.T.);
#601=ORIENTED_EDGE('',*,*,#471,.F.);
#602=ORIENTED_EDGE('',*,*,#472,.T.);
#603=ORIENTED_EDGE('',*,*,#463,.T.);
#604=ORIENTED_EDGE('',*,*,#473,.F.);
#605=ORIENTED_EDGE('',*,*,#474,.F.);
#606=ORIENTED_EDGE('',*,*,#475,.T.);
#607=ORIENTED_EDGE('',*,*,#476,.F.);
#608=ORIENTED_EDGE('',*,*,#477,.T.);
#609=ORIENTED_EDGE('',*,*,#478,.T.);
#610=ORIENTED_EDGE('',*,*,#479,.T.);
#611=ORIENTED_EDGE('',*,*,#480,.T.);
#612=ORIENTED_EDGE('',*,*,#481,.T.);
#613=ORIENTED_EDGE('',*,*,#482,.F.);
#614=ORIENTED_EDGE('',*,*,#483,.T.);
#615=ORIENTED_EDGE('',*,*,#484,.F.);
#616=ORIENTED_EDGE('',*,*,#485,.T.);
#617=ORIENTED_EDGE('',*,*,#486,.F.);
#618=ORIENTED_EDGE('',*,*,#487,.T.);
#619=ORIENTED_EDGE('',*,*,#488,.T.);
#620=ORIENTED_EDGE('',*,*,#489,.T.);
#621=ORIENTED_EDGE('',*,*,#490,.T.);
#622=ORIENTED_EDGE('',*,*,#491,.T.);
#623=ORIENTED_EDGE('',*,*,#492,.T.);
#624=ORIENTED_EDGE('',*,*,#493,.F.);
#625=ORIENTED_EDGE('',*,*,#494,.F.);
#626=ORIENTED_EDGE('',*,*,#473,.T.);
#627=ORIENTED_EDGE('',*,*,#466,.T.);
#628=ORIENTED_EDGE('',*,*,#495,.T.);
#629=ORIENTED_EDGE('',*,*,#496,.T.);
#630=ORIENTED_EDGE('',*,*,#497,.T.);
#631=ORIENTED_EDGE('',*,*,#498,.T.);
#632=ORIENTED_EDGE('',*,*,#495,.F.);
#633=ORIENTED_EDGE('',*,*,#465,.T.);
#634=ORIENTED_EDGE('',*,*,#499,.F.);
#635=ORIENTED_EDGE('',*,*,#500,.T.);
#636=ORIENTED_EDGE('',*,*,#499,.T.);
#637=ORIENTED_EDGE('',*,*,#464,.T.);
#638=ORIENTED_EDGE('',*,*,#472,.F.);
#639=ORIENTED_EDGE('',*,*,#501,.F.);
#640=ORIENTED_EDGE('',*,*,#502,.F.);
#641=ORIENTED_EDGE('',*,*,#503,.T.);
#642=ORIENTED_EDGE('',*,*,#504,.T.);
#643=ORIENTED_EDGE('',*,*,#467,.F.);
#644=ORIENTED_EDGE('',*,*,#505,.F.);
#645=ORIENTED_EDGE('',*,*,#506,.F.);
#646=ORIENTED_EDGE('',*,*,#507,.F.);
#647=ORIENTED_EDGE('',*,*,#508,.T.);
#648=ORIENTED_EDGE('',*,*,#509,.F.);
#649=ORIENTED_EDGE('',*,*,#510,.F.);
#650=ORIENTED_EDGE('',*,*,#468,.F.);
#651=ORIENTED_EDGE('',*,*,#507,.T.);
#652=ORIENTED_EDGE('',*,*,#511,.T.);
#653=ORIENTED_EDGE('',*,*,#512,.T.);
#654=ORIENTED_EDGE('',*,*,#469,.T.);
#655=ORIENTED_EDGE('',*,*,#510,.T.);
#656=ORIENTED_EDGE('',*,*,#513,.T.);
#657=ORIENTED_EDGE('',*,*,#514,.T.);
#658=ORIENTED_EDGE('',*,*,#514,.F.);
#659=ORIENTED_EDGE('',*,*,#515,.F.);
#660=ORIENTED_EDGE('',*,*,#516,.F.);
#661=ORIENTED_EDGE('',*,*,#470,.F.);
#662=ORIENTED_EDGE('',*,*,#471,.T.);
#663=ORIENTED_EDGE('',*,*,#516,.T.);
#664=ORIENTED_EDGE('',*,*,#517,.T.);
#665=ORIENTED_EDGE('',*,*,#501,.T.);
#666=ORIENTED_EDGE('',*,*,#474,.T.);
#667=ORIENTED_EDGE('',*,*,#494,.T.);
#668=ORIENTED_EDGE('',*,*,#518,.T.);
#669=ORIENTED_EDGE('',*,*,#519,.T.);
#670=ORIENTED_EDGE('',*,*,#520,.T.);
#671=ORIENTED_EDGE('',*,*,#521,.F.);
#672=ORIENTED_EDGE('',*,*,#475,.F.);
#673=ORIENTED_EDGE('',*,*,#519,.F.);
#674=ORIENTED_EDGE('',*,*,#522,.F.);
#675=ORIENTED_EDGE('',*,*,#523,.F.);
#676=ORIENTED_EDGE('',*,*,#524,.T.);
#677=ORIENTED_EDGE('',*,*,#525,.T.);
#678=ORIENTED_EDGE('',*,*,#476,.T.);
#679=ORIENTED_EDGE('',*,*,#521,.T.);
#680=ORIENTED_EDGE('',*,*,#526,.T.);
#681=ORIENTED_EDGE('',*,*,#477,.F.);
#682=ORIENTED_EDGE('',*,*,#525,.F.);
#683=ORIENTED_EDGE('',*,*,#527,.T.);
#684=ORIENTED_EDGE('',*,*,#528,.F.);
#685=ORIENTED_EDGE('',*,*,#529,.F.);
#686=ORIENTED_EDGE('',*,*,#530,.F.);
#687=ORIENTED_EDGE('',*,*,#531,.F.);
#688=ORIENTED_EDGE('',*,*,#478,.F.);
#689=ORIENTED_EDGE('',*,*,#526,.F.);
#690=ORIENTED_EDGE('',*,*,#532,.F.);
#691=ORIENTED_EDGE('',*,*,#533,.F.);
#692=ORIENTED_EDGE('',*,*,#479,.F.);
#693=ORIENTED_EDGE('',*,*,#531,.T.);
#694=ORIENTED_EDGE('',*,*,#534,.F.);
#695=ORIENTED_EDGE('',*,*,#535,.F.);
#696=ORIENTED_EDGE('',*,*,#480,.F.);
#697=ORIENTED_EDGE('',*,*,#533,.T.);
#698=ORIENTED_EDGE('',*,*,#536,.F.);
#699=ORIENTED_EDGE('',*,*,#537,.F.);
#700=ORIENTED_EDGE('',*,*,#538,.F.);
#701=ORIENTED_EDGE('',*,*,#481,.F.);
#702=ORIENTED_EDGE('',*,*,#535,.T.);
#703=ORIENTED_EDGE('',*,*,#539,.T.);
#704=ORIENTED_EDGE('',*,*,#540,.T.);
#705=ORIENTED_EDGE('',*,*,#482,.T.);
#706=ORIENTED_EDGE('',*,*,#538,.T.);
#707=ORIENTED_EDGE('',*,*,#541,.T.);
#708=ORIENTED_EDGE('',*,*,#542,.F.);
#709=ORIENTED_EDGE('',*,*,#483,.F.);
#710=ORIENTED_EDGE('',*,*,#540,.F.);
#711=ORIENTED_EDGE('',*,*,#543,.F.);
#712=ORIENTED_EDGE('',*,*,#544,.F.);
#713=ORIENTED_EDGE('',*,*,#545,.F.);
#714=ORIENTED_EDGE('',*,*,#546,.T.);
#715=ORIENTED_EDGE('',*,*,#547,.T.);
#716=ORIENTED_EDGE('',*,*,#484,.T.);
#717=ORIENTED_EDGE('',*,*,#542,.T.);
#718=ORIENTED_EDGE('',*,*,#547,.F.);
#719=ORIENTED_EDGE('',*,*,#548,.F.);
#720=ORIENTED_EDGE('',*,*,#549,.F.);
#721=ORIENTED_EDGE('',*,*,#485,.F.);
#722=ORIENTED_EDGE('',*,*,#550,.T.);
#723=ORIENTED_EDGE('',*,*,#551,.T.);
#724=ORIENTED_EDGE('',*,*,#552,.T.);
#725=ORIENTED_EDGE('',*,*,#486,.T.);
#726=ORIENTED_EDGE('',*,*,#549,.T.);
#727=ORIENTED_EDGE('',*,*,#553,.T.);
#728=ORIENTED_EDGE('',*,*,#554,.T.);
#729=ORIENTED_EDGE('',*,*,#555,.T.);
#730=ORIENTED_EDGE('',*,*,#556,.T.);
#731=ORIENTED_EDGE('',*,*,#505,.T.);
#732=ORIENTED_EDGE('',*,*,#487,.F.);
#733=ORIENTED_EDGE('',*,*,#554,.F.);
#734=ORIENTED_EDGE('',*,*,#557,.F.);
#735=ORIENTED_EDGE('',*,*,#558,.T.);
#736=ORIENTED_EDGE('',*,*,#559,.F.);
#737=ORIENTED_EDGE('',*,*,#560,.F.);
#738=ORIENTED_EDGE('',*,*,#488,.F.);
#739=ORIENTED_EDGE('',*,*,#561,.T.);
#740=ORIENTED_EDGE('',*,*,#562,.T.);
#741=ORIENTED_EDGE('',*,*,#563,.F.);
#742=ORIENTED_EDGE('',*,*,#564,.F.);
#743=ORIENTED_EDGE('',*,*,#489,.F.);
#744=ORIENTED_EDGE('',*,*,#560,.T.);
#745=ORIENTED_EDGE('',*,*,#565,.F.);
#746=ORIENTED_EDGE('',*,*,#566,.F.);
#747=ORIENTED_EDGE('',*,*,#490,.F.);
#748=ORIENTED_EDGE('',*,*,#564,.T.);
#749=ORIENTED_EDGE('',*,*,#567,.T.);
#750=ORIENTED_EDGE('',*,*,#568,.F.);
#751=ORIENTED_EDGE('',*,*,#561,.F.);
#752=ORIENTED_EDGE('',*,*,#491,.F.);
#753=ORIENTED_EDGE('',*,*,#566,.T.);
#754=ORIENTED_EDGE('',*,*,#569,.F.);
#755=ORIENTED_EDGE('',*,*,#492,.F.);
#756=ORIENTED_EDGE('',*,*,#498,.F.);
#757=ORIENTED_EDGE('',*,*,#500,.F.);
#758=ORIENTED_EDGE('',*,*,#569,.T.);
#759=ORIENTED_EDGE('',*,*,#502,.T.);
#760=ORIENTED_EDGE('',*,*,#517,.F.);
#761=ORIENTED_EDGE('',*,*,#515,.T.);
#762=ORIENTED_EDGE('',*,*,#513,.F.);
#763=ORIENTED_EDGE('',*,*,#509,.T.);
#764=ORIENTED_EDGE('',*,*,#570,.T.);
#765=ORIENTED_EDGE('',*,*,#557,.T.);
#766=ORIENTED_EDGE('',*,*,#553,.F.);
#767=ORIENTED_EDGE('',*,*,#548,.T.);
#768=ORIENTED_EDGE('',*,*,#546,.F.);
#769=ORIENTED_EDGE('',*,*,#545,.T.);
#770=ORIENTED_EDGE('',*,*,#571,.F.);
#771=ORIENTED_EDGE('',*,*,#572,.T.);
#772=ORIENTED_EDGE('',*,*,#536,.T.);
#773=ORIENTED_EDGE('',*,*,#532,.T.);
#774=ORIENTED_EDGE('',*,*,#530,.T.);
#775=ORIENTED_EDGE('',*,*,#573,.T.);
#776=ORIENTED_EDGE('',*,*,#574,.F.);
#777=ORIENTED_EDGE('',*,*,#522,.T.);
#778=ORIENTED_EDGE('',*,*,#518,.F.);
#779=ORIENTED_EDGE('',*,*,#493,.T.);
#780=ORIENTED_EDGE('',*,*,#559,.T.);
#781=ORIENTED_EDGE('',*,*,#568,.T.);
#782=ORIENTED_EDGE('',*,*,#565,.T.);
#783=ORIENTED_EDGE('',*,*,#563,.T.);
#784=ORIENTED_EDGE('',*,*,#496,.F.);
#785=ORIENTED_EDGE('',*,*,#575,.T.);
#786=ORIENTED_EDGE('',*,*,#504,.F.);
#787=ORIENTED_EDGE('',*,*,#575,.F.);
#788=ORIENTED_EDGE('',*,*,#497,.F.);
#789=ORIENTED_EDGE('',*,*,#576,.T.);
#790=ORIENTED_EDGE('',*,*,#567,.F.);
#791=ORIENTED_EDGE('',*,*,#576,.F.);
#792=ORIENTED_EDGE('',*,*,#562,.F.);
#793=ORIENTED_EDGE('',*,*,#577,.T.);
#794=ORIENTED_EDGE('',*,*,#503,.F.);
#795=ORIENTED_EDGE('',*,*,#577,.F.);
#796=ORIENTED_EDGE('',*,*,#578,.T.);
#797=ORIENTED_EDGE('',*,*,#511,.F.);
#798=ORIENTED_EDGE('',*,*,#506,.T.);
#799=ORIENTED_EDGE('',*,*,#556,.F.);
#800=ORIENTED_EDGE('',*,*,#512,.F.);
#801=ORIENTED_EDGE('',*,*,#579,.T.);
#802=ORIENTED_EDGE('',*,*,#558,.F.);
#803=ORIENTED_EDGE('',*,*,#579,.F.);
#804=ORIENTED_EDGE('',*,*,#570,.F.);
#805=ORIENTED_EDGE('',*,*,#508,.F.);
#806=ORIENTED_EDGE('',*,*,#578,.F.);
#807=ORIENTED_EDGE('',*,*,#555,.F.);
#808=ORIENTED_EDGE('',*,*,#528,.T.);
#809=ORIENTED_EDGE('',*,*,#527,.F.);
#810=ORIENTED_EDGE('',*,*,#524,.F.);
#811=ORIENTED_EDGE('',*,*,#520,.F.);
#812=ORIENTED_EDGE('',*,*,#580,.F.);
#813=ORIENTED_EDGE('',*,*,#581,.F.);
#814=ORIENTED_EDGE('',*,*,#580,.T.);
#815=ORIENTED_EDGE('',*,*,#523,.T.);
#816=ORIENTED_EDGE('',*,*,#574,.T.);
#817=ORIENTED_EDGE('',*,*,#582,.T.);
#818=ORIENTED_EDGE('',*,*,#529,.T.);
#819=ORIENTED_EDGE('',*,*,#581,.T.);
#820=ORIENTED_EDGE('',*,*,#582,.F.);
#821=ORIENTED_EDGE('',*,*,#573,.F.);
#822=ORIENTED_EDGE('',*,*,#583,.F.);
#823=ORIENTED_EDGE('',*,*,#539,.F.);
#824=ORIENTED_EDGE('',*,*,#534,.T.);
#825=ORIENTED_EDGE('',*,*,#584,.F.);
#826=ORIENTED_EDGE('',*,*,#585,.F.);
#827=ORIENTED_EDGE('',*,*,#586,.F.);
#828=ORIENTED_EDGE('',*,*,#587,.F.);
#829=ORIENTED_EDGE('',*,*,#588,.F.);
#830=ORIENTED_EDGE('',*,*,#584,.T.);
#831=ORIENTED_EDGE('',*,*,#537,.T.);
#832=ORIENTED_EDGE('',*,*,#572,.F.);
#833=ORIENTED_EDGE('',*,*,#543,.T.);
#834=ORIENTED_EDGE('',*,*,#541,.F.);
#835=ORIENTED_EDGE('',*,*,#583,.T.);
#836=ORIENTED_EDGE('',*,*,#589,.F.);
#837=ORIENTED_EDGE('',*,*,#588,.T.);
#838=ORIENTED_EDGE('',*,*,#571,.T.);
#839=ORIENTED_EDGE('',*,*,#544,.T.);
#840=ORIENTED_EDGE('',*,*,#589,.T.);
#841=ORIENTED_EDGE('',*,*,#587,.T.);
#842=ORIENTED_EDGE('',*,*,#590,.T.);
#843=ORIENTED_EDGE('',*,*,#550,.F.);
#844=ORIENTED_EDGE('',*,*,#590,.F.);
#845=ORIENTED_EDGE('',*,*,#586,.T.);
#846=ORIENTED_EDGE('',*,*,#591,.T.);
#847=ORIENTED_EDGE('',*,*,#551,.F.);
#848=ORIENTED_EDGE('',*,*,#591,.F.);
#849=ORIENTED_EDGE('',*,*,#585,.T.);
#850=ORIENTED_EDGE('',*,*,#592,.T.);
#851=ORIENTED_EDGE('',*,*,#552,.F.);
#852=ORIENTED_EDGE('',*,*,#592,.F.);
#853=PLANE('',#944);
#854=PLANE('',#945);
#855=PLANE('',#955);
#856=PLANE('',#961);
#857=PLANE('',#964);
#858=PLANE('',#965);
#859=PLANE('',#970);
#860=PLANE('',#978);
#861=PLANE('',#979);
#862=PLANE('',#983);
#863=PLANE('',#985);
#864=PLANE('',#987);
#865=PLANE('',#991);
#866=PLANE('',#997);
#867=PLANE('',#1000);
#868=PLANE('',#1002);
#869=PLANE('',#1003);
#870=PLANE('',#1005);
#871=PLANE('',#1006);
#872=PLANE('',#1007);
#873=PLANE('',#1015);
#874=PLANE('',#1018);
#875=PLANE('',#1021);
#876=ADVANCED_FACE('',(#99),#853,.F.);
#877=ADVANCED_FACE('',(#100,#46),#854,.T.);
#878=ADVANCED_FACE('',(#101,#47,#48),#855,.T.);
#879=ADVANCED_FACE('',(#102),#24,.F.);
#880=ADVANCED_FACE('',(#103,#49,#50),#856,.F.);
#881=ADVANCED_FACE('',(#104),#857,.F.);
#882=ADVANCED_FACE('',(#105,#51),#858,.F.);
#883=ADVANCED_FACE('',(#106),#25,.F.);
#884=ADVANCED_FACE('',(#107),#859,.F.);
#885=ADVANCED_FACE('',(#108),#26,.F.);
#886=ADVANCED_FACE('',(#109),#27,.T.);
#887=ADVANCED_FACE('',(#110),#28,.F.);
#888=ADVANCED_FACE('',(#111),#29,.T.);
#889=ADVANCED_FACE('',(#112),#860,.F.);
#890=ADVANCED_FACE('',(#113),#861,.F.);
#891=ADVANCED_FACE('',(#114),#30,.F.);
#892=ADVANCED_FACE('',(#115),#862,.F.);
#893=ADVANCED_FACE('',(#116),#863,.F.);
#894=ADVANCED_FACE('',(#117),#31,.T.);
#895=ADVANCED_FACE('',(#118),#864,.F.);
#896=ADVANCED_FACE('',(#119),#32,.T.);
#897=ADVANCED_FACE('',(#120,#52,#53,#54),#865,.F.);
#898=ADVANCED_FACE('',(#121),#33,.F.);
#899=ADVANCED_FACE('',(#122,#55),#866,.F.);
#900=ADVANCED_FACE('',(#123,#56),#867,.F.);
#901=ADVANCED_FACE('',(#124),#868,.F.);
#902=ADVANCED_FACE('',(#125,#57),#869,.F.);
#903=ADVANCED_FACE('',(#126),#870,.F.);
#904=ADVANCED_FACE('',(#127),#871,.F.);
#905=ADVANCED_FACE('',(#128,#58),#872,.T.);
#906=ADVANCED_FACE('',(#129),#34,.F.);
#907=ADVANCED_FACE('',(#130),#35,.F.);
#908=ADVANCED_FACE('',(#131),#36,.F.);
#909=ADVANCED_FACE('',(#132),#37,.F.);
#910=ADVANCED_FACE('',(#133),#38,.F.);
#911=ADVANCED_FACE('',(#134),#873,.F.);
#912=ADVANCED_FACE('',(#135),#39,.F.);
#913=ADVANCED_FACE('',(#136),#40,.T.);
#914=ADVANCED_FACE('',(#137),#874,.F.);
#915=ADVANCED_FACE('',(#138,#59,#60,#61),#41,.F.);
#916=ADVANCED_FACE('',(#139),#875,.F.);
#917=ADVANCED_FACE('',(#140),#15,.T.);
#918=ADVANCED_FACE('',(#141),#42,.T.);
#919=ADVANCED_FACE('',(#142),#43,.F.);
#920=ADVANCED_FACE('',(#143),#44,.F.);
#921=ADVANCED_FACE('',(#144),#45,.F.);
#922=CLOSED_SHELL('',(#876,#877,#878,#879,#880,#881,#882,#883,#884,#885,
#886,#887,#888,#889,#890,#891,#892,#893,#894,#895,#896,#897,#898,#899,#900,
#901,#902,#903,#904,#905,#906,#907,#908,#909,#910,#911,#912,#913,#914,#915,
#916,#917,#918,#919,#920,#921));
#923=DERIVED_UNIT_ELEMENT(#925,1.);
#924=DERIVED_UNIT_ELEMENT(#1711,-3.);
#925=(
CONVERSION_BASED_UNIT('gram',#927)
MASS_UNIT()
NAMED_UNIT(#1708)
);
#926=(
MASS_UNIT()
NAMED_UNIT(*)
SI_UNIT(.KILO.,.GRAM.)
);
#927=MASS_MEASURE_WITH_UNIT(MASS_MEASURE(0.001),#926);
#928=DERIVED_UNIT((#923,#924));
#929=MEASURE_REPRESENTATION_ITEM('density measure',
POSITIVE_RATIO_MEASURE(0.952),#928);
#930=PROPERTY_DEFINITION_REPRESENTATION(#935,#932);
#931=PROPERTY_DEFINITION_REPRESENTATION(#936,#933);
#932=REPRESENTATION('material name',(#934),#1705);
#933=REPRESENTATION('density',(#929),#1705);
#934=DESCRIPTIVE_REPRESENTATION_ITEM('Plastic, Opaque Black',
'Plastic, Opaque Black');
#935=PROPERTY_DEFINITION('material property','material name',#1719);
#936=PROPERTY_DEFINITION('material property','density of part',#1719);
#937=DATE_TIME_ROLE('creation_date');
#938=APPLIED_DATE_AND_TIME_ASSIGNMENT(#939,#937,(#1719));
#939=DATE_AND_TIME(#940,#941);
#940=CALENDAR_DATE(2025,5,10);
#941=LOCAL_TIME(0,0,0.,#942);
#942=COORDINATED_UNIVERSAL_TIME_OFFSET(0,0,.BEHIND.);
#943=AXIS2_PLACEMENT_3D('',#1280,#1027,#1028);
#944=AXIS2_PLACEMENT_3D('',#1281,#1029,#1030);
#945=AXIS2_PLACEMENT_3D('',#1290,#1035,#1036);
#946=AXIS2_PLACEMENT_3D('',#1297,#1039,#1040);
#947=AXIS2_PLACEMENT_3D('',#1301,#1042,#1043);
#948=AXIS2_PLACEMENT_3D('',#1306,#1046,#1047);
#949=AXIS2_PLACEMENT_3D('',#1308,#1048,#1049);
#950=AXIS2_PLACEMENT_3D('',#1310,#1050,#1051);
#951=AXIS2_PLACEMENT_3D('',#1316,#1054,#1055);
#952=AXIS2_PLACEMENT_3D('',#1322,#1058,#1059);
#953=AXIS2_PLACEMENT_3D('',#1326,#1061,#1062);
#954=AXIS2_PLACEMENT_3D('',#1330,#1064,#1065);
#955=AXIS2_PLACEMENT_3D('',#1340,#1071,#1072);
#956=AXIS2_PLACEMENT_3D('',#1347,#1076,#1077);
#957=AXIS2_PLACEMENT_3D('',#1349,#1078,#1079);
#958=AXIS2_PLACEMENT_3D('',#1351,#1080,#1081);
#959=AXIS2_PLACEMENT_3D('',#1352,#1082,#1083);
#960=AXIS2_PLACEMENT_3D('',#1355,#1085,#1086);
#961=AXIS2_PLACEMENT_3D('',#1356,#1087,#1088);
#962=AXIS2_PLACEMENT_3D('',#1363,#1092,#1093);
#963=AXIS2_PLACEMENT_3D('',#1365,#1094,#1095);
#964=AXIS2_PLACEMENT_3D('',#1366,#1096,#1097);
#965=AXIS2_PLACEMENT_3D('',#1372,#1101,#1102);
#966=AXIS2_PLACEMENT_3D('',#1379,#1106,#1107);
#967=AXIS2_PLACEMENT_3D('',#1381,#1108,#1109);
#968=AXIS2_PLACEMENT_3D('',#1382,#1110,#1111);
#969=AXIS2_PLACEMENT_3D('',#1384,#1112,#1113);
#970=AXIS2_PLACEMENT_3D('',#1386,#1115,#1116);
#971=AXIS2_PLACEMENT_3D('',#1390,#1119,#1120);
#972=AXIS2_PLACEMENT_3D('',#1391,#1121,#1122);
#973=AXIS2_PLACEMENT_3D('',#1392,#1123,#1124);
#974=AXIS2_PLACEMENT_3D('',#1394,#1125,#1126);
#975=AXIS2_PLACEMENT_3D('',#1396,#1128,#1129);
#976=AXIS2_PLACEMENT_3D('',#1411,#1131,#1132);
#977=AXIS2_PLACEMENT_3D('',#1413,#1134,#1135);
#978=AXIS2_PLACEMENT_3D('',#1430,#1137,#1138);
#979=AXIS2_PLACEMENT_3D('',#1434,#1141,#1142);
#980=AXIS2_PLACEMENT_3D('',#1436,#1143,#1144);
#981=AXIS2_PLACEMENT_3D('',#1442,#1148,#1149);
#982=AXIS2_PLACEMENT_3D('',#1444,#1150,#1151);
#983=AXIS2_PLACEMENT_3D('',#1446,#1153,#1154);
#984=AXIS2_PLACEMENT_3D('',#1449,#1155,#1156);
#985=AXIS2_PLACEMENT_3D('',#1454,#1160,#1161);
#986=AXIS2_PLACEMENT_3D('',#1458,#1164,#1165);
#987=AXIS2_PLACEMENT_3D('',#1475,#1167,#1168);
#988=AXIS2_PLACEMENT_3D('',#1479,#1170,#1171);
#989=AXIS2_PLACEMENT_3D('',#1483,#1174,#1175);
#990=AXIS2_PLACEMENT_3D('',#1485,#1176,#1177);
#991=AXIS2_PLACEMENT_3D('',#1487,#1179,#1180);
#992=AXIS2_PLACEMENT_3D('',#1492,#1183,#1184);
#993=AXIS2_PLACEMENT_3D('',#1494,#1185,#1186);
#994=AXIS2_PLACEMENT_3D('',#1496,#1187,#1188);
#995=AXIS2_PLACEMENT_3D('',#1497,#1189,#1190);
#996=AXIS2_PLACEMENT_3D('',#1499,#1191,#1192);
#997=AXIS2_PLACEMENT_3D('',#1501,#1194,#1195);
#998=AXIS2_PLACEMENT_3D('',#1505,#1197,#1198);
#999=AXIS2_PLACEMENT_3D('',#1508,#1200,#1201);
#1000=AXIS2_PLACEMENT_3D('',#1509,#1202,#1203);
#1001=AXIS2_PLACEMENT_3D('',#1516,#1207,#1208);
#1002=AXIS2_PLACEMENT_3D('',#1517,#1209,#1210);
#1003=AXIS2_PLACEMENT_3D('',#1521,#1213,#1214);
#1004=AXIS2_PLACEMENT_3D('',#1526,#1217,#1218);
#1005=AXIS2_PLACEMENT_3D('',#1527,#1219,#1220);
#1006=AXIS2_PLACEMENT_3D('',#1529,#1222,#1223);
#1007=AXIS2_PLACEMENT_3D('',#1531,#1225,#1226);
#1008=AXIS2_PLACEMENT_3D('',#1534,#1228,#1229);
#1009=AXIS2_PLACEMENT_3D('',#1538,#1232,#1233);
#1010=AXIS2_PLACEMENT_3D('',#1539,#1234,#1235);
#1011=AXIS2_PLACEMENT_3D('',#1541,#1237,#1238);
#1012=AXIS2_PLACEMENT_3D('',#1543,#1240,#1241);
#1013=AXIS2_PLACEMENT_3D('',#1545,#1243,#1244);
#1014=AXIS2_PLACEMENT_3D('',#1547,#1246,#1247);
#1015=AXIS2_PLACEMENT_3D('',#1549,#1249,#1250);
#1016=AXIS2_PLACEMENT_3D('',#1550,#1251,#1252);
#1017=AXIS2_PLACEMENT_3D('',#1567,#1254,#1255);
#1018=AXIS2_PLACEMENT_3D('',#1569,#1257,#1258);
#1019=AXIS2_PLACEMENT_3D('',#1570,#1259,#1260);
#1020=AXIS2_PLACEMENT_3D('',#1572,#1261,#1262);
#1021=AXIS2_PLACEMENT_3D('',#1679,#1264,#1265);
#1022=AXIS2_PLACEMENT_3D('',#1681,#1267,#1268);
#1023=AXIS2_PLACEMENT_3D('',#1696,#1269,#1270);
#1024=AXIS2_PLACEMENT_3D('',#1697,#1271,#1272);
#1025=AXIS2_PLACEMENT_3D('',#1699,#1274,#1275);
#1026=AXIS2_PLACEMENT_3D('',#1701,#1277,#1278);
#1027=DIRECTION('axis',(0.,0.,1.));
#1028=DIRECTION('refdir',(1.,0.,0.));
#1029=DIRECTION('center_axis',(8.60658852879314E-16,5.86326253338758E-15,
-1.));
#1030=DIRECTION('ref_axis',(-1.,0.,-8.60658852879314E-16));
#1031=DIRECTION('',(-3.15747986644157E-16,1.,5.86326253338758E-15));
#1032=DIRECTION('',(-1.,-3.49676543189026E-16,-8.60658852879317E-16));
#1033=DIRECTION('',(-8.61078487602976E-16,-1.,0.));
#1034=DIRECTION('',(1.,-8.60742260157616E-16,8.60658852879309E-16));
#1035=DIRECTION('center_axis',(-1.,-3.15747986644157E-16,0.));
#1036=DIRECTION('ref_axis',(3.15747986644157E-16,-1.,3.15544362088406E-30));
#1037=DIRECTION('',(-3.15747986644157E-16,1.,5.86326253338758E-15));
#1038=DIRECTION('',(9.96171056342811E-46,-3.15495616276242E-30,-1.));
#1039=DIRECTION('center_axis',(-1.,-3.15747986644157E-16,0.));
#1040=DIRECTION('ref_axis',(0.,-0.707106781186547,-0.707106781186549));
#1041=DIRECTION('',(-3.15747986644157E-16,1.,-1.58943883267742E-16));
#1042=DIRECTION('center_axis',(-1.,-3.15747986644157E-16,0.));
#1043=DIRECTION('ref_axis',(0.,0.707106781186547,-0.707106781186549));
#1044=DIRECTION('',(-9.9617105634281E-46,3.15495616276242E-30,1.));
#1045=DIRECTION('',(0.,0.,1.));
#1046=DIRECTION('center_axis',(1.,3.15747986644157E-16,0.));
#1047=DIRECTION('ref_axis',(0.,0.759809932886845,-0.65014526521885));
#1048=DIRECTION('center_axis',(1.,3.15747986644157E-16,0.));
#1049=DIRECTION('ref_axis',(0.,3.15495616276242E-30,1.));
#1050=DIRECTION('center_axis',(1.,3.15747986644157E-16,0.));
#1051=DIRECTION('ref_axis',(0.,0.650145265218852,-0.759809932886843));
#1052=DIRECTION('',(3.15747986644157E-16,-1.,3.15544362088406E-30));
#1053=DIRECTION('',(4.4163865795445E-31,-1.39870617275596E-15,1.));
#1054=DIRECTION('center_axis',(1.,3.15747986644157E-16,0.));
#1055=DIRECTION('ref_axis',(-1.10338935750084E-45,3.15545717604621E-30,
1.));
#1056=DIRECTION('',(9.96329250278448E-46,-3.15545717604621E-30,-1.));
#1057=DIRECTION('',(3.15747986644157E-16,-1.,3.15544362088406E-30));
#1058=DIRECTION('center_axis',(1.,3.15747986644157E-16,0.));
#1059=DIRECTION('ref_axis',(4.94517309821662E-16,-0.707106781186547,-0.707106781186548));
#1060=DIRECTION('',(-9.96329250278448E-46,3.15545717604621E-30,1.));
#1061=DIRECTION('center_axis',(1.,3.15747986644157E-16,0.));
#1062=DIRECTION('ref_axis',(0.,-0.707106781186548,0.707106781186548));
#1063=DIRECTION('',(-3.15747986644157E-16,1.,-3.49676543189029E-16));
#1064=DIRECTION('center_axis',(-1.,-3.15747986644157E-16,0.));
#1065=DIRECTION('ref_axis',(0.,0.707106781186548,-0.707106781186548));
#1066=DIRECTION('',(-5.01862111311936E-32,1.58943883267742E-16,1.));
#1067=DIRECTION('',(9.96329250278448E-46,-3.15545717604621E-30,-1.));
#1068=DIRECTION('',(-3.15747986644157E-16,1.,-3.15545717604621E-30));
#1069=DIRECTION('',(-9.96329250278448E-46,3.15545717604621E-30,1.));
#1070=DIRECTION('',(3.15747986644157E-16,-1.,3.15545717604621E-30));
#1071=DIRECTION('center_axis',(8.60742260157616E-16,1.,0.));
#1072=DIRECTION('ref_axis',(-1.,8.60742260157616E-16,-2.71602367403967E-45));
#1073=DIRECTION('',(1.,-8.60742260157616E-16,8.60658852879309E-16));
#1074=DIRECTION('',(0.,0.,1.));
#1075=DIRECTION('',(1.,-8.60742260157616E-16,0.));
#1076=DIRECTION('center_axis',(-8.60742260157616E-16,-1.,0.));
#1077=DIRECTION('ref_axis',(1.,-8.61078487602976E-16,0.));
#1078=DIRECTION('center_axis',(-8.60742260157616E-16,-1.,0.));
#1079=DIRECTION('ref_axis',(1.,-8.61078487602976E-16,0.));
#1080=DIRECTION('center_axis',(-8.60742260157616E-16,-1.,0.));
#1081=DIRECTION('ref_axis',(1.,-8.5233657402325E-16,0.));
#1082=DIRECTION('center_axis',(-8.61078487602976E-16,-1.,0.));
#1083=DIRECTION('ref_axis',(1.,-8.61078487602976E-16,0.));
#1084=DIRECTION('',(8.61078487602976E-16,1.,0.));
#1085=DIRECTION('center_axis',(-3.49676543189026E-16,1.,-3.15495616276242E-30));
#1086=DIRECTION('ref_axis',(1.,-8.61078487602976E-16,0.));
#1087=DIRECTION('center_axis',(-3.49676543189026E-16,1.,-3.15495616276242E-30));
#1088=DIRECTION('ref_axis',(-9.96171056342811E-46,3.15495616276242E-30,
1.));
#1089=DIRECTION('',(-1.,-3.49676543189026E-16,-8.60658852879317E-16));
#1090=DIRECTION('',(-1.,-3.49676543189026E-16,0.));
#1091=DIRECTION('',(1.35841507683111E-45,-3.15495616276242E-30,-1.));
#1092=DIRECTION('center_axis',(-3.49676543189026E-16,1.,-3.15495616276242E-30));
#1093=DIRECTION('ref_axis',(1.,-8.5233657402325E-16,0.));
#1094=DIRECTION('center_axis',(-3.49676543189026E-16,1.,-3.15495616276242E-30));
#1095=DIRECTION('ref_axis',(1.,-8.61078487602976E-16,0.));
#1096=DIRECTION('center_axis',(8.60658852879314E-16,5.86326253338758E-15,
-1.));
#1097=DIRECTION('ref_axis',(-1.,0.,-8.60658852879314E-16));
#1098=DIRECTION('',(-1.,-3.49676543189026E-16,-8.60658852879317E-16));
#1099=DIRECTION('',(-8.61078487602976E-16,-1.,0.));
#1100=DIRECTION('',(1.,3.49676543189026E-16,8.60658852879317E-16));
#1101=DIRECTION('center_axis',(3.49676543189026E-16,-1.,3.15495616276242E-30));
#1102=DIRECTION('ref_axis',(9.96171056342811E-46,-3.15495616276242E-30,
-1.));
#1103=DIRECTION('',(1.,3.49676543189026E-16,8.60658852879317E-16));
#1104=DIRECTION('',(-1.35841507683111E-45,3.15495616276242E-30,1.));
#1105=DIRECTION('',(1.,3.49676543189026E-16,0.));
#1106=DIRECTION('center_axis',(3.49676543189026E-16,-1.,3.15495616276242E-30));
#1107=DIRECTION('ref_axis',(1.,-8.61078487602976E-16,0.));
#1108=DIRECTION('center_axis',(3.49676543189026E-16,-1.,3.15495616276242E-30));
#1109=DIRECTION('ref_axis',(1.,-8.61078487602976E-16,0.));
#1110=DIRECTION('center_axis',(1.,3.49676543189026E-16,0.));
#1111=DIRECTION('ref_axis',(0.,-0.707106781186547,-0.707106781186549));
#1112=DIRECTION('center_axis',(1.,4.30565436332942E-16,0.));
#1113=DIRECTION('ref_axis',(0.,-0.707106781186547,-0.707106781186549));
#1114=DIRECTION('',(-1.,-3.49676543189026E-16,0.));
#1115=DIRECTION('center_axis',(5.55789476621041E-32,-1.58943883267742E-16,
-1.));
#1116=DIRECTION('ref_axis',(-3.15747986644157E-16,1.,-1.58943883267742E-16));
#1117=DIRECTION('',(4.30565436332942E-16,-1.,1.58943883267742E-16));
#1118=DIRECTION('',(1.,3.49676543189026E-16,0.));
#1119=DIRECTION('center_axis',(1.,3.49676543189026E-16,0.));
#1120=DIRECTION('ref_axis',(0.,0.707106781186547,-0.707106781186549));
#1121=DIRECTION('center_axis',(1.,4.30565436332942E-16,0.));
#1122=DIRECTION('ref_axis',(0.,0.707106781186547,-0.707106781186549));
#1123=DIRECTION('center_axis',(-1.,0.,0.));
#1124=DIRECTION('ref_axis',(0.,0.759809932886845,-0.65014526521885));
#1125=DIRECTION('center_axis',(-1.,-4.30565436332942E-16,0.));
#1126=DIRECTION('ref_axis',(0.,0.759809932886845,-0.65014526521885));
#1127=DIRECTION('',(-1.,0.,0.));
#1128=DIRECTION('center_axis',(1.,0.,0.));
#1129=DIRECTION('ref_axis',(0.,3.15495616276242E-30,1.));
#1130=DIRECTION('',(1.,0.,0.));
#1131=DIRECTION('center_axis',(-1.,-4.30565436332942E-16,0.));
#1132=DIRECTION('ref_axis',(0.,3.15495616276242E-30,1.));
#1133=DIRECTION('',(1.,0.,0.));
#1134=DIRECTION('center_axis',(1.,0.,0.));
#1135=DIRECTION('ref_axis',(0.,0.650145265218852,-0.759809932886843));
#1136=DIRECTION('',(-1.,3.81870970951746E-91,1.21019741384179E-61));
#1137=DIRECTION('center_axis',(1.21019741384179E-61,3.15544362088406E-30,
1.));
#1138=DIRECTION('ref_axis',(1.,0.,-1.21019741384179E-61));
#1139=DIRECTION('',(-1.,-3.49676543189026E-16,1.1033846175786E-45));
#1140=DIRECTION('',(4.30565436332942E-16,-1.,0.));
#1141=DIRECTION('center_axis',(-3.49676543189026E-16,1.,1.39870617275596E-15));
#1142=DIRECTION('ref_axis',(4.4163865795445E-31,-1.39870617275596E-15,1.));
#1143=DIRECTION('center_axis',(3.49676543189026E-16,-1.,-1.39870617275596E-15));
#1144=DIRECTION('ref_axis',(1.,4.30565436332942E-16,8.60742260157615E-16));
#1145=DIRECTION('',(-1.,-3.49676543189026E-16,1.1033846175786E-45));
#1146=DIRECTION('',(-6.0223453357425E-31,1.39870617275596E-15,-1.));
#1147=DIRECTION('',(1.,3.49676543189026E-16,0.));
#1148=DIRECTION('center_axis',(1.,3.49676543189026E-16,0.));
#1149=DIRECTION('ref_axis',(-1.10338935750084E-45,3.15545717604621E-30,
1.));
#1150=DIRECTION('center_axis',(-1.,-4.30565436332942E-16,0.));
#1151=DIRECTION('ref_axis',(-1.10338935750084E-45,3.15545717604621E-30,
1.));
#1152=DIRECTION('',(1.,3.49676543189026E-16,0.));
#1153=DIRECTION('center_axis',(3.49676543189026E-16,-1.,3.15545717604621E-30));
#1154=DIRECTION('ref_axis',(9.96329250278448E-46,-3.15545717604621E-30,
-1.));
#1155=DIRECTION('center_axis',(-3.49676543189026E-16,1.,-3.15545717604621E-30));
#1156=DIRECTION('ref_axis',(1.,4.30565436332942E-16,8.60742260157615E-16));
#1157=DIRECTION('',(1.,3.49676543189026E-16,-1.1033846175786E-45));
#1158=DIRECTION('',(-1.35863079583425E-45,3.15545717604621E-30,1.));
#1159=DIRECTION('',(1.,3.49676543189026E-16,-1.1033846175786E-45));
#1160=DIRECTION('center_axis',(1.21019741384179E-61,3.15544362088406E-30,
1.));
#1161=DIRECTION('ref_axis',(1.,0.,-1.21019741384179E-61));
#1162=DIRECTION('',(1.,3.49676543189026E-16,-1.1033846175786E-45));
#1163=DIRECTION('',(4.30565436332942E-16,-1.,0.));
#1164=DIRECTION('center_axis',(-1.,-3.49676543189026E-16,1.1033846175786E-45));
#1165=DIRECTION('ref_axis',(4.94517309821662E-16,-0.707106781186547,-0.707106781186548));
#1166=DIRECTION('',(-1.,-3.49676543189026E-16,1.1033846175786E-45));
#1167=DIRECTION('center_axis',(-3.49676543189026E-16,1.,-3.15545717604621E-30));
#1168=DIRECTION('ref_axis',(-9.96329250278448E-46,3.15545717604621E-30,
1.));
#1169=DIRECTION('',(1.,3.49676543189026E-16,0.));
#1170=DIRECTION('center_axis',(3.49676543189026E-16,-1.,3.15545717604621E-30));
#1171=DIRECTION('ref_axis',(1.69557392643794E-16,3.21474741897803E-30,1.));
#1172=DIRECTION('',(-1.,-3.49676543189026E-16,1.1033846175786E-45));
#1173=DIRECTION('',(1.35863079583425E-45,-3.15545717604621E-30,-1.));
#1174=DIRECTION('center_axis',(1.,3.49676543189026E-16,0.));
#1175=DIRECTION('ref_axis',(0.,-0.707106781186548,0.707106781186548));
#1176=DIRECTION('center_axis',(-1.,-4.30565436332942E-16,0.));
#1177=DIRECTION('ref_axis',(0.,-0.707106781186548,0.707106781186548));
#1178=DIRECTION('',(-1.,-3.49676543189026E-16,0.));
#1179=DIRECTION('center_axis',(1.22273684856628E-31,-3.49676543189029E-16,
-1.));
#1180=DIRECTION('ref_axis',(-3.15747986644157E-16,1.,-3.49676543189029E-16));
#1181=DIRECTION('',(4.30565436332942E-16,-1.,3.49676543189029E-16));
#1182=DIRECTION('',(1.,3.49676543189026E-16,0.));
#1183=DIRECTION('center_axis',(1.22273684856628E-31,-3.49676543189029E-16,
-1.));
#1184=DIRECTION('ref_axis',(1.,3.20536831256607E-16,-1.12001779728497E-31));
#1185=DIRECTION('center_axis',(1.22273684856628E-31,-3.49676543189029E-16,
-1.));
#1186=DIRECTION('ref_axis',(1.,3.20536831256607E-16,-1.12001779728497E-31));
#1187=DIRECTION('center_axis',(1.22273684856628E-31,-3.49676543189029E-16,
-1.));
#1188=DIRECTION('ref_axis',(1.,3.20536831256607E-16,-1.12001779728497E-31));
#1189=DIRECTION('center_axis',(1.,3.49676543189026E-16,0.));
#1190=DIRECTION('ref_axis',(0.,0.707106781186548,-0.707106781186548));
#1191=DIRECTION('center_axis',(1.,4.30565436332942E-16,0.));
#1192=DIRECTION('ref_axis',(0.,0.707106781186548,-0.707106781186548));
#1193=DIRECTION('',(-1.,-3.49676543189026E-16,0.));
#1194=DIRECTION('center_axis',(-3.49676543189026E-16,1.,-1.58943883267742E-16));
#1195=DIRECTION('ref_axis',(-5.01862111311936E-32,1.58943883267742E-16,
1.));
#1196=DIRECTION('',(-1.,-3.49676543189026E-16,-8.60658852879317E-16));
#1197=DIRECTION('center_axis',(-3.49676543189026E-16,1.,-1.58943883267742E-16));
#1198=DIRECTION('ref_axis',(1.,-8.61078487602976E-16,0.));
#1199=DIRECTION('',(6.84357424516276E-32,-1.58943883267742E-16,-1.));
#1200=DIRECTION('center_axis',(-3.49676543189026E-16,1.,-1.58943883267742E-16));
#1201=DIRECTION('ref_axis',(1.,-8.61078487602976E-16,0.));
#1202=DIRECTION('center_axis',(0.,-1.,3.15545717604621E-30));
#1203=DIRECTION('ref_axis',(9.96329250278448E-46,-3.15545717604621E-30,
-1.));
#1204=DIRECTION('',(-1.35863079583425E-45,3.15545717604621E-30,1.));
#1205=DIRECTION('',(1.,0.,0.));
#1206=DIRECTION('',(1.,0.,0.));
#1207=DIRECTION('center_axis',(0.,-1.,3.15545717604621E-30));
#1208=DIRECTION('ref_axis',(1.,-8.5233657402325E-16,0.));
#1209=DIRECTION('center_axis',(0.,-3.15545717604621E-30,-1.));
#1210=DIRECTION('ref_axis',(-3.15747986644157E-16,1.,-3.15545717604621E-30));
#1211=DIRECTION('',(4.30565436332942E-16,-1.,3.15545717604621E-30));
#1212=DIRECTION('',(1.,0.,0.));
#1213=DIRECTION('center_axis',(0.,1.,-3.15545717604621E-30));
#1214=DIRECTION('ref_axis',(-9.96329250278448E-46,3.15545717604621E-30,
1.));
#1215=DIRECTION('',(1.35863079583425E-45,-3.15545717604621E-30,-1.));
#1216=DIRECTION('',(1.,0.,0.));
#1217=DIRECTION('center_axis',(0.,1.,-3.15545717604621E-30));
#1218=DIRECTION('ref_axis',(1.,-8.5233657402325E-16,0.));
#1219=DIRECTION('center_axis',(0.,3.15545717604621E-30,1.));
#1220=DIRECTION('ref_axis',(3.15747986644157E-16,-1.,3.15545717604621E-30));
#1221=DIRECTION('',(-4.30565436332942E-16,1.,-3.15545717604621E-30));
#1222=DIRECTION('center_axis',(8.60658852879314E-16,5.86326253338758E-15,
-1.));
#1223=DIRECTION('ref_axis',(-1.,0.,-8.60658852879314E-16));
#1224=DIRECTION('',(4.30565436332942E-16,-1.,-5.86326253338758E-15));
#1225=DIRECTION('center_axis',(1.,4.30565436332942E-16,0.));
#1226=DIRECTION('ref_axis',(-4.30565436332942E-16,1.,-3.15544362088406E-30));
#1227=DIRECTION('',(4.30565436332942E-16,-1.,-5.86326253338758E-15));
#1228=DIRECTION('center_axis',(-1.,-4.30565436332942E-16,0.));
#1229=DIRECTION('ref_axis',(4.94517309821662E-16,-0.707106781186547,-0.707106781186548));
#1230=DIRECTION('',(-4.30565436332942E-16,1.,-3.15544362088406E-30));
#1231=DIRECTION('',(-4.30565436332942E-16,1.,-3.15544362088406E-30));
#1232=DIRECTION('center_axis',(-1.,-4.30565436332942E-16,0.));
#1233=DIRECTION('ref_axis',(0.,0.650145265218852,-0.759809932886843));
#1234=DIRECTION('center_axis',(-8.61078487602976E-16,-1.,0.));
#1235=DIRECTION('ref_axis',(1.,-8.61078487602976E-16,0.));
#1236=DIRECTION('',(-8.61078487602976E-16,-1.,0.));
#1237=DIRECTION('center_axis',(-8.5233657402325E-16,-1.,0.));
#1238=DIRECTION('ref_axis',(1.,-8.5233657402325E-16,0.));
#1239=DIRECTION('',(-8.5233657402325E-16,-1.,0.));
#1240=DIRECTION('center_axis',(-8.5233657402325E-16,-1.,0.));
#1241=DIRECTION('ref_axis',(1.,-8.5233657402325E-16,0.));
#1242=DIRECTION('',(-8.5233657402325E-16,-1.,0.));
#1243=DIRECTION('center_axis',(-8.61078487602976E-16,-1.,0.));
#1244=DIRECTION('ref_axis',(1.,-8.61078487602976E-16,0.));
#1245=DIRECTION('',(8.61078487602976E-16,1.,0.));
#1246=DIRECTION('center_axis',(-8.61078487602976E-16,-1.,0.));
#1247=DIRECTION('ref_axis',(1.,-8.61078487602976E-16,0.));
#1248=DIRECTION('',(-8.61078487602976E-16,-1.,0.));
#1249=DIRECTION('center_axis',(8.60658852879314E-16,5.86326253338758E-15,
-1.));
#1250=DIRECTION('ref_axis',(-1.,0.,-8.60658852879314E-16));
#1251=DIRECTION('center_axis',(4.30565436332942E-16,-1.,0.));
#1252=DIRECTION('ref_axis',(1.,4.30565436332942E-16,8.60742260157615E-16));
#1253=DIRECTION('',(-4.30565436332942E-16,1.,0.));
#1254=DIRECTION('center_axis',(1.,0.,0.));
#1255=DIRECTION('ref_axis',(0.,0.650145265218852,-0.759809932886843));
#1256=DIRECTION('',(-1.,3.81870970951746E-91,1.21019741384179E-61));
#1257=DIRECTION('center_axis',(1.21019741384179E-61,3.15544362088406E-30,
1.));
#1258=DIRECTION('ref_axis',(1.,0.,-1.21019741384179E-61));
#1259=DIRECTION('center_axis',(4.30565436332942E-16,-1.,0.));
#1260=DIRECTION('ref_axis',(1.,4.30565436332942E-16,8.60742260157615E-16));
#1261=DIRECTION('center_axis',(-3.49676543189026E-16,1.,-3.15545717604621E-30));
#1262=DIRECTION('ref_axis',(1.69557392643794E-16,0.,1.));
#1263=DIRECTION('',(-4.30565436332942E-16,1.,0.));
#1264=DIRECTION('center_axis',(1.21019741384179E-61,3.15544362088406E-30,
1.));
#1265=DIRECTION('ref_axis',(1.,0.,-1.21019741384179E-61));
#1266=DIRECTION('',(1.,3.49676543189026E-16,-1.1033846175786E-45));
#1267=DIRECTION('center_axis',(3.49676543189026E-16,-1.,3.15545717604621E-30));
#1268=DIRECTION('ref_axis',(1.22464679914735E-16,0.,1.));
#1269=DIRECTION('center_axis',(-1.,-3.49676543189026E-16,1.1033846175786E-45));
#1270=DIRECTION('ref_axis',(4.94517309821662E-16,-0.707106781186547,-0.707106781186548));
#1271=DIRECTION('center_axis',(0.,3.49419376517245E-16,1.));
#1272=DIRECTION('ref_axis',(1.,3.20536831256607E-16,-1.12001779728497E-31));
#1273=DIRECTION('',(0.,3.49419376517245E-16,1.));
#1274=DIRECTION('center_axis',(0.,3.49419376517245E-16,1.));
#1275=DIRECTION('ref_axis',(1.,3.20536831256607E-16,-1.12001779728497E-31));
#1276=DIRECTION('',(0.,3.49419376517245E-16,1.));
#1277=DIRECTION('center_axis',(0.,3.49419376517245E-16,1.));
#1278=DIRECTION('ref_axis',(1.,3.20536831256607E-16,-1.12001779728497E-31));
#1279=DIRECTION('',(0.,3.49419376517245E-16,1.));
#1280=CARTESIAN_POINT('',(0.,0.,0.));
#1281=CARTESIAN_POINT('Origin',(-1.93648241897849E-15,-1.31923407001222E-14,
2.25000000000003));
#1282=CARTESIAN_POINT('',(-0.406249999999995,4.82067284913378,2.25000000000006));
#1283=CARTESIAN_POINT('',(-0.406249999999995,5.24999999999999,2.25000000000006));
#1284=CARTESIAN_POINT('',(-0.406249999999994,2.62499999999998,2.25000000000005));
#1285=CARTESIAN_POINT('',(-0.312500000000003,4.82067284913378,2.25000000000001));
#1286=CARTESIAN_POINT('',(-0.203125,4.82067284913378,2.25000000000006));
#1287=CARTESIAN_POINT('',(-0.312500000000003,5.24999999999999,2.25000000000006));
#1288=CARTESIAN_POINT('',(-0.312500000000003,5.24999999999999,2.25000000000006));
#1289=CARTESIAN_POINT('',(0.203124999999996,5.24999999999999,2.25000000000006));
#1290=CARTESIAN_POINT('Origin',(-0.406249999999995,5.24999999999999,-1.52983487645215E-16));
#1291=CARTESIAN_POINT('',(-0.406249999999994,2.15899999718104,2.25000000000004));
#1292=CARTESIAN_POINT('',(-0.406249999999994,2.62067284913378,2.25000000000005));
#1293=CARTESIAN_POINT('',(-0.406249999999994,2.62499999999998,2.25000000000005));
#1294=CARTESIAN_POINT('',(-0.406249999999994,2.62067284913378,0.822792051422564));
#1295=CARTESIAN_POINT('',(-0.406249999999994,2.62067284913378,1.84889602571128));
#1296=CARTESIAN_POINT('',(-0.406249999999994,2.74567284913378,0.697792051422564));
#1297=CARTESIAN_POINT('Origin',(-0.406249999999994,2.74567284913378,0.822792051422564));
#1298=CARTESIAN_POINT('',(-0.406249999999995,4.69567284913378,0.697792051422564));
#1299=CARTESIAN_POINT('',(-0.406249999999995,3.93533642456689,0.697792051422564));
#1300=CARTESIAN_POINT('',(-0.406249999999995,4.82067284913378,0.822792051422564));
#1301=CARTESIAN_POINT('Origin',(-0.406249999999995,4.69567284913378,0.822792051422564));
#1302=CARTESIAN_POINT('',(-0.406249999999995,4.82067284913378,0.348896025711282));
#1303=CARTESIAN_POINT('',(-0.406249999999995,5.24999999999999,0.798699365875563));
#1304=CARTESIAN_POINT('',(-0.406249999999995,5.24999999999999,-1.52983487645215E-16));
#1305=CARTESIAN_POINT('',(-0.406249999999995,5.14432778352837,0.675202658292404));
#1306=CARTESIAN_POINT('Origin',(-0.406249999999995,5.12499999999999,0.798699365875563));
#1307=CARTESIAN_POINT('',(-0.406249999999995,4.57479734170759,0.105672216471623));
#1308=CARTESIAN_POINT('Origin',(-0.406249999999995,5.24999999999999,-1.52983487645215E-16));
#1309=CARTESIAN_POINT('',(-0.406249999999995,4.45130063412443,-1.52983487645213E-16));
#1310=CARTESIAN_POINT('Origin',(-0.406249999999995,4.45130063412443,0.125));
#1311=CARTESIAN_POINT('',(-0.406249999999994,2.25000000000002,-1.52983487645206E-16));
#1312=CARTESIAN_POINT('',(-0.406249999999995,5.24999999999999,-1.52983487645215E-16));
#1313=CARTESIAN_POINT('',(-0.406249999999994,2.25000000000002,0.250000000000024));
#1314=CARTESIAN_POINT('',(-0.406249999999994,2.25000000000002,-2.26197013875378E-15));
#1315=CARTESIAN_POINT('',(-0.406249999999994,1.74999999999998,0.250000000000024));
#1316=CARTESIAN_POINT('Origin',(-0.406249999999994,2.,0.250000000000024));
#1317=CARTESIAN_POINT('',(-0.406249999999994,1.74999999999998,-1.52983487645204E-16));
#1318=CARTESIAN_POINT('',(-0.406249999999994,1.74999999999998,0.125000000000012));
#1319=CARTESIAN_POINT('',(-0.406249999999993,-0.111662618793234,-1.52983487645198E-16));
#1320=CARTESIAN_POINT('',(-0.406249999999995,5.24999999999999,-1.52983487645215E-16));
#1321=CARTESIAN_POINT('',(-0.406249999999993,-0.236662618793234,0.125));
#1322=CARTESIAN_POINT('Origin',(-0.406249999999993,-0.111662618793234,0.125));
#1323=CARTESIAN_POINT('',(-0.406249999999993,-0.236662618793234,1.37279205142256));
#1324=CARTESIAN_POINT('',(-0.406249999999993,-0.236662618793234,-7.6491743822599E-17));
#1325=CARTESIAN_POINT('',(-0.406249999999993,-0.111662618793234,1.49779205142256));
#1326=CARTESIAN_POINT('Origin',(-0.406249999999993,-0.111662618793234,1.37279205142256));
#1327=CARTESIAN_POINT('',(-0.406249999999994,2.03399999718104,1.49779205142256));
#1328=CARTESIAN_POINT('',(-0.406249999999994,2.20449999859052,1.49779205142256));
#1329=CARTESIAN_POINT('',(-0.406249999999994,2.15899999718104,1.62279205142256));
#1330=CARTESIAN_POINT('Origin',(-0.406249999999994,2.03399999718104,1.62279205142256));
#1331=CARTESIAN_POINT('',(-0.406249999999994,2.15899999718104,0.748896025711282));
#1332=CARTESIAN_POINT('',(-0.406249999999995,4.87999999999999,1.41499999999996));
#1333=CARTESIAN_POINT('',(-0.406249999999995,4.87999999999999,1.08499999999996));
#1334=CARTESIAN_POINT('',(-0.406249999999995,4.87999999999999,0.707499999999979));
#1335=CARTESIAN_POINT('',(-0.406249999999995,5.14999999999999,1.08499999999996));
#1336=CARTESIAN_POINT('',(-0.406249999999995,5.06499999999999,1.08499999999996));
#1337=CARTESIAN_POINT('',(-0.406249999999995,5.14999999999999,1.41499999999996));
#1338=CARTESIAN_POINT('',(-0.406249999999995,5.14999999999999,0.542499999999979));
#1339=CARTESIAN_POINT('',(-0.406249999999995,5.19999999999999,1.41499999999996));
#1340=CARTESIAN_POINT('Origin',(0.406249999999991,5.24999999999999,-1.52983487645215E-16));
#1341=CARTESIAN_POINT('',(-0.0625000000000002,5.24999999999999,2.25000000000001));
#1342=CARTESIAN_POINT('',(0.406249999999991,5.24999999999999,2.25000000000006));
#1343=CARTESIAN_POINT('',(0.203124999999996,5.24999999999999,2.25000000000006));
#1344=CARTESIAN_POINT('',(0.406249999999991,5.24999999999999,0.798699365875563));
#1345=CARTESIAN_POINT('',(0.406249999999991,5.24999999999999,-1.52983487645215E-16));
#1346=CARTESIAN_POINT('',(-0.406249999999995,5.24999999999999,0.798699365875563));
#1347=CARTESIAN_POINT('Origin',(-0.187500000000001,5.24999999999999,2.25000000000001));
#1348=CARTESIAN_POINT('',(-0.277500000000001,5.24999999999999,1.75000000000001));
#1349=CARTESIAN_POINT('Origin',(-0.187500000000001,5.24999999999999,1.75000000000001));
#1350=CARTESIAN_POINT('',(-0.269499999999864,5.24999999999999,1.24999999999995));
#1351=CARTESIAN_POINT('Origin',(-0.187499999999864,5.24999999999999,1.24999999999995));
#1352=CARTESIAN_POINT('Origin',(-0.187500000000001,5.24999999999999,2.25000000000001));
#1353=CARTESIAN_POINT('',(-0.0625000000000005,4.82067284913378,2.25000000000006));
#1354=CARTESIAN_POINT('',(-0.0625000000000002,5.24999999999999,2.25000000000006));
#1355=CARTESIAN_POINT('Origin',(-0.187500000000002,4.82067284913378,2.25000000000001));
#1356=CARTESIAN_POINT('Origin',(-0.406249999999995,4.82067284913378,0.697792051422564));
#1357=CARTESIAN_POINT('',(0.406249999999992,4.82067284913378,2.25000000000006));
#1358=CARTESIAN_POINT('',(-0.203125,4.82067284913378,2.25000000000006));
#1359=CARTESIAN_POINT('',(0.406249999999992,4.82067284913378,0.822792051422564));
#1360=CARTESIAN_POINT('',(-0.406249999999995,4.82067284913378,0.822792051422564));
#1361=CARTESIAN_POINT('',(0.406249999999992,4.82067284913378,0.348896025711282));
#1362=CARTESIAN_POINT('',(-0.269499999999865,4.82067284913378,1.24999999999995));
#1363=CARTESIAN_POINT('Origin',(-0.187499999999865,4.82067284913378,1.24999999999995));
#1364=CARTESIAN_POINT('',(-0.277500000000002,4.82067284913378,1.75000000000001));
#1365=CARTESIAN_POINT('Origin',(-0.187500000000002,4.82067284913378,1.75000000000001));
#1366=CARTESIAN_POINT('Origin',(-1.93648241897849E-15,-1.31923407001222E-14,
2.25000000000003));
#1367=CARTESIAN_POINT('',(-0.312500000000005,2.15899999718104,2.25000000000001));
#1368=CARTESIAN_POINT('',(-0.203124999999999,2.15899999718104,2.25000000000004));
#1369=CARTESIAN_POINT('',(-0.312500000000005,2.62067284913378,2.25000000000001));
#1370=CARTESIAN_POINT('',(-0.312500000000003,5.24999999999999,2.25000000000006));
#1371=CARTESIAN_POINT('',(-0.203124999999998,2.62067284913378,2.25000000000005));
#1372=CARTESIAN_POINT('Origin',(-0.406249999999994,2.62067284913378,3.69779205142256));
#1373=CARTESIAN_POINT('',(-0.0625000000000024,2.62067284913378,2.25000000000005));
#1374=CARTESIAN_POINT('',(0.406249999999993,2.62067284913378,2.25000000000005));
#1375=CARTESIAN_POINT('',(-0.203124999999998,2.62067284913378,2.25000000000005));
#1376=CARTESIAN_POINT('',(0.406249999999993,2.62067284913378,0.822792051422564));
#1377=CARTESIAN_POINT('',(0.406249999999993,2.62067284913378,1.84889602571128));
#1378=CARTESIAN_POINT('',(-0.406249999999994,2.62067284913378,0.822792051422564));
#1379=CARTESIAN_POINT('Origin',(-0.187500000000004,2.62067284913378,2.25000000000001));
#1380=CARTESIAN_POINT('',(-0.277500000000004,2.62067284913378,1.75000000000001));
#1381=CARTESIAN_POINT('Origin',(-0.187500000000004,2.62067284913378,1.75000000000001));
#1382=CARTESIAN_POINT('Origin',(-0.406249999999994,2.74567284913378,0.822792051422564));
#1383=CARTESIAN_POINT('',(0.406249999999992,2.74567284913378,0.697792051422564));
#1384=CARTESIAN_POINT('Origin',(0.406249999999993,2.74567284913378,0.822792051422564));
#1385=CARTESIAN_POINT('',(-0.406249999999994,2.74567284913378,0.697792051422564));
#1386=CARTESIAN_POINT('Origin',(-0.406249999999994,2.62067284913378,0.697792051422564));
#1387=CARTESIAN_POINT('',(0.406249999999992,4.69567284913378,0.697792051422564));
#1388=CARTESIAN_POINT('',(0.406249999999993,0.889836423157412,0.697792051422564));
#1389=CARTESIAN_POINT('',(-0.406249999999995,4.69567284913378,0.697792051422564));
#1390=CARTESIAN_POINT('Origin',(-0.406249999999995,4.69567284913378,0.822792051422564));
#1391=CARTESIAN_POINT('Origin',(0.406249999999992,4.69567284913378,0.822792051422564));
#1392=CARTESIAN_POINT('Origin',(-0.406249999999995,5.12499999999999,0.798699365875563));
#1393=CARTESIAN_POINT('',(0.406249999999994,5.14432778352837,0.675202658292404));
#1394=CARTESIAN_POINT('Origin',(0.406249999999994,5.12499999999999,0.798699365875563));
#1395=CARTESIAN_POINT('',(-0.406249999999995,5.14432778352837,0.675202658292404));
#1396=CARTESIAN_POINT('Origin',(-0.406249999999995,5.24999999999999,-1.52983487645215E-16));
#1397=CARTESIAN_POINT('',(0.0667711214970522,4.57479734170759,0.105672216471623));
#1398=CARTESIAN_POINT('',(-0.0667711214970561,4.57479734170759,0.105672216471623));
#1399=CARTESIAN_POINT('Ctrl Pts',(0.0667711214970522,4.57479734170759,0.105672216471623));
#1400=CARTESIAN_POINT('Ctrl Pts',(0.0608100081884577,4.57538683912158,0.109438866157567));
#1401=CARTESIAN_POINT('Ctrl Pts',(0.0544645623751023,4.57593504895069,0.112735770013616));
#1402=CARTESIAN_POINT('Ctrl Pts',(0.0324913257763948,4.57749707909676,0.121848343764338));
#1403=CARTESIAN_POINT('Ctrl Pts',(0.0157337231158391,4.57810696751702,0.125));
#1404=CARTESIAN_POINT('Ctrl Pts',(-0.0157337231158431,4.57810696751702,
0.125));
#1405=CARTESIAN_POINT('Ctrl Pts',(-0.0324913257763988,4.57749707909676,
0.121848343764338));
#1406=CARTESIAN_POINT('Ctrl Pts',(-0.0544645623751063,4.57593504895069,
0.112735770013616));
#1407=CARTESIAN_POINT('Ctrl Pts',(-0.0608100081884616,4.57538683912158,
0.109438866157567));
#1408=CARTESIAN_POINT('Ctrl Pts',(-0.0667711214970562,4.57479734170759,
0.105672216471623));
#1409=CARTESIAN_POINT('',(-0.406249999999995,4.57479734170759,0.105672216471623));
#1410=CARTESIAN_POINT('',(0.406249999999994,4.57479734170759,0.105672216471623));
#1411=CARTESIAN_POINT('Origin',(0.406249999999994,5.24999999999999,-1.52983487645215E-16));
#1412=CARTESIAN_POINT('',(-0.406249999999995,4.57479734170759,0.105672216471623));
#1413=CARTESIAN_POINT('Origin',(-0.406249999999995,4.45130063412443,0.125));
#1414=CARTESIAN_POINT('',(-0.125000000000002,4.45130063412443,-1.52983487645199E-16));
#1415=CARTESIAN_POINT('Ctrl Pts',(-0.0667711214970562,4.57479734170759,
0.105672216471623));
#1416=CARTESIAN_POINT('Ctrl Pts',(-0.0747977200927094,4.57400358744217,
0.100600448244046));
#1417=CARTESIAN_POINT('Ctrl Pts',(-0.082089854136773,4.5727481783741,0.0946868411598653));
#1418=CARTESIAN_POINT('Ctrl Pts',(-0.0940993372641697,4.56906934766355,
0.0826773580324686));
#1419=CARTESIAN_POINT('Ctrl Pts',(-0.0996098923698329,4.56653917157375,
0.0759670729189799));
#1420=CARTESIAN_POINT('Ctrl Pts',(-0.108733859070033,4.55965908900095,0.0622099195072773));
#1421=CARTESIAN_POINT('Ctrl Pts',(-0.112361648473135,4.55528271798619,0.0551858478950008));
#1422=CARTESIAN_POINT('Ctrl Pts',(-0.118015523595751,4.54510845732912,0.0419079782287023));
#1423=CARTESIAN_POINT('Ctrl Pts',(-0.12013320912637,4.53867210256742,0.0351025424391525));
#1424=CARTESIAN_POINT('Ctrl Pts',(-0.123038874570174,4.52407611509509,0.022926223795214));
#1425=CARTESIAN_POINT('Ctrl Pts',(-0.123838439853083,4.51591840108616,0.0175558084378332));
#1426=CARTESIAN_POINT('Ctrl Pts',(-0.125225553362193,4.48980612613293,0.00449615271439537));
#1427=CARTESIAN_POINT('Ctrl Pts',(-0.125000000000002,4.4700877184904,-1.05937763683769E-16));
#1428=CARTESIAN_POINT('Ctrl Pts',(-0.125000000000002,4.45130063412443,-1.30445741697469E-16));
#1429=CARTESIAN_POINT('',(-0.406249999999995,4.45130063412443,-1.52983487645199E-16));
#1430=CARTESIAN_POINT('Origin',(-5.68224382682167E-16,2.20449999859052,
-1.52983487645206E-16));
#1431=CARTESIAN_POINT('',(-0.125000000000001,2.25000000000002,-1.52983487645206E-16));
#1432=CARTESIAN_POINT('',(-0.203124999999997,2.25000000000002,-1.52983487645206E-16));
#1433=CARTESIAN_POINT('',(-0.124999999999999,-0.84100000281896,-1.52983487645196E-16));
#1434=CARTESIAN_POINT('Origin',(-0.406249999999994,2.25000000000002,-1.74838271594513E-16));
#1435=CARTESIAN_POINT('',(0.124999999999999,2.25000000000003,-1.52983487645206E-16));
#1436=CARTESIAN_POINT('Origin',(-9.81201221729855E-16,2.25000000000002,
0.));
#1437=CARTESIAN_POINT('',(0.406249999999993,2.25000000000002,-1.52983487645206E-16));
#1438=CARTESIAN_POINT('',(-0.203124999999997,2.25000000000002,-1.52983487645206E-16));
#1439=CARTESIAN_POINT('',(0.406249999999993,2.25000000000002,0.250000000000024));
#1440=CARTESIAN_POINT('',(0.406249999999993,2.25000000000002,1.99778951234595E-15));
#1441=CARTESIAN_POINT('',(-0.406249999999994,2.25000000000002,0.250000000000024));
#1442=CARTESIAN_POINT('Origin',(-0.406249999999994,2.,0.250000000000024));
#1443=CARTESIAN_POINT('',(0.406249999999993,1.74999999999998,0.250000000000024));
#1444=CARTESIAN_POINT('Origin',(0.406249999999993,2.,0.250000000000024));
#1445=CARTESIAN_POINT('',(-0.406249999999994,1.74999999999998,0.250000000000024));
#1446=CARTESIAN_POINT('Origin',(-0.406249999999994,1.74999999999998,0.250000000000024));
#1447=CARTESIAN_POINT('',(-0.125,1.74999999999998,-1.52983487645204E-16));
#1448=CARTESIAN_POINT('',(0.124999999999999,1.74999999999998,-1.52983487645204E-16));
#1449=CARTESIAN_POINT('Origin',(-7.65918503563363E-16,1.74999999999998,
0.));
#1450=CARTESIAN_POINT('',(-0.203124999999997,1.74999999999998,-1.52983487645199E-16));
#1451=CARTESIAN_POINT('',(0.406249999999993,1.74999999999998,-1.52983487645204E-16));
#1452=CARTESIAN_POINT('',(0.406249999999993,1.74999999999998,0.125000000000012));
#1453=CARTESIAN_POINT('',(-0.203124999999997,1.74999999999998,-1.52983487645199E-16));
#1454=CARTESIAN_POINT('Origin',(-5.68224382682167E-16,2.20449999859052,
-1.52983487645206E-16));
#1455=CARTESIAN_POINT('',(-0.125,-0.111662618793234,-1.52983487645196E-16));
#1456=CARTESIAN_POINT('',(-0.203124999999997,-0.111662618793234,-1.52983487645199E-16));
#1457=CARTESIAN_POINT('',(-0.124999999999999,-0.84100000281896,-1.52983487645196E-16));
#1458=CARTESIAN_POINT('Origin',(-0.203124999999997,-0.111662618793234,0.125));
#1459=CARTESIAN_POINT('',(-0.216506350946109,-0.236662618793234,0.125));
#1460=CARTESIAN_POINT('',(-0.203124999999997,-0.236662618793234,0.125));
#1461=CARTESIAN_POINT('Ctrl Pts',(-0.125,-0.111662618793234,-1.59813107629359E-16));
#1462=CARTESIAN_POINT('Ctrl Pts',(-0.125,-0.123272865370265,-1.70333148708103E-16));
#1463=CARTESIAN_POINT('Ctrl Pts',(-0.126630780311778,-0.134581908748142,
0.00160723456561729));
#1464=CARTESIAN_POINT('Ctrl Pts',(-0.132938774998706,-0.157911050762862,
0.00814504787747596));
#1465=CARTESIAN_POINT('Ctrl Pts',(-0.137939765395269,-0.16941684656361,
0.0134771884911816));
#1466=CARTESIAN_POINT('Ctrl Pts',(-0.15112205392704,-0.192809248673985,
0.0286306446068693));
#1467=CARTESIAN_POINT('Ctrl Pts',(-0.160230862366104,-0.204599783785452,
0.0398035502091972));
#1468=CARTESIAN_POINT('Ctrl Pts',(-0.177709365133564,-0.221265091252119,
0.0635928360628856));
#1469=CARTESIAN_POINT('Ctrl Pts',(-0.18550249003667,-0.226868875315445,
0.0749066250378794));
#1470=CARTESIAN_POINT('Ctrl Pts',(-0.201068829919023,-0.234584464574217,
0.0989681083493541));
#1471=CARTESIAN_POINT('Ctrl Pts',(-0.208838721165038,-0.23663000992928,
0.111730158716903));
#1472=CARTESIAN_POINT('Ctrl Pts',(-0.216386689105318,-0.236662489962668,
0.12479278255543));
#1473=CARTESIAN_POINT('Ctrl Pts',(-0.216446529315743,-0.236662618793234,
0.124896385896814));
#1474=CARTESIAN_POINT('Ctrl Pts',(-0.216506350946109,-0.236662618793234,
0.125));
#1475=CARTESIAN_POINT('Origin',(-0.406249999999993,-0.236662618793234,0.));
#1476=CARTESIAN_POINT('',(0.406249999999994,-0.236662618793234,1.37279205142256));
#1477=CARTESIAN_POINT('',(-0.406249999999993,-0.236662618793234,1.37279205142256));
#1478=CARTESIAN_POINT('',(0.216506350946109,-0.236662618793234,0.125));
#1479=CARTESIAN_POINT('Origin',(7.93586421006904E-17,-0.236662618793234,
3.94432147005776E-31));
#1480=CARTESIAN_POINT('',(0.406249999999994,-0.236662618793234,0.125));
#1481=CARTESIAN_POINT('',(-0.203124999999997,-0.236662618793234,0.125));
#1482=CARTESIAN_POINT('',(0.406249999999994,-0.236662618793234,-7.6491743822599E-17));
#1483=CARTESIAN_POINT('Origin',(-0.406249999999993,-0.111662618793234,1.37279205142256));
#1484=CARTESIAN_POINT('',(0.406249999999994,-0.111662618793234,1.49779205142256));
#1485=CARTESIAN_POINT('Origin',(0.406249999999994,-0.111662618793234,1.37279205142256));
#1486=CARTESIAN_POINT('',(-0.406249999999993,-0.111662618793234,1.49779205142256));
#1487=CARTESIAN_POINT('Origin',(-0.406249999999993,-0.84100000281896,1.49779205142256));
#1488=CARTESIAN_POINT('',(0.406249999999993,2.03399999718104,1.49779205142256));
#1489=CARTESIAN_POINT('',(0.406249999999994,-0.84100000281896,1.49779205142256));
#1490=CARTESIAN_POINT('',(-0.406249999999994,2.03399999718104,1.49779205142256));
#1491=CARTESIAN_POINT('',(-0.0900000000000004,0.249999997181034,1.49779205142256));
#1492=CARTESIAN_POINT('Origin',(-4.37095678986282E-16,0.249999997181034,
1.49779205142256));
#1493=CARTESIAN_POINT('',(-0.0900000000000008,1.24999999718103,1.49779205142256));
#1494=CARTESIAN_POINT('Origin',(-7.86772222175308E-16,1.24999999718103,
1.49779205142256));
#1495=CARTESIAN_POINT('',(-0.0860000000000004,0.749999997181034,1.49779205142256));
#1496=CARTESIAN_POINT('Origin',(-6.11933950580795E-16,0.749999997181034,
1.49779205142256));
#1497=CARTESIAN_POINT('Origin',(-0.406249999999994,2.03399999718104,1.62279205142256));
#1498=CARTESIAN_POINT('',(0.406249999999993,2.15899999718104,1.62279205142256));
#1499=CARTESIAN_POINT('Origin',(0.406249999999993,2.03399999718104,1.62279205142256));
#1500=CARTESIAN_POINT('',(-0.406249999999994,2.15899999718104,1.62279205142256));
#1501=CARTESIAN_POINT('Origin',(-0.406249999999994,2.15899999718104,1.49779205142256));
#1502=CARTESIAN_POINT('',(0.406249999999993,2.15899999718104,2.25000000000004));
#1503=CARTESIAN_POINT('',(-0.0625000000000028,2.15899999718104,2.25000000000004));
#1504=CARTESIAN_POINT('',(-0.203124999999999,2.15899999718104,2.25000000000004));
#1505=CARTESIAN_POINT('Origin',(-0.187500000000004,2.15899999718104,2.25000000000001));
#1506=CARTESIAN_POINT('',(0.406249999999993,2.15899999718104,0.748896025711281));
#1507=CARTESIAN_POINT('',(-0.277500000000004,2.15899999718104,1.75000000000001));
#1508=CARTESIAN_POINT('Origin',(-0.187500000000004,2.15899999718104,1.75000000000001));
#1509=CARTESIAN_POINT('Origin',(-0.406249999999995,4.87999999999999,1.41499999999996));
#1510=CARTESIAN_POINT('',(0.406249999999992,4.87999999999999,1.08499999999996));
#1511=CARTESIAN_POINT('',(0.406249999999992,4.87999999999999,1.41499999999996));
#1512=CARTESIAN_POINT('',(0.406249999999992,4.87999999999999,0.707499999999979));
#1513=CARTESIAN_POINT('',(-0.406249999999995,4.87999999999999,1.08499999999996));
#1514=CARTESIAN_POINT('',(-0.406249999999995,4.87999999999999,1.41499999999996));
#1515=CARTESIAN_POINT('',(-0.269499999999865,4.87999999999999,1.24999999999995));
#1516=CARTESIAN_POINT('Origin',(-0.187499999999865,4.87999999999999,1.24999999999995));
#1517=CARTESIAN_POINT('Origin',(-0.406249999999995,4.87999999999999,1.08499999999996));
#1518=CARTESIAN_POINT('',(0.406249999999991,5.14999999999999,1.08499999999996));
#1519=CARTESIAN_POINT('',(0.406249999999993,2.01949999859052,1.08499999999996));
#1520=CARTESIAN_POINT('',(-0.406249999999995,5.14999999999999,1.08499999999996));
#1521=CARTESIAN_POINT('Origin',(-0.406249999999995,5.14999999999999,1.08499999999996));
#1522=CARTESIAN_POINT('',(0.406249999999991,5.14999999999999,1.41499999999996));
#1523=CARTESIAN_POINT('',(0.406249999999991,5.14999999999999,0.542499999999979));
#1524=CARTESIAN_POINT('',(-0.406249999999995,5.14999999999999,1.41499999999996));
#1525=CARTESIAN_POINT('',(-0.269499999999864,5.14999999999999,1.24999999999995));
#1526=CARTESIAN_POINT('Origin',(-0.187499999999864,5.14999999999999,1.24999999999995));
#1527=CARTESIAN_POINT('Origin',(-0.406249999999995,5.14999999999999,1.41499999999996));
#1528=CARTESIAN_POINT('',(0.406249999999993,2.15449999859052,1.41499999999996));
#1529=CARTESIAN_POINT('Origin',(-1.93648241897849E-15,-1.31923407001222E-14,
2.25000000000003));
#1530=CARTESIAN_POINT('',(0.406249999999994,-0.420500001409493,2.25000000000003));
#1531=CARTESIAN_POINT('Origin',(0.406249999999994,-0.84100000281896,-1.52983487645196E-16));
#1532=CARTESIAN_POINT('',(0.406249999999994,-0.420500001409493,2.25000000000003));
#1533=CARTESIAN_POINT('',(0.406249999999994,-0.111662618793234,-1.52983487645198E-16));
#1534=CARTESIAN_POINT('Origin',(0.406249999999994,-0.111662618793234,0.125));
#1535=CARTESIAN_POINT('',(0.406249999999994,-0.84100000281896,-1.52983487645196E-16));
#1536=CARTESIAN_POINT('',(0.406249999999992,4.45130063412443,-1.52983487645213E-16));
#1537=CARTESIAN_POINT('',(0.406249999999994,-0.84100000281896,-1.52983487645196E-16));
#1538=CARTESIAN_POINT('Origin',(0.406249999999994,4.45130063412443,0.125));
#1539=CARTESIAN_POINT('Origin',(-0.187500000000001,5.24999999999999,1.75000000000001));
#1540=CARTESIAN_POINT('',(-0.277500000000001,5.24999999999999,1.75000000000001));
#1541=CARTESIAN_POINT('Origin',(-0.187499999999864,5.24999999999999,1.24999999999995));
#1542=CARTESIAN_POINT('',(-0.269499999999864,5.24999999999999,1.24999999999995));
#1543=CARTESIAN_POINT('Origin',(-0.187499999999864,5.24999999999999,1.24999999999995));
#1544=CARTESIAN_POINT('',(-0.269499999999864,5.24999999999999,1.24999999999995));
#1545=CARTESIAN_POINT('Origin',(-0.187500000000001,5.24999999999999,2.25000000000001));
#1546=CARTESIAN_POINT('',(-0.0625000000000002,5.24999999999999,2.25000000000006));
#1547=CARTESIAN_POINT('Origin',(-0.187500000000001,5.24999999999999,1.75000000000001));
#1548=CARTESIAN_POINT('',(-0.277500000000001,5.24999999999999,1.75000000000001));
#1549=CARTESIAN_POINT('Origin',(-1.93648241897849E-15,-1.31923407001222E-14,
2.25000000000003));
#1550=CARTESIAN_POINT('Origin',(3.49676543189026E-16,-0.841000002818961,
0.));
#1551=CARTESIAN_POINT('',(0.124999999999998,4.45130063412443,-1.52983487645199E-16));
#1552=CARTESIAN_POINT('Ctrl Pts',(0.124999999999998,4.45130063412443,-1.52812747145595E-16));
#1553=CARTESIAN_POINT('Ctrl Pts',(0.124999999999998,4.4700877184904,-1.42905266671971E-16));
#1554=CARTESIAN_POINT('Ctrl Pts',(0.125225553362189,4.48980612613293,0.00449615271439538));
#1555=CARTESIAN_POINT('Ctrl Pts',(0.123838439853079,4.51591840108616,0.0175558084378332));
#1556=CARTESIAN_POINT('Ctrl Pts',(0.12303887457017,4.52407611509509,0.022926223795214));
#1557=CARTESIAN_POINT('Ctrl Pts',(0.120133209126366,4.53867210256742,0.0351025424391524));
#1558=CARTESIAN_POINT('Ctrl Pts',(0.118015523595748,4.54510845732912,0.0419079782287023));
#1559=CARTESIAN_POINT('Ctrl Pts',(0.112361648473132,4.55528271798619,0.0551858478950007));
#1560=CARTESIAN_POINT('Ctrl Pts',(0.108733859070029,4.55965908900095,0.0622099195072773));
#1561=CARTESIAN_POINT('Ctrl Pts',(0.0996098923698289,4.56653917157375,0.0759670729189799));
#1562=CARTESIAN_POINT('Ctrl Pts',(0.0940993372641657,4.56906934766355,0.0826773580324686));
#1563=CARTESIAN_POINT('Ctrl Pts',(0.082089854136769,4.5727481783741,0.0946868411598653));
#1564=CARTESIAN_POINT('Ctrl Pts',(0.0747977200927054,4.57400358744217,0.100600448244046));
#1565=CARTESIAN_POINT('Ctrl Pts',(0.0667711214970522,4.57479734170759,0.105672216471623));
#1566=CARTESIAN_POINT('',(0.125,-0.84100000281896,-1.52983487645196E-16));
#1567=CARTESIAN_POINT('Origin',(-0.406249999999995,4.45130063412443,0.125));
#1568=CARTESIAN_POINT('',(-0.406249999999995,4.45130063412443,-1.52983487645199E-16));
#1569=CARTESIAN_POINT('Origin',(-5.68224382682167E-16,2.20449999859052,
-1.52983487645206E-16));
#1570=CARTESIAN_POINT('Origin',(3.49676543189026E-16,-0.841000002818961,
0.));
#1571=CARTESIAN_POINT('',(0.125,-0.111662618793234,-1.52983487645196E-16));
#1572=CARTESIAN_POINT('Origin',(3.56490742020622E-17,-0.111662618793234,
0.));
#1573=CARTESIAN_POINT('',(0.125,-0.84100000281896,-1.52983487645196E-16));
#1574=CARTESIAN_POINT('',(-0.0860000000000004,0.749999997181033,0.0907138357694122));
#1575=CARTESIAN_POINT('Ctrl Pts',(-0.0860000000000004,0.749999997181033,
0.0907138357694122));
#1576=CARTESIAN_POINT('Ctrl Pts',(-0.0860000000000004,0.761361893693585,
0.0907138357694122));
#1577=CARTESIAN_POINT('Ctrl Pts',(-0.0836494617417717,0.772982104269177,
0.0930618815587563));
#1578=CARTESIAN_POINT('Ctrl Pts',(-0.0747969894108764,0.793941145521551,
0.100315268376875));
#1579=CARTESIAN_POINT('Ctrl Pts',(-0.068286676782197,0.803335686762923,
0.105048272055468));
#1580=CARTESIAN_POINT('Ctrl Pts',(-0.0534328696118156,0.818189493933304,
0.113319226436683));
#1581=CARTESIAN_POINT('Ctrl Pts',(-0.0440192922471593,0.824762693358799,
0.117504001608834));
#1582=CARTESIAN_POINT('Ctrl Pts',(-0.0229201638576846,0.833676908476866,
0.123367560050876));
#1583=CARTESIAN_POINT('Ctrl Pts',(-0.0112141939657825,0.835999997181033,
0.125));
#1584=CARTESIAN_POINT('Ctrl Pts',(0.0112141939657813,0.835999997181033,
0.125));
#1585=CARTESIAN_POINT('Ctrl Pts',(0.0229201638576834,0.833676908476866,
0.123367560050876));
#1586=CARTESIAN_POINT('Ctrl Pts',(0.0440192922471581,0.824762693358799,
0.117504001608834));
#1587=CARTESIAN_POINT('Ctrl Pts',(0.0534328696118144,0.818189493933304,
0.113319226436683));
#1588=CARTESIAN_POINT('Ctrl Pts',(0.0682866767821958,0.803335686762923,
0.105048272055469));
#1589=CARTESIAN_POINT('Ctrl Pts',(0.0747969894108752,0.793941145521551,
0.100315268376876));
#1590=CARTESIAN_POINT('Ctrl Pts',(0.0836494617417705,0.772982104269177,
0.0930618815587568));
#1591=CARTESIAN_POINT('Ctrl Pts',(0.0859999999999991,0.761361893693585,
0.0907138357694127));
#1592=CARTESIAN_POINT('Ctrl Pts',(0.0859999999999992,0.738638100668482,
0.0907138357694127));
#1593=CARTESIAN_POINT('Ctrl Pts',(0.0836494617417706,0.72701789009289,0.0930618815587568));
#1594=CARTESIAN_POINT('Ctrl Pts',(0.0747969894108753,0.706058848840515,
0.100315268376876));
#1595=CARTESIAN_POINT('Ctrl Pts',(0.0682866767821958,0.696664307599144,
0.105048272055469));
#1596=CARTESIAN_POINT('Ctrl Pts',(0.0534328696118143,0.681810500428762,
0.113319226436683));
#1597=CARTESIAN_POINT('Ctrl Pts',(0.0440192922471581,0.675237301003267,
0.117504001608834));
#1598=CARTESIAN_POINT('Ctrl Pts',(0.0229201638576835,0.6663230858852,0.123367560050876));
#1599=CARTESIAN_POINT('Ctrl Pts',(0.0112141939657813,0.663999997181034,
0.125));
#1600=CARTESIAN_POINT('Ctrl Pts',(-0.0112141939657825,0.663999997181034,
0.125));
#1601=CARTESIAN_POINT('Ctrl Pts',(-0.0229201638576847,0.6663230858852,0.123367560050876));
#1602=CARTESIAN_POINT('Ctrl Pts',(-0.0440192922471593,0.675237301003267,
0.117504001608834));
#1603=CARTESIAN_POINT('Ctrl Pts',(-0.0534328696118155,0.681810500428762,
0.113319226436683));
#1604=CARTESIAN_POINT('Ctrl Pts',(-0.068286676782197,0.696664307599144,
0.105048272055468));
#1605=CARTESIAN_POINT('Ctrl Pts',(-0.0747969894108765,0.706058848840515,
0.100315268376875));
#1606=CARTESIAN_POINT('Ctrl Pts',(-0.0836494617417718,0.72701789009289,
0.0930618815587562));
#1607=CARTESIAN_POINT('Ctrl Pts',(-0.0860000000000004,0.738638100668482,
0.0907138357694122));
#1608=CARTESIAN_POINT('Ctrl Pts',(-0.0860000000000004,0.749999997181033,
0.0907138357694122));
#1609=CARTESIAN_POINT('',(-0.0900000000000008,1.24999999718103,0.0867467578644865));
#1610=CARTESIAN_POINT('Ctrl Pts',(-0.0900000000000008,1.24999999718103,
0.0867467578644865));
#1611=CARTESIAN_POINT('Ctrl Pts',(-0.0900000000000008,1.26198373120465,
0.0867467578644865));
#1612=CARTESIAN_POINT('Ctrl Pts',(-0.087514440501999,1.27413356339944,0.0894678909409414));
#1613=CARTESIAN_POINT('Ctrl Pts',(-0.0782517049133912,1.29602044035735,
0.0976726579366285));
#1614=CARTESIAN_POINT('Ctrl Pts',(-0.0714571160543947,1.30582210174022,
0.102962988739758));
#1615=CARTESIAN_POINT('Ctrl Pts',(-0.055952413382858,1.32132680441175,0.112134279328132));
#1616=CARTESIAN_POINT('Ctrl Pts',(-0.0461300991106605,1.32820267076704,
0.11674433587425));
#1617=CARTESIAN_POINT('Ctrl Pts',(-0.0240571167538352,1.3375494117544,0.123200980248384));
#1618=CARTESIAN_POINT('Ctrl Pts',(-0.0117839789694778,1.33999999718103,
0.125));
#1619=CARTESIAN_POINT('Ctrl Pts',(0.0117839789694762,1.33999999718103,0.125));
#1620=CARTESIAN_POINT('Ctrl Pts',(0.0240571167538336,1.3375494117544,0.123200980248384));
#1621=CARTESIAN_POINT('Ctrl Pts',(0.0461300991106589,1.32820267076704,0.11674433587425));
#1622=CARTESIAN_POINT('Ctrl Pts',(0.0559524133828564,1.32132680441175,0.112134279328132));
#1623=CARTESIAN_POINT('Ctrl Pts',(0.0714571160543931,1.30582210174022,0.102962988739759));
#1624=CARTESIAN_POINT('Ctrl Pts',(0.0782517049133897,1.29602044035735,0.0976726579366288));
#1625=CARTESIAN_POINT('Ctrl Pts',(0.0875144405019974,1.27413356339944,0.0894678909409418));
#1626=CARTESIAN_POINT('Ctrl Pts',(0.0899999999999992,1.26198373120465,0.086746757864487));
#1627=CARTESIAN_POINT('Ctrl Pts',(0.0899999999999992,1.23801626315742,0.086746757864487));
#1628=CARTESIAN_POINT('Ctrl Pts',(0.0875144405019975,1.22586643096262,0.0894678909409418));
#1629=CARTESIAN_POINT('Ctrl Pts',(0.0782517049133898,1.20397955400472,0.0976726579366287));
#1630=CARTESIAN_POINT('Ctrl Pts',(0.0714571160543929,1.19417789262185,0.102962988739759));
#1631=CARTESIAN_POINT('Ctrl Pts',(0.0559524133828563,1.17867318995031,0.112134279328132));
#1632=CARTESIAN_POINT('Ctrl Pts',(0.0461300991106589,1.17179732359503,0.11674433587425));
#1633=CARTESIAN_POINT('Ctrl Pts',(0.0240571167538337,1.16245058260767,0.123200980248384));
#1634=CARTESIAN_POINT('Ctrl Pts',(0.0117839789694762,1.15999999718103,0.125));
#1635=CARTESIAN_POINT('Ctrl Pts',(-0.0117839789694778,1.15999999718103,
0.125));
#1636=CARTESIAN_POINT('Ctrl Pts',(-0.0240571167538354,1.16245058260767,
0.123200980248384));
#1637=CARTESIAN_POINT('Ctrl Pts',(-0.0461300991106606,1.17179732359503,
0.11674433587425));
#1638=CARTESIAN_POINT('Ctrl Pts',(-0.0559524133828579,1.17867318995031,
0.112134279328132));
#1639=CARTESIAN_POINT('Ctrl Pts',(-0.0714571160543945,1.19417789262185,
0.102962988739759));
#1640=CARTESIAN_POINT('Ctrl Pts',(-0.0782517049133914,1.20397955400472,
0.0976726579366283));
#1641=CARTESIAN_POINT('Ctrl Pts',(-0.087514440501999,1.22586643096262,0.0894678909409413));
#1642=CARTESIAN_POINT('Ctrl Pts',(-0.0900000000000008,1.23801626315742,
0.0867467578644865));
#1643=CARTESIAN_POINT('Ctrl Pts',(-0.0900000000000008,1.24999999718103,
0.0867467578644865));
#1644=CARTESIAN_POINT('',(-0.0900000000000004,0.249999997181033,0.0867467578644864));
#1645=CARTESIAN_POINT('Ctrl Pts',(-0.0900000000000004,0.249999997181033,
0.0867467578644864));
#1646=CARTESIAN_POINT('Ctrl Pts',(-0.0900000000000005,0.261983731204646,
0.0867467578644864));
#1647=CARTESIAN_POINT('Ctrl Pts',(-0.0875144405019987,0.274133563399442,
0.0894678909409412));
#1648=CARTESIAN_POINT('Ctrl Pts',(-0.078251704913391,0.296020440357351,
0.0976726579366283));
#1649=CARTESIAN_POINT('Ctrl Pts',(-0.0714571160543943,0.305822101740218,
0.102962988739758));
#1650=CARTESIAN_POINT('Ctrl Pts',(-0.0559524133828577,0.321326804411755,
0.112134279328132));
#1651=CARTESIAN_POINT('Ctrl Pts',(-0.0461300991106601,0.328202670767038,
0.11674433587425));
#1652=CARTESIAN_POINT('Ctrl Pts',(-0.0240571167538348,0.337549411754399,
0.123200980248384));
#1653=CARTESIAN_POINT('Ctrl Pts',(-0.0117839789694775,0.339999997181034,
0.125));
#1654=CARTESIAN_POINT('Ctrl Pts',(0.0117839789694766,0.339999997181034,
0.125));
#1655=CARTESIAN_POINT('Ctrl Pts',(0.0240571167538339,0.337549411754399,
0.123200980248384));
#1656=CARTESIAN_POINT('Ctrl Pts',(0.0461300991106592,0.328202670767038,
0.11674433587425));
#1657=CARTESIAN_POINT('Ctrl Pts',(0.0559524133828568,0.321326804411755,
0.112134279328132));
#1658=CARTESIAN_POINT('Ctrl Pts',(0.0714571160543934,0.305822101740218,
0.102962988739759));
#1659=CARTESIAN_POINT('Ctrl Pts',(0.0782517049133901,0.296020440357351,
0.0976726579366288));
#1660=CARTESIAN_POINT('Ctrl Pts',(0.0875144405019978,0.274133563399442,
0.0894678909409418));
#1661=CARTESIAN_POINT('Ctrl Pts',(0.0899999999999996,0.261983731204646,
0.0867467578644871));
#1662=CARTESIAN_POINT('Ctrl Pts',(0.0899999999999995,0.23801626315742,0.0867467578644871));
#1663=CARTESIAN_POINT('Ctrl Pts',(0.0875144405019977,0.225866430962624,
0.089467890940942));
#1664=CARTESIAN_POINT('Ctrl Pts',(0.07825170491339,0.203979554004716,0.0976726579366289));
#1665=CARTESIAN_POINT('Ctrl Pts',(0.0714571160543933,0.194177892621849,
0.102962988739759));
#1666=CARTESIAN_POINT('Ctrl Pts',(0.0559524133828567,0.178673189950312,
0.112134279328132));
#1667=CARTESIAN_POINT('Ctrl Pts',(0.0461300991106592,0.171797323595029,
0.11674433587425));
#1668=CARTESIAN_POINT('Ctrl Pts',(0.0240571167538339,0.162450582607668,
0.123200980248384));
#1669=CARTESIAN_POINT('Ctrl Pts',(0.0117839789694766,0.159999997181033,
0.125));
#1670=CARTESIAN_POINT('Ctrl Pts',(-0.0117839789694774,0.159999997181033,
0.125));
#1671=CARTESIAN_POINT('Ctrl Pts',(-0.0240571167538348,0.162450582607668,
0.123200980248384));
#1672=CARTESIAN_POINT('Ctrl Pts',(-0.0461300991106601,0.171797323595029,
0.11674433587425));
#1673=CARTESIAN_POINT('Ctrl Pts',(-0.0559524133828576,0.178673189950312,
0.112134279328132));
#1674=CARTESIAN_POINT('Ctrl Pts',(-0.0714571160543942,0.194177892621849,
0.102962988739758));
#1675=CARTESIAN_POINT('Ctrl Pts',(-0.0782517049133908,0.203979554004716,
0.0976726579366284));
#1676=CARTESIAN_POINT('Ctrl Pts',(-0.0875144405019986,0.225866430962624,
0.0894678909409413));
#1677=CARTESIAN_POINT('Ctrl Pts',(-0.0900000000000004,0.23801626315742,
0.0867467578644865));
#1678=CARTESIAN_POINT('Ctrl Pts',(-0.0900000000000004,0.249999997181033,
0.0867467578644864));
#1679=CARTESIAN_POINT('Origin',(-5.68224382682167E-16,2.20449999859052,
-1.52983487645206E-16));
#1680=CARTESIAN_POINT('',(-0.203124999999997,-0.111662618793234,-1.52983487645199E-16));
#1681=CARTESIAN_POINT('Origin',(3.56490742020622E-17,-0.111662618793234,
0.));
#1682=CARTESIAN_POINT('Ctrl Pts',(0.216506350946109,-0.236662618793234,
0.125));
#1683=CARTESIAN_POINT('Ctrl Pts',(0.21644652931574,-0.236662618793234,0.124896385896809));
#1684=CARTESIAN_POINT('Ctrl Pts',(0.216386689105311,-0.236662489962668,
0.124792782555418));
#1685=CARTESIAN_POINT('Ctrl Pts',(0.208838721164866,-0.236630009929277,
0.111730158716613));
#1686=CARTESIAN_POINT('Ctrl Pts',(0.201068829918848,-0.234584464574131,
0.0989681083490836));
#1687=CARTESIAN_POINT('Ctrl Pts',(0.185502490036667,-0.226868875315442,
0.0749066250378738));
#1688=CARTESIAN_POINT('Ctrl Pts',(0.177709365133562,-0.221265091252117,
0.0635928360628831));
#1689=CARTESIAN_POINT('Ctrl Pts',(0.16023086236611,-0.204599783785458,0.0398035502092056));
#1690=CARTESIAN_POINT('Ctrl Pts',(0.151122053927045,-0.192809248673993,
0.0286306446068745));
#1691=CARTESIAN_POINT('Ctrl Pts',(0.137939765395269,-0.169416846563609,
0.0134771884911813));
#1692=CARTESIAN_POINT('Ctrl Pts',(0.132938774998706,-0.157911050762862,
0.00814504787747588));
#1693=CARTESIAN_POINT('Ctrl Pts',(0.126630780311779,-0.134581908748142,
0.00160723456561723));
#1694=CARTESIAN_POINT('Ctrl Pts',(0.125,-0.123272865370265,-1.69730594924407E-16));
#1695=CARTESIAN_POINT('Ctrl Pts',(0.125,-0.111662618793234,-1.64252360619064E-16));
#1696=CARTESIAN_POINT('Origin',(-0.203124999999997,-0.111662618793234,0.125));
#1697=CARTESIAN_POINT('Origin',(-4.37095678986282E-16,0.249999997181034,
1.49779205142256));
#1698=CARTESIAN_POINT('',(-0.0900000000000004,0.249999997181034,1.49779205142256));
#1699=CARTESIAN_POINT('Origin',(-7.86772222175308E-16,1.24999999718103,
1.49779205142256));
#1700=CARTESIAN_POINT('',(-0.0900000000000008,1.24999999718103,1.49779205142256));
#1701=CARTESIAN_POINT('Origin',(-6.11933950580795E-16,0.749999997181034,
1.49779205142256));
#1702=CARTESIAN_POINT('',(-0.0860000000000004,0.749999997181034,1.49779205142256));
#1703=UNCERTAINTY_MEASURE_WITH_UNIT(LENGTH_MEASURE(0.000393700787401575),
#1709,'DISTANCE_ACCURACY_VALUE',
'Maximum model space distance between geometric entities at asserted c
onnectivities');
#1704=UNCERTAINTY_MEASURE_WITH_UNIT(LENGTH_MEASURE(0.000393700787401575),
#1709,'DISTANCE_ACCURACY_VALUE',
'Maximum model space distance between geometric entities at asserted c
onnectivities');
#1705=(
GEOMETRIC_REPRESENTATION_CONTEXT(3)
GLOBAL_UNCERTAINTY_ASSIGNED_CONTEXT((#1703))
GLOBAL_UNIT_ASSIGNED_CONTEXT((#1709,#1713,#1714))
REPRESENTATION_CONTEXT('','3D')
);
#1706=(
GEOMETRIC_REPRESENTATION_CONTEXT(3)
GLOBAL_UNCERTAINTY_ASSIGNED_CONTEXT((#1704))
GLOBAL_UNIT_ASSIGNED_CONTEXT((#1709,#1713,#1714))
REPRESENTATION_CONTEXT('','3D')
);
#1707=DIMENSIONAL_EXPONENTS(1.,0.,0.,0.,0.,0.,0.);
#1708=DIMENSIONAL_EXPONENTS(0.,1.,0.,0.,0.,0.,0.);
#1709=(
CONVERSION_BASED_UNIT('inch',#1712)
LENGTH_UNIT()
NAMED_UNIT(#1707)
);
#1710=(
LENGTH_UNIT()
NAMED_UNIT(*)
SI_UNIT(.MILLI.,.METRE.)
);
#1711=(
LENGTH_UNIT()
NAMED_UNIT(*)
SI_UNIT(.CENTI.,.METRE.)
);
#1712=LENGTH_MEASURE_WITH_UNIT(LENGTH_MEASURE(25.4),#1710);
#1713=(
NAMED_UNIT(*)
PLANE_ANGLE_UNIT()
SI_UNIT($,.RADIAN.)
);
#1714=(
NAMED_UNIT(*)
SI_UNIT($,.STERADIAN.)
SOLID_ANGLE_UNIT()
);
#1715=SHAPE_DEFINITION_REPRESENTATION(#1716,#1717);
#1716=PRODUCT_DEFINITION_SHAPE('',$,#1719);
#1717=SHAPE_REPRESENTATION('',(#943),#1705);
#1718=PRODUCT_DEFINITION_CONTEXT('part definition',#1723,'design');
#1719=PRODUCT_DEFINITION('OdomRight','OdomRight',#1720,#1718);
#1720=PRODUCT_DEFINITION_FORMATION('',$,#1725);
#1721=PRODUCT_RELATED_PRODUCT_CATEGORY('OdomRight','OdomRight',(#1725));
#1722=APPLICATION_PROTOCOL_DEFINITION('international standard',
'automotive_design',2009,#1723);
#1723=APPLICATION_CONTEXT(
'Core Data for Automotive Mechanical Design Process');
#1724=PRODUCT_CONTEXT('part definition',#1723,'mechanical');
#1725=PRODUCT('OdomRight','OdomRight',$,(#1724));
#1726=PRESENTATION_STYLE_ASSIGNMENT((#1727));
#1727=SURFACE_STYLE_USAGE(.BOTH.,#1730);
#1728=SURFACE_STYLE_RENDERING_WITH_PROPERTIES($,#1734,(#1729));
#1729=SURFACE_STYLE_TRANSPARENT(0.);
#1730=SURFACE_SIDE_STYLE('',(#1731,#1728));
#1731=SURFACE_STYLE_FILL_AREA(#1732);
#1732=FILL_AREA_STYLE('',(#1733));
#1733=FILL_AREA_STYLE_COLOUR('',#1734);
#1734=COLOUR_RGB('',0.0196078431372549,0.0196078431372549,0.0196078431372549);
ENDSEC;
END-ISO-10303-21;
