ISO-10303-21;
HEADER;
/* Generated by software containing ST-Developer
 * from STEP Tools, Inc. (www.steptools.com) 
 */

FILE_DESCRIPTION(
/* description */ (''),
/* implementation_level */ '2;1');

FILE_NAME(
/* name */ 'RigidPieceFloat.stp',
/* time_stamp */ '2025-09-29T15:43:41-04:00',
/* author */ ('Teddy'),
/* organization */ (''),
/* preprocessor_version */ 'ST-DEVELOPER v20.1',
/* originating_system */ 'Autodesk Inventor 2026',
/* authorisation */ '');

FILE_SCHEMA (('AUTOMOTIVE_DESIGN { 1 0 10303 214 3 1 1 }'));
ENDSEC;

DATA;
#10=MECHANICAL_DESIGN_GEOMETRIC_PRESENTATION_REPRESENTATION('',(#13),#516);
#11=SHAPE_REPRESENTATION_RELATIONSHIP('SRR','None',#527,#12);
#12=ADVANCED_BREP_SHAPE_REPRESENTATION('',(#14),#515);
#13=STYLED_ITEM('',(#536),#14);
#14=MANIFOLD_SOLID_BREP('Solid1',#280);
#15=FACE_BOUND('',#88,.T.);
#16=FACE_BOUND('',#89,.T.);
#17=FACE_BOUND('',#90,.T.);
#18=FACE_BOUND('',#97,.T.);
#19=FACE_BOUND('',#98,.T.);
#20=FACE_BOUND('',#99,.T.);
#21=PLANE('',#314);
#22=PLANE('',#317);
#23=PLANE('',#333);
#24=PLANE('',#340);
#25=LINE('',#450,#40);
#26=LINE('',#451,#41);
#27=LINE('',#459,#42);
#28=LINE('',#460,#43);
#29=LINE('',#463,#44);
#30=LINE('',#465,#45);
#31=LINE('',#466,#46);
#32=LINE('',#469,#47);
#33=LINE('',#489,#48);
#34=LINE('',#495,#49);
#35=LINE('',#496,#50);
#36=LINE('',#498,#51);
#37=LINE('',#507,#52);
#38=LINE('',#509,#53);
#39=LINE('',#511,#54);
#40=VECTOR('',#357,0.393700787401575);
#41=VECTOR('',#358,0.393700787401575);
#42=VECTOR('',#369,0.393700787401575);
#43=VECTOR('',#370,0.393700787401575);
#44=VECTOR('',#373,0.393700787401575);
#45=VECTOR('',#374,0.393700787401575);
#46=VECTOR('',#375,0.393700787401575);
#47=VECTOR('',#378,0.393700787401575);
#48=VECTOR('',#403,0.393700787401575);
#49=VECTOR('',#412,0.393700787401575);
#50=VECTOR('',#413,0.393700787401575);
#51=VECTOR('',#416,0.393700787401575);
#52=VECTOR('',#427,0.086);
#53=VECTOR('',#430,0.086);
#54=VECTOR('',#433,0.086);
#55=CYLINDRICAL_SURFACE('',#307,0.03);
#56=CYLINDRICAL_SURFACE('',#313,0.03);
#57=CYLINDRICAL_SURFACE('',#315,0.2);
#58=CYLINDRICAL_SURFACE('',#326,0.03);
#59=CYLINDRICAL_SURFACE('',#331,0.03);
#60=CYLINDRICAL_SURFACE('',#332,0.2);
#61=CYLINDRICAL_SURFACE('',#337,0.086);
#62=CYLINDRICAL_SURFACE('',#338,0.086);
#63=CYLINDRICAL_SURFACE('',#339,0.086);
#64=FACE_OUTER_BOUND('',#81,.T.);
#65=FACE_OUTER_BOUND('',#82,.T.);
#66=FACE_OUTER_BOUND('',#83,.T.);
#67=FACE_OUTER_BOUND('',#84,.T.);
#68=FACE_OUTER_BOUND('',#85,.T.);
#69=FACE_OUTER_BOUND('',#86,.T.);
#70=FACE_OUTER_BOUND('',#87,.T.);
#71=FACE_OUTER_BOUND('',#91,.T.);
#72=FACE_OUTER_BOUND('',#92,.T.);
#73=FACE_OUTER_BOUND('',#93,.T.);
#74=FACE_OUTER_BOUND('',#94,.T.);
#75=FACE_OUTER_BOUND('',#95,.T.);
#76=FACE_OUTER_BOUND('',#96,.T.);
#77=FACE_OUTER_BOUND('',#100,.T.);
#78=FACE_OUTER_BOUND('',#101,.T.);
#79=FACE_OUTER_BOUND('',#102,.T.);
#80=FACE_OUTER_BOUND('',#103,.T.);
#81=EDGE_LOOP('',(#185,#186,#187,#188));
#82=EDGE_LOOP('',(#189,#190,#191,#192));
#83=EDGE_LOOP('',(#193,#194,#195,#196));
#84=EDGE_LOOP('',(#197,#198,#199,#200));
#85=EDGE_LOOP('',(#201,#202,#203,#204));
#86=EDGE_LOOP('',(#205,#206,#207,#208));
#87=EDGE_LOOP('',(#209,#210,#211,#212));
#88=EDGE_LOOP('',(#213));
#89=EDGE_LOOP('',(#214));
#90=EDGE_LOOP('',(#215));
#91=EDGE_LOOP('',(#216,#217,#218,#219));
#92=EDGE_LOOP('',(#220,#221,#222,#223));
#93=EDGE_LOOP('',(#224,#225,#226,#227));
#94=EDGE_LOOP('',(#228,#229,#230,#231));
#95=EDGE_LOOP('',(#232,#233,#234,#235));
#96=EDGE_LOOP('',(#236,#237,#238,#239));
#97=EDGE_LOOP('',(#240));
#98=EDGE_LOOP('',(#241));
#99=EDGE_LOOP('',(#242));
#100=EDGE_LOOP('',(#243,#244,#245,#246));
#101=EDGE_LOOP('',(#247,#248,#249,#250));
#102=EDGE_LOOP('',(#251,#252,#253,#254));
#103=EDGE_LOOP('',(#255,#256,#257,#258));
#104=CIRCLE('',#303,0.0299999999999984);
#105=CIRCLE('',#304,0.17);
#106=CIRCLE('',#305,0.0299999999999999);
#107=CIRCLE('',#306,0.2);
#108=CIRCLE('',#308,0.03);
#109=CIRCLE('',#310,0.0300000000000001);
#110=CIRCLE('',#311,0.2);
#111=CIRCLE('',#312,0.17);
#112=CIRCLE('',#316,0.2);
#113=CIRCLE('',#318,0.086);
#114=CIRCLE('',#319,0.086);
#115=CIRCLE('',#320,0.086);
#116=CIRCLE('',#322,0.0299999999999999);
#117=CIRCLE('',#323,0.2);
#118=CIRCLE('',#324,0.0299999999999998);
#119=CIRCLE('',#325,0.17);
#120=CIRCLE('',#327,0.0300000000000002);
#121=CIRCLE('',#329,0.0300000000000013);
#122=CIRCLE('',#330,0.17);
#123=CIRCLE('',#334,0.086);
#124=CIRCLE('',#335,0.086);
#125=CIRCLE('',#336,0.086);
#126=VERTEX_POINT('',#438);
#127=VERTEX_POINT('',#439);
#128=VERTEX_POINT('',#441);
#129=VERTEX_POINT('',#443);
#130=VERTEX_POINT('',#447);
#131=VERTEX_POINT('',#448);
#132=VERTEX_POINT('',#453);
#133=VERTEX_POINT('',#454);
#134=VERTEX_POINT('',#462);
#135=VERTEX_POINT('',#464);
#136=VERTEX_POINT('',#468);
#137=VERTEX_POINT('',#472);
#138=VERTEX_POINT('',#474);
#139=VERTEX_POINT('',#476);
#140=VERTEX_POINT('',#479);
#141=VERTEX_POINT('',#480);
#142=VERTEX_POINT('',#483);
#143=VERTEX_POINT('',#487);
#144=VERTEX_POINT('',#491);
#145=VERTEX_POINT('',#500);
#146=VERTEX_POINT('',#502);
#147=VERTEX_POINT('',#504);
#148=EDGE_CURVE('',#126,#127,#104,.T.);
#149=EDGE_CURVE('',#127,#128,#105,.T.);
#150=EDGE_CURVE('',#128,#129,#106,.T.);
#151=EDGE_CURVE('',#129,#126,#107,.T.);
#152=EDGE_CURVE('',#130,#131,#108,.T.);
#153=EDGE_CURVE('',#131,#129,#25,.T.);
#154=EDGE_CURVE('',#128,#130,#26,.T.);
#155=EDGE_CURVE('',#132,#133,#109,.T.);
#156=EDGE_CURVE('',#133,#131,#110,.T.);
#157=EDGE_CURVE('',#130,#132,#111,.T.);
#158=EDGE_CURVE('',#126,#133,#27,.T.);
#159=EDGE_CURVE('',#132,#127,#28,.T.);
#160=EDGE_CURVE('',#126,#134,#29,.T.);
#161=EDGE_CURVE('',#135,#134,#30,.T.);
#162=EDGE_CURVE('',#133,#135,#31,.T.);
#163=EDGE_CURVE('',#129,#136,#32,.T.);
#164=EDGE_CURVE('',#134,#136,#112,.T.);
#165=EDGE_CURVE('',#137,#137,#113,.T.);
#166=EDGE_CURVE('',#138,#138,#114,.T.);
#167=EDGE_CURVE('',#139,#139,#115,.T.);
#168=EDGE_CURVE('',#140,#141,#116,.T.);
#169=EDGE_CURVE('',#141,#135,#117,.T.);
#170=EDGE_CURVE('',#135,#142,#118,.T.);
#171=EDGE_CURVE('',#142,#140,#119,.T.);
#172=EDGE_CURVE('',#134,#143,#120,.T.);
#173=EDGE_CURVE('',#143,#142,#33,.T.);
#174=EDGE_CURVE('',#136,#144,#121,.T.);
#175=EDGE_CURVE('',#144,#143,#122,.T.);
#176=EDGE_CURVE('',#140,#144,#34,.T.);
#177=EDGE_CURVE('',#136,#141,#35,.T.);
#178=EDGE_CURVE('',#131,#141,#36,.T.);
#179=EDGE_CURVE('',#145,#145,#123,.T.);
#180=EDGE_CURVE('',#146,#146,#124,.T.);
#181=EDGE_CURVE('',#147,#147,#125,.T.);
#182=EDGE_CURVE('',#145,#137,#37,.T.);
#183=EDGE_CURVE('',#146,#138,#38,.T.);
#184=EDGE_CURVE('',#147,#139,#39,.T.);
#185=ORIENTED_EDGE('',*,*,#148,.T.);
#186=ORIENTED_EDGE('',*,*,#149,.T.);
#187=ORIENTED_EDGE('',*,*,#150,.T.);
#188=ORIENTED_EDGE('',*,*,#151,.T.);
#189=ORIENTED_EDGE('',*,*,#152,.T.);
#190=ORIENTED_EDGE('',*,*,#153,.T.);
#191=ORIENTED_EDGE('',*,*,#150,.F.);
#192=ORIENTED_EDGE('',*,*,#154,.T.);
#193=ORIENTED_EDGE('',*,*,#155,.T.);
#194=ORIENTED_EDGE('',*,*,#156,.T.);
#195=ORIENTED_EDGE('',*,*,#152,.F.);
#196=ORIENTED_EDGE('',*,*,#157,.T.);
#197=ORIENTED_EDGE('',*,*,#148,.F.);
#198=ORIENTED_EDGE('',*,*,#158,.T.);
#199=ORIENTED_EDGE('',*,*,#155,.F.);
#200=ORIENTED_EDGE('',*,*,#159,.T.);
#201=ORIENTED_EDGE('',*,*,#158,.F.);
#202=ORIENTED_EDGE('',*,*,#160,.T.);
#203=ORIENTED_EDGE('',*,*,#161,.F.);
#204=ORIENTED_EDGE('',*,*,#162,.F.);
#205=ORIENTED_EDGE('',*,*,#151,.F.);
#206=ORIENTED_EDGE('',*,*,#163,.T.);
#207=ORIENTED_EDGE('',*,*,#164,.F.);
#208=ORIENTED_EDGE('',*,*,#160,.F.);
#209=ORIENTED_EDGE('',*,*,#149,.F.);
#210=ORIENTED_EDGE('',*,*,#159,.F.);
#211=ORIENTED_EDGE('',*,*,#157,.F.);
#212=ORIENTED_EDGE('',*,*,#154,.F.);
#213=ORIENTED_EDGE('',*,*,#165,.F.);
#214=ORIENTED_EDGE('',*,*,#166,.F.);
#215=ORIENTED_EDGE('',*,*,#167,.F.);
#216=ORIENTED_EDGE('',*,*,#168,.T.);
#217=ORIENTED_EDGE('',*,*,#169,.T.);
#218=ORIENTED_EDGE('',*,*,#170,.T.);
#219=ORIENTED_EDGE('',*,*,#171,.T.);
#220=ORIENTED_EDGE('',*,*,#172,.T.);
#221=ORIENTED_EDGE('',*,*,#173,.T.);
#222=ORIENTED_EDGE('',*,*,#170,.F.);
#223=ORIENTED_EDGE('',*,*,#161,.T.);
#224=ORIENTED_EDGE('',*,*,#174,.T.);
#225=ORIENTED_EDGE('',*,*,#175,.T.);
#226=ORIENTED_EDGE('',*,*,#172,.F.);
#227=ORIENTED_EDGE('',*,*,#164,.T.);
#228=ORIENTED_EDGE('',*,*,#168,.F.);
#229=ORIENTED_EDGE('',*,*,#176,.T.);
#230=ORIENTED_EDGE('',*,*,#174,.F.);
#231=ORIENTED_EDGE('',*,*,#177,.T.);
#232=ORIENTED_EDGE('',*,*,#156,.F.);
#233=ORIENTED_EDGE('',*,*,#162,.T.);
#234=ORIENTED_EDGE('',*,*,#169,.F.);
#235=ORIENTED_EDGE('',*,*,#178,.F.);
#236=ORIENTED_EDGE('',*,*,#171,.F.);
#237=ORIENTED_EDGE('',*,*,#173,.F.);
#238=ORIENTED_EDGE('',*,*,#175,.F.);
#239=ORIENTED_EDGE('',*,*,#176,.F.);
#240=ORIENTED_EDGE('',*,*,#179,.T.);
#241=ORIENTED_EDGE('',*,*,#180,.T.);
#242=ORIENTED_EDGE('',*,*,#181,.T.);
#243=ORIENTED_EDGE('',*,*,#179,.F.);
#244=ORIENTED_EDGE('',*,*,#182,.T.);
#245=ORIENTED_EDGE('',*,*,#165,.T.);
#246=ORIENTED_EDGE('',*,*,#182,.F.);
#247=ORIENTED_EDGE('',*,*,#180,.F.);
#248=ORIENTED_EDGE('',*,*,#183,.T.);
#249=ORIENTED_EDGE('',*,*,#166,.T.);
#250=ORIENTED_EDGE('',*,*,#183,.F.);
#251=ORIENTED_EDGE('',*,*,#181,.F.);
#252=ORIENTED_EDGE('',*,*,#184,.T.);
#253=ORIENTED_EDGE('',*,*,#167,.T.);
#254=ORIENTED_EDGE('',*,*,#184,.F.);
#255=ORIENTED_EDGE('',*,*,#153,.F.);
#256=ORIENTED_EDGE('',*,*,#178,.T.);
#257=ORIENTED_EDGE('',*,*,#177,.F.);
#258=ORIENTED_EDGE('',*,*,#163,.F.);
#259=TOROIDAL_SURFACE('',#302,0.17,0.03);
#260=TOROIDAL_SURFACE('',#309,0.17,0.03);
#261=TOROIDAL_SURFACE('',#321,0.17,0.03);
#262=TOROIDAL_SURFACE('',#328,0.17,0.03);
#263=ADVANCED_FACE('',(#64),#259,.T.);
#264=ADVANCED_FACE('',(#65),#55,.T.);
#265=ADVANCED_FACE('',(#66),#260,.T.);
#266=ADVANCED_FACE('',(#67),#56,.T.);
#267=ADVANCED_FACE('',(#68),#21,.T.);
#268=ADVANCED_FACE('',(#69),#57,.T.);
#269=ADVANCED_FACE('',(#70,#15,#16,#17),#22,.F.);
#270=ADVANCED_FACE('',(#71),#261,.T.);
#271=ADVANCED_FACE('',(#72),#58,.T.);
#272=ADVANCED_FACE('',(#73),#262,.T.);
#273=ADVANCED_FACE('',(#74),#59,.T.);
#274=ADVANCED_FACE('',(#75),#60,.T.);
#275=ADVANCED_FACE('',(#76,#18,#19,#20),#23,.T.);
#276=ADVANCED_FACE('',(#77),#61,.F.);
#277=ADVANCED_FACE('',(#78),#62,.F.);
#278=ADVANCED_FACE('',(#79),#63,.F.);
#279=ADVANCED_FACE('',(#80),#24,.T.);
#280=CLOSED_SHELL('',(#263,#264,#265,#266,#267,#268,#269,#270,#271,#272,
#273,#274,#275,#276,#277,#278,#279));
#281=DERIVED_UNIT_ELEMENT(#283,1.);
#282=DERIVED_UNIT_ELEMENT(#521,-3.);
#283=(
CONVERSION_BASED_UNIT('gram',#285)
MASS_UNIT()
NAMED_UNIT(#518)
);
#284=(
MASS_UNIT()
NAMED_UNIT(*)
SI_UNIT(.KILO.,.GRAM.)
);
#285=MASS_MEASURE_WITH_UNIT(MASS_MEASURE(0.001),#284);
#286=DERIVED_UNIT((#281,#282));
#287=MEASURE_REPRESENTATION_ITEM('density measure',
POSITIVE_RATIO_MEASURE(0.952),#286);
#288=PROPERTY_DEFINITION_REPRESENTATION(#293,#290);
#289=PROPERTY_DEFINITION_REPRESENTATION(#294,#291);
#290=REPRESENTATION('material name',(#292),#515);
#291=REPRESENTATION('density',(#287),#515);
#292=DESCRIPTIVE_REPRESENTATION_ITEM('Plastic, Opaque Black',
'Plastic, Opaque Black');
#293=PROPERTY_DEFINITION('material property','material name',#529);
#294=PROPERTY_DEFINITION('material property','density of part',#529);
#295=DATE_TIME_ROLE('creation_date');
#296=APPLIED_DATE_AND_TIME_ASSIGNMENT(#297,#295,(#529));
#297=DATE_AND_TIME(#298,#299);
#298=CALENDAR_DATE(2025,29,9);
#299=LOCAL_TIME(0,0,0.,#300);
#300=COORDINATED_UNIVERSAL_TIME_OFFSET(0,0,.BEHIND.);
#301=AXIS2_PLACEMENT_3D('',#436,#341,#342);
#302=AXIS2_PLACEMENT_3D('',#437,#343,#344);
#303=AXIS2_PLACEMENT_3D('',#440,#345,#346);
#304=AXIS2_PLACEMENT_3D('',#442,#347,#348);
#305=AXIS2_PLACEMENT_3D('',#444,#349,#350);
#306=AXIS2_PLACEMENT_3D('',#445,#351,#352);
#307=AXIS2_PLACEMENT_3D('',#446,#353,#354);
#308=AXIS2_PLACEMENT_3D('',#449,#355,#356);
#309=AXIS2_PLACEMENT_3D('',#452,#359,#360);
#310=AXIS2_PLACEMENT_3D('',#455,#361,#362);
#311=AXIS2_PLACEMENT_3D('',#456,#363,#364);
#312=AXIS2_PLACEMENT_3D('',#457,#365,#366);
#313=AXIS2_PLACEMENT_3D('',#458,#367,#368);
#314=AXIS2_PLACEMENT_3D('',#461,#371,#372);
#315=AXIS2_PLACEMENT_3D('',#467,#376,#377);
#316=AXIS2_PLACEMENT_3D('',#470,#379,#380);
#317=AXIS2_PLACEMENT_3D('',#471,#381,#382);
#318=AXIS2_PLACEMENT_3D('',#473,#383,#384);
#319=AXIS2_PLACEMENT_3D('',#475,#385,#386);
#320=AXIS2_PLACEMENT_3D('',#477,#387,#388);
#321=AXIS2_PLACEMENT_3D('',#478,#389,#390);
#322=AXIS2_PLACEMENT_3D('',#481,#391,#392);
#323=AXIS2_PLACEMENT_3D('',#482,#393,#394);
#324=AXIS2_PLACEMENT_3D('',#484,#395,#396);
#325=AXIS2_PLACEMENT_3D('',#485,#397,#398);
#326=AXIS2_PLACEMENT_3D('',#486,#399,#400);
#327=AXIS2_PLACEMENT_3D('',#488,#401,#402);
#328=AXIS2_PLACEMENT_3D('',#490,#404,#405);
#329=AXIS2_PLACEMENT_3D('',#492,#406,#407);
#330=AXIS2_PLACEMENT_3D('',#493,#408,#409);
#331=AXIS2_PLACEMENT_3D('',#494,#410,#411);
#332=AXIS2_PLACEMENT_3D('',#497,#414,#415);
#333=AXIS2_PLACEMENT_3D('',#499,#417,#418);
#334=AXIS2_PLACEMENT_3D('',#501,#419,#420);
#335=AXIS2_PLACEMENT_3D('',#503,#421,#422);
#336=AXIS2_PLACEMENT_3D('',#505,#423,#424);
#337=AXIS2_PLACEMENT_3D('',#506,#425,#426);
#338=AXIS2_PLACEMENT_3D('',#508,#428,#429);
#339=AXIS2_PLACEMENT_3D('',#510,#431,#432);
#340=AXIS2_PLACEMENT_3D('',#512,#434,#435);
#341=DIRECTION('axis',(0.,0.,1.));
#342=DIRECTION('refdir',(1.,0.,0.));
#343=DIRECTION('center_axis',(3.19439540417216E-14,-2.41804808655788E-14,
-1.));
#344=DIRECTION('ref_axis',(0.959548195345499,-0.281544420667852,3.74526798463393E-14));
#345=DIRECTION('center_axis',(0.959548195345498,-0.281544420667855,4.01164482487211E-14));
#346=DIRECTION('ref_axis',(0.281544420667855,0.959548195345498,-1.42056095670549E-14));
#347=DIRECTION('center_axis',(3.19439540417216E-14,-2.41804808655788E-14,
-1.));
#348=DIRECTION('ref_axis',(0.959548195345499,-0.281544420667851,3.7459642929703E-14));
#349=DIRECTION('center_axis',(0.959548195345499,-0.281544420667851,4.0116448248721E-14));
#350=DIRECTION('ref_axis',(-3.49676543189027E-14,2.33117695459351E-14,1.));
#351=DIRECTION('center_axis',(-3.19439540417216E-14,2.41804808655788E-14,
1.));
#352=DIRECTION('ref_axis',(0.959548195345499,-0.281544420667851,3.7453635993137E-14));
#353=DIRECTION('center_axis',(-0.959548195345499,0.281544420667852,-3.7459642929703E-14));
#354=DIRECTION('ref_axis',(-0.199081969059509,-0.678503035804096,0.707106781186558));
#355=DIRECTION('center_axis',(0.959548195345499,-0.281544420667853,4.0116448248721E-14));
#356=DIRECTION('ref_axis',(-3.49676543189026E-14,2.3311769545935E-14,1.));
#357=DIRECTION('',(0.959548195345499,-0.281544420667852,3.7459642929703E-14));
#358=DIRECTION('',(-0.959548195345499,0.281544420667852,-3.7459642929703E-14));
#359=DIRECTION('center_axis',(3.19439540417216E-14,-2.41804808655788E-14,
-1.));
#360=DIRECTION('ref_axis',(-1.,0.,-3.1936259192733E-14));
#361=DIRECTION('center_axis',(-0.9595481953455,0.281544420667848,-3.45242566491928E-14));
#362=DIRECTION('ref_axis',(-2.91397119324187E-14,2.3311769545935E-14,1.));
#363=DIRECTION('center_axis',(-3.19439540417216E-14,2.41804808655788E-14,
1.));
#364=DIRECTION('ref_axis',(-0.959548195345499,0.281544420667851,-3.7453635993137E-14));
#365=DIRECTION('center_axis',(3.19439540417216E-14,-2.41804808655788E-14,
-1.));
#366=DIRECTION('ref_axis',(-0.959548195345499,0.281544420667851,-3.7459642929703E-14));
#367=DIRECTION('center_axis',(0.959548195345499,-0.281544420667853,3.7459642929703E-14));
#368=DIRECTION('ref_axis',(0.19908196905946,0.67850303580413,0.707106781186539));
#369=DIRECTION('',(-0.959548195345499,0.281544420667853,-3.7459642929703E-14));
#370=DIRECTION('',(0.959548195345499,-0.281544420667853,3.7459642929703E-14));
#371=DIRECTION('center_axis',(0.281544420667853,0.959548195345499,-1.37587895869315E-14));
#372=DIRECTION('ref_axis',(0.959548195345499,-0.281544420667853,3.7459642929703E-14));
#373=DIRECTION('',(3.21702419733904E-14,-2.37780049368537E-14,-1.));
#374=DIRECTION('',(0.959548195345499,-0.281544420667853,3.7459642929703E-14));
#375=DIRECTION('',(3.21702419733904E-14,-2.37780049368537E-14,-1.));
#376=DIRECTION('center_axis',(3.21702419733904E-14,-2.37780049368537E-14,
-1.));
#377=DIRECTION('ref_axis',(0.281544420667852,0.959548195345499,-1.37587895869316E-14));
#378=DIRECTION('',(3.21702419733904E-14,-2.37780049368537E-14,-1.));
#379=DIRECTION('center_axis',(3.19439540417216E-14,-2.41804808655788E-14,
-1.));
#380=DIRECTION('ref_axis',(0.959548195345499,-0.281544420667851,3.7453635993137E-14));
#381=DIRECTION('center_axis',(3.19439540417216E-14,-2.41804808655788E-14,
-1.));
#382=DIRECTION('ref_axis',(-1.,0.,-3.19439540417216E-14));
#383=DIRECTION('center_axis',(-3.19439540417216E-14,2.41804808655788E-14,
1.));
#384=DIRECTION('ref_axis',(0.932337908092278,0.361588198278255,2.10391827777681E-14));
#385=DIRECTION('center_axis',(-3.19439540417216E-14,2.41804808655788E-14,
1.));
#386=DIRECTION('ref_axis',(0.932337908092278,0.361588198278255,2.10391827777681E-14));
#387=DIRECTION('center_axis',(-3.19439540417216E-14,2.41804808655788E-14,
1.));
#388=DIRECTION('ref_axis',(0.932337908092278,0.361588198278255,2.10391827777681E-14));
#389=DIRECTION('center_axis',(3.19439540417216E-14,-2.41804808655788E-14,
-1.));
#390=DIRECTION('ref_axis',(-1.,0.,-3.20576898360514E-14));
#391=DIRECTION('center_axis',(-0.9595481953455,0.28154442066785,-3.4524256649193E-14));
#392=DIRECTION('ref_axis',(2.91397119324189E-14,-2.33117695459351E-14,-1.));
#393=DIRECTION('center_axis',(3.19439540417216E-14,-2.41804808655788E-14,
-1.));
#394=DIRECTION('ref_axis',(-0.959548195345499,0.281544420667851,-3.7453635993137E-14));
#395=DIRECTION('center_axis',(-0.9595481953455,0.281544420667848,-3.45242566491929E-14));
#396=DIRECTION('ref_axis',(0.281544420667848,0.9595481953455,-1.45698559662095E-14));
#397=DIRECTION('center_axis',(-3.19439540417216E-14,2.41804808655788E-14,
1.));
#398=DIRECTION('ref_axis',(-0.959548195345499,0.281544420667851,-3.7459642929703E-14));
#399=DIRECTION('center_axis',(0.959548195345499,-0.281544420667853,3.7459642929703E-14));
#400=DIRECTION('ref_axis',(0.199081969059493,0.678503035804098,-0.70710678118656));
#401=DIRECTION('center_axis',(-0.959548195345499,0.28154442066785,-4.01164482487209E-14));
#402=DIRECTION('ref_axis',(0.28154442066785,0.959548195345499,-1.31128703695884E-14));
#403=DIRECTION('',(-0.959548195345499,0.281544420667853,-3.7459642929703E-14));
#404=DIRECTION('center_axis',(3.19439540417216E-14,-2.41804808655788E-14,
-1.));
#405=DIRECTION('ref_axis',(0.959548195345499,-0.281544420667852,3.73312492030209E-14));
#406=DIRECTION('center_axis',(0.959548195345499,-0.281544420667851,4.01164482487208E-14));
#407=DIRECTION('ref_axis',(-0.281544420667851,-0.959548195345499,1.45698559662088E-14));
#408=DIRECTION('center_axis',(-3.19439540417216E-14,2.41804808655788E-14,
1.));
#409=DIRECTION('ref_axis',(0.959548195345499,-0.281544420667851,3.7459642929703E-14));
#410=DIRECTION('center_axis',(-0.959548195345499,0.281544420667852,-3.7459642929703E-14));
#411=DIRECTION('ref_axis',(-0.199081969059444,-0.678503035804132,-0.707106781186541));
#412=DIRECTION('',(0.959548195345499,-0.281544420667852,3.7459642929703E-14));
#413=DIRECTION('',(-0.959548195345499,0.281544420667852,-3.7459642929703E-14));
#414=DIRECTION('center_axis',(3.21702419733904E-14,-2.37780049368537E-14,
-1.));
#415=DIRECTION('ref_axis',(-0.281544420667851,-0.959548195345499,1.37587895869316E-14));
#416=DIRECTION('',(3.21702419733904E-14,-2.37780049368537E-14,-1.));
#417=DIRECTION('center_axis',(3.19439540417216E-14,-2.41804808655788E-14,
-1.));
#418=DIRECTION('ref_axis',(-1.,0.,-3.19439540417216E-14));
#419=DIRECTION('center_axis',(-3.19439540417216E-14,2.41804808655788E-14,
1.));
#420=DIRECTION('ref_axis',(0.932337908092278,0.361588198278255,2.10391827777681E-14));
#421=DIRECTION('center_axis',(-3.19439540417216E-14,2.41804808655788E-14,
1.));
#422=DIRECTION('ref_axis',(0.932337908092278,0.361588198278255,2.10391827777681E-14));
#423=DIRECTION('center_axis',(-3.19439540417216E-14,2.41804808655788E-14,
1.));
#424=DIRECTION('ref_axis',(0.932337908092278,0.361588198278255,2.10391827777681E-14));
#425=DIRECTION('center_axis',(3.21702419733904E-14,-2.37780049368537E-14,
-1.));
#426=DIRECTION('ref_axis',(0.932337908092278,0.361588198278255,2.13956901405248E-14));
#427=DIRECTION('',(-3.21702419733904E-14,2.37780049368537E-14,1.));
#428=DIRECTION('center_axis',(3.21702419733904E-14,-2.37780049368537E-14,
-1.));
#429=DIRECTION('ref_axis',(0.932337908092278,0.361588198278255,2.13956901405248E-14));
#430=DIRECTION('',(-3.21702419733904E-14,2.37780049368537E-14,1.));
#431=DIRECTION('center_axis',(3.21702419733904E-14,-2.37780049368537E-14,
-1.));
#432=DIRECTION('ref_axis',(0.932337908092278,0.361588198278255,2.13956901405248E-14));
#433=DIRECTION('',(-3.21702419733904E-14,2.37780049368537E-14,1.));
#434=DIRECTION('center_axis',(-0.281544420667852,-0.959548195345499,1.37587895869316E-14));
#435=DIRECTION('ref_axis',(-0.959548195345499,0.281544420667852,-3.7459642929703E-14));
#436=CARTESIAN_POINT('',(0.,0.,0.));
#437=CARTESIAN_POINT('Origin',(2.91222527714431,2.50481991394042,-0.0299999999997641));
#438=CARTESIAN_POINT('',(2.96853416127788,2.69672955300952,-0.0299999999997669));
#439=CARTESIAN_POINT('',(2.96008782865785,2.66794310714916,2.33452277666724E-13));
#440=CARTESIAN_POINT('Origin',(2.96008782865785,2.66794310714916,-0.0299999999997665));
#441=CARTESIAN_POINT('',(2.86436272563078,2.34169672073169,2.38283233879221E-13));
#442=CARTESIAN_POINT('Origin',(2.91222527714431,2.50481991394042,2.35867755772972E-13));
#443=CARTESIAN_POINT('',(2.85591639301074,2.31291027487132,-0.0299999999997612));
#444=CARTESIAN_POINT('Origin',(2.86436272563078,2.34169672073169,-0.0299999999997616));
#445=CARTESIAN_POINT('Origin',(2.91222527714431,2.50481991394042,-0.0299999999997641));
#446=CARTESIAN_POINT('Origin',(2.50453215163052,2.44727587870093,-0.0299999999997758));
#447=CARTESIAN_POINT('',(1.42504042962974,2.76401335260866,1.82093448632701E-13));
#448=CARTESIAN_POINT('',(1.4165940970097,2.73522690674829,-0.0299999999998175));
#449=CARTESIAN_POINT('Origin',(1.42504042962974,2.76401335260866,-0.0299999999998179));
#450=CARTESIAN_POINT('',(2.49608581901048,2.41848943284056,-0.0299999999997753));
#451=CARTESIAN_POINT('',(2.50453215163052,2.44727587870093,2.2423554701595E-13));
#452=CARTESIAN_POINT('Origin',(1.47290298114327,2.92713654581739,-0.0299999999998204));
#453=CARTESIAN_POINT('',(1.52076553265681,3.09025973902613,1.77263628133038E-13));
#454=CARTESIAN_POINT('',(1.52921186527684,3.11904618488649,-0.0299999999998232));
#455=CARTESIAN_POINT('Origin',(1.52076553265681,3.09025973902613,-0.0299999999998228));
#456=CARTESIAN_POINT('Origin',(1.47290298114327,2.92713654581739,-0.0299999999998204));
#457=CARTESIAN_POINT('Origin',(1.47290298114327,2.92713654581739,1.79679106239286E-13));
#458=CARTESIAN_POINT('Origin',(1.88059610665707,2.98468058105688,-0.0299999999998087));
#459=CARTESIAN_POINT('',(1.8890424392771,3.01346702691725,-0.0299999999998091));
#460=CARTESIAN_POINT('',(1.88059610665707,2.98468058105688,1.91311314996308E-13));
#461=CARTESIAN_POINT('Origin',(1.52921186527684,3.11904618488649,1.76838814534019E-13));
#462=CARTESIAN_POINT('',(2.96853416127789,2.69672955300952,-0.219999999999767));
#463=CARTESIAN_POINT('',(2.96853416127788,2.69672955300952,2.33028279045018E-13));
#464=CARTESIAN_POINT('',(1.52921186527685,3.11904618488649,-0.219999999999823));
#465=CARTESIAN_POINT('',(1.88904243927711,3.01346702691724,-0.219999999999809));
#466=CARTESIAN_POINT('',(1.52921186527684,3.11904618488649,1.76838814534019E-13));
#467=CARTESIAN_POINT('Origin',(2.91222527714431,2.50481991394042,2.35870017993545E-13));
#468=CARTESIAN_POINT('',(2.85591639301075,2.31291027487132,-0.219999999999761));
#469=CARTESIAN_POINT('',(2.85591639301074,2.31291027487132,2.38711756942072E-13));
#470=CARTESIAN_POINT('Origin',(2.91222527714432,2.50481991394042,-0.219999999999764));
#471=CARTESIAN_POINT('Origin',(2.19256412914379,2.71597822987891,2.07775285738046E-13));
#472=CARTESIAN_POINT('',(2.83204421704838,2.47372332888849,2.34060648274657E-13));
#473=CARTESIAN_POINT('Origin',(2.91222527714431,2.50481991394042,2.35870017993545E-13));
#474=CARTESIAN_POINT('',(1.39272192104734,2.89603996076546,1.77871183763658E-13));
#475=CARTESIAN_POINT('Origin',(1.47290298114327,2.92713654581739,1.79680553482546E-13));
#476=CARTESIAN_POINT('',(1.87249601831341,2.75526774904551,1.96601005249033E-13));
#477=CARTESIAN_POINT('Origin',(1.95267707840934,2.78636433409744,1.98410374967921E-13));
#478=CARTESIAN_POINT('Origin',(1.47290298114328,2.92713654581739,-0.21999999999982));
#479=CARTESIAN_POINT('',(1.42504042962975,2.76401335260865,-0.249999999999818));
#480=CARTESIAN_POINT('',(1.41659409700971,2.73522690674829,-0.219999999999818));
#481=CARTESIAN_POINT('Origin',(1.42504042962975,2.76401335260865,-0.219999999999818));
#482=CARTESIAN_POINT('Origin',(1.47290298114328,2.92713654581739,-0.21999999999982));
#483=CARTESIAN_POINT('',(1.52076553265682,3.09025973902612,-0.249999999999823));
#484=CARTESIAN_POINT('Origin',(1.52076553265681,3.09025973902612,-0.219999999999823));
#485=CARTESIAN_POINT('Origin',(1.47290298114328,2.92713654581739,-0.24999999999982));
#486=CARTESIAN_POINT('Origin',(1.88059610665707,2.98468058105688,-0.219999999999809));
#487=CARTESIAN_POINT('',(2.96008782865785,2.66794310714915,-0.249999999999767));
#488=CARTESIAN_POINT('Origin',(2.96008782865785,2.66794310714915,-0.219999999999767));
#489=CARTESIAN_POINT('',(1.88059610665708,2.98468058105688,-0.249999999999809));
#490=CARTESIAN_POINT('Origin',(2.91222527714432,2.50481991394042,-0.219999999999764));
#491=CARTESIAN_POINT('',(2.86436272563079,2.34169672073168,-0.249999999999762));
#492=CARTESIAN_POINT('Origin',(2.86436272563078,2.34169672073168,-0.219999999999762));
#493=CARTESIAN_POINT('Origin',(2.91222527714432,2.50481991394042,-0.249999999999764));
#494=CARTESIAN_POINT('Origin',(2.50453215163052,2.44727587870092,-0.219999999999776));
#495=CARTESIAN_POINT('',(2.50453215163053,2.44727587870092,-0.249999999999776));
#496=CARTESIAN_POINT('',(2.49608581901049,2.41848943284056,-0.219999999999775));
#497=CARTESIAN_POINT('Origin',(1.47290298114327,2.92713654581739,1.79680553482546E-13));
#498=CARTESIAN_POINT('',(1.4165940970097,2.73522690674829,1.82522292431073E-13));
#499=CARTESIAN_POINT('Origin',(2.1925641291438,2.7159782298789,-0.249999999999792));
#500=CARTESIAN_POINT('',(2.83204421704838,2.47372332888849,-0.249999999999766));
#501=CARTESIAN_POINT('Origin',(2.91222527714432,2.50481991394042,-0.249999999999764));
#502=CARTESIAN_POINT('',(1.39272192104734,2.89603996076546,-0.249999999999822));
#503=CARTESIAN_POINT('Origin',(1.47290298114328,2.92713654581739,-0.24999999999982));
#504=CARTESIAN_POINT('',(1.87249601831341,2.7552677490455,-0.249999999999803));
#505=CARTESIAN_POINT('Origin',(1.95267707840935,2.78636433409743,-0.249999999999802));
#506=CARTESIAN_POINT('Origin',(2.91222527714431,2.50481991394042,2.35870017993545E-13));
#507=CARTESIAN_POINT('',(2.83204421704838,2.47372332888849,2.3402998864146E-13));
#508=CARTESIAN_POINT('Origin',(1.47290298114327,2.92713654581739,1.79680553482546E-13));
#509=CARTESIAN_POINT('',(1.39272192104734,2.89603996076546,1.77840524130461E-13));
#510=CARTESIAN_POINT('Origin',(1.95267707840934,2.78636433409744,1.98410374967921E-13));
#511=CARTESIAN_POINT('',(1.87249601831341,2.75526774904551,1.96570345615836E-13));
#512=CARTESIAN_POINT('Origin',(2.85591639301074,2.31291027487132,2.38711756942072E-13));
#513=UNCERTAINTY_MEASURE_WITH_UNIT(LENGTH_MEASURE(0.000393700787401575),
#519,'DISTANCE_ACCURACY_VALUE',
'Maximum model space distance between geometric entities at asserted c
onnectivities');
#514=UNCERTAINTY_MEASURE_WITH_UNIT(LENGTH_MEASURE(0.000393700787401575),
#519,'DISTANCE_ACCURACY_VALUE',
'Maximum model space distance between geometric entities at asserted c
onnectivities');
#515=(
GEOMETRIC_REPRESENTATION_CONTEXT(3)
GLOBAL_UNCERTAINTY_ASSIGNED_CONTEXT((#513))
GLOBAL_UNIT_ASSIGNED_CONTEXT((#519,#523,#524))
REPRESENTATION_CONTEXT('','3D')
);
#516=(
GEOMETRIC_REPRESENTATION_CONTEXT(3)
GLOBAL_UNCERTAINTY_ASSIGNED_CONTEXT((#514))
GLOBAL_UNIT_ASSIGNED_CONTEXT((#519,#523,#524))
REPRESENTATION_CONTEXT('','3D')
);
#517=DIMENSIONAL_EXPONENTS(1.,0.,0.,0.,0.,0.,0.);
#518=DIMENSIONAL_EXPONENTS(0.,1.,0.,0.,0.,0.,0.);
#519=(
CONVERSION_BASED_UNIT('inch',#522)
LENGTH_UNIT()
NAMED_UNIT(#517)
);
#520=(
LENGTH_UNIT()
NAMED_UNIT(*)
SI_UNIT(.MILLI.,.METRE.)
);
#521=(
LENGTH_UNIT()
NAMED_UNIT(*)
SI_UNIT(.CENTI.,.METRE.)
);
#522=LENGTH_MEASURE_WITH_UNIT(LENGTH_MEASURE(25.4),#520);
#523=(
NAMED_UNIT(*)
PLANE_ANGLE_UNIT()
SI_UNIT($,.RADIAN.)
);
#524=(
NAMED_UNIT(*)
SI_UNIT($,.STERADIAN.)
SOLID_ANGLE_UNIT()
);
#525=SHAPE_DEFINITION_REPRESENTATION(#526,#527);
#526=PRODUCT_DEFINITION_SHAPE('',$,#529);
#527=SHAPE_REPRESENTATION('',(#301),#515);
#528=PRODUCT_DEFINITION_CONTEXT('part definition',#533,'design');
#529=PRODUCT_DEFINITION('RigidPieceFloat','RigidPieceFloat',#530,#528);
#530=PRODUCT_DEFINITION_FORMATION('',$,#535);
#531=PRODUCT_RELATED_PRODUCT_CATEGORY('RigidPieceFloat',
'RigidPieceFloat',(#535));
#532=APPLICATION_PROTOCOL_DEFINITION('international standard',
'automotive_design',2009,#533);
#533=APPLICATION_CONTEXT(
'Core Data for Automotive Mechanical Design Process');
#534=PRODUCT_CONTEXT('part definition',#533,'mechanical');
#535=PRODUCT('RigidPieceFloat','RigidPieceFloat',$,(#534));
#536=PRESENTATION_STYLE_ASSIGNMENT((#537));
#537=SURFACE_STYLE_USAGE(.BOTH.,#540);
#538=SURFACE_STYLE_RENDERING_WITH_PROPERTIES($,#544,(#539));
#539=SURFACE_STYLE_TRANSPARENT(0.);
#540=SURFACE_SIDE_STYLE('',(#541,#538));
#541=SURFACE_STYLE_FILL_AREA(#542);
#542=FILL_AREA_STYLE('',(#543));
#543=FILL_AREA_STYLE_COLOUR('',#544);
#544=COLOUR_RGB('',0.0196078431372549,0.0196078431372549,0.0196078431372549);
ENDSEC;
END-ISO-10303-21;
