ISO-10303-21;
HEADER;
/* Generated by software containing ST-Developer
 * from STEP Tools, Inc. (www.steptools.com) 
 */

FILE_DESCRIPTION(
/* description */ (''),
/* implementation_level */ '2;1');

FILE_NAME(
/* name */ 'Robert_MIR.stp',
/* time_stamp */ '2025-10-14T17:36:22-04:00',
/* author */ ('Teddy'),
/* organization */ (''),
/* preprocessor_version */ 'ST-DEVELOPER v20.1',
/* originating_system */ 'Autodesk Inventor 2026',
/* authorisation */ '');

FILE_SCHEMA (('AUTOMOTIVE_DESIGN { 1 0 10303 214 3 1 1 }'));
ENDSEC;

DATA;
#10=MECHANICAL_DESIGN_GEOMETRIC_PRESENTATION_REPRESENTATION('',(#1000,#1001,
#1002,#1003,#1004,#1005,#1006,#1007,#1008,#1009,#1010,#1011,#1012,#1013,
#1014,#1015,#1016,#1017,#1018,#1019,#1020,#1021,#1022,#1023,#1024,#1025,
#1026,#1027,#1028,#1029,#1030,#1031,#1032,#1033,#1034,#1035,#1036,#1037,
#1038,#1039,#1040,#1041,#1042,#1043,#1044,#1045,#1046,#1047,#1048,#1049,
#1050,#1051,#1052,#1053,#1054),#1953);
#11=SHAPE_REPRESENTATION_RELATIONSHIP('SRR','None',#1964,#12);
#12=ADVANCED_BREP_SHAPE_REPRESENTATION('',(#13),#1952);
#13=MANIFOLD_SOLID_BREP('Solid1',#1109);
#14=FACE_BOUND('',#101,.T.);
#15=FACE_BOUND('',#102,.T.);
#16=FACE_BOUND('',#109,.T.);
#17=FACE_BOUND('',#110,.T.);
#18=FACE_BOUND('',#123,.T.);
#19=FACE_BOUND('',#129,.T.);
#20=FACE_BOUND('',#131,.T.);
#21=FACE_BOUND('',#133,.T.);
#22=FACE_BOUND('',#160,.T.);
#23=FACE_BOUND('',#161,.T.);
#24=FACE_BOUND('',#162,.T.);
#25=FACE_BOUND('',#163,.T.);
#26=FACE_BOUND('',#164,.T.);
#27=FACE_BOUND('',#165,.T.);
#28=FACE_BOUND('',#166,.T.);
#29=FACE_BOUND('',#167,.T.);
#30=PLANE('',#1134);
#31=PLANE('',#1135);
#32=PLANE('',#1151);
#33=PLANE('',#1157);
#34=PLANE('',#1158);
#35=PLANE('',#1179);
#36=PLANE('',#1185);
#37=PLANE('',#1186);
#38=PLANE('',#1198);
#39=PLANE('',#1202);
#40=PLANE('',#1212);
#41=PLANE('',#1216);
#42=PLANE('',#1222);
#43=PLANE('',#1276);
#44=FACE_OUTER_BOUND('',#98,.T.);
#45=FACE_OUTER_BOUND('',#99,.T.);
#46=FACE_OUTER_BOUND('',#100,.T.);
#47=FACE_OUTER_BOUND('',#103,.T.);
#48=FACE_OUTER_BOUND('',#104,.T.);
#49=FACE_OUTER_BOUND('',#105,.T.);
#50=FACE_OUTER_BOUND('',#106,.T.);
#51=FACE_OUTER_BOUND('',#107,.T.);
#52=FACE_OUTER_BOUND('',#108,.T.);
#53=FACE_OUTER_BOUND('',#111,.T.);
#54=FACE_OUTER_BOUND('',#112,.T.);
#55=FACE_OUTER_BOUND('',#113,.T.);
#56=FACE_OUTER_BOUND('',#114,.T.);
#57=FACE_OUTER_BOUND('',#115,.T.);
#58=FACE_OUTER_BOUND('',#116,.T.);
#59=FACE_OUTER_BOUND('',#117,.T.);
#60=FACE_OUTER_BOUND('',#118,.T.);
#61=FACE_OUTER_BOUND('',#119,.T.);
#62=FACE_OUTER_BOUND('',#120,.T.);
#63=FACE_OUTER_BOUND('',#121,.T.);
#64=FACE_OUTER_BOUND('',#122,.T.);
#65=FACE_OUTER_BOUND('',#124,.T.);
#66=FACE_OUTER_BOUND('',#125,.T.);
#67=FACE_OUTER_BOUND('',#126,.T.);
#68=FACE_OUTER_BOUND('',#127,.T.);
#69=FACE_OUTER_BOUND('',#128,.T.);
#70=FACE_OUTER_BOUND('',#130,.T.);
#71=FACE_OUTER_BOUND('',#132,.T.);
#72=FACE_OUTER_BOUND('',#134,.T.);
#73=FACE_OUTER_BOUND('',#135,.T.);
#74=FACE_OUTER_BOUND('',#136,.T.);
#75=FACE_OUTER_BOUND('',#137,.T.);
#76=FACE_OUTER_BOUND('',#138,.T.);
#77=FACE_OUTER_BOUND('',#139,.T.);
#78=FACE_OUTER_BOUND('',#140,.T.);
#79=FACE_OUTER_BOUND('',#141,.T.);
#80=FACE_OUTER_BOUND('',#142,.T.);
#81=FACE_OUTER_BOUND('',#143,.T.);
#82=FACE_OUTER_BOUND('',#144,.T.);
#83=FACE_OUTER_BOUND('',#145,.T.);
#84=FACE_OUTER_BOUND('',#146,.T.);
#85=FACE_OUTER_BOUND('',#147,.T.);
#86=FACE_OUTER_BOUND('',#148,.T.);
#87=FACE_OUTER_BOUND('',#149,.T.);
#88=FACE_OUTER_BOUND('',#150,.T.);
#89=FACE_OUTER_BOUND('',#151,.T.);
#90=FACE_OUTER_BOUND('',#152,.T.);
#91=FACE_OUTER_BOUND('',#153,.T.);
#92=FACE_OUTER_BOUND('',#154,.T.);
#93=FACE_OUTER_BOUND('',#155,.T.);
#94=FACE_OUTER_BOUND('',#156,.T.);
#95=FACE_OUTER_BOUND('',#157,.T.);
#96=FACE_OUTER_BOUND('',#158,.T.);
#97=FACE_OUTER_BOUND('',#159,.T.);
#98=EDGE_LOOP('',(#648,#649,#650,#651));
#99=EDGE_LOOP('',(#652,#653,#654,#655));
#100=EDGE_LOOP('',(#656,#657,#658,#659,#660,#661,#662,#663,#664,#665,#666,
#667,#668,#669));
#101=EDGE_LOOP('',(#670));
#102=EDGE_LOOP('',(#671));
#103=EDGE_LOOP('',(#672,#673,#674,#675));
#104=EDGE_LOOP('',(#676,#677,#678,#679));
#105=EDGE_LOOP('',(#680,#681,#682,#683));
#106=EDGE_LOOP('',(#684,#685,#686,#687));
#107=EDGE_LOOP('',(#688,#689,#690,#691));
#108=EDGE_LOOP('',(#692,#693,#694,#695,#696,#697,#698,#699,#700,#701,#702,
#703,#704,#705));
#109=EDGE_LOOP('',(#706));
#110=EDGE_LOOP('',(#707));
#111=EDGE_LOOP('',(#708,#709,#710,#711));
#112=EDGE_LOOP('',(#712,#713,#714,#715,#716,#717));
#113=EDGE_LOOP('',(#718,#719,#720,#721));
#114=EDGE_LOOP('',(#722,#723,#724,#725));
#115=EDGE_LOOP('',(#726,#727,#728,#729));
#116=EDGE_LOOP('',(#730,#731,#732,#733));
#117=EDGE_LOOP('',(#734,#735,#736,#737));
#118=EDGE_LOOP('',(#738,#739,#740,#741,#742,#743));
#119=EDGE_LOOP('',(#744,#745,#746,#747));
#120=EDGE_LOOP('',(#748,#749,#750,#751));
#121=EDGE_LOOP('',(#752,#753,#754,#755));
#122=EDGE_LOOP('',(#756,#757,#758,#759));
#123=EDGE_LOOP('',(#760));
#124=EDGE_LOOP('',(#761,#762,#763,#764));
#125=EDGE_LOOP('',(#765,#766,#767,#768));
#126=EDGE_LOOP('',(#769,#770,#771,#772));
#127=EDGE_LOOP('',(#773,#774,#775,#776));
#128=EDGE_LOOP('',(#777,#778,#779,#780,#781,#782,#783,#784,#785));
#129=EDGE_LOOP('',(#786));
#130=EDGE_LOOP('',(#787,#788,#789,#790,#791,#792,#793,#794,#795,#796));
#131=EDGE_LOOP('',(#797));
#132=EDGE_LOOP('',(#798,#799,#800,#801,#802,#803,#804,#805,#806,#807));
#133=EDGE_LOOP('',(#808));
#134=EDGE_LOOP('',(#809,#810,#811,#812,#813,#814));
#135=EDGE_LOOP('',(#815,#816,#817,#818,#819,#820));
#136=EDGE_LOOP('',(#821,#822,#823,#824));
#137=EDGE_LOOP('',(#825,#826,#827,#828));
#138=EDGE_LOOP('',(#829,#830,#831,#832));
#139=EDGE_LOOP('',(#833,#834,#835,#836));
#140=EDGE_LOOP('',(#837,#838,#839,#840));
#141=EDGE_LOOP('',(#841,#842,#843,#844));
#142=EDGE_LOOP('',(#845,#846,#847,#848));
#143=EDGE_LOOP('',(#849,#850,#851,#852));
#144=EDGE_LOOP('',(#853,#854,#855,#856,#857,#858,#859,#860,#861,#862,#863,
#864,#865,#866,#867,#868));
#145=EDGE_LOOP('',(#869,#870,#871,#872));
#146=EDGE_LOOP('',(#873,#874,#875,#876,#877,#878));
#147=EDGE_LOOP('',(#879,#880,#881,#882));
#148=EDGE_LOOP('',(#883,#884,#885,#886));
#149=EDGE_LOOP('',(#887,#888,#889,#890));
#150=EDGE_LOOP('',(#891,#892,#893,#894));
#151=EDGE_LOOP('',(#895,#896,#897,#898));
#152=EDGE_LOOP('',(#899,#900,#901,#902,#903,#904));
#153=EDGE_LOOP('',(#905,#906,#907,#908));
#154=EDGE_LOOP('',(#909,#910,#911,#912));
#155=EDGE_LOOP('',(#913,#914,#915,#916));
#156=EDGE_LOOP('',(#917,#918,#919,#920));
#157=EDGE_LOOP('',(#921,#922,#923,#924));
#158=EDGE_LOOP('',(#925,#926,#927,#928,#929,#930));
#159=EDGE_LOOP('',(#931,#932,#933,#934,#935,#936,#937,#938,#939,#940,#941,
#942,#943,#944,#945,#946,#947,#948,#949,#950,#951));
#160=EDGE_LOOP('',(#952));
#161=EDGE_LOOP('',(#953));
#162=EDGE_LOOP('',(#954));
#163=EDGE_LOOP('',(#955));
#164=EDGE_LOOP('',(#956));
#165=EDGE_LOOP('',(#957));
#166=EDGE_LOOP('',(#958));
#167=EDGE_LOOP('',(#959));
#168=LINE('',#1641,#232);
#169=LINE('',#1644,#233);
#170=LINE('',#1647,#234);
#171=LINE('',#1649,#235);
#172=LINE('',#1650,#236);
#173=LINE('',#1671,#237);
#174=LINE('',#1681,#238);
#175=LINE('',#1684,#239);
#176=LINE('',#1687,#240);
#177=LINE('',#1688,#241);
#178=LINE('',#1692,#242);
#179=LINE('',#1698,#243);
#180=LINE('',#1701,#244);
#181=LINE('',#1704,#245);
#182=LINE('',#1706,#246);
#183=LINE('',#1707,#247);
#184=LINE('',#1728,#248);
#185=LINE('',#1739,#249);
#186=LINE('',#1744,#250);
#187=LINE('',#1747,#251);
#188=LINE('',#1752,#252);
#189=LINE('',#1753,#253);
#190=LINE('',#1756,#254);
#191=LINE('',#1757,#255);
#192=LINE('',#1761,#256);
#193=LINE('',#1767,#257);
#194=LINE('',#1770,#258);
#195=LINE('',#1773,#259);
#196=LINE('',#1775,#260);
#197=LINE('',#1776,#261);
#198=LINE('',#1788,#262);
#199=LINE('',#1792,#263);
#200=LINE('',#1798,#264);
#201=LINE('',#1801,#265);
#202=LINE('',#1807,#266);
#203=LINE('',#1812,#267);
#204=LINE('',#1813,#268);
#205=LINE('',#1818,#269);
#206=LINE('',#1824,#270);
#207=LINE('',#1830,#271);
#208=LINE('',#1853,#272);
#209=LINE('',#1856,#273);
#210=LINE('',#1859,#274);
#211=LINE('',#1862,#275);
#212=LINE('',#1865,#276);
#213=LINE('',#1870,#277);
#214=LINE('',#1873,#278);
#215=LINE('',#1877,#279);
#216=LINE('',#1881,#280);
#217=LINE('',#1885,#281);
#218=LINE('',#1889,#282);
#219=LINE('',#1894,#283);
#220=LINE('',#1900,#284);
#221=LINE('',#1904,#285);
#222=LINE('',#1908,#286);
#223=LINE('',#1912,#287);
#224=LINE('',#1916,#288);
#225=LINE('',#1920,#289);
#226=LINE('',#1924,#290);
#227=LINE('',#1930,#291);
#228=LINE('',#1934,#292);
#229=LINE('',#1938,#293);
#230=LINE('',#1942,#294);
#231=LINE('',#1946,#295);
#232=VECTOR('',#1283,0.393700787401575);
#233=VECTOR('',#1286,0.393700787401575);
#234=VECTOR('',#1289,0.393700787401575);
#235=VECTOR('',#1290,0.125000000000001);
#236=VECTOR('',#1291,0.393700787401575);
#237=VECTOR('',#1312,0.393700787401575);
#238=VECTOR('',#1323,0.393700787401575);
#239=VECTOR('',#1326,0.393700787401575);
#240=VECTOR('',#1329,0.125);
#241=VECTOR('',#1330,0.393700787401575);
#242=VECTOR('',#1335,0.125);
#243=VECTOR('',#1340,0.393700787401575);
#244=VECTOR('',#1343,0.393700787401575);
#245=VECTOR('',#1346,0.393700787401575);
#246=VECTOR('',#1347,0.125);
#247=VECTOR('',#1348,0.393700787401575);
#248=VECTOR('',#1369,0.393700787401575);
#249=VECTOR('',#1382,0.125);
#250=VECTOR('',#1387,0.393700787401575);
#251=VECTOR('',#1390,0.393700787401575);
#252=VECTOR('',#1395,0.125);
#253=VECTOR('',#1396,0.125);
#254=VECTOR('',#1399,0.393700787401575);
#255=VECTOR('',#1400,0.393700787401575);
#256=VECTOR('',#1405,0.393700787401575);
#257=VECTOR('',#1410,0.393700787401575);
#258=VECTOR('',#1413,0.393700787401575);
#259=VECTOR('',#1416,0.393700787401575);
#260=VECTOR('',#1417,0.393700787401575);
#261=VECTOR('',#1418,0.393700787401575);
#262=VECTOR('',#1433,0.393700787401575);
#263=VECTOR('',#1438,0.125000000000001);
#264=VECTOR('',#1443,0.393700787401575);
#265=VECTOR('',#1446,0.393700787401575);
#266=VECTOR('',#1453,0.393700787401575);
#267=VECTOR('',#1458,0.393700787401575);
#268=VECTOR('',#1459,0.393700787401575);
#269=VECTOR('',#1464,0.09);
#270=VECTOR('',#1471,0.09);
#271=VECTOR('',#1478,0.09);
#272=VECTOR('',#1511,0.393700787401575);
#273=VECTOR('',#1514,0.393700787401575);
#274=VECTOR('',#1517,0.393700787401575);
#275=VECTOR('',#1520,0.393700787401575);
#276=VECTOR('',#1523,0.393700787401575);
#277=VECTOR('',#1530,0.393700787401575);
#278=VECTOR('',#1533,0.09);
#279=VECTOR('',#1538,0.09);
#280=VECTOR('',#1543,0.09);
#281=VECTOR('',#1548,0.09);
#282=VECTOR('',#1553,0.09);
#283=VECTOR('',#1560,0.393700787401575);
#284=VECTOR('',#1569,0.393700787401575);
#285=VECTOR('',#1574,0.393700787401575);
#286=VECTOR('',#1579,0.393700787401575);
#287=VECTOR('',#1584,0.393700787401575);
#288=VECTOR('',#1589,0.393700787401575);
#289=VECTOR('',#1594,0.393700787401575);
#290=VECTOR('',#1599,0.393700787401575);
#291=VECTOR('',#1608,0.393700787401575);
#292=VECTOR('',#1613,0.393700787401575);
#293=VECTOR('',#1618,0.393700787401575);
#294=VECTOR('',#1623,0.393700787401575);
#295=VECTOR('',#1628,0.393700787401575);
#296=CIRCLE('',#1132,0.125);
#297=CIRCLE('',#1133,0.125);
#298=CIRCLE('',#1136,0.125000000000001);
#299=CIRCLE('',#1137,0.104109589041098);
#300=CIRCLE('',#1138,0.2);
#301=CIRCLE('',#1139,0.104109589041093);
#302=CIRCLE('',#1140,3.75000000000001);
#303=CIRCLE('',#1141,0.104109589041098);
#304=CIRCLE('',#1142,0.2);
#305=CIRCLE('',#1143,0.104109589041093);
#306=CIRCLE('',#1144,0.125);
#307=CIRCLE('',#1145,0.125);
#308=CIRCLE('',#1146,3.25000000000001);
#309=CIRCLE('',#1147,0.09);
#310=CIRCLE('',#1148,0.09);
#311=CIRCLE('',#1150,0.125);
#312=CIRCLE('',#1153,0.125);
#313=CIRCLE('',#1155,0.125);
#314=CIRCLE('',#1156,0.125);
#315=CIRCLE('',#1159,0.125);
#316=CIRCLE('',#1160,0.104109589041098);
#317=CIRCLE('',#1161,0.2);
#318=CIRCLE('',#1162,0.104109589041093);
#319=CIRCLE('',#1163,3.75000000000001);
#320=CIRCLE('',#1164,0.104109589041098);
#321=CIRCLE('',#1165,0.2);
#322=CIRCLE('',#1166,0.104109589041093);
#323=CIRCLE('',#1167,0.125);
#324=CIRCLE('',#1168,0.125);
#325=CIRCLE('',#1169,3.25000000000001);
#326=CIRCLE('',#1170,0.09);
#327=CIRCLE('',#1171,0.09);
#328=CIRCLE('',#1173,0.125);
#329=CIRCLE('',#1175,0.104109589041098);
#330=CIRCLE('',#1176,0.104109589041098);
#331=CIRCLE('',#1178,0.125);
#332=CIRCLE('',#1181,0.125);
#333=CIRCLE('',#1183,0.125);
#334=CIRCLE('',#1184,0.125);
#335=CIRCLE('',#1187,0.125);
#336=CIRCLE('',#1188,3.75000000000001);
#337=CIRCLE('',#1189,0.25);
#338=CIRCLE('',#1190,3.25000000000001);
#339=CIRCLE('',#1192,0.125);
#340=CIRCLE('',#1194,0.125000000000001);
#341=CIRCLE('',#1196,0.125);
#342=CIRCLE('',#1197,0.125);
#343=CIRCLE('',#1199,3.25000000000001);
#344=CIRCLE('',#1200,0.405999999999999);
#345=CIRCLE('',#1201,0.09);
#346=CIRCLE('',#1204,0.09);
#347=CIRCLE('',#1205,0.09);
#348=CIRCLE('',#1207,0.09);
#349=CIRCLE('',#1208,0.09);
#350=CIRCLE('',#1210,0.09);
#351=CIRCLE('',#1211,0.09);
#352=CIRCLE('',#1213,3.75000000000001);
#353=CIRCLE('',#1214,3.25000000000001);
#354=CIRCLE('',#1215,0.104109589041093);
#355=CIRCLE('',#1217,0.405999999999999);
#356=CIRCLE('',#1218,0.125);
#357=CIRCLE('',#1219,3.75000000000001);
#358=CIRCLE('',#1220,0.104109589041098);
#359=CIRCLE('',#1221,3.25000000000001);
#360=CIRCLE('',#1223,3.25000000000001);
#361=CIRCLE('',#1224,0.104109589041093);
#362=CIRCLE('',#1225,3.75000000000001);
#363=CIRCLE('',#1227,3.75000000000001);
#364=CIRCLE('',#1229,0.405999999999999);
#365=CIRCLE('',#1231,3.75000000000001);
#366=CIRCLE('',#1233,0.125);
#367=CIRCLE('',#1235,0.09);
#368=CIRCLE('',#1237,0.09);
#369=CIRCLE('',#1239,0.09);
#370=CIRCLE('',#1241,0.09);
#371=CIRCLE('',#1243,0.09);
#372=CIRCLE('',#1245,0.25);
#373=CIRCLE('',#1247,3.25000000000001);
#374=CIRCLE('',#1249,3.75000000000001);
#375=CIRCLE('',#1251,0.104109589041098);
#376=CIRCLE('',#1253,0.2);
#377=CIRCLE('',#1255,0.104109589041093);
#378=CIRCLE('',#1257,3.75000000000001);
#379=CIRCLE('',#1259,0.104109589041098);
#380=CIRCLE('',#1261,0.2);
#381=CIRCLE('',#1263,0.104109589041093);
#382=CIRCLE('',#1265,0.2);
#383=CIRCLE('',#1267,0.104109589041093);
#384=CIRCLE('',#1269,3.75000000000001);
#385=CIRCLE('',#1271,0.104109589041098);
#386=CIRCLE('',#1273,0.2);
#387=CIRCLE('',#1275,0.104109589041093);
#388=VERTEX_POINT('',#1637);
#389=VERTEX_POINT('',#1638);
#390=VERTEX_POINT('',#1640);
#391=VERTEX_POINT('',#1642);
#392=VERTEX_POINT('',#1646);
#393=VERTEX_POINT('',#1648);
#394=VERTEX_POINT('',#1652);
#395=VERTEX_POINT('',#1654);
#396=VERTEX_POINT('',#1656);
#397=VERTEX_POINT('',#1658);
#398=VERTEX_POINT('',#1660);
#399=VERTEX_POINT('',#1662);
#400=VERTEX_POINT('',#1664);
#401=VERTEX_POINT('',#1666);
#402=VERTEX_POINT('',#1668);
#403=VERTEX_POINT('',#1670);
#404=VERTEX_POINT('',#1672);
#405=VERTEX_POINT('',#1675);
#406=VERTEX_POINT('',#1677);
#407=VERTEX_POINT('',#1680);
#408=VERTEX_POINT('',#1682);
#409=VERTEX_POINT('',#1686);
#410=VERTEX_POINT('',#1690);
#411=VERTEX_POINT('',#1694);
#412=VERTEX_POINT('',#1695);
#413=VERTEX_POINT('',#1697);
#414=VERTEX_POINT('',#1699);
#415=VERTEX_POINT('',#1703);
#416=VERTEX_POINT('',#1705);
#417=VERTEX_POINT('',#1709);
#418=VERTEX_POINT('',#1711);
#419=VERTEX_POINT('',#1713);
#420=VERTEX_POINT('',#1715);
#421=VERTEX_POINT('',#1717);
#422=VERTEX_POINT('',#1719);
#423=VERTEX_POINT('',#1721);
#424=VERTEX_POINT('',#1723);
#425=VERTEX_POINT('',#1725);
#426=VERTEX_POINT('',#1727);
#427=VERTEX_POINT('',#1729);
#428=VERTEX_POINT('',#1732);
#429=VERTEX_POINT('',#1734);
#430=VERTEX_POINT('',#1737);
#431=VERTEX_POINT('',#1741);
#432=VERTEX_POINT('',#1743);
#433=VERTEX_POINT('',#1745);
#434=VERTEX_POINT('',#1749);
#435=VERTEX_POINT('',#1750);
#436=VERTEX_POINT('',#1755);
#437=VERTEX_POINT('',#1759);
#438=VERTEX_POINT('',#1763);
#439=VERTEX_POINT('',#1764);
#440=VERTEX_POINT('',#1766);
#441=VERTEX_POINT('',#1768);
#442=VERTEX_POINT('',#1772);
#443=VERTEX_POINT('',#1774);
#444=VERTEX_POINT('',#1778);
#445=VERTEX_POINT('',#1780);
#446=VERTEX_POINT('',#1782);
#447=VERTEX_POINT('',#1786);
#448=VERTEX_POINT('',#1790);
#449=VERTEX_POINT('',#1794);
#450=VERTEX_POINT('',#1795);
#451=VERTEX_POINT('',#1797);
#452=VERTEX_POINT('',#1799);
#453=VERTEX_POINT('',#1803);
#454=VERTEX_POINT('',#1805);
#455=VERTEX_POINT('',#1808);
#456=VERTEX_POINT('',#1811);
#457=VERTEX_POINT('',#1815);
#458=VERTEX_POINT('',#1817);
#459=VERTEX_POINT('',#1821);
#460=VERTEX_POINT('',#1823);
#461=VERTEX_POINT('',#1827);
#462=VERTEX_POINT('',#1829);
#463=VERTEX_POINT('',#1833);
#464=VERTEX_POINT('',#1838);
#465=VERTEX_POINT('',#1840);
#466=VERTEX_POINT('',#1842);
#467=VERTEX_POINT('',#1848);
#468=VERTEX_POINT('',#1852);
#469=VERTEX_POINT('',#1854);
#470=VERTEX_POINT('',#1858);
#471=VERTEX_POINT('',#1860);
#472=VERTEX_POINT('',#1864);
#473=VERTEX_POINT('',#1868);
#474=VERTEX_POINT('',#1872);
#475=VERTEX_POINT('',#1876);
#476=VERTEX_POINT('',#1880);
#477=VERTEX_POINT('',#1884);
#478=VERTEX_POINT('',#1888);
#479=VERTEX_POINT('',#1892);
#480=VERTEX_POINT('',#1898);
#481=VERTEX_POINT('',#1902);
#482=VERTEX_POINT('',#1906);
#483=VERTEX_POINT('',#1910);
#484=VERTEX_POINT('',#1914);
#485=VERTEX_POINT('',#1918);
#486=VERTEX_POINT('',#1922);
#487=VERTEX_POINT('',#1928);
#488=VERTEX_POINT('',#1932);
#489=VERTEX_POINT('',#1936);
#490=VERTEX_POINT('',#1940);
#491=VERTEX_POINT('',#1944);
#492=EDGE_CURVE('',#388,#389,#296,.T.);
#493=EDGE_CURVE('',#390,#388,#168,.T.);
#494=EDGE_CURVE('',#391,#390,#297,.F.);
#495=EDGE_CURVE('',#389,#391,#169,.T.);
#496=EDGE_CURVE('',#392,#391,#170,.T.);
#497=EDGE_CURVE('',#392,#393,#171,.T.);
#498=EDGE_CURVE('',#393,#389,#172,.T.);
#499=EDGE_CURVE('',#393,#394,#298,.T.);
#500=EDGE_CURVE('',#395,#394,#299,.T.);
#501=EDGE_CURVE('',#396,#395,#300,.T.);
#502=EDGE_CURVE('',#397,#396,#301,.T.);
#503=EDGE_CURVE('',#398,#397,#302,.T.);
#504=EDGE_CURVE('',#399,#398,#303,.T.);
#505=EDGE_CURVE('',#400,#399,#304,.T.);
#506=EDGE_CURVE('',#401,#400,#305,.T.);
#507=EDGE_CURVE('',#401,#402,#306,.T.);
#508=EDGE_CURVE('',#403,#402,#173,.T.);
#509=EDGE_CURVE('',#403,#404,#307,.T.);
#510=EDGE_CURVE('',#388,#404,#308,.T.);
#511=EDGE_CURVE('',#405,#405,#309,.T.);
#512=EDGE_CURVE('',#406,#406,#310,.T.);
#513=EDGE_CURVE('',#407,#403,#174,.T.);
#514=EDGE_CURVE('',#408,#407,#311,.F.);
#515=EDGE_CURVE('',#404,#408,#175,.T.);
#516=EDGE_CURVE('',#402,#409,#176,.T.);
#517=EDGE_CURVE('',#407,#409,#177,.T.);
#518=EDGE_CURVE('',#410,#409,#312,.T.);
#519=EDGE_CURVE('',#410,#401,#178,.T.);
#520=EDGE_CURVE('',#411,#412,#313,.T.);
#521=EDGE_CURVE('',#413,#411,#179,.T.);
#522=EDGE_CURVE('',#414,#413,#314,.F.);
#523=EDGE_CURVE('',#412,#414,#180,.T.);
#524=EDGE_CURVE('',#415,#414,#181,.T.);
#525=EDGE_CURVE('',#415,#416,#182,.T.);
#526=EDGE_CURVE('',#416,#412,#183,.T.);
#527=EDGE_CURVE('',#416,#417,#315,.T.);
#528=EDGE_CURVE('',#418,#417,#316,.T.);
#529=EDGE_CURVE('',#419,#418,#317,.T.);
#530=EDGE_CURVE('',#420,#419,#318,.T.);
#531=EDGE_CURVE('',#421,#420,#319,.T.);
#532=EDGE_CURVE('',#422,#421,#320,.T.);
#533=EDGE_CURVE('',#423,#422,#321,.T.);
#534=EDGE_CURVE('',#424,#423,#322,.T.);
#535=EDGE_CURVE('',#424,#425,#323,.T.);
#536=EDGE_CURVE('',#426,#425,#184,.T.);
#537=EDGE_CURVE('',#426,#427,#324,.T.);
#538=EDGE_CURVE('',#411,#427,#325,.T.);
#539=EDGE_CURVE('',#428,#428,#326,.T.);
#540=EDGE_CURVE('',#429,#429,#327,.T.);
#541=EDGE_CURVE('',#430,#415,#328,.F.);
#542=EDGE_CURVE('',#417,#430,#185,.T.);
#543=EDGE_CURVE('',#430,#431,#329,.T.);
#544=EDGE_CURVE('',#432,#431,#186,.T.);
#545=EDGE_CURVE('',#433,#432,#330,.T.);
#546=EDGE_CURVE('',#433,#418,#187,.T.);
#547=EDGE_CURVE('',#434,#435,#331,.T.);
#548=EDGE_CURVE('',#425,#435,#188,.T.);
#549=EDGE_CURVE('',#434,#424,#189,.T.);
#550=EDGE_CURVE('',#436,#435,#190,.T.);
#551=EDGE_CURVE('',#436,#426,#191,.T.);
#552=EDGE_CURVE('',#437,#436,#332,.F.);
#553=EDGE_CURVE('',#427,#437,#192,.T.);
#554=EDGE_CURVE('',#438,#439,#333,.T.);
#555=EDGE_CURVE('',#440,#438,#193,.T.);
#556=EDGE_CURVE('',#441,#440,#334,.F.);
#557=EDGE_CURVE('',#439,#441,#194,.T.);
#558=EDGE_CURVE('',#442,#441,#195,.T.);
#559=EDGE_CURVE('',#442,#443,#196,.T.);
#560=EDGE_CURVE('',#443,#439,#197,.T.);
#561=EDGE_CURVE('',#443,#444,#335,.T.);
#562=EDGE_CURVE('',#445,#444,#336,.T.);
#563=EDGE_CURVE('',#446,#445,#337,.T.);
#564=EDGE_CURVE('',#438,#446,#338,.T.);
#565=EDGE_CURVE('',#447,#442,#339,.F.);
#566=EDGE_CURVE('',#444,#447,#198,.T.);
#567=EDGE_CURVE('',#448,#392,#340,.F.);
#568=EDGE_CURVE('',#394,#448,#199,.T.);
#569=EDGE_CURVE('',#449,#450,#341,.T.);
#570=EDGE_CURVE('',#451,#449,#200,.T.);
#571=EDGE_CURVE('',#452,#451,#342,.F.);
#572=EDGE_CURVE('',#450,#452,#201,.T.);
#573=EDGE_CURVE('',#453,#450,#343,.T.);
#574=EDGE_CURVE('',#454,#453,#344,.T.);
#575=EDGE_CURVE('',#449,#454,#202,.T.);
#576=EDGE_CURVE('',#455,#455,#345,.T.);
#577=EDGE_CURVE('',#454,#456,#203,.T.);
#578=EDGE_CURVE('',#451,#456,#204,.T.);
#579=EDGE_CURVE('',#457,#457,#346,.T.);
#580=EDGE_CURVE('',#457,#458,#205,.T.);
#581=EDGE_CURVE('',#458,#458,#347,.T.);
#582=EDGE_CURVE('',#459,#459,#348,.T.);
#583=EDGE_CURVE('',#459,#460,#206,.T.);
#584=EDGE_CURVE('',#460,#460,#349,.T.);
#585=EDGE_CURVE('',#461,#461,#350,.T.);
#586=EDGE_CURVE('',#461,#462,#207,.T.);
#587=EDGE_CURVE('',#462,#462,#351,.T.);
#588=EDGE_CURVE('',#447,#463,#352,.T.);
#589=EDGE_CURVE('',#440,#437,#353,.T.);
#590=EDGE_CURVE('',#463,#434,#354,.T.);
#591=EDGE_CURVE('',#456,#464,#355,.T.);
#592=EDGE_CURVE('',#464,#465,#356,.T.);
#593=EDGE_CURVE('',#466,#465,#357,.T.);
#594=EDGE_CURVE('',#448,#466,#358,.T.);
#595=EDGE_CURVE('',#390,#452,#359,.T.);
#596=EDGE_CURVE('',#413,#408,#360,.T.);
#597=EDGE_CURVE('',#467,#410,#361,.T.);
#598=EDGE_CURVE('',#431,#467,#362,.T.);
#599=EDGE_CURVE('',#468,#463,#208,.T.);
#600=EDGE_CURVE('',#469,#468,#363,.T.);
#601=EDGE_CURVE('',#469,#445,#209,.T.);
#602=EDGE_CURVE('',#470,#453,#210,.T.);
#603=EDGE_CURVE('',#471,#470,#364,.T.);
#604=EDGE_CURVE('',#471,#464,#211,.T.);
#605=EDGE_CURVE('',#472,#467,#212,.T.);
#606=EDGE_CURVE('',#432,#472,#365,.T.);
#607=EDGE_CURVE('',#473,#471,#366,.T.);
#608=EDGE_CURVE('',#465,#473,#213,.T.);
#609=EDGE_CURVE('',#455,#474,#214,.T.);
#610=EDGE_CURVE('',#474,#474,#367,.T.);
#611=EDGE_CURVE('',#405,#475,#215,.T.);
#612=EDGE_CURVE('',#475,#475,#368,.T.);
#613=EDGE_CURVE('',#406,#476,#216,.T.);
#614=EDGE_CURVE('',#476,#476,#369,.T.);
#615=EDGE_CURVE('',#428,#477,#217,.T.);
#616=EDGE_CURVE('',#477,#477,#370,.T.);
#617=EDGE_CURVE('',#429,#478,#218,.T.);
#618=EDGE_CURVE('',#478,#478,#371,.T.);
#619=EDGE_CURVE('',#479,#469,#372,.T.);
#620=EDGE_CURVE('',#479,#446,#219,.T.);
#621=EDGE_CURVE('',#470,#479,#373,.T.);
#622=EDGE_CURVE('',#480,#473,#374,.T.);
#623=EDGE_CURVE('',#480,#466,#220,.T.);
#624=EDGE_CURVE('',#481,#480,#375,.T.);
#625=EDGE_CURVE('',#481,#395,#221,.T.);
#626=EDGE_CURVE('',#482,#481,#376,.T.);
#627=EDGE_CURVE('',#482,#396,#222,.T.);
#628=EDGE_CURVE('',#483,#482,#377,.T.);
#629=EDGE_CURVE('',#483,#397,#223,.T.);
#630=EDGE_CURVE('',#484,#483,#378,.T.);
#631=EDGE_CURVE('',#484,#398,#224,.T.);
#632=EDGE_CURVE('',#485,#484,#379,.T.);
#633=EDGE_CURVE('',#485,#399,#225,.T.);
#634=EDGE_CURVE('',#486,#485,#380,.T.);
#635=EDGE_CURVE('',#486,#400,#226,.T.);
#636=EDGE_CURVE('',#472,#486,#381,.T.);
#637=EDGE_CURVE('',#487,#433,#382,.T.);
#638=EDGE_CURVE('',#487,#419,#227,.T.);
#639=EDGE_CURVE('',#488,#487,#383,.T.);
#640=EDGE_CURVE('',#488,#420,#228,.T.);
#641=EDGE_CURVE('',#489,#488,#384,.T.);
#642=EDGE_CURVE('',#489,#421,#229,.T.);
#643=EDGE_CURVE('',#490,#489,#385,.T.);
#644=EDGE_CURVE('',#490,#422,#230,.T.);
#645=EDGE_CURVE('',#491,#490,#386,.T.);
#646=EDGE_CURVE('',#491,#423,#231,.T.);
#647=EDGE_CURVE('',#468,#491,#387,.T.);
#648=ORIENTED_EDGE('',*,*,#492,.F.);
#649=ORIENTED_EDGE('',*,*,#493,.F.);
#650=ORIENTED_EDGE('',*,*,#494,.F.);
#651=ORIENTED_EDGE('',*,*,#495,.F.);
#652=ORIENTED_EDGE('',*,*,#495,.T.);
#653=ORIENTED_EDGE('',*,*,#496,.F.);
#654=ORIENTED_EDGE('',*,*,#497,.T.);
#655=ORIENTED_EDGE('',*,*,#498,.T.);
#656=ORIENTED_EDGE('',*,*,#492,.T.);
#657=ORIENTED_EDGE('',*,*,#498,.F.);
#658=ORIENTED_EDGE('',*,*,#499,.T.);
#659=ORIENTED_EDGE('',*,*,#500,.F.);
#660=ORIENTED_EDGE('',*,*,#501,.F.);
#661=ORIENTED_EDGE('',*,*,#502,.F.);
#662=ORIENTED_EDGE('',*,*,#503,.F.);
#663=ORIENTED_EDGE('',*,*,#504,.F.);
#664=ORIENTED_EDGE('',*,*,#505,.F.);
#665=ORIENTED_EDGE('',*,*,#506,.F.);
#666=ORIENTED_EDGE('',*,*,#507,.T.);
#667=ORIENTED_EDGE('',*,*,#508,.F.);
#668=ORIENTED_EDGE('',*,*,#509,.T.);
#669=ORIENTED_EDGE('',*,*,#510,.F.);
#670=ORIENTED_EDGE('',*,*,#511,.F.);
#671=ORIENTED_EDGE('',*,*,#512,.F.);
#672=ORIENTED_EDGE('',*,*,#509,.F.);
#673=ORIENTED_EDGE('',*,*,#513,.F.);
#674=ORIENTED_EDGE('',*,*,#514,.F.);
#675=ORIENTED_EDGE('',*,*,#515,.F.);
#676=ORIENTED_EDGE('',*,*,#513,.T.);
#677=ORIENTED_EDGE('',*,*,#508,.T.);
#678=ORIENTED_EDGE('',*,*,#516,.T.);
#679=ORIENTED_EDGE('',*,*,#517,.F.);
#680=ORIENTED_EDGE('',*,*,#518,.T.);
#681=ORIENTED_EDGE('',*,*,#516,.F.);
#682=ORIENTED_EDGE('',*,*,#507,.F.);
#683=ORIENTED_EDGE('',*,*,#519,.F.);
#684=ORIENTED_EDGE('',*,*,#520,.F.);
#685=ORIENTED_EDGE('',*,*,#521,.F.);
#686=ORIENTED_EDGE('',*,*,#522,.F.);
#687=ORIENTED_EDGE('',*,*,#523,.F.);
#688=ORIENTED_EDGE('',*,*,#523,.T.);
#689=ORIENTED_EDGE('',*,*,#524,.F.);
#690=ORIENTED_EDGE('',*,*,#525,.T.);
#691=ORIENTED_EDGE('',*,*,#526,.T.);
#692=ORIENTED_EDGE('',*,*,#520,.T.);
#693=ORIENTED_EDGE('',*,*,#526,.F.);
#694=ORIENTED_EDGE('',*,*,#527,.T.);
#695=ORIENTED_EDGE('',*,*,#528,.F.);
#696=ORIENTED_EDGE('',*,*,#529,.F.);
#697=ORIENTED_EDGE('',*,*,#530,.F.);
#698=ORIENTED_EDGE('',*,*,#531,.F.);
#699=ORIENTED_EDGE('',*,*,#532,.F.);
#700=ORIENTED_EDGE('',*,*,#533,.F.);
#701=ORIENTED_EDGE('',*,*,#534,.F.);
#702=ORIENTED_EDGE('',*,*,#535,.T.);
#703=ORIENTED_EDGE('',*,*,#536,.F.);
#704=ORIENTED_EDGE('',*,*,#537,.T.);
#705=ORIENTED_EDGE('',*,*,#538,.F.);
#706=ORIENTED_EDGE('',*,*,#539,.F.);
#707=ORIENTED_EDGE('',*,*,#540,.F.);
#708=ORIENTED_EDGE('',*,*,#527,.F.);
#709=ORIENTED_EDGE('',*,*,#525,.F.);
#710=ORIENTED_EDGE('',*,*,#541,.F.);
#711=ORIENTED_EDGE('',*,*,#542,.F.);
#712=ORIENTED_EDGE('',*,*,#543,.T.);
#713=ORIENTED_EDGE('',*,*,#544,.F.);
#714=ORIENTED_EDGE('',*,*,#545,.F.);
#715=ORIENTED_EDGE('',*,*,#546,.T.);
#716=ORIENTED_EDGE('',*,*,#528,.T.);
#717=ORIENTED_EDGE('',*,*,#542,.T.);
#718=ORIENTED_EDGE('',*,*,#547,.T.);
#719=ORIENTED_EDGE('',*,*,#548,.F.);
#720=ORIENTED_EDGE('',*,*,#535,.F.);
#721=ORIENTED_EDGE('',*,*,#549,.F.);
#722=ORIENTED_EDGE('',*,*,#548,.T.);
#723=ORIENTED_EDGE('',*,*,#550,.F.);
#724=ORIENTED_EDGE('',*,*,#551,.T.);
#725=ORIENTED_EDGE('',*,*,#536,.T.);
#726=ORIENTED_EDGE('',*,*,#537,.F.);
#727=ORIENTED_EDGE('',*,*,#551,.F.);
#728=ORIENTED_EDGE('',*,*,#552,.F.);
#729=ORIENTED_EDGE('',*,*,#553,.F.);
#730=ORIENTED_EDGE('',*,*,#554,.F.);
#731=ORIENTED_EDGE('',*,*,#555,.F.);
#732=ORIENTED_EDGE('',*,*,#556,.F.);
#733=ORIENTED_EDGE('',*,*,#557,.F.);
#734=ORIENTED_EDGE('',*,*,#557,.T.);
#735=ORIENTED_EDGE('',*,*,#558,.F.);
#736=ORIENTED_EDGE('',*,*,#559,.T.);
#737=ORIENTED_EDGE('',*,*,#560,.T.);
#738=ORIENTED_EDGE('',*,*,#554,.T.);
#739=ORIENTED_EDGE('',*,*,#560,.F.);
#740=ORIENTED_EDGE('',*,*,#561,.T.);
#741=ORIENTED_EDGE('',*,*,#562,.F.);
#742=ORIENTED_EDGE('',*,*,#563,.F.);
#743=ORIENTED_EDGE('',*,*,#564,.F.);
#744=ORIENTED_EDGE('',*,*,#561,.F.);
#745=ORIENTED_EDGE('',*,*,#559,.F.);
#746=ORIENTED_EDGE('',*,*,#565,.F.);
#747=ORIENTED_EDGE('',*,*,#566,.F.);
#748=ORIENTED_EDGE('',*,*,#499,.F.);
#749=ORIENTED_EDGE('',*,*,#497,.F.);
#750=ORIENTED_EDGE('',*,*,#567,.F.);
#751=ORIENTED_EDGE('',*,*,#568,.F.);
#752=ORIENTED_EDGE('',*,*,#569,.F.);
#753=ORIENTED_EDGE('',*,*,#570,.F.);
#754=ORIENTED_EDGE('',*,*,#571,.F.);
#755=ORIENTED_EDGE('',*,*,#572,.F.);
#756=ORIENTED_EDGE('',*,*,#569,.T.);
#757=ORIENTED_EDGE('',*,*,#573,.F.);
#758=ORIENTED_EDGE('',*,*,#574,.F.);
#759=ORIENTED_EDGE('',*,*,#575,.F.);
#760=ORIENTED_EDGE('',*,*,#576,.F.);
#761=ORIENTED_EDGE('',*,*,#570,.T.);
#762=ORIENTED_EDGE('',*,*,#575,.T.);
#763=ORIENTED_EDGE('',*,*,#577,.T.);
#764=ORIENTED_EDGE('',*,*,#578,.F.);
#765=ORIENTED_EDGE('',*,*,#579,.T.);
#766=ORIENTED_EDGE('',*,*,#580,.T.);
#767=ORIENTED_EDGE('',*,*,#581,.T.);
#768=ORIENTED_EDGE('',*,*,#580,.F.);
#769=ORIENTED_EDGE('',*,*,#582,.T.);
#770=ORIENTED_EDGE('',*,*,#583,.T.);
#771=ORIENTED_EDGE('',*,*,#584,.T.);
#772=ORIENTED_EDGE('',*,*,#583,.F.);
#773=ORIENTED_EDGE('',*,*,#585,.T.);
#774=ORIENTED_EDGE('',*,*,#586,.T.);
#775=ORIENTED_EDGE('',*,*,#587,.T.);
#776=ORIENTED_EDGE('',*,*,#586,.F.);
#777=ORIENTED_EDGE('',*,*,#588,.F.);
#778=ORIENTED_EDGE('',*,*,#565,.T.);
#779=ORIENTED_EDGE('',*,*,#558,.T.);
#780=ORIENTED_EDGE('',*,*,#556,.T.);
#781=ORIENTED_EDGE('',*,*,#589,.T.);
#782=ORIENTED_EDGE('',*,*,#552,.T.);
#783=ORIENTED_EDGE('',*,*,#550,.T.);
#784=ORIENTED_EDGE('',*,*,#547,.F.);
#785=ORIENTED_EDGE('',*,*,#590,.F.);
#786=ORIENTED_EDGE('',*,*,#579,.F.);
#787=ORIENTED_EDGE('',*,*,#591,.T.);
#788=ORIENTED_EDGE('',*,*,#592,.T.);
#789=ORIENTED_EDGE('',*,*,#593,.F.);
#790=ORIENTED_EDGE('',*,*,#594,.F.);
#791=ORIENTED_EDGE('',*,*,#567,.T.);
#792=ORIENTED_EDGE('',*,*,#496,.T.);
#793=ORIENTED_EDGE('',*,*,#494,.T.);
#794=ORIENTED_EDGE('',*,*,#595,.T.);
#795=ORIENTED_EDGE('',*,*,#571,.T.);
#796=ORIENTED_EDGE('',*,*,#578,.T.);
#797=ORIENTED_EDGE('',*,*,#585,.F.);
#798=ORIENTED_EDGE('',*,*,#596,.T.);
#799=ORIENTED_EDGE('',*,*,#514,.T.);
#800=ORIENTED_EDGE('',*,*,#517,.T.);
#801=ORIENTED_EDGE('',*,*,#518,.F.);
#802=ORIENTED_EDGE('',*,*,#597,.F.);
#803=ORIENTED_EDGE('',*,*,#598,.F.);
#804=ORIENTED_EDGE('',*,*,#543,.F.);
#805=ORIENTED_EDGE('',*,*,#541,.T.);
#806=ORIENTED_EDGE('',*,*,#524,.T.);
#807=ORIENTED_EDGE('',*,*,#522,.T.);
#808=ORIENTED_EDGE('',*,*,#582,.F.);
#809=ORIENTED_EDGE('',*,*,#588,.T.);
#810=ORIENTED_EDGE('',*,*,#599,.F.);
#811=ORIENTED_EDGE('',*,*,#600,.F.);
#812=ORIENTED_EDGE('',*,*,#601,.T.);
#813=ORIENTED_EDGE('',*,*,#562,.T.);
#814=ORIENTED_EDGE('',*,*,#566,.T.);
#815=ORIENTED_EDGE('',*,*,#577,.F.);
#816=ORIENTED_EDGE('',*,*,#574,.T.);
#817=ORIENTED_EDGE('',*,*,#602,.F.);
#818=ORIENTED_EDGE('',*,*,#603,.F.);
#819=ORIENTED_EDGE('',*,*,#604,.T.);
#820=ORIENTED_EDGE('',*,*,#591,.F.);
#821=ORIENTED_EDGE('',*,*,#598,.T.);
#822=ORIENTED_EDGE('',*,*,#605,.F.);
#823=ORIENTED_EDGE('',*,*,#606,.F.);
#824=ORIENTED_EDGE('',*,*,#544,.T.);
#825=ORIENTED_EDGE('',*,*,#592,.F.);
#826=ORIENTED_EDGE('',*,*,#604,.F.);
#827=ORIENTED_EDGE('',*,*,#607,.F.);
#828=ORIENTED_EDGE('',*,*,#608,.F.);
#829=ORIENTED_EDGE('',*,*,#576,.T.);
#830=ORIENTED_EDGE('',*,*,#609,.T.);
#831=ORIENTED_EDGE('',*,*,#610,.F.);
#832=ORIENTED_EDGE('',*,*,#609,.F.);
#833=ORIENTED_EDGE('',*,*,#511,.T.);
#834=ORIENTED_EDGE('',*,*,#611,.T.);
#835=ORIENTED_EDGE('',*,*,#612,.F.);
#836=ORIENTED_EDGE('',*,*,#611,.F.);
#837=ORIENTED_EDGE('',*,*,#512,.T.);
#838=ORIENTED_EDGE('',*,*,#613,.T.);
#839=ORIENTED_EDGE('',*,*,#614,.F.);
#840=ORIENTED_EDGE('',*,*,#613,.F.);
#841=ORIENTED_EDGE('',*,*,#539,.T.);
#842=ORIENTED_EDGE('',*,*,#615,.T.);
#843=ORIENTED_EDGE('',*,*,#616,.F.);
#844=ORIENTED_EDGE('',*,*,#615,.F.);
#845=ORIENTED_EDGE('',*,*,#540,.T.);
#846=ORIENTED_EDGE('',*,*,#617,.T.);
#847=ORIENTED_EDGE('',*,*,#618,.F.);
#848=ORIENTED_EDGE('',*,*,#617,.F.);
#849=ORIENTED_EDGE('',*,*,#619,.F.);
#850=ORIENTED_EDGE('',*,*,#620,.T.);
#851=ORIENTED_EDGE('',*,*,#563,.T.);
#852=ORIENTED_EDGE('',*,*,#601,.F.);
#853=ORIENTED_EDGE('',*,*,#595,.F.);
#854=ORIENTED_EDGE('',*,*,#493,.T.);
#855=ORIENTED_EDGE('',*,*,#510,.T.);
#856=ORIENTED_EDGE('',*,*,#515,.T.);
#857=ORIENTED_EDGE('',*,*,#596,.F.);
#858=ORIENTED_EDGE('',*,*,#521,.T.);
#859=ORIENTED_EDGE('',*,*,#538,.T.);
#860=ORIENTED_EDGE('',*,*,#553,.T.);
#861=ORIENTED_EDGE('',*,*,#589,.F.);
#862=ORIENTED_EDGE('',*,*,#555,.T.);
#863=ORIENTED_EDGE('',*,*,#564,.T.);
#864=ORIENTED_EDGE('',*,*,#620,.F.);
#865=ORIENTED_EDGE('',*,*,#621,.F.);
#866=ORIENTED_EDGE('',*,*,#602,.T.);
#867=ORIENTED_EDGE('',*,*,#573,.T.);
#868=ORIENTED_EDGE('',*,*,#572,.T.);
#869=ORIENTED_EDGE('',*,*,#593,.T.);
#870=ORIENTED_EDGE('',*,*,#608,.T.);
#871=ORIENTED_EDGE('',*,*,#622,.F.);
#872=ORIENTED_EDGE('',*,*,#623,.T.);
#873=ORIENTED_EDGE('',*,*,#568,.T.);
#874=ORIENTED_EDGE('',*,*,#594,.T.);
#875=ORIENTED_EDGE('',*,*,#623,.F.);
#876=ORIENTED_EDGE('',*,*,#624,.F.);
#877=ORIENTED_EDGE('',*,*,#625,.T.);
#878=ORIENTED_EDGE('',*,*,#500,.T.);
#879=ORIENTED_EDGE('',*,*,#626,.F.);
#880=ORIENTED_EDGE('',*,*,#627,.T.);
#881=ORIENTED_EDGE('',*,*,#501,.T.);
#882=ORIENTED_EDGE('',*,*,#625,.F.);
#883=ORIENTED_EDGE('',*,*,#628,.F.);
#884=ORIENTED_EDGE('',*,*,#629,.T.);
#885=ORIENTED_EDGE('',*,*,#502,.T.);
#886=ORIENTED_EDGE('',*,*,#627,.F.);
#887=ORIENTED_EDGE('',*,*,#630,.F.);
#888=ORIENTED_EDGE('',*,*,#631,.T.);
#889=ORIENTED_EDGE('',*,*,#503,.T.);
#890=ORIENTED_EDGE('',*,*,#629,.F.);
#891=ORIENTED_EDGE('',*,*,#632,.F.);
#892=ORIENTED_EDGE('',*,*,#633,.T.);
#893=ORIENTED_EDGE('',*,*,#504,.T.);
#894=ORIENTED_EDGE('',*,*,#631,.F.);
#895=ORIENTED_EDGE('',*,*,#634,.F.);
#896=ORIENTED_EDGE('',*,*,#635,.T.);
#897=ORIENTED_EDGE('',*,*,#505,.T.);
#898=ORIENTED_EDGE('',*,*,#633,.F.);
#899=ORIENTED_EDGE('',*,*,#597,.T.);
#900=ORIENTED_EDGE('',*,*,#519,.T.);
#901=ORIENTED_EDGE('',*,*,#506,.T.);
#902=ORIENTED_EDGE('',*,*,#635,.F.);
#903=ORIENTED_EDGE('',*,*,#636,.F.);
#904=ORIENTED_EDGE('',*,*,#605,.T.);
#905=ORIENTED_EDGE('',*,*,#637,.F.);
#906=ORIENTED_EDGE('',*,*,#638,.T.);
#907=ORIENTED_EDGE('',*,*,#529,.T.);
#908=ORIENTED_EDGE('',*,*,#546,.F.);
#909=ORIENTED_EDGE('',*,*,#639,.F.);
#910=ORIENTED_EDGE('',*,*,#640,.T.);
#911=ORIENTED_EDGE('',*,*,#530,.T.);
#912=ORIENTED_EDGE('',*,*,#638,.F.);
#913=ORIENTED_EDGE('',*,*,#641,.F.);
#914=ORIENTED_EDGE('',*,*,#642,.T.);
#915=ORIENTED_EDGE('',*,*,#531,.T.);
#916=ORIENTED_EDGE('',*,*,#640,.F.);
#917=ORIENTED_EDGE('',*,*,#643,.F.);
#918=ORIENTED_EDGE('',*,*,#644,.T.);
#919=ORIENTED_EDGE('',*,*,#532,.T.);
#920=ORIENTED_EDGE('',*,*,#642,.F.);
#921=ORIENTED_EDGE('',*,*,#645,.F.);
#922=ORIENTED_EDGE('',*,*,#646,.T.);
#923=ORIENTED_EDGE('',*,*,#533,.T.);
#924=ORIENTED_EDGE('',*,*,#644,.F.);
#925=ORIENTED_EDGE('',*,*,#590,.T.);
#926=ORIENTED_EDGE('',*,*,#549,.T.);
#927=ORIENTED_EDGE('',*,*,#534,.T.);
#928=ORIENTED_EDGE('',*,*,#646,.F.);
#929=ORIENTED_EDGE('',*,*,#647,.F.);
#930=ORIENTED_EDGE('',*,*,#599,.T.);
#931=ORIENTED_EDGE('',*,*,#600,.T.);
#932=ORIENTED_EDGE('',*,*,#647,.T.);
#933=ORIENTED_EDGE('',*,*,#645,.T.);
#934=ORIENTED_EDGE('',*,*,#643,.T.);
#935=ORIENTED_EDGE('',*,*,#641,.T.);
#936=ORIENTED_EDGE('',*,*,#639,.T.);
#937=ORIENTED_EDGE('',*,*,#637,.T.);
#938=ORIENTED_EDGE('',*,*,#545,.T.);
#939=ORIENTED_EDGE('',*,*,#606,.T.);
#940=ORIENTED_EDGE('',*,*,#636,.T.);
#941=ORIENTED_EDGE('',*,*,#634,.T.);
#942=ORIENTED_EDGE('',*,*,#632,.T.);
#943=ORIENTED_EDGE('',*,*,#630,.T.);
#944=ORIENTED_EDGE('',*,*,#628,.T.);
#945=ORIENTED_EDGE('',*,*,#626,.T.);
#946=ORIENTED_EDGE('',*,*,#624,.T.);
#947=ORIENTED_EDGE('',*,*,#622,.T.);
#948=ORIENTED_EDGE('',*,*,#607,.T.);
#949=ORIENTED_EDGE('',*,*,#603,.T.);
#950=ORIENTED_EDGE('',*,*,#621,.T.);
#951=ORIENTED_EDGE('',*,*,#619,.T.);
#952=ORIENTED_EDGE('',*,*,#581,.F.);
#953=ORIENTED_EDGE('',*,*,#584,.F.);
#954=ORIENTED_EDGE('',*,*,#587,.F.);
#955=ORIENTED_EDGE('',*,*,#618,.T.);
#956=ORIENTED_EDGE('',*,*,#616,.T.);
#957=ORIENTED_EDGE('',*,*,#614,.T.);
#958=ORIENTED_EDGE('',*,*,#612,.T.);
#959=ORIENTED_EDGE('',*,*,#610,.T.);
#960=CYLINDRICAL_SURFACE('',#1131,0.125);
#961=CYLINDRICAL_SURFACE('',#1149,0.125);
#962=CYLINDRICAL_SURFACE('',#1152,0.125);
#963=CYLINDRICAL_SURFACE('',#1154,0.125);
#964=CYLINDRICAL_SURFACE('',#1172,0.125);
#965=CYLINDRICAL_SURFACE('',#1174,0.104109589041098);
#966=CYLINDRICAL_SURFACE('',#1177,0.125);
#967=CYLINDRICAL_SURFACE('',#1180,0.125);
#968=CYLINDRICAL_SURFACE('',#1182,0.125);
#969=CYLINDRICAL_SURFACE('',#1191,0.125);
#970=CYLINDRICAL_SURFACE('',#1193,0.125000000000001);
#971=CYLINDRICAL_SURFACE('',#1195,0.125);
#972=CYLINDRICAL_SURFACE('',#1203,0.09);
#973=CYLINDRICAL_SURFACE('',#1206,0.09);
#974=CYLINDRICAL_SURFACE('',#1209,0.09);
#975=CYLINDRICAL_SURFACE('',#1226,3.75000000000001);
#976=CYLINDRICAL_SURFACE('',#1228,0.405999999999999);
#977=CYLINDRICAL_SURFACE('',#1230,3.75000000000001);
#978=CYLINDRICAL_SURFACE('',#1232,0.125);
#979=CYLINDRICAL_SURFACE('',#1234,0.09);
#980=CYLINDRICAL_SURFACE('',#1236,0.09);
#981=CYLINDRICAL_SURFACE('',#1238,0.09);
#982=CYLINDRICAL_SURFACE('',#1240,0.09);
#983=CYLINDRICAL_SURFACE('',#1242,0.09);
#984=CYLINDRICAL_SURFACE('',#1244,0.25);
#985=CYLINDRICAL_SURFACE('',#1246,3.25000000000001);
#986=CYLINDRICAL_SURFACE('',#1248,3.75000000000001);
#987=CYLINDRICAL_SURFACE('',#1250,0.104109589041098);
#988=CYLINDRICAL_SURFACE('',#1252,0.2);
#989=CYLINDRICAL_SURFACE('',#1254,0.104109589041093);
#990=CYLINDRICAL_SURFACE('',#1256,3.75000000000001);
#991=CYLINDRICAL_SURFACE('',#1258,0.104109589041098);
#992=CYLINDRICAL_SURFACE('',#1260,0.2);
#993=CYLINDRICAL_SURFACE('',#1262,0.104109589041093);
#994=CYLINDRICAL_SURFACE('',#1264,0.2);
#995=CYLINDRICAL_SURFACE('',#1266,0.104109589041093);
#996=CYLINDRICAL_SURFACE('',#1268,3.75000000000001);
#997=CYLINDRICAL_SURFACE('',#1270,0.104109589041098);
#998=CYLINDRICAL_SURFACE('',#1272,0.2);
#999=CYLINDRICAL_SURFACE('',#1274,0.104109589041093);
#1000=STYLED_ITEM('',(#1973),#1055);
#1001=STYLED_ITEM('',(#1973),#1056);
#1002=STYLED_ITEM('',(#1973),#1057);
#1003=STYLED_ITEM('',(#1973),#1058);
#1004=STYLED_ITEM('',(#1973),#1059);
#1005=STYLED_ITEM('',(#1973),#1060);
#1006=STYLED_ITEM('',(#1973),#1061);
#1007=STYLED_ITEM('',(#1973),#1062);
#1008=STYLED_ITEM('',(#1973),#1063);
#1009=STYLED_ITEM('',(#1973),#1064);
#1010=STYLED_ITEM('',(#1973),#1065);
#1011=STYLED_ITEM('',(#1973),#1066);
#1012=STYLED_ITEM('',(#1973),#1067);
#1013=STYLED_ITEM('',(#1973),#1068);
#1014=STYLED_ITEM('',(#1973),#1069);
#1015=STYLED_ITEM('',(#1973),#1070);
#1016=STYLED_ITEM('',(#1973),#1071);
#1017=STYLED_ITEM('',(#1973),#1072);
#1018=STYLED_ITEM('',(#1973),#1073);
#1019=STYLED_ITEM('',(#1973),#1074);
#1020=STYLED_ITEM('',(#1973),#1075);
#1021=STYLED_ITEM('',(#1973),#1076);
#1022=STYLED_ITEM('',(#1973),#1077);
#1023=STYLED_ITEM('',(#1973),#1078);
#1024=STYLED_ITEM('',(#1973),#1079);
#1025=STYLED_ITEM('',(#1973),#1080);
#1026=STYLED_ITEM('',(#1973),#1081);
#1027=STYLED_ITEM('',(#1973),#1082);
#1028=STYLED_ITEM('',(#1973),#1083);
#1029=STYLED_ITEM('',(#1973),#1084);
#1030=STYLED_ITEM('',(#1973),#1085);
#1031=STYLED_ITEM('',(#1973),#1086);
#1032=STYLED_ITEM('',(#1973),#1087);
#1033=STYLED_ITEM('',(#1973),#1088);
#1034=STYLED_ITEM('',(#1973),#1089);
#1035=STYLED_ITEM('',(#1973),#1090);
#1036=STYLED_ITEM('',(#1973),#1091);
#1037=STYLED_ITEM('',(#1973),#1092);
#1038=STYLED_ITEM('',(#1973),#1093);
#1039=STYLED_ITEM('',(#1973),#1094);
#1040=STYLED_ITEM('',(#1973),#1095);
#1041=STYLED_ITEM('',(#1973),#1096);
#1042=STYLED_ITEM('',(#1973),#1097);
#1043=STYLED_ITEM('',(#1973),#1098);
#1044=STYLED_ITEM('',(#1973),#1099);
#1045=STYLED_ITEM('',(#1973),#1100);
#1046=STYLED_ITEM('',(#1973),#1101);
#1047=STYLED_ITEM('',(#1973),#1102);
#1048=STYLED_ITEM('',(#1973),#1103);
#1049=STYLED_ITEM('',(#1973),#1104);
#1050=STYLED_ITEM('',(#1973),#1105);
#1051=STYLED_ITEM('',(#1973),#1106);
#1052=STYLED_ITEM('',(#1973),#1107);
#1053=STYLED_ITEM('',(#1973),#1108);
#1054=STYLED_ITEM('',(#1973),#13);
#1055=ADVANCED_FACE('',(#44),#960,.T.);
#1056=ADVANCED_FACE('',(#45),#30,.T.);
#1057=ADVANCED_FACE('',(#46,#14,#15),#31,.F.);
#1058=ADVANCED_FACE('',(#47),#961,.T.);
#1059=ADVANCED_FACE('',(#48),#32,.T.);
#1060=ADVANCED_FACE('',(#49),#962,.T.);
#1061=ADVANCED_FACE('',(#50),#963,.T.);
#1062=ADVANCED_FACE('',(#51),#33,.T.);
#1063=ADVANCED_FACE('',(#52,#16,#17),#34,.F.);
#1064=ADVANCED_FACE('',(#53),#964,.T.);
#1065=ADVANCED_FACE('',(#54),#965,.F.);
#1066=ADVANCED_FACE('',(#55),#966,.T.);
#1067=ADVANCED_FACE('',(#56),#35,.T.);
#1068=ADVANCED_FACE('',(#57),#967,.T.);
#1069=ADVANCED_FACE('',(#58),#968,.T.);
#1070=ADVANCED_FACE('',(#59),#36,.T.);
#1071=ADVANCED_FACE('',(#60),#37,.F.);
#1072=ADVANCED_FACE('',(#61),#969,.T.);
#1073=ADVANCED_FACE('',(#62),#970,.T.);
#1074=ADVANCED_FACE('',(#63),#971,.T.);
#1075=ADVANCED_FACE('',(#64,#18),#38,.F.);
#1076=ADVANCED_FACE('',(#65),#39,.T.);
#1077=ADVANCED_FACE('',(#66),#972,.F.);
#1078=ADVANCED_FACE('',(#67),#973,.F.);
#1079=ADVANCED_FACE('',(#68),#974,.F.);
#1080=ADVANCED_FACE('',(#69,#19),#40,.F.);
#1081=ADVANCED_FACE('',(#70,#20),#41,.F.);
#1082=ADVANCED_FACE('',(#71,#21),#42,.F.);
#1083=ADVANCED_FACE('',(#72),#975,.T.);
#1084=ADVANCED_FACE('',(#73),#976,.T.);
#1085=ADVANCED_FACE('',(#74),#977,.T.);
#1086=ADVANCED_FACE('',(#75),#978,.F.);
#1087=ADVANCED_FACE('',(#76),#979,.F.);
#1088=ADVANCED_FACE('',(#77),#980,.F.);
#1089=ADVANCED_FACE('',(#78),#981,.F.);
#1090=ADVANCED_FACE('',(#79),#982,.F.);
#1091=ADVANCED_FACE('',(#80),#983,.F.);
#1092=ADVANCED_FACE('',(#81),#984,.T.);
#1093=ADVANCED_FACE('',(#82),#985,.F.);
#1094=ADVANCED_FACE('',(#83),#986,.T.);
#1095=ADVANCED_FACE('',(#84),#987,.F.);
#1096=ADVANCED_FACE('',(#85),#988,.T.);
#1097=ADVANCED_FACE('',(#86),#989,.F.);
#1098=ADVANCED_FACE('',(#87),#990,.T.);
#1099=ADVANCED_FACE('',(#88),#991,.F.);
#1100=ADVANCED_FACE('',(#89),#992,.T.);
#1101=ADVANCED_FACE('',(#90),#993,.F.);
#1102=ADVANCED_FACE('',(#91),#994,.T.);
#1103=ADVANCED_FACE('',(#92),#995,.F.);
#1104=ADVANCED_FACE('',(#93),#996,.T.);
#1105=ADVANCED_FACE('',(#94),#997,.F.);
#1106=ADVANCED_FACE('',(#95),#998,.T.);
#1107=ADVANCED_FACE('',(#96),#999,.F.);
#1108=ADVANCED_FACE('',(#97,#22,#23,#24,#25,#26,#27,#28,#29),#43,.T.);
#1109=CLOSED_SHELL('',(#1055,#1056,#1057,#1058,#1059,#1060,#1061,#1062,
#1063,#1064,#1065,#1066,#1067,#1068,#1069,#1070,#1071,#1072,#1073,#1074,
#1075,#1076,#1077,#1078,#1079,#1080,#1081,#1082,#1083,#1084,#1085,#1086,
#1087,#1088,#1089,#1090,#1091,#1092,#1093,#1094,#1095,#1096,#1097,#1098,
#1099,#1100,#1101,#1102,#1103,#1104,#1105,#1106,#1107,#1108));
#1110=DERIVED_UNIT_ELEMENT(#1112,1.);
#1111=DERIVED_UNIT_ELEMENT(#1958,-3.);
#1112=(
CONVERSION_BASED_UNIT('gram',#1114)
MASS_UNIT()
NAMED_UNIT(#1955)
);
#1113=(
MASS_UNIT()
NAMED_UNIT(*)
SI_UNIT(.KILO.,.GRAM.)
);
#1114=MASS_MEASURE_WITH_UNIT(MASS_MEASURE(0.001),#1113);
#1115=DERIVED_UNIT((#1110,#1111));
#1116=MEASURE_REPRESENTATION_ITEM('density measure',
POSITIVE_RATIO_MEASURE(0.952),#1115);
#1117=PROPERTY_DEFINITION_REPRESENTATION(#1122,#1119);
#1118=PROPERTY_DEFINITION_REPRESENTATION(#1123,#1120);
#1119=REPRESENTATION('material name',(#1121),#1952);
#1120=REPRESENTATION('density',(#1116),#1952);
#1121=DESCRIPTIVE_REPRESENTATION_ITEM('Plastic, Opaque Black',
'Plastic, Opaque Black');
#1122=PROPERTY_DEFINITION('material property','material name',#1966);
#1123=PROPERTY_DEFINITION('material property','density of part',#1966);
#1124=DATE_TIME_ROLE('creation_date');
#1125=APPLIED_DATE_AND_TIME_ASSIGNMENT(#1126,#1124,(#1966));
#1126=DATE_AND_TIME(#1127,#1128);
#1127=CALENDAR_DATE(2025,13,10);
#1128=LOCAL_TIME(0,0,0.,#1129);
#1129=COORDINATED_UNIVERSAL_TIME_OFFSET(0,0,.BEHIND.);
#1130=AXIS2_PLACEMENT_3D('',#1635,#1277,#1278);
#1131=AXIS2_PLACEMENT_3D('',#1636,#1279,#1280);
#1132=AXIS2_PLACEMENT_3D('',#1639,#1281,#1282);
#1133=AXIS2_PLACEMENT_3D('',#1643,#1284,#1285);
#1134=AXIS2_PLACEMENT_3D('',#1645,#1287,#1288);
#1135=AXIS2_PLACEMENT_3D('',#1651,#1292,#1293);
#1136=AXIS2_PLACEMENT_3D('',#1653,#1294,#1295);
#1137=AXIS2_PLACEMENT_3D('',#1655,#1296,#1297);
#1138=AXIS2_PLACEMENT_3D('',#1657,#1298,#1299);
#1139=AXIS2_PLACEMENT_3D('',#1659,#1300,#1301);
#1140=AXIS2_PLACEMENT_3D('',#1661,#1302,#1303);
#1141=AXIS2_PLACEMENT_3D('',#1663,#1304,#1305);
#1142=AXIS2_PLACEMENT_3D('',#1665,#1306,#1307);
#1143=AXIS2_PLACEMENT_3D('',#1667,#1308,#1309);
#1144=AXIS2_PLACEMENT_3D('',#1669,#1310,#1311);
#1145=AXIS2_PLACEMENT_3D('',#1673,#1313,#1314);
#1146=AXIS2_PLACEMENT_3D('',#1674,#1315,#1316);
#1147=AXIS2_PLACEMENT_3D('',#1676,#1317,#1318);
#1148=AXIS2_PLACEMENT_3D('',#1678,#1319,#1320);
#1149=AXIS2_PLACEMENT_3D('',#1679,#1321,#1322);
#1150=AXIS2_PLACEMENT_3D('',#1683,#1324,#1325);
#1151=AXIS2_PLACEMENT_3D('',#1685,#1327,#1328);
#1152=AXIS2_PLACEMENT_3D('',#1689,#1331,#1332);
#1153=AXIS2_PLACEMENT_3D('',#1691,#1333,#1334);
#1154=AXIS2_PLACEMENT_3D('',#1693,#1336,#1337);
#1155=AXIS2_PLACEMENT_3D('',#1696,#1338,#1339);
#1156=AXIS2_PLACEMENT_3D('',#1700,#1341,#1342);
#1157=AXIS2_PLACEMENT_3D('',#1702,#1344,#1345);
#1158=AXIS2_PLACEMENT_3D('',#1708,#1349,#1350);
#1159=AXIS2_PLACEMENT_3D('',#1710,#1351,#1352);
#1160=AXIS2_PLACEMENT_3D('',#1712,#1353,#1354);
#1161=AXIS2_PLACEMENT_3D('',#1714,#1355,#1356);
#1162=AXIS2_PLACEMENT_3D('',#1716,#1357,#1358);
#1163=AXIS2_PLACEMENT_3D('',#1718,#1359,#1360);
#1164=AXIS2_PLACEMENT_3D('',#1720,#1361,#1362);
#1165=AXIS2_PLACEMENT_3D('',#1722,#1363,#1364);
#1166=AXIS2_PLACEMENT_3D('',#1724,#1365,#1366);
#1167=AXIS2_PLACEMENT_3D('',#1726,#1367,#1368);
#1168=AXIS2_PLACEMENT_3D('',#1730,#1370,#1371);
#1169=AXIS2_PLACEMENT_3D('',#1731,#1372,#1373);
#1170=AXIS2_PLACEMENT_3D('',#1733,#1374,#1375);
#1171=AXIS2_PLACEMENT_3D('',#1735,#1376,#1377);
#1172=AXIS2_PLACEMENT_3D('',#1736,#1378,#1379);
#1173=AXIS2_PLACEMENT_3D('',#1738,#1380,#1381);
#1174=AXIS2_PLACEMENT_3D('',#1740,#1383,#1384);
#1175=AXIS2_PLACEMENT_3D('',#1742,#1385,#1386);
#1176=AXIS2_PLACEMENT_3D('',#1746,#1388,#1389);
#1177=AXIS2_PLACEMENT_3D('',#1748,#1391,#1392);
#1178=AXIS2_PLACEMENT_3D('',#1751,#1393,#1394);
#1179=AXIS2_PLACEMENT_3D('',#1754,#1397,#1398);
#1180=AXIS2_PLACEMENT_3D('',#1758,#1401,#1402);
#1181=AXIS2_PLACEMENT_3D('',#1760,#1403,#1404);
#1182=AXIS2_PLACEMENT_3D('',#1762,#1406,#1407);
#1183=AXIS2_PLACEMENT_3D('',#1765,#1408,#1409);
#1184=AXIS2_PLACEMENT_3D('',#1769,#1411,#1412);
#1185=AXIS2_PLACEMENT_3D('',#1771,#1414,#1415);
#1186=AXIS2_PLACEMENT_3D('',#1777,#1419,#1420);
#1187=AXIS2_PLACEMENT_3D('',#1779,#1421,#1422);
#1188=AXIS2_PLACEMENT_3D('',#1781,#1423,#1424);
#1189=AXIS2_PLACEMENT_3D('',#1783,#1425,#1426);
#1190=AXIS2_PLACEMENT_3D('',#1784,#1427,#1428);
#1191=AXIS2_PLACEMENT_3D('',#1785,#1429,#1430);
#1192=AXIS2_PLACEMENT_3D('',#1787,#1431,#1432);
#1193=AXIS2_PLACEMENT_3D('',#1789,#1434,#1435);
#1194=AXIS2_PLACEMENT_3D('',#1791,#1436,#1437);
#1195=AXIS2_PLACEMENT_3D('',#1793,#1439,#1440);
#1196=AXIS2_PLACEMENT_3D('',#1796,#1441,#1442);
#1197=AXIS2_PLACEMENT_3D('',#1800,#1444,#1445);
#1198=AXIS2_PLACEMENT_3D('',#1802,#1447,#1448);
#1199=AXIS2_PLACEMENT_3D('',#1804,#1449,#1450);
#1200=AXIS2_PLACEMENT_3D('',#1806,#1451,#1452);
#1201=AXIS2_PLACEMENT_3D('',#1809,#1454,#1455);
#1202=AXIS2_PLACEMENT_3D('',#1810,#1456,#1457);
#1203=AXIS2_PLACEMENT_3D('',#1814,#1460,#1461);
#1204=AXIS2_PLACEMENT_3D('',#1816,#1462,#1463);
#1205=AXIS2_PLACEMENT_3D('',#1819,#1465,#1466);
#1206=AXIS2_PLACEMENT_3D('',#1820,#1467,#1468);
#1207=AXIS2_PLACEMENT_3D('',#1822,#1469,#1470);
#1208=AXIS2_PLACEMENT_3D('',#1825,#1472,#1473);
#1209=AXIS2_PLACEMENT_3D('',#1826,#1474,#1475);
#1210=AXIS2_PLACEMENT_3D('',#1828,#1476,#1477);
#1211=AXIS2_PLACEMENT_3D('',#1831,#1479,#1480);
#1212=AXIS2_PLACEMENT_3D('',#1832,#1481,#1482);
#1213=AXIS2_PLACEMENT_3D('',#1834,#1483,#1484);
#1214=AXIS2_PLACEMENT_3D('',#1835,#1485,#1486);
#1215=AXIS2_PLACEMENT_3D('',#1836,#1487,#1488);
#1216=AXIS2_PLACEMENT_3D('',#1837,#1489,#1490);
#1217=AXIS2_PLACEMENT_3D('',#1839,#1491,#1492);
#1218=AXIS2_PLACEMENT_3D('',#1841,#1493,#1494);
#1219=AXIS2_PLACEMENT_3D('',#1843,#1495,#1496);
#1220=AXIS2_PLACEMENT_3D('',#1844,#1497,#1498);
#1221=AXIS2_PLACEMENT_3D('',#1845,#1499,#1500);
#1222=AXIS2_PLACEMENT_3D('',#1846,#1501,#1502);
#1223=AXIS2_PLACEMENT_3D('',#1847,#1503,#1504);
#1224=AXIS2_PLACEMENT_3D('',#1849,#1505,#1506);
#1225=AXIS2_PLACEMENT_3D('',#1850,#1507,#1508);
#1226=AXIS2_PLACEMENT_3D('',#1851,#1509,#1510);
#1227=AXIS2_PLACEMENT_3D('',#1855,#1512,#1513);
#1228=AXIS2_PLACEMENT_3D('',#1857,#1515,#1516);
#1229=AXIS2_PLACEMENT_3D('',#1861,#1518,#1519);
#1230=AXIS2_PLACEMENT_3D('',#1863,#1521,#1522);
#1231=AXIS2_PLACEMENT_3D('',#1866,#1524,#1525);
#1232=AXIS2_PLACEMENT_3D('',#1867,#1526,#1527);
#1233=AXIS2_PLACEMENT_3D('',#1869,#1528,#1529);
#1234=AXIS2_PLACEMENT_3D('',#1871,#1531,#1532);
#1235=AXIS2_PLACEMENT_3D('',#1874,#1534,#1535);
#1236=AXIS2_PLACEMENT_3D('',#1875,#1536,#1537);
#1237=AXIS2_PLACEMENT_3D('',#1878,#1539,#1540);
#1238=AXIS2_PLACEMENT_3D('',#1879,#1541,#1542);
#1239=AXIS2_PLACEMENT_3D('',#1882,#1544,#1545);
#1240=AXIS2_PLACEMENT_3D('',#1883,#1546,#1547);
#1241=AXIS2_PLACEMENT_3D('',#1886,#1549,#1550);
#1242=AXIS2_PLACEMENT_3D('',#1887,#1551,#1552);
#1243=AXIS2_PLACEMENT_3D('',#1890,#1554,#1555);
#1244=AXIS2_PLACEMENT_3D('',#1891,#1556,#1557);
#1245=AXIS2_PLACEMENT_3D('',#1893,#1558,#1559);
#1246=AXIS2_PLACEMENT_3D('',#1895,#1561,#1562);
#1247=AXIS2_PLACEMENT_3D('',#1896,#1563,#1564);
#1248=AXIS2_PLACEMENT_3D('',#1897,#1565,#1566);
#1249=AXIS2_PLACEMENT_3D('',#1899,#1567,#1568);
#1250=AXIS2_PLACEMENT_3D('',#1901,#1570,#1571);
#1251=AXIS2_PLACEMENT_3D('',#1903,#1572,#1573);
#1252=AXIS2_PLACEMENT_3D('',#1905,#1575,#1576);
#1253=AXIS2_PLACEMENT_3D('',#1907,#1577,#1578);
#1254=AXIS2_PLACEMENT_3D('',#1909,#1580,#1581);
#1255=AXIS2_PLACEMENT_3D('',#1911,#1582,#1583);
#1256=AXIS2_PLACEMENT_3D('',#1913,#1585,#1586);
#1257=AXIS2_PLACEMENT_3D('',#1915,#1587,#1588);
#1258=AXIS2_PLACEMENT_3D('',#1917,#1590,#1591);
#1259=AXIS2_PLACEMENT_3D('',#1919,#1592,#1593);
#1260=AXIS2_PLACEMENT_3D('',#1921,#1595,#1596);
#1261=AXIS2_PLACEMENT_3D('',#1923,#1597,#1598);
#1262=AXIS2_PLACEMENT_3D('',#1925,#1600,#1601);
#1263=AXIS2_PLACEMENT_3D('',#1926,#1602,#1603);
#1264=AXIS2_PLACEMENT_3D('',#1927,#1604,#1605);
#1265=AXIS2_PLACEMENT_3D('',#1929,#1606,#1607);
#1266=AXIS2_PLACEMENT_3D('',#1931,#1609,#1610);
#1267=AXIS2_PLACEMENT_3D('',#1933,#1611,#1612);
#1268=AXIS2_PLACEMENT_3D('',#1935,#1614,#1615);
#1269=AXIS2_PLACEMENT_3D('',#1937,#1616,#1617);
#1270=AXIS2_PLACEMENT_3D('',#1939,#1619,#1620);
#1271=AXIS2_PLACEMENT_3D('',#1941,#1621,#1622);
#1272=AXIS2_PLACEMENT_3D('',#1943,#1624,#1625);
#1273=AXIS2_PLACEMENT_3D('',#1945,#1626,#1627);
#1274=AXIS2_PLACEMENT_3D('',#1947,#1629,#1630);
#1275=AXIS2_PLACEMENT_3D('',#1948,#1631,#1632);
#1276=AXIS2_PLACEMENT_3D('',#1949,#1633,#1634);
#1277=DIRECTION('axis',(0.,0.,1.));
#1278=DIRECTION('refdir',(1.,0.,0.));
#1279=DIRECTION('center_axis',(0.,0.,-1.));
#1280=DIRECTION('ref_axis',(-0.999140576069079,0.0414500814516511,0.));
#1281=DIRECTION('center_axis',(0.,0.,-1.));
#1282=DIRECTION('ref_axis',(-0.999140576069079,0.0414500814516511,0.));
#1283=DIRECTION('',(0.,0.,-1.));
#1284=DIRECTION('center_axis',(0.,0.,-1.));
#1285=DIRECTION('ref_axis',(-0.999140576069079,0.0414500814516511,0.));
#1286=DIRECTION('',(0.,0.,1.));
#1287=DIRECTION('center_axis',(-0.690701702118062,0.723139791942894,0.));
#1288=DIRECTION('ref_axis',(-0.723139791942894,-0.690701702118062,0.));
#1289=DIRECTION('',(-0.723139791942894,-0.690701702118062,0.));
#1290=DIRECTION('',(0.,0.,-1.));
#1291=DIRECTION('',(-0.723139791942894,-0.690701702118062,0.));
#1292=DIRECTION('center_axis',(0.,0.,1.));
#1293=DIRECTION('ref_axis',(1.,0.,0.));
#1294=DIRECTION('center_axis',(0.,0.,-1.));
#1295=DIRECTION('ref_axis',(0.690701702118062,-0.723139791942894,0.));
#1296=DIRECTION('center_axis',(0.,0.,-1.));
#1297=DIRECTION('ref_axis',(0.731482041572424,0.681860706344806,0.));
#1298=DIRECTION('center_axis',(0.,0.,1.));
#1299=DIRECTION('ref_axis',(0.124773758750004,-0.99218521916394,0.));
#1300=DIRECTION('center_axis',(0.,0.,-1.));
#1301=DIRECTION('ref_axis',(0.601490667333057,-0.798879826451535,0.));
#1302=DIRECTION('center_axis',(0.,0.,1.));
#1303=DIRECTION('ref_axis',(0.536785827054265,-0.843718540671988,0.));
#1304=DIRECTION('center_axis',(0.,0.,-1.));
#1305=DIRECTION('ref_axis',(0.945579831169605,0.325390200966872,0.));
#1306=DIRECTION('center_axis',(0.,0.,1.));
#1307=DIRECTION('ref_axis',(-0.289571584813107,-0.957156359885273,0.));
#1308=DIRECTION('center_axis',(0.,0.,-1.));
#1309=DIRECTION('ref_axis',(0.224555368124656,-0.974461331529579,0.));
#1310=DIRECTION('center_axis',(0.,0.,-1.));
#1311=DIRECTION('ref_axis',(-0.17064131332639,0.985333213784172,0.));
#1312=DIRECTION('',(0.985333213784172,0.17064131332639,0.));
#1313=DIRECTION('center_axis',(0.,0.,-1.));
#1314=DIRECTION('ref_axis',(-0.560835760414833,-0.827927080025721,0.));
#1315=DIRECTION('center_axis',(0.,0.,-1.));
#1316=DIRECTION('ref_axis',(-0.536785827054265,0.843718540671988,0.));
#1317=DIRECTION('center_axis',(0.,0.,-1.));
#1318=DIRECTION('ref_axis',(-1.,0.,0.));
#1319=DIRECTION('center_axis',(0.,0.,-1.));
#1320=DIRECTION('ref_axis',(-1.,0.,0.));
#1321=DIRECTION('center_axis',(0.,0.,1.));
#1322=DIRECTION('ref_axis',(-0.560835760414833,-0.827927080025721,0.));
#1323=DIRECTION('',(0.,0.,-1.));
#1324=DIRECTION('center_axis',(0.,0.,-1.));
#1325=DIRECTION('ref_axis',(-0.560835760414833,-0.827927080025721,0.));
#1326=DIRECTION('',(0.,0.,1.));
#1327=DIRECTION('center_axis',(0.17064131332639,-0.985333213784172,0.));
#1328=DIRECTION('ref_axis',(0.985333213784172,0.17064131332639,0.));
#1329=DIRECTION('',(0.,0.,1.));
#1330=DIRECTION('',(0.985333213784172,0.17064131332639,0.));
#1331=DIRECTION('center_axis',(0.,0.,1.));
#1332=DIRECTION('ref_axis',(-0.17064131332639,0.985333213784172,0.));
#1333=DIRECTION('center_axis',(0.,0.,-1.));
#1334=DIRECTION('ref_axis',(-0.17064131332639,0.985333213784172,0.));
#1335=DIRECTION('',(0.,0.,-1.));
#1336=DIRECTION('center_axis',(0.,0.,-1.));
#1337=DIRECTION('ref_axis',(-0.637752125956435,0.770241667165603,0.));
#1338=DIRECTION('center_axis',(0.,0.,-1.));
#1339=DIRECTION('ref_axis',(-0.637752125956435,0.770241667165603,0.));
#1340=DIRECTION('',(0.,0.,-1.));
#1341=DIRECTION('center_axis',(0.,0.,-1.));
#1342=DIRECTION('ref_axis',(-0.637752125956435,0.770241667165603,0.));
#1343=DIRECTION('',(0.,0.,1.));
#1344=DIRECTION('center_axis',(0.0752279457278083,0.997166363342433,0.));
#1345=DIRECTION('ref_axis',(-0.997166363342433,0.0752279457278082,0.));
#1346=DIRECTION('',(-0.997166363342434,0.0752279457278083,0.));
#1347=DIRECTION('',(0.,0.,-1.));
#1348=DIRECTION('',(-0.997166363342434,0.0752279457278083,0.));
#1349=DIRECTION('center_axis',(0.,0.,1.));
#1350=DIRECTION('ref_axis',(1.,0.,0.));
#1351=DIRECTION('center_axis',(0.,0.,-1.));
#1352=DIRECTION('ref_axis',(-0.0752279457278078,-0.997166363342433,0.));
#1353=DIRECTION('center_axis',(0.,0.,-1.));
#1354=DIRECTION('ref_axis',(0.996178277634475,-0.0873432262354111,0.));
#1355=DIRECTION('center_axis',(0.,0.,1.));
#1356=DIRECTION('ref_axis',(-0.653847370686771,-0.756626470489895,0.));
#1357=DIRECTION('center_axis',(0.,0.,-1.));
#1358=DIRECTION('ref_axis',(-0.191207594253972,-0.981549619682881,0.));
#1359=DIRECTION('center_axis',(0.,0.,1.));
#1360=DIRECTION('ref_axis',(0.536785827054265,-0.843718540671988,0.));
#1361=DIRECTION('center_axis',(0.,0.,-1.));
#1362=DIRECTION('ref_axis',(0.874528449900804,-0.484974216133288,0.));
#1363=DIRECTION('center_axis',(0.,0.,1.));
#1364=DIRECTION('ref_axis',(-0.90506700615181,-0.425268990611119,0.));
#1365=DIRECTION('center_axis',(0.,0.,-1.));
#1366=DIRECTION('ref_axis',(-0.573909026519631,-0.818919061494657,0.));
#1367=DIRECTION('center_axis',(0.,0.,-1.));
#1368=DIRECTION('ref_axis',(0.618063953738762,0.786127819816097,0.));
#1369=DIRECTION('',(0.786127819816096,-0.618063953738763,0.));
#1370=DIRECTION('center_axis',(0.,0.,-1.));
#1371=DIRECTION('ref_axis',(-0.990542097827832,-0.13720915578356,0.));
#1372=DIRECTION('center_axis',(0.,0.,-1.));
#1373=DIRECTION('ref_axis',(-0.536785827054265,0.843718540671988,0.));
#1374=DIRECTION('center_axis',(0.,0.,-1.));
#1375=DIRECTION('ref_axis',(-1.,0.,0.));
#1376=DIRECTION('center_axis',(0.,0.,-1.));
#1377=DIRECTION('ref_axis',(-1.,0.,0.));
#1378=DIRECTION('center_axis',(0.,0.,-1.));
#1379=DIRECTION('ref_axis',(-0.0752279457278078,-0.997166363342433,0.));
#1380=DIRECTION('center_axis',(0.,0.,-1.));
#1381=DIRECTION('ref_axis',(-0.0752279457278078,-0.997166363342433,0.));
#1382=DIRECTION('',(0.,0.,1.));
#1383=DIRECTION('center_axis',(0.,0.,1.));
#1384=DIRECTION('ref_axis',(0.996178277634475,-0.0873432262354111,0.));
#1385=DIRECTION('center_axis',(0.,0.,-1.));
#1386=DIRECTION('ref_axis',(0.996178277634475,-0.0873432262354111,0.));
#1387=DIRECTION('',(0.,0.,-1.));
#1388=DIRECTION('center_axis',(0.,0.,-1.));
#1389=DIRECTION('ref_axis',(0.996178277634475,-0.0873432262354111,0.));
#1390=DIRECTION('',(0.,0.,-1.));
#1391=DIRECTION('center_axis',(0.,0.,1.));
#1392=DIRECTION('ref_axis',(0.618063953738762,0.786127819816097,0.));
#1393=DIRECTION('center_axis',(0.,0.,-1.));
#1394=DIRECTION('ref_axis',(0.618063953738762,0.786127819816097,0.));
#1395=DIRECTION('',(0.,0.,1.));
#1396=DIRECTION('',(0.,0.,-1.));
#1397=DIRECTION('center_axis',(-0.618063953738763,-0.786127819816096,0.));
#1398=DIRECTION('ref_axis',(0.786127819816096,-0.618063953738763,0.));
#1399=DIRECTION('',(0.786127819816096,-0.618063953738763,0.));
#1400=DIRECTION('',(0.,0.,-1.));
#1401=DIRECTION('center_axis',(0.,0.,1.));
#1402=DIRECTION('ref_axis',(-0.990542097827832,-0.13720915578356,0.));
#1403=DIRECTION('center_axis',(0.,0.,-1.));
#1404=DIRECTION('ref_axis',(-0.990542097827832,-0.13720915578356,0.));
#1405=DIRECTION('',(0.,0.,1.));
#1406=DIRECTION('center_axis',(0.,0.,-1.));
#1407=DIRECTION('ref_axis',(0.145661642573327,0.989334466135109,0.));
#1408=DIRECTION('center_axis',(0.,0.,-1.));
#1409=DIRECTION('ref_axis',(0.145661642573327,0.989334466135109,0.));
#1410=DIRECTION('',(0.,0.,-1.));
#1411=DIRECTION('center_axis',(0.,0.,-1.));
#1412=DIRECTION('ref_axis',(0.145661642573327,0.989334466135109,0.));
#1413=DIRECTION('',(0.,0.,1.));
#1414=DIRECTION('center_axis',(0.79137634399802,0.611329274745065,0.));
#1415=DIRECTION('ref_axis',(-0.611329274745065,0.79137634399802,0.));
#1416=DIRECTION('',(-0.611329274745065,0.79137634399802,0.));
#1417=DIRECTION('',(0.,0.,-1.));
#1418=DIRECTION('',(-0.611329274745065,0.79137634399802,0.));
#1419=DIRECTION('center_axis',(0.,0.,1.));
#1420=DIRECTION('ref_axis',(1.,0.,0.));
#1421=DIRECTION('center_axis',(0.,0.,-1.));
#1422=DIRECTION('ref_axis',(0.989519807511798,-0.144397197139745,0.));
#1423=DIRECTION('center_axis',(0.,0.,1.));
#1424=DIRECTION('ref_axis',(0.536785827054265,-0.843718540671988,0.));
#1425=DIRECTION('center_axis',(0.,0.,1.));
#1426=DIRECTION('ref_axis',(-0.536785827054265,0.843718540671988,0.));
#1427=DIRECTION('center_axis',(0.,0.,-1.));
#1428=DIRECTION('ref_axis',(-0.536785827054265,0.843718540671988,0.));
#1429=DIRECTION('center_axis',(0.,0.,1.));
#1430=DIRECTION('ref_axis',(0.989519807511798,-0.144397197139745,0.));
#1431=DIRECTION('center_axis',(0.,0.,-1.));
#1432=DIRECTION('ref_axis',(0.989519807511798,-0.144397197139745,0.));
#1433=DIRECTION('',(0.,0.,1.));
#1434=DIRECTION('center_axis',(0.,0.,-1.));
#1435=DIRECTION('ref_axis',(0.690701702118062,-0.723139791942894,0.));
#1436=DIRECTION('center_axis',(0.,0.,-1.));
#1437=DIRECTION('ref_axis',(0.690701702118062,-0.723139791942894,0.));
#1438=DIRECTION('',(0.,0.,1.));
#1439=DIRECTION('center_axis',(0.,0.,1.));
#1440=DIRECTION('ref_axis',(0.239997352959617,-0.970773542373491,0.));
#1441=DIRECTION('center_axis',(0.,0.,-1.));
#1442=DIRECTION('ref_axis',(0.239997352959617,-0.970773542373491,0.));
#1443=DIRECTION('',(0.,0.,-1.));
#1444=DIRECTION('center_axis',(0.,0.,-1.));
#1445=DIRECTION('ref_axis',(0.239997352959617,-0.970773542373491,0.));
#1446=DIRECTION('',(0.,0.,1.));
#1447=DIRECTION('center_axis',(0.,0.,1.));
#1448=DIRECTION('ref_axis',(1.,0.,0.));
#1449=DIRECTION('center_axis',(0.,0.,-1.));
#1450=DIRECTION('ref_axis',(-0.536785827054265,0.843718540671988,0.));
#1451=DIRECTION('center_axis',(0.,0.,1.));
#1452=DIRECTION('ref_axis',(0.955151104663289,-0.296118839759478,0.));
#1453=DIRECTION('',(0.532505401793745,0.846426604650682,0.));
#1454=DIRECTION('center_axis',(0.,0.,-1.));
#1455=DIRECTION('ref_axis',(-1.,0.,0.));
#1456=DIRECTION('center_axis',(0.846426604650682,-0.532505401793745,0.));
#1457=DIRECTION('ref_axis',(0.532505401793745,0.846426604650682,0.));
#1458=DIRECTION('',(0.,0.,1.));
#1459=DIRECTION('',(0.532505401793745,0.846426604650682,0.));
#1460=DIRECTION('center_axis',(0.,0.,-1.));
#1461=DIRECTION('ref_axis',(1.,0.,0.));
#1462=DIRECTION('center_axis',(0.,0.,-1.));
#1463=DIRECTION('ref_axis',(1.,0.,0.));
#1464=DIRECTION('',(0.,0.,1.));
#1465=DIRECTION('center_axis',(0.,0.,1.));
#1466=DIRECTION('ref_axis',(1.,0.,0.));
#1467=DIRECTION('center_axis',(0.,0.,-1.));
#1468=DIRECTION('ref_axis',(1.,0.,0.));
#1469=DIRECTION('center_axis',(0.,0.,-1.));
#1470=DIRECTION('ref_axis',(1.,0.,0.));
#1471=DIRECTION('',(0.,0.,1.));
#1472=DIRECTION('center_axis',(0.,0.,1.));
#1473=DIRECTION('ref_axis',(1.,0.,0.));
#1474=DIRECTION('center_axis',(0.,0.,-1.));
#1475=DIRECTION('ref_axis',(1.,0.,0.));
#1476=DIRECTION('center_axis',(0.,0.,-1.));
#1477=DIRECTION('ref_axis',(1.,0.,0.));
#1478=DIRECTION('',(0.,0.,1.));
#1479=DIRECTION('center_axis',(0.,0.,1.));
#1480=DIRECTION('ref_axis',(1.,0.,0.));
#1481=DIRECTION('center_axis',(0.,0.,1.));
#1482=DIRECTION('ref_axis',(1.,0.,0.));
#1483=DIRECTION('center_axis',(0.,0.,1.));
#1484=DIRECTION('ref_axis',(0.536785827054265,-0.843718540671988,0.));
#1485=DIRECTION('center_axis',(0.,0.,1.));
#1486=DIRECTION('ref_axis',(-0.536785827054265,0.843718540671988,0.));
#1487=DIRECTION('center_axis',(0.,0.,-1.));
#1488=DIRECTION('ref_axis',(-0.573909026519631,-0.818919061494657,0.));
#1489=DIRECTION('center_axis',(0.,0.,1.));
#1490=DIRECTION('ref_axis',(1.,0.,0.));
#1491=DIRECTION('center_axis',(0.,0.,-1.));
#1492=DIRECTION('ref_axis',(0.955151104663289,-0.296118839759478,0.));
#1493=DIRECTION('center_axis',(0.,0.,1.));
#1494=DIRECTION('ref_axis',(-0.912901546750227,-0.408179820595094,0.));
#1495=DIRECTION('center_axis',(0.,0.,1.));
#1496=DIRECTION('ref_axis',(0.536785827054265,-0.843718540671988,0.));
#1497=DIRECTION('center_axis',(0.,0.,-1.));
#1498=DIRECTION('ref_axis',(0.731482041572424,0.681860706344806,0.));
#1499=DIRECTION('center_axis',(0.,0.,1.));
#1500=DIRECTION('ref_axis',(-0.536785827054265,0.843718540671988,0.));
#1501=DIRECTION('center_axis',(0.,0.,1.));
#1502=DIRECTION('ref_axis',(1.,0.,0.));
#1503=DIRECTION('center_axis',(0.,0.,1.));
#1504=DIRECTION('ref_axis',(-0.536785827054265,0.843718540671988,0.));
#1505=DIRECTION('center_axis',(0.,0.,-1.));
#1506=DIRECTION('ref_axis',(0.224555368124656,-0.974461331529579,0.));
#1507=DIRECTION('center_axis',(0.,0.,1.));
#1508=DIRECTION('ref_axis',(0.536785827054265,-0.843718540671988,0.));
#1509=DIRECTION('center_axis',(0.,0.,1.));
#1510=DIRECTION('ref_axis',(0.536785827054265,-0.843718540671988,0.));
#1511=DIRECTION('',(0.,0.,-1.));
#1512=DIRECTION('center_axis',(0.,0.,1.));
#1513=DIRECTION('ref_axis',(0.536785827054265,-0.843718540671988,0.));
#1514=DIRECTION('',(0.,0.,-1.));
#1515=DIRECTION('center_axis',(0.,0.,1.));
#1516=DIRECTION('ref_axis',(-0.46599901637007,0.884785237637997,0.));
#1517=DIRECTION('',(0.,0.,-1.));
#1518=DIRECTION('center_axis',(0.,0.,1.));
#1519=DIRECTION('ref_axis',(0.955151104663289,-0.296118839759478,0.));
#1520=DIRECTION('',(0.,0.,-1.));
#1521=DIRECTION('center_axis',(0.,0.,1.));
#1522=DIRECTION('ref_axis',(0.536785827054265,-0.843718540671988,0.));
#1523=DIRECTION('',(0.,0.,-1.));
#1524=DIRECTION('center_axis',(0.,0.,1.));
#1525=DIRECTION('ref_axis',(0.536785827054265,-0.843718540671988,0.));
#1526=DIRECTION('center_axis',(0.,0.,1.));
#1527=DIRECTION('ref_axis',(-0.912901546750227,-0.408179820595094,0.));
#1528=DIRECTION('center_axis',(0.,0.,-1.));
#1529=DIRECTION('ref_axis',(-0.912901546750227,-0.408179820595094,0.));
#1530=DIRECTION('',(0.,0.,1.));
#1531=DIRECTION('center_axis',(0.,0.,1.));
#1532=DIRECTION('ref_axis',(-1.,0.,0.));
#1533=DIRECTION('',(0.,0.,1.));
#1534=DIRECTION('center_axis',(0.,0.,-1.));
#1535=DIRECTION('ref_axis',(-1.,0.,0.));
#1536=DIRECTION('center_axis',(0.,0.,1.));
#1537=DIRECTION('ref_axis',(-1.,0.,0.));
#1538=DIRECTION('',(0.,0.,1.));
#1539=DIRECTION('center_axis',(0.,0.,-1.));
#1540=DIRECTION('ref_axis',(-1.,0.,0.));
#1541=DIRECTION('center_axis',(0.,0.,1.));
#1542=DIRECTION('ref_axis',(-1.,0.,0.));
#1543=DIRECTION('',(0.,0.,1.));
#1544=DIRECTION('center_axis',(0.,0.,-1.));
#1545=DIRECTION('ref_axis',(-1.,0.,0.));
#1546=DIRECTION('center_axis',(0.,0.,1.));
#1547=DIRECTION('ref_axis',(-1.,0.,0.));
#1548=DIRECTION('',(0.,0.,1.));
#1549=DIRECTION('center_axis',(0.,0.,-1.));
#1550=DIRECTION('ref_axis',(-1.,0.,0.));
#1551=DIRECTION('center_axis',(0.,0.,1.));
#1552=DIRECTION('ref_axis',(-1.,0.,0.));
#1553=DIRECTION('',(0.,0.,1.));
#1554=DIRECTION('center_axis',(0.,0.,-1.));
#1555=DIRECTION('ref_axis',(-1.,0.,0.));
#1556=DIRECTION('center_axis',(0.,0.,1.));
#1557=DIRECTION('ref_axis',(-0.536785827054265,0.843718540671988,0.));
#1558=DIRECTION('center_axis',(0.,0.,1.));
#1559=DIRECTION('ref_axis',(-0.536785827054265,0.843718540671988,0.));
#1560=DIRECTION('',(0.,0.,-1.));
#1561=DIRECTION('center_axis',(0.,0.,1.));
#1562=DIRECTION('ref_axis',(-0.536785827054265,0.843718540671988,0.));
#1563=DIRECTION('center_axis',(0.,0.,-1.));
#1564=DIRECTION('ref_axis',(-0.536785827054265,0.843718540671988,0.));
#1565=DIRECTION('center_axis',(0.,0.,1.));
#1566=DIRECTION('ref_axis',(0.536785827054265,-0.843718540671988,0.));
#1567=DIRECTION('center_axis',(0.,0.,1.));
#1568=DIRECTION('ref_axis',(0.536785827054265,-0.843718540671988,0.));
#1569=DIRECTION('',(0.,0.,-1.));
#1570=DIRECTION('center_axis',(0.,0.,1.));
#1571=DIRECTION('ref_axis',(0.731482041572424,0.681860706344806,0.));
#1572=DIRECTION('center_axis',(0.,0.,-1.));
#1573=DIRECTION('ref_axis',(0.731482041572424,0.681860706344806,0.));
#1574=DIRECTION('',(0.,0.,-1.));
#1575=DIRECTION('center_axis',(0.,0.,1.));
#1576=DIRECTION('ref_axis',(0.782987164620632,0.62203786061569,0.));
#1577=DIRECTION('center_axis',(0.,0.,1.));
#1578=DIRECTION('ref_axis',(0.124773758750004,-0.99218521916394,0.));
#1579=DIRECTION('',(0.,0.,-1.));
#1580=DIRECTION('center_axis',(0.,0.,1.));
#1581=DIRECTION('ref_axis',(0.601490667333057,-0.798879826451535,0.));
#1582=DIRECTION('center_axis',(0.,0.,-1.));
#1583=DIRECTION('ref_axis',(0.601490667333057,-0.798879826451535,0.));
#1584=DIRECTION('',(0.,0.,-1.));
#1585=DIRECTION('center_axis',(0.,0.,1.));
#1586=DIRECTION('ref_axis',(0.536785827054265,-0.843718540671988,0.));
#1587=DIRECTION('center_axis',(0.,0.,1.));
#1588=DIRECTION('ref_axis',(0.536785827054265,-0.843718540671988,0.));
#1589=DIRECTION('',(0.,0.,-1.));
#1590=DIRECTION('center_axis',(0.,0.,1.));
#1591=DIRECTION('ref_axis',(0.945579831169605,0.325390200966872,0.));
#1592=DIRECTION('center_axis',(0.,0.,-1.));
#1593=DIRECTION('ref_axis',(0.945579831169605,0.325390200966872,0.));
#1594=DIRECTION('',(0.,0.,-1.));
#1595=DIRECTION('center_axis',(0.,0.,1.));
#1596=DIRECTION('ref_axis',(0.968299958924515,0.249790291137951,0.));
#1597=DIRECTION('center_axis',(0.,0.,1.));
#1598=DIRECTION('ref_axis',(-0.289571584813107,-0.957156359885273,0.));
#1599=DIRECTION('',(0.,0.,-1.));
#1600=DIRECTION('center_axis',(0.,0.,1.));
#1601=DIRECTION('ref_axis',(0.224555368124656,-0.974461331529579,0.));
#1602=DIRECTION('center_axis',(0.,0.,-1.));
#1603=DIRECTION('ref_axis',(0.224555368124656,-0.974461331529579,0.));
#1604=DIRECTION('center_axis',(0.,0.,1.));
#1605=DIRECTION('ref_axis',(0.986184893601385,-0.165648288951094,0.));
#1606=DIRECTION('center_axis',(0.,0.,1.));
#1607=DIRECTION('ref_axis',(-0.653847370686771,-0.756626470489895,0.));
#1608=DIRECTION('',(0.,0.,-1.));
#1609=DIRECTION('center_axis',(0.,0.,1.));
#1610=DIRECTION('ref_axis',(-0.191207594253972,-0.981549619682881,0.));
#1611=DIRECTION('center_axis',(0.,0.,-1.));
#1612=DIRECTION('ref_axis',(-0.191207594253972,-0.981549619682881,0.));
#1613=DIRECTION('',(0.,0.,-1.));
#1614=DIRECTION('center_axis',(0.,0.,1.));
#1615=DIRECTION('ref_axis',(0.536785827054265,-0.843718540671988,0.));
#1616=DIRECTION('center_axis',(0.,0.,1.));
#1617=DIRECTION('ref_axis',(0.536785827054265,-0.843718540671988,0.));
#1618=DIRECTION('',(0.,0.,-1.));
#1619=DIRECTION('center_axis',(0.,0.,1.));
#1620=DIRECTION('ref_axis',(0.874528449900804,-0.484974216133288,0.));
#1621=DIRECTION('center_axis',(0.,0.,-1.));
#1622=DIRECTION('ref_axis',(0.874528449900804,-0.484974216133288,0.));
#1623=DIRECTION('',(0.,0.,-1.));
#1624=DIRECTION('center_axis',(0.,0.,1.));
#1625=DIRECTION('ref_axis',(0.833549500966078,-0.552444775013035,0.));
#1626=DIRECTION('center_axis',(0.,0.,1.));
#1627=DIRECTION('ref_axis',(-0.90506700615181,-0.425268990611119,0.));
#1628=DIRECTION('',(0.,0.,-1.));
#1629=DIRECTION('center_axis',(0.,0.,1.));
#1630=DIRECTION('ref_axis',(-0.573909026519631,-0.818919061494657,0.));
#1631=DIRECTION('center_axis',(0.,0.,-1.));
#1632=DIRECTION('ref_axis',(-0.573909026519631,-0.818919061494657,0.));
#1633=DIRECTION('center_axis',(0.,0.,1.));
#1634=DIRECTION('ref_axis',(1.,0.,0.));
#1635=CARTESIAN_POINT('',(0.,0.,0.));
#1636=CARTESIAN_POINT('Origin',(2.02526000142262,2.23912637544513,-6.99353086378051E-16));
#1637=CARTESIAN_POINT('',(1.93173185322178,2.15619576894715,-0.350000000000001));
#1638=CARTESIAN_POINT('',(1.93892228865786,2.32951884943799,-0.350000000000001));
#1639=CARTESIAN_POINT('Origin',(2.02526000142262,2.23912637544513,-0.350000000000001));
#1640=CARTESIAN_POINT('',(1.93173185322178,2.15619576894715,-0.200000000000001));
#1641=CARTESIAN_POINT('',(1.93173185322178,2.15619576894715,-6.99353086378051E-16));
#1642=CARTESIAN_POINT('',(1.93892228865786,2.32951884943799,-0.200000000000001));
#1643=CARTESIAN_POINT('Origin',(2.02526000142262,2.23912637544513,-0.200000000000001));
#1644=CARTESIAN_POINT('',(1.93892228865786,2.32951884943799,-6.99353086378051E-16));
#1645=CARTESIAN_POINT('Origin',(2.21177421978576,2.59013138294261,-0.350000000000001));
#1646=CARTESIAN_POINT('',(2.13111283170355,2.51308824596642,-0.200000000000001));
#1647=CARTESIAN_POINT('',(1.85020432381431,2.24478053188358,-0.200000000000001));
#1648=CARTESIAN_POINT('',(2.13111283170355,2.51308824596642,-0.350000000000001));
#1649=CARTESIAN_POINT('',(2.13111283170355,2.51308824596642,-6.99353086378051E-16));
#1650=CARTESIAN_POINT('',(2.11613220123653,2.49877960595288,-0.350000000000001));
#1651=CARTESIAN_POINT('Origin',(2.24045507617211,2.1771325121548,-0.350000000000001));
#1652=CARTESIAN_POINT('',(2.27297059417091,2.53468918285572,-0.350000000000001));
#1653=CARTESIAN_POINT('Origin',(2.21745054446831,2.42269577197355,-0.350000000000001));
#1654=CARTESIAN_POINT('',(2.38606751874225,2.5481589976412,-0.350000000000001));
#1655=CARTESIAN_POINT('Origin',(2.31921195063554,2.62796588671374,-0.350000000000001));
#1656=CARTESIAN_POINT('',(2.63479871725596,2.23506979807998,-0.350000000000001));
#1657=CARTESIAN_POINT('Origin',(2.51450058378934,2.39484576337028,-0.350000000000001));
#1658=CARTESIAN_POINT('',(2.61104898833414,2.09377032937809,-0.350000000000001));
#1659=CARTESIAN_POINT('Origin',(2.69741966344405,2.15189874765489,-0.350000000000001));
#1660=CARTESIAN_POINT('',(3.04592436688592,1.22021325362565,-0.350000000000001));
#1661=CARTESIAN_POINT('Origin',(-0.500000000000103,-1.27282261720805E-13,
-0.350000000000001));
#1662=CARTESIAN_POINT('',(3.17298350892085,1.15398966338287,-0.350000000000001));
#1663=CARTESIAN_POINT('Origin',(3.14436829451454,1.25408949372631,-0.350000000000001));
#1664=CARTESIAN_POINT('',(3.27286591548423,0.766800354575068,-0.350000000000001));
#1665=CARTESIAN_POINT('Origin',(3.22795484185929,0.961692620880983,-0.350000000000001));
#1666=CARTESIAN_POINT('',(3.19901266988652,0.70256275584709,-0.350000000000001));
#1667=CARTESIAN_POINT('Origin',(3.29624428257666,0.665349585813086,-0.350000000000001));
#1668=CARTESIAN_POINT('',(3.1036009306579,0.624076390513581,-0.350000000000001));
#1669=CARTESIAN_POINT('Origin',(3.0822707664921,0.747243042236602,-0.350000000000001));
#1670=CARTESIAN_POINT('',(2.82321794987447,0.575519293882783,-0.350000000000001));
#1671=CARTESIAN_POINT('',(2.61452505358685,0.539377581205056,-0.350000000000001));
#1672=CARTESIAN_POINT('',(2.67959564549724,0.67280868836114,-0.350000000000001));
#1673=CARTESIAN_POINT('Origin',(2.80188778570867,0.698685945605805,-0.350000000000001));
#1674=CARTESIAN_POINT('Origin',(-0.500000000000103,-1.27282261720805E-13,
-0.350000000000001));
#1675=CARTESIAN_POINT('',(2.60450058378934,2.39484576337028,-0.350000000000001));
#1676=CARTESIAN_POINT('Origin',(2.51450058378934,2.39484576337028,-0.350000000000001));
#1677=CARTESIAN_POINT('',(3.31795484185929,0.961692620880983,-0.350000000000001));
#1678=CARTESIAN_POINT('Origin',(3.22795484185929,0.961692620880983,-0.350000000000001));
#1679=CARTESIAN_POINT('Origin',(2.80188778570867,0.698685945605805,-6.99353086378051E-16));
#1680=CARTESIAN_POINT('',(2.82321794987447,0.575519293882783,-0.200000000000001));
#1681=CARTESIAN_POINT('',(2.82321794987447,0.575519293882783,-6.99353086378051E-16));
#1682=CARTESIAN_POINT('',(2.67959564549724,0.672808688361141,-0.200000000000001));
#1683=CARTESIAN_POINT('Origin',(2.80188778570867,0.698685945605805,-0.200000000000001));
#1684=CARTESIAN_POINT('',(2.67959564549724,0.672808688361141,-6.99353086378051E-16));
#1685=CARTESIAN_POINT('Origin',(2.70233294479846,0.554584268310656,-0.350000000000001));
#1686=CARTESIAN_POINT('',(3.1036009306579,0.624076390513581,-0.200000000000001));
#1687=CARTESIAN_POINT('',(3.1036009306579,0.624076390513581,-6.99353086378051E-16));
#1688=CARTESIAN_POINT('',(3.19499955169055,0.639904924973852,-0.200000000000001));
#1689=CARTESIAN_POINT('Origin',(3.0822707664921,0.747243042236602,-6.99353086378051E-16));
#1690=CARTESIAN_POINT('',(3.19901266988652,0.70256275584709,-0.200000000000001));
#1691=CARTESIAN_POINT('Origin',(3.0822707664921,0.747243042236602,-0.200000000000001));
#1692=CARTESIAN_POINT('',(3.19901266988652,0.70256275584709,-6.99353086378051E-16));
#1693=CARTESIAN_POINT('Origin',(2.85372393546775,-0.378365913726666,-6.99353086378051E-16));
#1694=CARTESIAN_POINT('',(2.72951193785783,-0.364352361366424,-0.350000000000001));
#1695=CARTESIAN_POINT('',(2.86312742868372,-0.253720118308862,-0.350000000000001));
#1696=CARTESIAN_POINT('Origin',(2.85372393546775,-0.378365913726666,-0.350000000000001));
#1697=CARTESIAN_POINT('',(2.72951193785783,-0.364352361366424,-0.200000000000001));
#1698=CARTESIAN_POINT('',(2.72951193785783,-0.364352361366424,-6.99353086378051E-16));
#1699=CARTESIAN_POINT('',(2.86312742868372,-0.253720118308862,-0.200000000000001));
#1700=CARTESIAN_POINT('Origin',(2.85372393546775,-0.378365913726666,-0.200000000000001));
#1701=CARTESIAN_POINT('',(2.86312742868372,-0.253720118308862,-6.99353086378051E-16));
#1702=CARTESIAN_POINT('Origin',(3.23937386253403,-0.282104796479412,-0.350000000000001));
#1703=CARTESIAN_POINT('',(3.12814665043443,-0.273713624270958,-0.200000000000001));
#1704=CARTESIAN_POINT('',(2.74079068086282,-0.244490823615508,-0.200000000000001));
#1705=CARTESIAN_POINT('',(3.12814665043443,-0.273713624270958,-0.350000000000001));
#1706=CARTESIAN_POINT('',(3.12814665043443,-0.273713624270958,-6.99353086378051E-16));
#1707=CARTESIAN_POINT('',(2.65050146261023,-0.237679249679396,-0.350000000000001));
#1708=CARTESIAN_POINT('Origin',(2.24045507617211,2.1771325121548,-0.350000000000001));
#1709=CARTESIAN_POINT('',(3.23912064552567,-0.36468063840372,-0.350000000000001));
#1710=CARTESIAN_POINT('Origin',(3.11874315721845,-0.398359419688762,-0.350000000000001));
#1711=CARTESIAN_POINT('',(3.32480728239939,-0.439714967341361,-0.350000000000001));
#1712=CARTESIAN_POINT('Origin',(3.33938025222539,-0.336630365771793,-0.350000000000001));
#1713=CARTESIAN_POINT('',(3.25857032151445,-0.834055836398425,-0.350000000000001));
#1714=CARTESIAN_POINT('Origin',(3.29681184036524,-0.637745912461847,-0.350000000000001));
#1715=CARTESIAN_POINT('',(3.13767268199162,-0.910954147414366,-0.350000000000001));
#1716=CARTESIAN_POINT('Origin',(3.23866377745513,-0.936244563927052,-0.350000000000001));
#1717=CARTESIAN_POINT('',(2.77948168712793,-1.81865331049995,-0.350000000000001));
#1718=CARTESIAN_POINT('Origin',(-0.500000000000103,-1.27282261720805E-13,
-0.350000000000001));
#1719=CARTESIAN_POINT('',(2.81528712946773,-1.95738888552722,-0.350000000000001));
#1720=CARTESIAN_POINT('Origin',(2.87052848465185,-1.86914377683711,-0.350000000000001));
#1721=CARTESIAN_POINT('',(2.59438377341539,-2.29069619609925,-0.350000000000001));
#1722=CARTESIAN_POINT('Origin',(2.70916557871931,-2.12691238380032,-0.350000000000001));
#1723=CARTESIAN_POINT('',(2.49722846731123,-2.27879588217649,-0.350000000000001));
#1724=CARTESIAN_POINT('Origin',(2.53463434051745,-2.37595352304938,-0.350000000000001));
#1725=CARTESIAN_POINT('',(2.3750588161193,-2.26040877110546,-0.350000000000001));
#1726=CARTESIAN_POINT('Origin',(2.45231681033665,-2.16214279362845,-0.350000000000001));
#1727=CARTESIAN_POINT('',(2.1513610270736,-2.08453464929592,-0.350000000000001));
#1728=CARTESIAN_POINT('',(1.09534454625558,-1.25428070725839,-0.350000000000001));
#1729=CARTESIAN_POINT('',(2.12755905753943,-1.91270316545525,-0.350000000000001));
#1730=CARTESIAN_POINT('Origin',(2.22861902129095,-1.98626867181891,-0.350000000000001));
#1731=CARTESIAN_POINT('Origin',(-0.500000000000103,-1.27282261720805E-13,
-0.350000000000001));
#1732=CARTESIAN_POINT('',(3.38681184036524,-0.637745912461845,-0.350000000000001));
#1733=CARTESIAN_POINT('Origin',(3.29681184036524,-0.637745912461845,-0.350000000000001));
#1734=CARTESIAN_POINT('',(2.79916557871931,-2.12691238380031,-0.350000000000001));
#1735=CARTESIAN_POINT('Origin',(2.70916557871931,-2.12691238380031,-0.350000000000001));
#1736=CARTESIAN_POINT('Origin',(3.11874315721845,-0.398359419688762,-6.99353086378051E-16));
#1737=CARTESIAN_POINT('',(3.23912064552567,-0.36468063840372,-0.200000000000001));
#1738=CARTESIAN_POINT('Origin',(3.11874315721845,-0.398359419688762,-0.200000000000001));
#1739=CARTESIAN_POINT('',(3.23912064552567,-0.36468063840372,-6.99353086378051E-16));
#1740=CARTESIAN_POINT('Origin',(3.33938025222539,-0.336630365771793,-6.99353086378051E-16));
#1741=CARTESIAN_POINT('',(3.23566854112919,-0.327537098382901,-0.200000000000001));
#1742=CARTESIAN_POINT('Origin',(3.33938025222539,-0.336630365771793,-0.200000000000001));
#1743=CARTESIAN_POINT('',(3.23566854112919,-0.327537098382901,-6.99353086378051E-16));
#1744=CARTESIAN_POINT('',(3.23566854112919,-0.327537098382901,-6.99353086378051E-16));
#1745=CARTESIAN_POINT('',(3.32480728239939,-0.439714967341361,-6.99353086378051E-16));
#1746=CARTESIAN_POINT('Origin',(3.33938025222539,-0.336630365771793,-6.99353086378051E-16));
#1747=CARTESIAN_POINT('',(3.32480728239939,-0.439714967341361,-6.99353086378051E-16));
#1748=CARTESIAN_POINT('Origin',(2.45231681033665,-2.16214279362845,-6.99353086378051E-16));
#1749=CARTESIAN_POINT('',(2.49722846731123,-2.27879588217649,-0.200000000000001));
#1750=CARTESIAN_POINT('',(2.3750588161193,-2.26040877110546,-0.200000000000001));
#1751=CARTESIAN_POINT('Origin',(2.45231681033665,-2.16214279362845,-0.200000000000001));
#1752=CARTESIAN_POINT('',(2.3750588161193,-2.26040877110546,-6.99353086378051E-16));
#1753=CARTESIAN_POINT('',(2.49722846731123,-2.27879588217649,-6.99353086378051E-16));
#1754=CARTESIAN_POINT('Origin',(2.05491541440224,-2.00870784965109,-0.350000000000001));
#1755=CARTESIAN_POINT('',(2.1513610270736,-2.08453464929592,-0.200000000000001));
#1756=CARTESIAN_POINT('',(2.44797932431029,-2.31773982652047,-0.200000000000001));
#1757=CARTESIAN_POINT('',(2.1513610270736,-2.08453464929592,-6.99353086378051E-16));
#1758=CARTESIAN_POINT('Origin',(2.22861902129095,-1.98626867181891,-6.99353086378051E-16));
#1759=CARTESIAN_POINT('',(2.12755905753943,-1.91270316545525,-0.200000000000001));
#1760=CARTESIAN_POINT('Origin',(2.22861902129095,-1.98626867181891,-0.200000000000001));
#1761=CARTESIAN_POINT('',(2.12755905753943,-1.91270316545525,-6.99353086378051E-16));
#1762=CARTESIAN_POINT('Origin',(1.46289865957681,-2.7454788020001,-6.99353086378051E-16));
#1763=CARTESIAN_POINT('',(1.39019870922211,-2.64379440192603,-0.350000000000001));
#1764=CARTESIAN_POINT('',(1.56182070257656,-2.66906264265697,-0.350000000000001));
#1765=CARTESIAN_POINT('Origin',(1.46289865957681,-2.7454788020001,-0.350000000000001));
#1766=CARTESIAN_POINT('',(1.39019870922211,-2.64379440192603,-0.200000000000001));
#1767=CARTESIAN_POINT('',(1.39019870922211,-2.64379440192603,-6.99353086378051E-16));
#1768=CARTESIAN_POINT('',(1.56182070257656,-2.66906264265697,-0.200000000000001));
#1769=CARTESIAN_POINT('Origin',(1.46289865957681,-2.7454788020001,-0.200000000000001));
#1770=CARTESIAN_POINT('',(1.56182070257656,-2.66906264265697,-6.99353086378051E-16));
#1771=CARTESIAN_POINT('Origin',(1.79248478029389,-2.96766128999271,-0.350000000000001));
#1772=CARTESIAN_POINT('',(1.71475070907627,-2.86703318722447,-0.200000000000001));
#1773=CARTESIAN_POINT('',(1.48682014292136,-2.57197311799371,-0.200000000000001));
#1774=CARTESIAN_POINT('',(1.71475070907627,-2.86703318722447,-0.350000000000001));
#1775=CARTESIAN_POINT('',(1.71475070907627,-2.86703318722447,-6.99353086378051E-16));
#1776=CARTESIAN_POINT('',(0.631689466388079,-1.46499163290505,-0.350000000000001));
#1777=CARTESIAN_POINT('Origin',(2.24045507617211,2.1771325121548,-0.350000000000001));
#1778=CARTESIAN_POINT('',(1.68878827525158,-3.04494759989752,-0.350000000000001));
#1779=CARTESIAN_POINT('Origin',(1.61582866607652,-2.9434493465676,-0.350000000000001));
#1780=CARTESIAN_POINT('',(1.5129468514534,-3.16394452752009,-0.350000000000001));
#1781=CARTESIAN_POINT('Origin',(-0.500000000000103,-1.27282261720805E-13,
-0.350000000000001));
#1782=CARTESIAN_POINT('',(1.24455393792626,-2.7420852571841,-0.350000000000001));
#1783=CARTESIAN_POINT('Origin',(1.37875039468983,-2.95301489235209,-0.350000000000001));
#1784=CARTESIAN_POINT('Origin',(-0.500000000000103,-1.27282261720805E-13,
-0.350000000000001));
#1785=CARTESIAN_POINT('Origin',(1.61582866607652,-2.9434493465676,-6.99353086378051E-16));
#1786=CARTESIAN_POINT('',(1.68878827525158,-3.04494759989752,-0.200000000000001));
#1787=CARTESIAN_POINT('Origin',(1.61582866607652,-2.9434493465676,-0.200000000000001));
#1788=CARTESIAN_POINT('',(1.68878827525158,-3.04494759989752,-6.99353086378051E-16));
#1789=CARTESIAN_POINT('Origin',(2.21745054446831,2.42269577197355,-6.99353086378051E-16));
#1790=CARTESIAN_POINT('',(2.27297059417091,2.53468918285572,-0.200000000000001));
#1791=CARTESIAN_POINT('Origin',(2.21745054446831,2.42269577197355,-0.200000000000001));
#1792=CARTESIAN_POINT('',(2.27297059417091,2.53468918285572,-6.99353086378051E-16));
#1793=CARTESIAN_POINT('Origin',(1.19016933106929,2.92129297269407,-6.99353086378051E-16));
#1794=CARTESIAN_POINT('',(1.29597265665063,2.85472979746985,-0.350000000000001));
#1795=CARTESIAN_POINT('',(1.12757046695561,2.81309693666836,-0.350000000000001));
#1796=CARTESIAN_POINT('Origin',(1.19016933106929,2.92129297269407,-0.350000000000001));
#1797=CARTESIAN_POINT('',(1.29597265665063,2.85472979746985,-0.200000000000001));
#1798=CARTESIAN_POINT('',(1.29597265665063,2.85472979746985,-6.99353086378051E-16));
#1799=CARTESIAN_POINT('',(1.12757046695561,2.81309693666836,-0.200000000000001));
#1800=CARTESIAN_POINT('Origin',(1.19016933106929,2.92129297269407,-0.200000000000001));
#1801=CARTESIAN_POINT('',(1.12757046695561,2.81309693666836,-6.99353086378051E-16));
#1802=CARTESIAN_POINT('Origin',(2.24045507617211,2.1771325121548,-0.350000000000001));
#1803=CARTESIAN_POINT('',(1.00243852310087,2.88187065710824,-0.350000000000001));
#1804=CARTESIAN_POINT('Origin',(-0.500000000000103,-1.27282261720805E-13,
-0.350000000000001));
#1805=CARTESIAN_POINT('',(1.58857558532654,3.31982724548771,-0.350000000000001));
#1806=CARTESIAN_POINT('Origin',(1.19012776629441,3.24188280688855,-0.350000000000001));
#1807=CARTESIAN_POINT('',(1.24451166210056,2.77293165093043,-0.350000000000001));
#1808=CARTESIAN_POINT('',(1.36981178890413,3.4139083168821,-0.350000000000001));
#1809=CARTESIAN_POINT('Origin',(1.27981178890413,3.4139083168821,-0.350000000000001));
#1810=CARTESIAN_POINT('Origin',(1.23064255582959,2.75088646511459,-0.350000000000001));
#1811=CARTESIAN_POINT('',(1.58857558532654,3.31982724548771,-0.200000000000001));
#1812=CARTESIAN_POINT('',(1.58857558532654,3.31982724548771,-6.99353086378051E-16));
#1813=CARTESIAN_POINT('',(1.58857558532654,3.31982724548771,-0.200000000000001));
#1814=CARTESIAN_POINT('Origin',(1.95048226751275,-2.49902714203063,-0.200000000000001));
#1815=CARTESIAN_POINT('',(1.86048226751275,-2.49902714203063,-0.200000000000001));
#1816=CARTESIAN_POINT('Origin',(1.95048226751275,-2.49902714203063,-0.200000000000001));
#1817=CARTESIAN_POINT('',(1.86048226751275,-2.49902714203063,-6.99353086378051E-16));
#1818=CARTESIAN_POINT('',(1.86048226751275,-2.49902714203063,-0.200000000000001));
#1819=CARTESIAN_POINT('Origin',(1.95048226751275,-2.49902714203063,-6.99353086378051E-16));
#1820=CARTESIAN_POINT('Origin',(2.99683177485993,0.148887670172043,-0.200000000000001));
#1821=CARTESIAN_POINT('',(2.90683177485993,0.148887670172043,-0.200000000000001));
#1822=CARTESIAN_POINT('Origin',(2.99683177485993,0.148887670172043,-0.200000000000001));
#1823=CARTESIAN_POINT('',(2.90683177485993,0.148887670172043,-6.99353086378051E-16));
#1824=CARTESIAN_POINT('',(2.90683177485993,0.148887670172043,-0.200000000000001));
#1825=CARTESIAN_POINT('Origin',(2.99683177485993,0.148887670172043,-6.99353086378051E-16));
#1826=CARTESIAN_POINT('Origin',(1.69916693006928,2.7228045860268,-0.200000000000001));
#1827=CARTESIAN_POINT('',(1.60916693006928,2.7228045860268,-0.200000000000001));
#1828=CARTESIAN_POINT('Origin',(1.69916693006928,2.7228045860268,-0.200000000000001));
#1829=CARTESIAN_POINT('',(1.60916693006928,2.7228045860268,-6.99353086378051E-16));
#1830=CARTESIAN_POINT('',(1.60916693006928,2.7228045860268,-0.200000000000001));
#1831=CARTESIAN_POINT('Origin',(1.69916693006928,2.7228045860268,-6.99353086378051E-16));
#1832=CARTESIAN_POINT('Origin',(1.96739973361582,-2.4881845698219,-0.200000000000001));
#1833=CARTESIAN_POINT('',(2.45266092310877,-2.31177279877295,-0.200000000000001));
#1834=CARTESIAN_POINT('Origin',(-0.500000000000103,-1.27282261720805E-13,
-0.200000000000001));
#1835=CARTESIAN_POINT('Origin',(-0.500000000000103,-1.27282261720805E-13,
-0.200000000000001));
#1836=CARTESIAN_POINT('Origin',(2.53463434051745,-2.37595352304938,-0.200000000000001));
#1837=CARTESIAN_POINT('Origin',(1.72120838780767,2.78230388868564,-0.200000000000001));
#1838=CARTESIAN_POINT('',(1.59317419826751,3.19299954110415,-0.200000000000001));
#1839=CARTESIAN_POINT('Origin',(1.19012776629441,3.24188280688855,-0.200000000000001));
#1840=CARTESIAN_POINT('',(1.6457401759731,3.07543478181765,-0.200000000000001));
#1841=CARTESIAN_POINT('Origin',(1.71726484850554,3.17794927454491,-0.200000000000001));
#1842=CARTESIAN_POINT('',(2.24305765589649,2.55697764879291,-0.200000000000001));
#1843=CARTESIAN_POINT('Origin',(-0.500000000000103,-1.27282261720805E-13,
-0.200000000000001));
#1844=CARTESIAN_POINT('Origin',(2.31921195063554,2.62796588671374,-0.200000000000001));
#1845=CARTESIAN_POINT('Origin',(-0.500000000000103,-1.27282261720805E-13,
-0.200000000000001));
#1846=CARTESIAN_POINT('Origin',(2.97616647239919,0.17890006424722,-0.200000000000001));
#1847=CARTESIAN_POINT('Origin',(-0.500000000000103,-1.27282261720805E-13,
-0.200000000000001));
#1848=CARTESIAN_POINT('',(3.19369778693926,0.647376751790764,-0.200000000000001));
#1849=CARTESIAN_POINT('Origin',(3.29624428257666,0.665349585813086,-0.200000000000001));
#1850=CARTESIAN_POINT('Origin',(-0.500000000000103,-1.27282261720805E-13,
-0.200000000000001));
#1851=CARTESIAN_POINT('Origin',(-0.500000000000103,-1.27282261720805E-13,
-6.99353086378051E-16));
#1852=CARTESIAN_POINT('',(2.45266092310877,-2.31177279877295,-6.99353086378051E-16));
#1853=CARTESIAN_POINT('',(2.45266092310877,-2.31177279877295,-6.99353086378051E-16));
#1854=CARTESIAN_POINT('',(1.5129468514534,-3.16394452752009,-6.99353086378051E-16));
#1855=CARTESIAN_POINT('Origin',(-0.500000000000103,-1.27282261720805E-13,
-6.99353086378051E-16));
#1856=CARTESIAN_POINT('',(1.5129468514534,-3.16394452752009,-6.99353086378051E-16));
#1857=CARTESIAN_POINT('Origin',(1.19012776629441,3.24188280688855,-6.99353086378051E-16));
#1858=CARTESIAN_POINT('',(1.00243852310087,2.88187065710824,-6.99353086378051E-16));
#1859=CARTESIAN_POINT('',(1.00243852310087,2.88187065710824,-6.99353086378051E-16));
#1860=CARTESIAN_POINT('',(1.59317419826751,3.19299954110415,-6.99353086378051E-16));
#1861=CARTESIAN_POINT('Origin',(1.19012776629441,3.24188280688855,-6.99353086378051E-16));
#1862=CARTESIAN_POINT('',(1.59317419826751,3.19299954110415,-6.99353086378051E-16));
#1863=CARTESIAN_POINT('Origin',(-0.500000000000103,-1.27282261720805E-13,
-6.99353086378051E-16));
#1864=CARTESIAN_POINT('',(3.19369778693926,0.647376751790764,-6.99353086378051E-16));
#1865=CARTESIAN_POINT('',(3.19369778693926,0.647376751790764,-6.99353086378051E-16));
#1866=CARTESIAN_POINT('Origin',(-0.500000000000103,-1.27282261720805E-13,
-6.99353086378051E-16));
#1867=CARTESIAN_POINT('Origin',(1.71726484850554,3.17794927454491,-6.99353086378051E-16));
#1868=CARTESIAN_POINT('',(1.6457401759731,3.07543478181765,-6.99353086378051E-16));
#1869=CARTESIAN_POINT('Origin',(1.71726484850554,3.17794927454491,-6.99353086378051E-16));
#1870=CARTESIAN_POINT('',(1.6457401759731,3.07543478181765,-6.99353086378051E-16));
#1871=CARTESIAN_POINT('Origin',(1.27981178890413,3.4139083168821,-6.99353086378051E-16));
#1872=CARTESIAN_POINT('',(1.36981178890413,3.4139083168821,-6.99353086378051E-16));
#1873=CARTESIAN_POINT('',(1.36981178890413,3.4139083168821,-6.99353086378051E-16));
#1874=CARTESIAN_POINT('Origin',(1.27981178890413,3.4139083168821,-6.99353086378051E-16));
#1875=CARTESIAN_POINT('Origin',(2.51450058378934,2.39484576337028,-6.99353086378051E-16));
#1876=CARTESIAN_POINT('',(2.60450058378934,2.39484576337028,-6.99353086378051E-16));
#1877=CARTESIAN_POINT('',(2.60450058378934,2.39484576337028,-6.99353086378051E-16));
#1878=CARTESIAN_POINT('Origin',(2.51450058378934,2.39484576337028,-6.99353086378051E-16));
#1879=CARTESIAN_POINT('Origin',(3.22795484185929,0.961692620880983,-6.99353086378051E-16));
#1880=CARTESIAN_POINT('',(3.31795484185929,0.961692620880983,-6.99353086378051E-16));
#1881=CARTESIAN_POINT('',(3.31795484185929,0.961692620880983,-6.99353086378051E-16));
#1882=CARTESIAN_POINT('Origin',(3.22795484185929,0.961692620880983,-6.99353086378051E-16));
#1883=CARTESIAN_POINT('Origin',(3.29681184036524,-0.637745912461845,-6.99353086378051E-16));
#1884=CARTESIAN_POINT('',(3.38681184036524,-0.637745912461845,-6.99353086378051E-16));
#1885=CARTESIAN_POINT('',(3.38681184036524,-0.637745912461845,-6.99353086378051E-16));
#1886=CARTESIAN_POINT('Origin',(3.29681184036524,-0.637745912461845,-6.99353086378051E-16));
#1887=CARTESIAN_POINT('Origin',(2.70916557871931,-2.12691238380031,-6.99353086378051E-16));
#1888=CARTESIAN_POINT('',(2.79916557871931,-2.12691238380031,-6.99353086378051E-16));
#1889=CARTESIAN_POINT('',(2.79916557871931,-2.12691238380031,-6.99353086378051E-16));
#1890=CARTESIAN_POINT('Origin',(2.70916557871931,-2.12691238380031,-6.99353086378051E-16));
#1891=CARTESIAN_POINT('Origin',(1.37875039468983,-2.95301489235209,-6.99353086378051E-16));
#1892=CARTESIAN_POINT('',(1.24455393792626,-2.7420852571841,-6.99353086378051E-16));
#1893=CARTESIAN_POINT('Origin',(1.37875039468983,-2.95301489235209,-6.99353086378051E-16));
#1894=CARTESIAN_POINT('',(1.24455393792626,-2.7420852571841,-6.99353086378051E-16));
#1895=CARTESIAN_POINT('Origin',(-0.500000000000103,-1.27282261720805E-13,
-6.99353086378051E-16));
#1896=CARTESIAN_POINT('Origin',(-0.500000000000103,-1.27282261720805E-13,
-6.99353086378051E-16));
#1897=CARTESIAN_POINT('Origin',(-0.500000000000103,-1.27282261720805E-13,
-6.99353086378051E-16));
#1898=CARTESIAN_POINT('',(2.24305765589649,2.55697764879291,-6.99353086378051E-16));
#1899=CARTESIAN_POINT('Origin',(-0.500000000000103,-1.27282261720805E-13,
-6.99353086378051E-16));
#1900=CARTESIAN_POINT('',(2.24305765589649,2.55697764879291,-6.99353086378051E-16));
#1901=CARTESIAN_POINT('Origin',(2.31921195063554,2.62796588671374,-6.99353086378051E-16));
#1902=CARTESIAN_POINT('',(2.38606751874225,2.5481589976412,-6.99353086378051E-16));
#1903=CARTESIAN_POINT('Origin',(2.31921195063554,2.62796588671374,-6.99353086378051E-16));
#1904=CARTESIAN_POINT('',(2.38606751874225,2.5481589976412,-6.99353086378051E-16));
#1905=CARTESIAN_POINT('Origin',(2.51450058378934,2.39484576337028,-6.99353086378051E-16));
#1906=CARTESIAN_POINT('',(2.63479871725596,2.23506979807998,-6.99353086378051E-16));
#1907=CARTESIAN_POINT('Origin',(2.51450058378934,2.39484576337028,-6.99353086378051E-16));
#1908=CARTESIAN_POINT('',(2.63479871725596,2.23506979807998,-6.99353086378051E-16));
#1909=CARTESIAN_POINT('Origin',(2.69741966344405,2.15189874765489,-6.99353086378051E-16));
#1910=CARTESIAN_POINT('',(2.61104898833414,2.09377032937809,-6.99353086378051E-16));
#1911=CARTESIAN_POINT('Origin',(2.69741966344405,2.15189874765489,-6.99353086378051E-16));
#1912=CARTESIAN_POINT('',(2.61104898833414,2.09377032937809,-6.99353086378051E-16));
#1913=CARTESIAN_POINT('Origin',(-0.500000000000103,-1.27282261720805E-13,
-6.99353086378051E-16));
#1914=CARTESIAN_POINT('',(3.04592436688592,1.22021325362565,-6.99353086378051E-16));
#1915=CARTESIAN_POINT('Origin',(-0.500000000000103,-1.27282261720805E-13,
-6.99353086378051E-16));
#1916=CARTESIAN_POINT('',(3.04592436688592,1.22021325362565,-6.99353086378051E-16));
#1917=CARTESIAN_POINT('Origin',(3.14436829451454,1.25408949372631,-6.99353086378051E-16));
#1918=CARTESIAN_POINT('',(3.17298350892085,1.15398966338287,-6.99353086378051E-16));
#1919=CARTESIAN_POINT('Origin',(3.14436829451454,1.25408949372631,-6.99353086378051E-16));
#1920=CARTESIAN_POINT('',(3.17298350892085,1.15398966338287,-6.99353086378051E-16));
#1921=CARTESIAN_POINT('Origin',(3.22795484185929,0.961692620880983,-6.99353086378051E-16));
#1922=CARTESIAN_POINT('',(3.27286591548423,0.766800354575069,-6.99353086378051E-16));
#1923=CARTESIAN_POINT('Origin',(3.22795484185929,0.961692620880983,-6.99353086378051E-16));
#1924=CARTESIAN_POINT('',(3.27286591548423,0.766800354575069,-6.99353086378051E-16));
#1925=CARTESIAN_POINT('Origin',(3.29624428257666,0.665349585813086,-6.99353086378051E-16));
#1926=CARTESIAN_POINT('Origin',(3.29624428257666,0.665349585813086,-6.99353086378051E-16));
#1927=CARTESIAN_POINT('Origin',(3.29681184036524,-0.637745912461847,-6.99353086378051E-16));
#1928=CARTESIAN_POINT('',(3.25857032151445,-0.834055836398425,-6.99353086378051E-16));
#1929=CARTESIAN_POINT('Origin',(3.29681184036524,-0.637745912461847,-6.99353086378051E-16));
#1930=CARTESIAN_POINT('',(3.25857032151445,-0.834055836398425,-6.99353086378051E-16));
#1931=CARTESIAN_POINT('Origin',(3.23866377745513,-0.936244563927052,-6.99353086378051E-16));
#1932=CARTESIAN_POINT('',(3.13767268199162,-0.910954147414366,-6.99353086378051E-16));
#1933=CARTESIAN_POINT('Origin',(3.23866377745513,-0.936244563927052,-6.99353086378051E-16));
#1934=CARTESIAN_POINT('',(3.13767268199162,-0.910954147414366,-6.99353086378051E-16));
#1935=CARTESIAN_POINT('Origin',(-0.500000000000103,-1.27282261720805E-13,
-6.99353086378051E-16));
#1936=CARTESIAN_POINT('',(2.77948168712793,-1.81865331049995,-6.99353086378051E-16));
#1937=CARTESIAN_POINT('Origin',(-0.500000000000103,-1.27282261720805E-13,
-6.99353086378051E-16));
#1938=CARTESIAN_POINT('',(2.77948168712793,-1.81865331049995,-6.99353086378051E-16));
#1939=CARTESIAN_POINT('Origin',(2.87052848465185,-1.86914377683711,-6.99353086378051E-16));
#1940=CARTESIAN_POINT('',(2.81528712946773,-1.95738888552722,-6.99353086378051E-16));
#1941=CARTESIAN_POINT('Origin',(2.87052848465185,-1.86914377683711,-6.99353086378051E-16));
#1942=CARTESIAN_POINT('',(2.81528712946773,-1.95738888552722,-6.99353086378051E-16));
#1943=CARTESIAN_POINT('Origin',(2.70916557871931,-2.12691238380032,-6.99353086378051E-16));
#1944=CARTESIAN_POINT('',(2.59438377341539,-2.29069619609925,-6.99353086378051E-16));
#1945=CARTESIAN_POINT('Origin',(2.70916557871931,-2.12691238380032,-6.99353086378051E-16));
#1946=CARTESIAN_POINT('',(2.59438377341539,-2.29069619609925,-6.99353086378051E-16));
#1947=CARTESIAN_POINT('Origin',(2.53463434051745,-2.37595352304938,-6.99353086378051E-16));
#1948=CARTESIAN_POINT('Origin',(2.53463434051745,-2.37595352304938,-6.99353086378051E-16));
#1949=CARTESIAN_POINT('Origin',(2.24045507617211,2.1771325121548,-6.99353086378051E-16));
#1950=UNCERTAINTY_MEASURE_WITH_UNIT(LENGTH_MEASURE(0.000393700787401575),
#1956,'DISTANCE_ACCURACY_VALUE',
'Maximum model space distance between geometric entities at asserted c
onnectivities');
#1951=UNCERTAINTY_MEASURE_WITH_UNIT(LENGTH_MEASURE(0.000393700787401575),
#1956,'DISTANCE_ACCURACY_VALUE',
'Maximum model space distance between geometric entities at asserted c
onnectivities');
#1952=(
GEOMETRIC_REPRESENTATION_CONTEXT(3)
GLOBAL_UNCERTAINTY_ASSIGNED_CONTEXT((#1950))
GLOBAL_UNIT_ASSIGNED_CONTEXT((#1956,#1960,#1961))
REPRESENTATION_CONTEXT('','3D')
);
#1953=(
GEOMETRIC_REPRESENTATION_CONTEXT(3)
GLOBAL_UNCERTAINTY_ASSIGNED_CONTEXT((#1951))
GLOBAL_UNIT_ASSIGNED_CONTEXT((#1956,#1960,#1961))
REPRESENTATION_CONTEXT('','3D')
);
#1954=DIMENSIONAL_EXPONENTS(1.,0.,0.,0.,0.,0.,0.);
#1955=DIMENSIONAL_EXPONENTS(0.,1.,0.,0.,0.,0.,0.);
#1956=(
CONVERSION_BASED_UNIT('inch',#1959)
LENGTH_UNIT()
NAMED_UNIT(#1954)
);
#1957=(
LENGTH_UNIT()
NAMED_UNIT(*)
SI_UNIT(.MILLI.,.METRE.)
);
#1958=(
LENGTH_UNIT()
NAMED_UNIT(*)
SI_UNIT(.CENTI.,.METRE.)
);
#1959=LENGTH_MEASURE_WITH_UNIT(LENGTH_MEASURE(25.4),#1957);
#1960=(
NAMED_UNIT(*)
PLANE_ANGLE_UNIT()
SI_UNIT($,.RADIAN.)
);
#1961=(
NAMED_UNIT(*)
SI_UNIT($,.STERADIAN.)
SOLID_ANGLE_UNIT()
);
#1962=SHAPE_DEFINITION_REPRESENTATION(#1963,#1964);
#1963=PRODUCT_DEFINITION_SHAPE('',$,#1966);
#1964=SHAPE_REPRESENTATION('',(#1130),#1952);
#1965=PRODUCT_DEFINITION_CONTEXT('part definition',#1970,'design');
#1966=PRODUCT_DEFINITION('Robert_MIR','Robert_MIR',#1967,#1965);
#1967=PRODUCT_DEFINITION_FORMATION('',$,#1972);
#1968=PRODUCT_RELATED_PRODUCT_CATEGORY('Robert_MIR','Robert_MIR',(#1972));
#1969=APPLICATION_PROTOCOL_DEFINITION('international standard',
'automotive_design',2009,#1970);
#1970=APPLICATION_CONTEXT(
'Core Data for Automotive Mechanical Design Process');
#1971=PRODUCT_CONTEXT('part definition',#1970,'mechanical');
#1972=PRODUCT('Robert_MIR','Robert_MIR',$,(#1971));
#1973=PRESENTATION_STYLE_ASSIGNMENT((#1974));
#1974=SURFACE_STYLE_USAGE(.BOTH.,#1977);
#1975=SURFACE_STYLE_RENDERING_WITH_PROPERTIES($,#1981,(#1976));
#1976=SURFACE_STYLE_TRANSPARENT(0.);
#1977=SURFACE_SIDE_STYLE('',(#1978,#1975));
#1978=SURFACE_STYLE_FILL_AREA(#1979);
#1979=FILL_AREA_STYLE('',(#1980));
#1980=FILL_AREA_STYLE_COLOUR('',#1981);
#1981=COLOUR_RGB('',0.0196078431372549,0.0196078431372549,0.0196078431372549);
ENDSEC;
END-ISO-10303-21;
