ISO-10303-21;
HEADER;
/* Generated by software containing ST-Developer
 * from STEP Tools, Inc. (www.steptools.com) 
 */

FILE_DESCRIPTION(
/* description */ (''),
/* implementation_level */ '2;1');

FILE_NAME(
/* name */ 'Robert.stp',
/* time_stamp */ '2025-10-13T22:07:55-04:00',
/* author */ ('Teddy'),
/* organization */ (''),
/* preprocessor_version */ 'ST-DEVELOPER v20.1',
/* originating_system */ 'Autodesk Inventor 2026',
/* authorisation */ '');

FILE_SCHEMA (('AUTOMOTIVE_DESIGN { 1 0 10303 214 3 1 1 }'));
ENDSEC;

DATA;
#10=MECHANICAL_DESIGN_GEOMETRIC_PRESENTATION_REPRESENTATION('',(#13),#1378);
#11=SHAPE_REPRESENTATION_RELATIONSHIP('SRR','None',#1389,#12);
#12=ADVANCED_BREP_SHAPE_REPRESENTATION('',(#14),#1377);
#13=STYLED_ITEM('',(#1398),#14);
#14=MANIFOLD_SOLID_BREP('Solid1',#774);
#15=FACE_BOUND('',#88,.T.);
#16=FACE_BOUND('',#89,.T.);
#17=FACE_BOUND('',#97,.T.);
#18=FACE_BOUND('',#98,.T.);
#19=FACE_BOUND('',#106,.T.);
#20=FACE_BOUND('',#113,.T.);
#21=FACE_BOUND('',#119,.T.);
#22=FACE_BOUND('',#122,.T.);
#23=FACE_BOUND('',#124,.T.);
#24=FACE_BOUND('',#134,.T.);
#25=FACE_BOUND('',#135,.T.);
#26=FACE_BOUND('',#136,.T.);
#27=FACE_BOUND('',#137,.T.);
#28=FACE_BOUND('',#138,.T.);
#29=FACE_BOUND('',#139,.T.);
#30=FACE_BOUND('',#140,.T.);
#31=FACE_BOUND('',#141,.T.);
#32=FACE_BOUND('',#142,.T.);
#33=PLANE('',#799);
#34=PLANE('',#830);
#35=PLANE('',#831);
#36=PLANE('',#841);
#37=PLANE('',#847);
#38=PLANE('',#848);
#39=PLANE('',#856);
#40=PLANE('',#860);
#41=PLANE('',#861);
#42=PLANE('',#876);
#43=PLANE('',#877);
#44=PLANE('',#878);
#45=PLANE('',#879);
#46=PLANE('',#896);
#47=FACE_OUTER_BOUND('',#86,.T.);
#48=FACE_OUTER_BOUND('',#87,.T.);
#49=FACE_OUTER_BOUND('',#90,.T.);
#50=FACE_OUTER_BOUND('',#91,.T.);
#51=FACE_OUTER_BOUND('',#92,.T.);
#52=FACE_OUTER_BOUND('',#93,.T.);
#53=FACE_OUTER_BOUND('',#94,.T.);
#54=FACE_OUTER_BOUND('',#95,.T.);
#55=FACE_OUTER_BOUND('',#96,.T.);
#56=FACE_OUTER_BOUND('',#99,.T.);
#57=FACE_OUTER_BOUND('',#100,.T.);
#58=FACE_OUTER_BOUND('',#101,.T.);
#59=FACE_OUTER_BOUND('',#102,.T.);
#60=FACE_OUTER_BOUND('',#103,.T.);
#61=FACE_OUTER_BOUND('',#104,.T.);
#62=FACE_OUTER_BOUND('',#105,.T.);
#63=FACE_OUTER_BOUND('',#107,.T.);
#64=FACE_OUTER_BOUND('',#108,.T.);
#65=FACE_OUTER_BOUND('',#109,.T.);
#66=FACE_OUTER_BOUND('',#110,.T.);
#67=FACE_OUTER_BOUND('',#111,.T.);
#68=FACE_OUTER_BOUND('',#112,.T.);
#69=FACE_OUTER_BOUND('',#114,.T.);
#70=FACE_OUTER_BOUND('',#115,.T.);
#71=FACE_OUTER_BOUND('',#116,.T.);
#72=FACE_OUTER_BOUND('',#117,.T.);
#73=FACE_OUTER_BOUND('',#118,.T.);
#74=FACE_OUTER_BOUND('',#120,.T.);
#75=FACE_OUTER_BOUND('',#121,.T.);
#76=FACE_OUTER_BOUND('',#123,.T.);
#77=FACE_OUTER_BOUND('',#125,.T.);
#78=FACE_OUTER_BOUND('',#126,.T.);
#79=FACE_OUTER_BOUND('',#127,.T.);
#80=FACE_OUTER_BOUND('',#128,.T.);
#81=FACE_OUTER_BOUND('',#129,.T.);
#82=FACE_OUTER_BOUND('',#130,.T.);
#83=FACE_OUTER_BOUND('',#131,.T.);
#84=FACE_OUTER_BOUND('',#132,.T.);
#85=FACE_OUTER_BOUND('',#133,.T.);
#86=EDGE_LOOP('',(#488,#489,#490,#491));
#87=EDGE_LOOP('',(#492,#493,#494,#495,#496,#497,#498,#499));
#88=EDGE_LOOP('',(#500));
#89=EDGE_LOOP('',(#501));
#90=EDGE_LOOP('',(#502,#503,#504,#505,#506,#507,#508,#509,#510,#511,#512,
#513,#514,#515,#516,#517));
#91=EDGE_LOOP('',(#518,#519,#520,#521));
#92=EDGE_LOOP('',(#522,#523,#524,#525));
#93=EDGE_LOOP('',(#526,#527,#528,#529,#530,#531,#532,#533,#534,#535,#536,
#537,#538,#539,#540,#541));
#94=EDGE_LOOP('',(#542,#543,#544,#545));
#95=EDGE_LOOP('',(#546,#547,#548,#549));
#96=EDGE_LOOP('',(#550,#551,#552,#553,#554,#555,#556,#557));
#97=EDGE_LOOP('',(#558));
#98=EDGE_LOOP('',(#559));
#99=EDGE_LOOP('',(#560,#561,#562,#563));
#100=EDGE_LOOP('',(#564,#565,#566,#567));
#101=EDGE_LOOP('',(#568,#569,#570,#571));
#102=EDGE_LOOP('',(#572,#573,#574,#575));
#103=EDGE_LOOP('',(#576,#577,#578,#579));
#104=EDGE_LOOP('',(#580,#581,#582,#583));
#105=EDGE_LOOP('',(#584,#585,#586,#587,#588,#589));
#106=EDGE_LOOP('',(#590));
#107=EDGE_LOOP('',(#591,#592,#593,#594));
#108=EDGE_LOOP('',(#595,#596,#597,#598));
#109=EDGE_LOOP('',(#599,#600,#601,#602));
#110=EDGE_LOOP('',(#603,#604,#605,#606));
#111=EDGE_LOOP('',(#607,#608,#609,#610));
#112=EDGE_LOOP('',(#611,#612,#613,#614,#615,#616));
#113=EDGE_LOOP('',(#617));
#114=EDGE_LOOP('',(#618,#619,#620,#621));
#115=EDGE_LOOP('',(#622,#623,#624,#625));
#116=EDGE_LOOP('',(#626,#627,#628,#629));
#117=EDGE_LOOP('',(#630,#631,#632,#633));
#118=EDGE_LOOP('',(#634,#635,#636,#637,#638,#639,#640,#641));
#119=EDGE_LOOP('',(#642));
#120=EDGE_LOOP('',(#643,#644,#645,#646));
#121=EDGE_LOOP('',(#647,#648,#649,#650,#651,#652,#653,#654));
#122=EDGE_LOOP('',(#655));
#123=EDGE_LOOP('',(#656,#657,#658,#659,#660,#661,#662,#663));
#124=EDGE_LOOP('',(#664));
#125=EDGE_LOOP('',(#665,#666,#667,#668));
#126=EDGE_LOOP('',(#669,#670,#671,#672));
#127=EDGE_LOOP('',(#673,#674,#675,#676));
#128=EDGE_LOOP('',(#677,#678,#679,#680));
#129=EDGE_LOOP('',(#681,#682,#683,#684));
#130=EDGE_LOOP('',(#685,#686,#687,#688));
#131=EDGE_LOOP('',(#689,#690,#691,#692));
#132=EDGE_LOOP('',(#693,#694,#695,#696));
#133=EDGE_LOOP('',(#697,#698,#699,#700));
#134=EDGE_LOOP('',(#701));
#135=EDGE_LOOP('',(#702));
#136=EDGE_LOOP('',(#703));
#137=EDGE_LOOP('',(#704));
#138=EDGE_LOOP('',(#705));
#139=EDGE_LOOP('',(#706));
#140=EDGE_LOOP('',(#707));
#141=EDGE_LOOP('',(#708));
#142=EDGE_LOOP('',(#709));
#143=LINE('',#1156,#192);
#144=LINE('',#1159,#193);
#145=LINE('',#1166,#194);
#146=LINE('',#1173,#195);
#147=LINE('',#1182,#196);
#148=LINE('',#1186,#197);
#149=LINE('',#1190,#198);
#150=LINE('',#1194,#199);
#151=LINE('',#1198,#200);
#152=LINE('',#1202,#201);
#153=LINE('',#1205,#202);
#154=LINE('',#1209,#203);
#155=LINE('',#1212,#204);
#156=LINE('',#1215,#205);
#157=LINE('',#1220,#206);
#158=LINE('',#1224,#207);
#159=LINE('',#1228,#208);
#160=LINE('',#1232,#209);
#161=LINE('',#1236,#210);
#162=LINE('',#1240,#211);
#163=LINE('',#1243,#212);
#164=LINE('',#1248,#213);
#165=LINE('',#1252,#214);
#166=LINE('',#1254,#215);
#167=LINE('',#1255,#216);
#168=LINE('',#1260,#217);
#169=LINE('',#1271,#218);
#170=LINE('',#1275,#219);
#171=LINE('',#1276,#220);
#172=LINE('',#1283,#221);
#173=LINE('',#1287,#222);
#174=LINE('',#1289,#223);
#175=LINE('',#1290,#224);
#176=LINE('',#1301,#225);
#177=LINE('',#1303,#226);
#178=LINE('',#1308,#227);
#179=LINE('',#1312,#228);
#180=LINE('',#1314,#229);
#181=LINE('',#1315,#230);
#182=LINE('',#1327,#231);
#183=LINE('',#1333,#232);
#184=LINE('',#1339,#233);
#185=LINE('',#1343,#234);
#186=LINE('',#1348,#235);
#187=LINE('',#1352,#236);
#188=LINE('',#1356,#237);
#189=LINE('',#1360,#238);
#190=LINE('',#1364,#239);
#191=LINE('',#1368,#240);
#192=VECTOR('',#903,0.393700787401575);
#193=VECTOR('',#906,0.393700787401575);
#194=VECTOR('',#913,0.393700787401575);
#195=VECTOR('',#920,0.393700787401575);
#196=VECTOR('',#929,0.393700787401575);
#197=VECTOR('',#932,0.393700787401575);
#198=VECTOR('',#935,0.393700787401575);
#199=VECTOR('',#938,0.393700787401575);
#200=VECTOR('',#941,0.393700787401575);
#201=VECTOR('',#944,0.393700787401575);
#202=VECTOR('',#947,0.393700787401575);
#203=VECTOR('',#952,0.393700787401575);
#204=VECTOR('',#955,0.393700787401575);
#205=VECTOR('',#958,0.393700787401575);
#206=VECTOR('',#963,0.393700787401575);
#207=VECTOR('',#966,0.393700787401575);
#208=VECTOR('',#969,0.393700787401575);
#209=VECTOR('',#972,0.393700787401575);
#210=VECTOR('',#975,0.393700787401575);
#211=VECTOR('',#978,0.393700787401575);
#212=VECTOR('',#981,0.393700787401575);
#213=VECTOR('',#986,0.393700787401575);
#214=VECTOR('',#991,0.393700787401575);
#215=VECTOR('',#992,0.393700787401575);
#216=VECTOR('',#993,0.393700787401575);
#217=VECTOR('',#998,0.393700787401575);
#218=VECTOR('',#1013,0.393700787401575);
#219=VECTOR('',#1018,0.393700787401575);
#220=VECTOR('',#1019,0.393700787401575);
#221=VECTOR('',#1028,0.393700787401575);
#222=VECTOR('',#1033,0.393700787401575);
#223=VECTOR('',#1034,0.393700787401575);
#224=VECTOR('',#1035,0.393700787401575);
#225=VECTOR('',#1052,0.393700787401575);
#226=VECTOR('',#1055,0.393700787401575);
#227=VECTOR('',#1060,0.393700787401575);
#228=VECTOR('',#1065,0.393700787401575);
#229=VECTOR('',#1066,0.393700787401575);
#230=VECTOR('',#1067,0.393700787401575);
#231=VECTOR('',#1084,0.09);
#232=VECTOR('',#1091,0.09);
#233=VECTOR('',#1098,0.09);
#234=VECTOR('',#1105,0.393700787401575);
#235=VECTOR('',#1112,0.0899999999999999);
#236=VECTOR('',#1117,0.0899999999999998);
#237=VECTOR('',#1122,0.09);
#238=VECTOR('',#1127,0.0900000000000001);
#239=VECTOR('',#1132,0.09);
#240=VECTOR('',#1137,0.0900000000000001);
#241=CIRCLE('',#797,0.125);
#242=CIRCLE('',#798,0.125);
#243=CIRCLE('',#800,3.25000000000001);
#244=CIRCLE('',#801,0.125);
#245=CIRCLE('',#802,0.125);
#246=CIRCLE('',#803,3.75000000000001);
#247=CIRCLE('',#804,0.125);
#248=CIRCLE('',#805,0.09);
#249=CIRCLE('',#806,0.0899999999999998);
#250=CIRCLE('',#808,3.25000000000001);
#251=CIRCLE('',#809,3.25000000000001);
#252=CIRCLE('',#810,3.25000000000001);
#253=CIRCLE('',#811,3.25000000000001);
#254=CIRCLE('',#812,3.25000000000001);
#255=CIRCLE('',#813,3.25000000000001);
#256=CIRCLE('',#814,3.25000000000001);
#257=CIRCLE('',#816,0.125);
#258=CIRCLE('',#818,0.125);
#259=CIRCLE('',#820,3.75000000000001);
#260=CIRCLE('',#821,3.75000000000001);
#261=CIRCLE('',#822,3.75000000000001);
#262=CIRCLE('',#823,3.75000000000001);
#263=CIRCLE('',#824,3.75000000000001);
#264=CIRCLE('',#825,3.75000000000001);
#265=CIRCLE('',#826,3.75000000000001);
#266=CIRCLE('',#828,0.125);
#267=CIRCLE('',#829,0.125);
#268=CIRCLE('',#832,0.125);
#269=CIRCLE('',#833,0.125);
#270=CIRCLE('',#834,0.125);
#271=CIRCLE('',#835,0.0900000000000001);
#272=CIRCLE('',#836,0.09);
#273=CIRCLE('',#838,0.125);
#274=CIRCLE('',#840,0.125);
#275=CIRCLE('',#843,0.125);
#276=CIRCLE('',#845,0.125);
#277=CIRCLE('',#846,0.125);
#278=CIRCLE('',#849,0.25);
#279=CIRCLE('',#850,0.125);
#280=CIRCLE('',#851,0.0900000000000001);
#281=CIRCLE('',#853,0.125);
#282=CIRCLE('',#855,0.125);
#283=CIRCLE('',#858,0.125);
#284=CIRCLE('',#859,0.125);
#285=CIRCLE('',#862,0.25);
#286=CIRCLE('',#863,0.125);
#287=CIRCLE('',#864,0.0899999999999999);
#288=CIRCLE('',#866,0.125);
#289=CIRCLE('',#868,0.09);
#290=CIRCLE('',#869,0.09);
#291=CIRCLE('',#871,0.09);
#292=CIRCLE('',#872,0.09);
#293=CIRCLE('',#874,0.09);
#294=CIRCLE('',#875,0.09);
#295=CIRCLE('',#881,0.0899999999999999);
#296=CIRCLE('',#883,0.0899999999999998);
#297=CIRCLE('',#885,0.09);
#298=CIRCLE('',#887,0.0900000000000001);
#299=CIRCLE('',#889,0.09);
#300=CIRCLE('',#891,0.0900000000000001);
#301=CIRCLE('',#893,0.25);
#302=CIRCLE('',#895,0.25);
#303=VERTEX_POINT('',#1152);
#304=VERTEX_POINT('',#1153);
#305=VERTEX_POINT('',#1155);
#306=VERTEX_POINT('',#1157);
#307=VERTEX_POINT('',#1161);
#308=VERTEX_POINT('',#1163);
#309=VERTEX_POINT('',#1165);
#310=VERTEX_POINT('',#1167);
#311=VERTEX_POINT('',#1169);
#312=VERTEX_POINT('',#1171);
#313=VERTEX_POINT('',#1174);
#314=VERTEX_POINT('',#1176);
#315=VERTEX_POINT('',#1179);
#316=VERTEX_POINT('',#1181);
#317=VERTEX_POINT('',#1183);
#318=VERTEX_POINT('',#1185);
#319=VERTEX_POINT('',#1187);
#320=VERTEX_POINT('',#1189);
#321=VERTEX_POINT('',#1191);
#322=VERTEX_POINT('',#1193);
#323=VERTEX_POINT('',#1195);
#324=VERTEX_POINT('',#1197);
#325=VERTEX_POINT('',#1199);
#326=VERTEX_POINT('',#1201);
#327=VERTEX_POINT('',#1203);
#328=VERTEX_POINT('',#1207);
#329=VERTEX_POINT('',#1211);
#330=VERTEX_POINT('',#1213);
#331=VERTEX_POINT('',#1217);
#332=VERTEX_POINT('',#1219);
#333=VERTEX_POINT('',#1221);
#334=VERTEX_POINT('',#1223);
#335=VERTEX_POINT('',#1225);
#336=VERTEX_POINT('',#1227);
#337=VERTEX_POINT('',#1229);
#338=VERTEX_POINT('',#1231);
#339=VERTEX_POINT('',#1233);
#340=VERTEX_POINT('',#1235);
#341=VERTEX_POINT('',#1237);
#342=VERTEX_POINT('',#1239);
#343=VERTEX_POINT('',#1241);
#344=VERTEX_POINT('',#1245);
#345=VERTEX_POINT('',#1247);
#346=VERTEX_POINT('',#1251);
#347=VERTEX_POINT('',#1253);
#348=VERTEX_POINT('',#1257);
#349=VERTEX_POINT('',#1259);
#350=VERTEX_POINT('',#1263);
#351=VERTEX_POINT('',#1265);
#352=VERTEX_POINT('',#1270);
#353=VERTEX_POINT('',#1274);
#354=VERTEX_POINT('',#1280);
#355=VERTEX_POINT('',#1282);
#356=VERTEX_POINT('',#1286);
#357=VERTEX_POINT('',#1288);
#358=VERTEX_POINT('',#1294);
#359=VERTEX_POINT('',#1299);
#360=VERTEX_POINT('',#1305);
#361=VERTEX_POINT('',#1307);
#362=VERTEX_POINT('',#1311);
#363=VERTEX_POINT('',#1313);
#364=VERTEX_POINT('',#1319);
#365=VERTEX_POINT('',#1324);
#366=VERTEX_POINT('',#1326);
#367=VERTEX_POINT('',#1330);
#368=VERTEX_POINT('',#1332);
#369=VERTEX_POINT('',#1336);
#370=VERTEX_POINT('',#1338);
#371=VERTEX_POINT('',#1347);
#372=VERTEX_POINT('',#1351);
#373=VERTEX_POINT('',#1355);
#374=VERTEX_POINT('',#1359);
#375=VERTEX_POINT('',#1363);
#376=VERTEX_POINT('',#1367);
#377=EDGE_CURVE('',#303,#304,#241,.T.);
#378=EDGE_CURVE('',#304,#305,#143,.T.);
#379=EDGE_CURVE('',#305,#306,#242,.F.);
#380=EDGE_CURVE('',#306,#303,#144,.T.);
#381=EDGE_CURVE('',#303,#307,#243,.T.);
#382=EDGE_CURVE('',#308,#307,#244,.T.);
#383=EDGE_CURVE('',#308,#309,#145,.T.);
#384=EDGE_CURVE('',#310,#309,#245,.T.);
#385=EDGE_CURVE('',#310,#311,#246,.T.);
#386=EDGE_CURVE('',#312,#311,#247,.T.);
#387=EDGE_CURVE('',#312,#304,#146,.T.);
#388=EDGE_CURVE('',#313,#313,#248,.T.);
#389=EDGE_CURVE('',#314,#314,#249,.T.);
#390=EDGE_CURVE('',#306,#315,#250,.T.);
#391=EDGE_CURVE('',#316,#315,#147,.T.);
#392=EDGE_CURVE('',#317,#316,#251,.T.);
#393=EDGE_CURVE('',#318,#317,#148,.T.);
#394=EDGE_CURVE('',#318,#319,#252,.T.);
#395=EDGE_CURVE('',#319,#320,#149,.T.);
#396=EDGE_CURVE('',#321,#320,#253,.T.);
#397=EDGE_CURVE('',#322,#321,#150,.T.);
#398=EDGE_CURVE('',#322,#323,#254,.T.);
#399=EDGE_CURVE('',#324,#323,#151,.T.);
#400=EDGE_CURVE('',#325,#324,#255,.T.);
#401=EDGE_CURVE('',#326,#325,#152,.T.);
#402=EDGE_CURVE('',#326,#327,#256,.T.);
#403=EDGE_CURVE('',#307,#327,#153,.T.);
#404=EDGE_CURVE('',#327,#328,#257,.F.);
#405=EDGE_CURVE('',#328,#308,#154,.T.);
#406=EDGE_CURVE('',#309,#329,#155,.T.);
#407=EDGE_CURVE('',#329,#330,#258,.F.);
#408=EDGE_CURVE('',#330,#310,#156,.T.);
#409=EDGE_CURVE('',#330,#331,#259,.T.);
#410=EDGE_CURVE('',#332,#331,#157,.T.);
#411=EDGE_CURVE('',#333,#332,#260,.T.);
#412=EDGE_CURVE('',#334,#333,#158,.T.);
#413=EDGE_CURVE('',#334,#335,#261,.T.);
#414=EDGE_CURVE('',#336,#335,#159,.T.);
#415=EDGE_CURVE('',#337,#336,#262,.T.);
#416=EDGE_CURVE('',#338,#337,#160,.T.);
#417=EDGE_CURVE('',#338,#339,#263,.T.);
#418=EDGE_CURVE('',#339,#340,#161,.T.);
#419=EDGE_CURVE('',#341,#340,#264,.T.);
#420=EDGE_CURVE('',#342,#341,#162,.T.);
#421=EDGE_CURVE('',#342,#343,#265,.T.);
#422=EDGE_CURVE('',#311,#343,#163,.T.);
#423=EDGE_CURVE('',#325,#344,#266,.T.);
#424=EDGE_CURVE('',#344,#345,#164,.T.);
#425=EDGE_CURVE('',#345,#326,#267,.F.);
#426=EDGE_CURVE('',#346,#344,#165,.T.);
#427=EDGE_CURVE('',#347,#346,#166,.T.);
#428=EDGE_CURVE('',#347,#345,#167,.T.);
#429=EDGE_CURVE('',#348,#324,#268,.T.);
#430=EDGE_CURVE('',#348,#349,#168,.T.);
#431=EDGE_CURVE('',#333,#349,#269,.T.);
#432=EDGE_CURVE('',#346,#332,#270,.T.);
#433=EDGE_CURVE('',#350,#350,#271,.T.);
#434=EDGE_CURVE('',#351,#351,#272,.T.);
#435=EDGE_CURVE('',#331,#347,#273,.F.);
#436=EDGE_CURVE('',#349,#352,#169,.T.);
#437=EDGE_CURVE('',#352,#334,#274,.F.);
#438=EDGE_CURVE('',#353,#348,#170,.T.);
#439=EDGE_CURVE('',#353,#352,#171,.T.);
#440=EDGE_CURVE('',#323,#353,#275,.F.);
#441=EDGE_CURVE('',#321,#354,#276,.T.);
#442=EDGE_CURVE('',#354,#355,#172,.T.);
#443=EDGE_CURVE('',#355,#322,#277,.F.);
#444=EDGE_CURVE('',#356,#354,#173,.T.);
#445=EDGE_CURVE('',#357,#356,#174,.T.);
#446=EDGE_CURVE('',#357,#355,#175,.T.);
#447=EDGE_CURVE('',#320,#337,#278,.T.);
#448=EDGE_CURVE('',#356,#336,#279,.T.);
#449=EDGE_CURVE('',#358,#358,#280,.T.);
#450=EDGE_CURVE('',#335,#357,#281,.F.);
#451=EDGE_CURVE('',#343,#359,#282,.F.);
#452=EDGE_CURVE('',#359,#312,#176,.T.);
#453=EDGE_CURVE('',#359,#305,#177,.T.);
#454=EDGE_CURVE('',#341,#360,#283,.T.);
#455=EDGE_CURVE('',#360,#361,#178,.T.);
#456=EDGE_CURVE('',#361,#342,#284,.F.);
#457=EDGE_CURVE('',#362,#360,#179,.T.);
#458=EDGE_CURVE('',#363,#362,#180,.T.);
#459=EDGE_CURVE('',#363,#361,#181,.T.);
#460=EDGE_CURVE('',#340,#317,#285,.T.);
#461=EDGE_CURVE('',#362,#316,#286,.T.);
#462=EDGE_CURVE('',#364,#364,#287,.T.);
#463=EDGE_CURVE('',#315,#363,#288,.F.);
#464=EDGE_CURVE('',#365,#365,#289,.T.);
#465=EDGE_CURVE('',#365,#366,#182,.T.);
#466=EDGE_CURVE('',#366,#366,#290,.T.);
#467=EDGE_CURVE('',#367,#367,#291,.T.);
#468=EDGE_CURVE('',#367,#368,#183,.T.);
#469=EDGE_CURVE('',#368,#368,#292,.T.);
#470=EDGE_CURVE('',#369,#369,#293,.T.);
#471=EDGE_CURVE('',#369,#370,#184,.T.);
#472=EDGE_CURVE('',#370,#370,#294,.T.);
#473=EDGE_CURVE('',#328,#329,#185,.T.);
#474=EDGE_CURVE('',#364,#371,#186,.T.);
#475=EDGE_CURVE('',#371,#371,#295,.T.);
#476=EDGE_CURVE('',#314,#372,#187,.T.);
#477=EDGE_CURVE('',#372,#372,#296,.T.);
#478=EDGE_CURVE('',#313,#373,#188,.T.);
#479=EDGE_CURVE('',#373,#373,#297,.T.);
#480=EDGE_CURVE('',#350,#374,#189,.T.);
#481=EDGE_CURVE('',#374,#374,#298,.T.);
#482=EDGE_CURVE('',#351,#375,#190,.T.);
#483=EDGE_CURVE('',#375,#375,#299,.T.);
#484=EDGE_CURVE('',#358,#376,#191,.T.);
#485=EDGE_CURVE('',#376,#376,#300,.T.);
#486=EDGE_CURVE('',#319,#338,#301,.T.);
#487=EDGE_CURVE('',#339,#318,#302,.T.);
#488=ORIENTED_EDGE('',*,*,#377,.T.);
#489=ORIENTED_EDGE('',*,*,#378,.T.);
#490=ORIENTED_EDGE('',*,*,#379,.T.);
#491=ORIENTED_EDGE('',*,*,#380,.T.);
#492=ORIENTED_EDGE('',*,*,#377,.F.);
#493=ORIENTED_EDGE('',*,*,#381,.T.);
#494=ORIENTED_EDGE('',*,*,#382,.F.);
#495=ORIENTED_EDGE('',*,*,#383,.T.);
#496=ORIENTED_EDGE('',*,*,#384,.F.);
#497=ORIENTED_EDGE('',*,*,#385,.T.);
#498=ORIENTED_EDGE('',*,*,#386,.F.);
#499=ORIENTED_EDGE('',*,*,#387,.T.);
#500=ORIENTED_EDGE('',*,*,#388,.T.);
#501=ORIENTED_EDGE('',*,*,#389,.T.);
#502=ORIENTED_EDGE('',*,*,#380,.F.);
#503=ORIENTED_EDGE('',*,*,#390,.T.);
#504=ORIENTED_EDGE('',*,*,#391,.F.);
#505=ORIENTED_EDGE('',*,*,#392,.F.);
#506=ORIENTED_EDGE('',*,*,#393,.F.);
#507=ORIENTED_EDGE('',*,*,#394,.T.);
#508=ORIENTED_EDGE('',*,*,#395,.T.);
#509=ORIENTED_EDGE('',*,*,#396,.F.);
#510=ORIENTED_EDGE('',*,*,#397,.F.);
#511=ORIENTED_EDGE('',*,*,#398,.T.);
#512=ORIENTED_EDGE('',*,*,#399,.F.);
#513=ORIENTED_EDGE('',*,*,#400,.F.);
#514=ORIENTED_EDGE('',*,*,#401,.F.);
#515=ORIENTED_EDGE('',*,*,#402,.T.);
#516=ORIENTED_EDGE('',*,*,#403,.F.);
#517=ORIENTED_EDGE('',*,*,#381,.F.);
#518=ORIENTED_EDGE('',*,*,#382,.T.);
#519=ORIENTED_EDGE('',*,*,#403,.T.);
#520=ORIENTED_EDGE('',*,*,#404,.T.);
#521=ORIENTED_EDGE('',*,*,#405,.T.);
#522=ORIENTED_EDGE('',*,*,#384,.T.);
#523=ORIENTED_EDGE('',*,*,#406,.T.);
#524=ORIENTED_EDGE('',*,*,#407,.T.);
#525=ORIENTED_EDGE('',*,*,#408,.T.);
#526=ORIENTED_EDGE('',*,*,#408,.F.);
#527=ORIENTED_EDGE('',*,*,#409,.T.);
#528=ORIENTED_EDGE('',*,*,#410,.F.);
#529=ORIENTED_EDGE('',*,*,#411,.F.);
#530=ORIENTED_EDGE('',*,*,#412,.F.);
#531=ORIENTED_EDGE('',*,*,#413,.T.);
#532=ORIENTED_EDGE('',*,*,#414,.F.);
#533=ORIENTED_EDGE('',*,*,#415,.F.);
#534=ORIENTED_EDGE('',*,*,#416,.F.);
#535=ORIENTED_EDGE('',*,*,#417,.T.);
#536=ORIENTED_EDGE('',*,*,#418,.T.);
#537=ORIENTED_EDGE('',*,*,#419,.F.);
#538=ORIENTED_EDGE('',*,*,#420,.F.);
#539=ORIENTED_EDGE('',*,*,#421,.T.);
#540=ORIENTED_EDGE('',*,*,#422,.F.);
#541=ORIENTED_EDGE('',*,*,#385,.F.);
#542=ORIENTED_EDGE('',*,*,#423,.T.);
#543=ORIENTED_EDGE('',*,*,#424,.T.);
#544=ORIENTED_EDGE('',*,*,#425,.T.);
#545=ORIENTED_EDGE('',*,*,#401,.T.);
#546=ORIENTED_EDGE('',*,*,#424,.F.);
#547=ORIENTED_EDGE('',*,*,#426,.F.);
#548=ORIENTED_EDGE('',*,*,#427,.F.);
#549=ORIENTED_EDGE('',*,*,#428,.T.);
#550=ORIENTED_EDGE('',*,*,#423,.F.);
#551=ORIENTED_EDGE('',*,*,#400,.T.);
#552=ORIENTED_EDGE('',*,*,#429,.F.);
#553=ORIENTED_EDGE('',*,*,#430,.T.);
#554=ORIENTED_EDGE('',*,*,#431,.F.);
#555=ORIENTED_EDGE('',*,*,#411,.T.);
#556=ORIENTED_EDGE('',*,*,#432,.F.);
#557=ORIENTED_EDGE('',*,*,#426,.T.);
#558=ORIENTED_EDGE('',*,*,#433,.T.);
#559=ORIENTED_EDGE('',*,*,#434,.T.);
#560=ORIENTED_EDGE('',*,*,#432,.T.);
#561=ORIENTED_EDGE('',*,*,#410,.T.);
#562=ORIENTED_EDGE('',*,*,#435,.T.);
#563=ORIENTED_EDGE('',*,*,#427,.T.);
#564=ORIENTED_EDGE('',*,*,#431,.T.);
#565=ORIENTED_EDGE('',*,*,#436,.T.);
#566=ORIENTED_EDGE('',*,*,#437,.T.);
#567=ORIENTED_EDGE('',*,*,#412,.T.);
#568=ORIENTED_EDGE('',*,*,#436,.F.);
#569=ORIENTED_EDGE('',*,*,#430,.F.);
#570=ORIENTED_EDGE('',*,*,#438,.F.);
#571=ORIENTED_EDGE('',*,*,#439,.T.);
#572=ORIENTED_EDGE('',*,*,#429,.T.);
#573=ORIENTED_EDGE('',*,*,#399,.T.);
#574=ORIENTED_EDGE('',*,*,#440,.T.);
#575=ORIENTED_EDGE('',*,*,#438,.T.);
#576=ORIENTED_EDGE('',*,*,#441,.T.);
#577=ORIENTED_EDGE('',*,*,#442,.T.);
#578=ORIENTED_EDGE('',*,*,#443,.T.);
#579=ORIENTED_EDGE('',*,*,#397,.T.);
#580=ORIENTED_EDGE('',*,*,#442,.F.);
#581=ORIENTED_EDGE('',*,*,#444,.F.);
#582=ORIENTED_EDGE('',*,*,#445,.F.);
#583=ORIENTED_EDGE('',*,*,#446,.T.);
#584=ORIENTED_EDGE('',*,*,#441,.F.);
#585=ORIENTED_EDGE('',*,*,#396,.T.);
#586=ORIENTED_EDGE('',*,*,#447,.T.);
#587=ORIENTED_EDGE('',*,*,#415,.T.);
#588=ORIENTED_EDGE('',*,*,#448,.F.);
#589=ORIENTED_EDGE('',*,*,#444,.T.);
#590=ORIENTED_EDGE('',*,*,#449,.T.);
#591=ORIENTED_EDGE('',*,*,#448,.T.);
#592=ORIENTED_EDGE('',*,*,#414,.T.);
#593=ORIENTED_EDGE('',*,*,#450,.T.);
#594=ORIENTED_EDGE('',*,*,#445,.T.);
#595=ORIENTED_EDGE('',*,*,#386,.T.);
#596=ORIENTED_EDGE('',*,*,#422,.T.);
#597=ORIENTED_EDGE('',*,*,#451,.T.);
#598=ORIENTED_EDGE('',*,*,#452,.T.);
#599=ORIENTED_EDGE('',*,*,#378,.F.);
#600=ORIENTED_EDGE('',*,*,#387,.F.);
#601=ORIENTED_EDGE('',*,*,#452,.F.);
#602=ORIENTED_EDGE('',*,*,#453,.T.);
#603=ORIENTED_EDGE('',*,*,#454,.T.);
#604=ORIENTED_EDGE('',*,*,#455,.T.);
#605=ORIENTED_EDGE('',*,*,#456,.T.);
#606=ORIENTED_EDGE('',*,*,#420,.T.);
#607=ORIENTED_EDGE('',*,*,#455,.F.);
#608=ORIENTED_EDGE('',*,*,#457,.F.);
#609=ORIENTED_EDGE('',*,*,#458,.F.);
#610=ORIENTED_EDGE('',*,*,#459,.T.);
#611=ORIENTED_EDGE('',*,*,#454,.F.);
#612=ORIENTED_EDGE('',*,*,#419,.T.);
#613=ORIENTED_EDGE('',*,*,#460,.T.);
#614=ORIENTED_EDGE('',*,*,#392,.T.);
#615=ORIENTED_EDGE('',*,*,#461,.F.);
#616=ORIENTED_EDGE('',*,*,#457,.T.);
#617=ORIENTED_EDGE('',*,*,#462,.T.);
#618=ORIENTED_EDGE('',*,*,#461,.T.);
#619=ORIENTED_EDGE('',*,*,#391,.T.);
#620=ORIENTED_EDGE('',*,*,#463,.T.);
#621=ORIENTED_EDGE('',*,*,#458,.T.);
#622=ORIENTED_EDGE('',*,*,#464,.F.);
#623=ORIENTED_EDGE('',*,*,#465,.T.);
#624=ORIENTED_EDGE('',*,*,#466,.F.);
#625=ORIENTED_EDGE('',*,*,#465,.F.);
#626=ORIENTED_EDGE('',*,*,#467,.F.);
#627=ORIENTED_EDGE('',*,*,#468,.T.);
#628=ORIENTED_EDGE('',*,*,#469,.F.);
#629=ORIENTED_EDGE('',*,*,#468,.F.);
#630=ORIENTED_EDGE('',*,*,#470,.F.);
#631=ORIENTED_EDGE('',*,*,#471,.T.);
#632=ORIENTED_EDGE('',*,*,#472,.F.);
#633=ORIENTED_EDGE('',*,*,#471,.F.);
#634=ORIENTED_EDGE('',*,*,#413,.F.);
#635=ORIENTED_EDGE('',*,*,#437,.F.);
#636=ORIENTED_EDGE('',*,*,#439,.F.);
#637=ORIENTED_EDGE('',*,*,#440,.F.);
#638=ORIENTED_EDGE('',*,*,#398,.F.);
#639=ORIENTED_EDGE('',*,*,#443,.F.);
#640=ORIENTED_EDGE('',*,*,#446,.F.);
#641=ORIENTED_EDGE('',*,*,#450,.F.);
#642=ORIENTED_EDGE('',*,*,#464,.T.);
#643=ORIENTED_EDGE('',*,*,#405,.F.);
#644=ORIENTED_EDGE('',*,*,#473,.T.);
#645=ORIENTED_EDGE('',*,*,#406,.F.);
#646=ORIENTED_EDGE('',*,*,#383,.F.);
#647=ORIENTED_EDGE('',*,*,#409,.F.);
#648=ORIENTED_EDGE('',*,*,#407,.F.);
#649=ORIENTED_EDGE('',*,*,#473,.F.);
#650=ORIENTED_EDGE('',*,*,#404,.F.);
#651=ORIENTED_EDGE('',*,*,#402,.F.);
#652=ORIENTED_EDGE('',*,*,#425,.F.);
#653=ORIENTED_EDGE('',*,*,#428,.F.);
#654=ORIENTED_EDGE('',*,*,#435,.F.);
#655=ORIENTED_EDGE('',*,*,#467,.T.);
#656=ORIENTED_EDGE('',*,*,#421,.F.);
#657=ORIENTED_EDGE('',*,*,#456,.F.);
#658=ORIENTED_EDGE('',*,*,#459,.F.);
#659=ORIENTED_EDGE('',*,*,#463,.F.);
#660=ORIENTED_EDGE('',*,*,#390,.F.);
#661=ORIENTED_EDGE('',*,*,#379,.F.);
#662=ORIENTED_EDGE('',*,*,#453,.F.);
#663=ORIENTED_EDGE('',*,*,#451,.F.);
#664=ORIENTED_EDGE('',*,*,#470,.T.);
#665=ORIENTED_EDGE('',*,*,#462,.F.);
#666=ORIENTED_EDGE('',*,*,#474,.T.);
#667=ORIENTED_EDGE('',*,*,#475,.T.);
#668=ORIENTED_EDGE('',*,*,#474,.F.);
#669=ORIENTED_EDGE('',*,*,#389,.F.);
#670=ORIENTED_EDGE('',*,*,#476,.T.);
#671=ORIENTED_EDGE('',*,*,#477,.T.);
#672=ORIENTED_EDGE('',*,*,#476,.F.);
#673=ORIENTED_EDGE('',*,*,#388,.F.);
#674=ORIENTED_EDGE('',*,*,#478,.T.);
#675=ORIENTED_EDGE('',*,*,#479,.T.);
#676=ORIENTED_EDGE('',*,*,#478,.F.);
#677=ORIENTED_EDGE('',*,*,#433,.F.);
#678=ORIENTED_EDGE('',*,*,#480,.T.);
#679=ORIENTED_EDGE('',*,*,#481,.T.);
#680=ORIENTED_EDGE('',*,*,#480,.F.);
#681=ORIENTED_EDGE('',*,*,#434,.F.);
#682=ORIENTED_EDGE('',*,*,#482,.T.);
#683=ORIENTED_EDGE('',*,*,#483,.T.);
#684=ORIENTED_EDGE('',*,*,#482,.F.);
#685=ORIENTED_EDGE('',*,*,#449,.F.);
#686=ORIENTED_EDGE('',*,*,#484,.T.);
#687=ORIENTED_EDGE('',*,*,#485,.T.);
#688=ORIENTED_EDGE('',*,*,#484,.F.);
#689=ORIENTED_EDGE('',*,*,#486,.T.);
#690=ORIENTED_EDGE('',*,*,#416,.T.);
#691=ORIENTED_EDGE('',*,*,#447,.F.);
#692=ORIENTED_EDGE('',*,*,#395,.F.);
#693=ORIENTED_EDGE('',*,*,#487,.T.);
#694=ORIENTED_EDGE('',*,*,#393,.T.);
#695=ORIENTED_EDGE('',*,*,#460,.F.);
#696=ORIENTED_EDGE('',*,*,#418,.F.);
#697=ORIENTED_EDGE('',*,*,#417,.F.);
#698=ORIENTED_EDGE('',*,*,#486,.F.);
#699=ORIENTED_EDGE('',*,*,#394,.F.);
#700=ORIENTED_EDGE('',*,*,#487,.F.);
#701=ORIENTED_EDGE('',*,*,#466,.T.);
#702=ORIENTED_EDGE('',*,*,#469,.T.);
#703=ORIENTED_EDGE('',*,*,#472,.T.);
#704=ORIENTED_EDGE('',*,*,#485,.F.);
#705=ORIENTED_EDGE('',*,*,#483,.F.);
#706=ORIENTED_EDGE('',*,*,#481,.F.);
#707=ORIENTED_EDGE('',*,*,#479,.F.);
#708=ORIENTED_EDGE('',*,*,#477,.F.);
#709=ORIENTED_EDGE('',*,*,#475,.F.);
#710=CYLINDRICAL_SURFACE('',#796,0.125);
#711=CYLINDRICAL_SURFACE('',#807,3.25000000000001);
#712=CYLINDRICAL_SURFACE('',#815,0.125);
#713=CYLINDRICAL_SURFACE('',#817,0.125);
#714=CYLINDRICAL_SURFACE('',#819,3.75000000000001);
#715=CYLINDRICAL_SURFACE('',#827,0.125);
#716=CYLINDRICAL_SURFACE('',#837,0.125);
#717=CYLINDRICAL_SURFACE('',#839,0.125);
#718=CYLINDRICAL_SURFACE('',#842,0.125);
#719=CYLINDRICAL_SURFACE('',#844,0.125);
#720=CYLINDRICAL_SURFACE('',#852,0.125);
#721=CYLINDRICAL_SURFACE('',#854,0.125);
#722=CYLINDRICAL_SURFACE('',#857,0.125);
#723=CYLINDRICAL_SURFACE('',#865,0.125);
#724=CYLINDRICAL_SURFACE('',#867,0.09);
#725=CYLINDRICAL_SURFACE('',#870,0.09);
#726=CYLINDRICAL_SURFACE('',#873,0.09);
#727=CYLINDRICAL_SURFACE('',#880,0.0899999999999999);
#728=CYLINDRICAL_SURFACE('',#882,0.0899999999999998);
#729=CYLINDRICAL_SURFACE('',#884,0.09);
#730=CYLINDRICAL_SURFACE('',#886,0.0900000000000001);
#731=CYLINDRICAL_SURFACE('',#888,0.09);
#732=CYLINDRICAL_SURFACE('',#890,0.0900000000000001);
#733=CYLINDRICAL_SURFACE('',#892,0.25);
#734=CYLINDRICAL_SURFACE('',#894,0.25);
#735=ADVANCED_FACE('',(#47),#710,.T.);
#736=ADVANCED_FACE('',(#48,#15,#16),#33,.T.);
#737=ADVANCED_FACE('',(#49),#711,.F.);
#738=ADVANCED_FACE('',(#50),#712,.T.);
#739=ADVANCED_FACE('',(#51),#713,.T.);
#740=ADVANCED_FACE('',(#52),#714,.T.);
#741=ADVANCED_FACE('',(#53),#715,.T.);
#742=ADVANCED_FACE('',(#54),#34,.F.);
#743=ADVANCED_FACE('',(#55,#17,#18),#35,.T.);
#744=ADVANCED_FACE('',(#56),#716,.T.);
#745=ADVANCED_FACE('',(#57),#717,.T.);
#746=ADVANCED_FACE('',(#58),#36,.F.);
#747=ADVANCED_FACE('',(#59),#718,.T.);
#748=ADVANCED_FACE('',(#60),#719,.T.);
#749=ADVANCED_FACE('',(#61),#37,.F.);
#750=ADVANCED_FACE('',(#62,#19),#38,.T.);
#751=ADVANCED_FACE('',(#63),#720,.T.);
#752=ADVANCED_FACE('',(#64),#721,.T.);
#753=ADVANCED_FACE('',(#65),#39,.F.);
#754=ADVANCED_FACE('',(#66),#722,.T.);
#755=ADVANCED_FACE('',(#67),#40,.F.);
#756=ADVANCED_FACE('',(#68,#20),#41,.T.);
#757=ADVANCED_FACE('',(#69),#723,.T.);
#758=ADVANCED_FACE('',(#70),#724,.F.);
#759=ADVANCED_FACE('',(#71),#725,.F.);
#760=ADVANCED_FACE('',(#72),#726,.F.);
#761=ADVANCED_FACE('',(#73,#21),#42,.T.);
#762=ADVANCED_FACE('',(#74),#43,.F.);
#763=ADVANCED_FACE('',(#75,#22),#44,.T.);
#764=ADVANCED_FACE('',(#76,#23),#45,.T.);
#765=ADVANCED_FACE('',(#77),#727,.F.);
#766=ADVANCED_FACE('',(#78),#728,.F.);
#767=ADVANCED_FACE('',(#79),#729,.F.);
#768=ADVANCED_FACE('',(#80),#730,.F.);
#769=ADVANCED_FACE('',(#81),#731,.F.);
#770=ADVANCED_FACE('',(#82),#732,.F.);
#771=ADVANCED_FACE('',(#83),#733,.T.);
#772=ADVANCED_FACE('',(#84),#734,.T.);
#773=ADVANCED_FACE('',(#85,#24,#25,#26,#27,#28,#29,#30,#31,#32),#46,.F.);
#774=CLOSED_SHELL('',(#735,#736,#737,#738,#739,#740,#741,#742,#743,#744,
#745,#746,#747,#748,#749,#750,#751,#752,#753,#754,#755,#756,#757,#758,#759,
#760,#761,#762,#763,#764,#765,#766,#767,#768,#769,#770,#771,#772,#773));
#775=DERIVED_UNIT_ELEMENT(#777,1.);
#776=DERIVED_UNIT_ELEMENT(#1383,-3.);
#777=(
CONVERSION_BASED_UNIT('gram',#779)
MASS_UNIT()
NAMED_UNIT(#1380)
);
#778=(
MASS_UNIT()
NAMED_UNIT(*)
SI_UNIT(.KILO.,.GRAM.)
);
#779=MASS_MEASURE_WITH_UNIT(MASS_MEASURE(0.001),#778);
#780=DERIVED_UNIT((#775,#776));
#781=MEASURE_REPRESENTATION_ITEM('density measure',
POSITIVE_RATIO_MEASURE(0.952),#780);
#782=PROPERTY_DEFINITION_REPRESENTATION(#787,#784);
#783=PROPERTY_DEFINITION_REPRESENTATION(#788,#785);
#784=REPRESENTATION('material name',(#786),#1377);
#785=REPRESENTATION('density',(#781),#1377);
#786=DESCRIPTIVE_REPRESENTATION_ITEM('Plastic, Opaque Black',
'Plastic, Opaque Black');
#787=PROPERTY_DEFINITION('material property','material name',#1391);
#788=PROPERTY_DEFINITION('material property','density of part',#1391);
#789=DATE_TIME_ROLE('creation_date');
#790=APPLIED_DATE_AND_TIME_ASSIGNMENT(#791,#789,(#1391));
#791=DATE_AND_TIME(#792,#793);
#792=CALENDAR_DATE(2025,13,10);
#793=LOCAL_TIME(0,0,0.,#794);
#794=COORDINATED_UNIVERSAL_TIME_OFFSET(0,0,.BEHIND.);
#795=AXIS2_PLACEMENT_3D('',#1150,#897,#898);
#796=AXIS2_PLACEMENT_3D('',#1151,#899,#900);
#797=AXIS2_PLACEMENT_3D('',#1154,#901,#902);
#798=AXIS2_PLACEMENT_3D('',#1158,#904,#905);
#799=AXIS2_PLACEMENT_3D('',#1160,#907,#908);
#800=AXIS2_PLACEMENT_3D('',#1162,#909,#910);
#801=AXIS2_PLACEMENT_3D('',#1164,#911,#912);
#802=AXIS2_PLACEMENT_3D('',#1168,#914,#915);
#803=AXIS2_PLACEMENT_3D('',#1170,#916,#917);
#804=AXIS2_PLACEMENT_3D('',#1172,#918,#919);
#805=AXIS2_PLACEMENT_3D('',#1175,#921,#922);
#806=AXIS2_PLACEMENT_3D('',#1177,#923,#924);
#807=AXIS2_PLACEMENT_3D('',#1178,#925,#926);
#808=AXIS2_PLACEMENT_3D('',#1180,#927,#928);
#809=AXIS2_PLACEMENT_3D('',#1184,#930,#931);
#810=AXIS2_PLACEMENT_3D('',#1188,#933,#934);
#811=AXIS2_PLACEMENT_3D('',#1192,#936,#937);
#812=AXIS2_PLACEMENT_3D('',#1196,#939,#940);
#813=AXIS2_PLACEMENT_3D('',#1200,#942,#943);
#814=AXIS2_PLACEMENT_3D('',#1204,#945,#946);
#815=AXIS2_PLACEMENT_3D('',#1206,#948,#949);
#816=AXIS2_PLACEMENT_3D('',#1208,#950,#951);
#817=AXIS2_PLACEMENT_3D('',#1210,#953,#954);
#818=AXIS2_PLACEMENT_3D('',#1214,#956,#957);
#819=AXIS2_PLACEMENT_3D('',#1216,#959,#960);
#820=AXIS2_PLACEMENT_3D('',#1218,#961,#962);
#821=AXIS2_PLACEMENT_3D('',#1222,#964,#965);
#822=AXIS2_PLACEMENT_3D('',#1226,#967,#968);
#823=AXIS2_PLACEMENT_3D('',#1230,#970,#971);
#824=AXIS2_PLACEMENT_3D('',#1234,#973,#974);
#825=AXIS2_PLACEMENT_3D('',#1238,#976,#977);
#826=AXIS2_PLACEMENT_3D('',#1242,#979,#980);
#827=AXIS2_PLACEMENT_3D('',#1244,#982,#983);
#828=AXIS2_PLACEMENT_3D('',#1246,#984,#985);
#829=AXIS2_PLACEMENT_3D('',#1249,#987,#988);
#830=AXIS2_PLACEMENT_3D('',#1250,#989,#990);
#831=AXIS2_PLACEMENT_3D('',#1256,#994,#995);
#832=AXIS2_PLACEMENT_3D('',#1258,#996,#997);
#833=AXIS2_PLACEMENT_3D('',#1261,#999,#1000);
#834=AXIS2_PLACEMENT_3D('',#1262,#1001,#1002);
#835=AXIS2_PLACEMENT_3D('',#1264,#1003,#1004);
#836=AXIS2_PLACEMENT_3D('',#1266,#1005,#1006);
#837=AXIS2_PLACEMENT_3D('',#1267,#1007,#1008);
#838=AXIS2_PLACEMENT_3D('',#1268,#1009,#1010);
#839=AXIS2_PLACEMENT_3D('',#1269,#1011,#1012);
#840=AXIS2_PLACEMENT_3D('',#1272,#1014,#1015);
#841=AXIS2_PLACEMENT_3D('',#1273,#1016,#1017);
#842=AXIS2_PLACEMENT_3D('',#1277,#1020,#1021);
#843=AXIS2_PLACEMENT_3D('',#1278,#1022,#1023);
#844=AXIS2_PLACEMENT_3D('',#1279,#1024,#1025);
#845=AXIS2_PLACEMENT_3D('',#1281,#1026,#1027);
#846=AXIS2_PLACEMENT_3D('',#1284,#1029,#1030);
#847=AXIS2_PLACEMENT_3D('',#1285,#1031,#1032);
#848=AXIS2_PLACEMENT_3D('',#1291,#1036,#1037);
#849=AXIS2_PLACEMENT_3D('',#1292,#1038,#1039);
#850=AXIS2_PLACEMENT_3D('',#1293,#1040,#1041);
#851=AXIS2_PLACEMENT_3D('',#1295,#1042,#1043);
#852=AXIS2_PLACEMENT_3D('',#1296,#1044,#1045);
#853=AXIS2_PLACEMENT_3D('',#1297,#1046,#1047);
#854=AXIS2_PLACEMENT_3D('',#1298,#1048,#1049);
#855=AXIS2_PLACEMENT_3D('',#1300,#1050,#1051);
#856=AXIS2_PLACEMENT_3D('',#1302,#1053,#1054);
#857=AXIS2_PLACEMENT_3D('',#1304,#1056,#1057);
#858=AXIS2_PLACEMENT_3D('',#1306,#1058,#1059);
#859=AXIS2_PLACEMENT_3D('',#1309,#1061,#1062);
#860=AXIS2_PLACEMENT_3D('',#1310,#1063,#1064);
#861=AXIS2_PLACEMENT_3D('',#1316,#1068,#1069);
#862=AXIS2_PLACEMENT_3D('',#1317,#1070,#1071);
#863=AXIS2_PLACEMENT_3D('',#1318,#1072,#1073);
#864=AXIS2_PLACEMENT_3D('',#1320,#1074,#1075);
#865=AXIS2_PLACEMENT_3D('',#1321,#1076,#1077);
#866=AXIS2_PLACEMENT_3D('',#1322,#1078,#1079);
#867=AXIS2_PLACEMENT_3D('',#1323,#1080,#1081);
#868=AXIS2_PLACEMENT_3D('',#1325,#1082,#1083);
#869=AXIS2_PLACEMENT_3D('',#1328,#1085,#1086);
#870=AXIS2_PLACEMENT_3D('',#1329,#1087,#1088);
#871=AXIS2_PLACEMENT_3D('',#1331,#1089,#1090);
#872=AXIS2_PLACEMENT_3D('',#1334,#1092,#1093);
#873=AXIS2_PLACEMENT_3D('',#1335,#1094,#1095);
#874=AXIS2_PLACEMENT_3D('',#1337,#1096,#1097);
#875=AXIS2_PLACEMENT_3D('',#1340,#1099,#1100);
#876=AXIS2_PLACEMENT_3D('',#1341,#1101,#1102);
#877=AXIS2_PLACEMENT_3D('',#1342,#1103,#1104);
#878=AXIS2_PLACEMENT_3D('',#1344,#1106,#1107);
#879=AXIS2_PLACEMENT_3D('',#1345,#1108,#1109);
#880=AXIS2_PLACEMENT_3D('',#1346,#1110,#1111);
#881=AXIS2_PLACEMENT_3D('',#1349,#1113,#1114);
#882=AXIS2_PLACEMENT_3D('',#1350,#1115,#1116);
#883=AXIS2_PLACEMENT_3D('',#1353,#1118,#1119);
#884=AXIS2_PLACEMENT_3D('',#1354,#1120,#1121);
#885=AXIS2_PLACEMENT_3D('',#1357,#1123,#1124);
#886=AXIS2_PLACEMENT_3D('',#1358,#1125,#1126);
#887=AXIS2_PLACEMENT_3D('',#1361,#1128,#1129);
#888=AXIS2_PLACEMENT_3D('',#1362,#1130,#1131);
#889=AXIS2_PLACEMENT_3D('',#1365,#1133,#1134);
#890=AXIS2_PLACEMENT_3D('',#1366,#1135,#1136);
#891=AXIS2_PLACEMENT_3D('',#1369,#1138,#1139);
#892=AXIS2_PLACEMENT_3D('',#1370,#1140,#1141);
#893=AXIS2_PLACEMENT_3D('',#1371,#1142,#1143);
#894=AXIS2_PLACEMENT_3D('',#1372,#1144,#1145);
#895=AXIS2_PLACEMENT_3D('',#1373,#1146,#1147);
#896=AXIS2_PLACEMENT_3D('',#1374,#1148,#1149);
#897=DIRECTION('axis',(0.,0.,1.));
#898=DIRECTION('refdir',(1.,0.,0.));
#899=DIRECTION('center_axis',(0.,0.,-1.));
#900=DIRECTION('ref_axis',(-0.999057021467023,0.0434173681542454,0.));
#901=DIRECTION('center_axis',(0.,0.,-1.));
#902=DIRECTION('ref_axis',(-0.999057021467023,0.0434173681542454,0.));
#903=DIRECTION('',(0.,0.,-1.));
#904=DIRECTION('center_axis',(0.,0.,-1.));
#905=DIRECTION('ref_axis',(-0.999057021467023,0.0434173681542454,0.));
#906=DIRECTION('',(0.,0.,1.));
#907=DIRECTION('center_axis',(0.,0.,1.));
#908=DIRECTION('ref_axis',(1.,0.,0.));
#909=DIRECTION('center_axis',(0.,0.,-1.));
#910=DIRECTION('ref_axis',(-0.536785827054265,0.843718540671988,0.));
#911=DIRECTION('center_axis',(0.,0.,-1.));
#912=DIRECTION('ref_axis',(-0.562464910707644,-0.826821156129089,0.));
#913=DIRECTION('',(0.985667306485444,0.168700802978914,0.));
#914=DIRECTION('center_axis',(0.,0.,-1.));
#915=DIRECTION('ref_axis',(0.826101675225645,-0.563521092940968,0.));
#916=DIRECTION('center_axis',(0.,0.,1.));
#917=DIRECTION('ref_axis',(0.536785827054265,-0.843718540671988,0.));
#918=DIRECTION('center_axis',(0.,0.,-1.));
#919=DIRECTION('ref_axis',(0.0421405812084579,0.99911169116141,0.));
#920=DIRECTION('',(-0.724498422684708,-0.68927645798139,0.));
#921=DIRECTION('center_axis',(0.,0.,-1.));
#922=DIRECTION('ref_axis',(-1.,0.,0.));
#923=DIRECTION('center_axis',(0.,0.,-1.));
#924=DIRECTION('ref_axis',(-1.,0.,0.));
#925=DIRECTION('center_axis',(0.,0.,1.));
#926=DIRECTION('ref_axis',(-0.536785827054265,0.843718540671988,0.));
#927=DIRECTION('center_axis',(0.,0.,1.));
#928=DIRECTION('ref_axis',(-0.536785827054265,0.843718540671988,0.));
#929=DIRECTION('',(0.,0.,-1.));
#930=DIRECTION('center_axis',(0.,0.,-1.));
#931=DIRECTION('ref_axis',(-0.536785827054265,0.843718540671988,0.));
#932=DIRECTION('',(0.,0.,1.));
#933=DIRECTION('center_axis',(0.,0.,-1.));
#934=DIRECTION('ref_axis',(-0.536785827054265,0.843718540671988,0.));
#935=DIRECTION('',(0.,0.,1.));
#936=DIRECTION('center_axis',(0.,0.,-1.));
#937=DIRECTION('ref_axis',(-0.536785827054265,0.843718540671988,0.));
#938=DIRECTION('',(0.,0.,1.));
#939=DIRECTION('center_axis',(0.,0.,1.));
#940=DIRECTION('ref_axis',(-0.536785827054265,0.843718540671988,0.));
#941=DIRECTION('',(0.,0.,-1.));
#942=DIRECTION('center_axis',(0.,0.,-1.));
#943=DIRECTION('ref_axis',(-0.536785827054265,0.843718540671988,0.));
#944=DIRECTION('',(0.,0.,1.));
#945=DIRECTION('center_axis',(0.,0.,1.));
#946=DIRECTION('ref_axis',(-0.536785827054265,0.843718540671988,0.));
#947=DIRECTION('',(0.,0.,-1.));
#948=DIRECTION('center_axis',(0.,0.,1.));
#949=DIRECTION('ref_axis',(-0.562464910707644,-0.826821156129089,0.));
#950=DIRECTION('center_axis',(0.,0.,-1.));
#951=DIRECTION('ref_axis',(-0.562464910707644,-0.826821156129089,0.));
#952=DIRECTION('',(0.,0.,1.));
#953=DIRECTION('center_axis',(0.,0.,-1.));
#954=DIRECTION('ref_axis',(0.826101675225645,-0.563521092940968,0.));
#955=DIRECTION('',(0.,0.,-1.));
#956=DIRECTION('center_axis',(0.,0.,-1.));
#957=DIRECTION('ref_axis',(0.826101675225645,-0.563521092940968,0.));
#958=DIRECTION('',(0.,0.,1.));
#959=DIRECTION('center_axis',(0.,0.,1.));
#960=DIRECTION('ref_axis',(0.536785827054265,-0.843718540671988,0.));
#961=DIRECTION('center_axis',(0.,0.,-1.));
#962=DIRECTION('ref_axis',(0.536785827054265,-0.843718540671988,0.));
#963=DIRECTION('',(0.,0.,-1.));
#964=DIRECTION('center_axis',(0.,0.,1.));
#965=DIRECTION('ref_axis',(0.536785827054265,-0.843718540671988,0.));
#966=DIRECTION('',(0.,0.,1.));
#967=DIRECTION('center_axis',(0.,0.,-1.));
#968=DIRECTION('ref_axis',(0.536785827054265,-0.843718540671988,0.));
#969=DIRECTION('',(0.,0.,-1.));
#970=DIRECTION('center_axis',(0.,0.,1.));
#971=DIRECTION('ref_axis',(0.536785827054265,-0.843718540671988,0.));
#972=DIRECTION('',(0.,0.,1.));
#973=DIRECTION('center_axis',(0.,0.,1.));
#974=DIRECTION('ref_axis',(0.536785827054265,-0.843718540671988,0.));
#975=DIRECTION('',(0.,0.,1.));
#976=DIRECTION('center_axis',(0.,0.,1.));
#977=DIRECTION('ref_axis',(0.536785827054265,-0.843718540671988,0.));
#978=DIRECTION('',(0.,0.,1.));
#979=DIRECTION('center_axis',(0.,0.,-1.));
#980=DIRECTION('ref_axis',(0.536785827054265,-0.843718540671988,0.));
#981=DIRECTION('',(0.,0.,-1.));
#982=DIRECTION('center_axis',(0.,0.,-1.));
#983=DIRECTION('ref_axis',(-0.636234238081631,0.771495945739631,0.));
#984=DIRECTION('center_axis',(0.,0.,-1.));
#985=DIRECTION('ref_axis',(-0.636234238081631,0.771495945739631,0.));
#986=DIRECTION('',(0.,0.,-1.));
#987=DIRECTION('center_axis',(0.,0.,-1.));
#988=DIRECTION('ref_axis',(-0.636234238081631,0.771495945739631,0.));
#989=DIRECTION('center_axis',(-0.0771912796067017,-0.997016301949311,0.));
#990=DIRECTION('ref_axis',(-0.997016301949311,0.0771912796067017,0.));
#991=DIRECTION('',(-0.997016301949311,0.0771912796067017,0.));
#992=DIRECTION('',(0.,0.,1.));
#993=DIRECTION('',(-0.997016301949311,0.0771912796067017,0.));
#994=DIRECTION('center_axis',(0.,0.,1.));
#995=DIRECTION('ref_axis',(1.,0.,0.));
#996=DIRECTION('center_axis',(0.,0.,-1.));
#997=DIRECTION('ref_axis',(-0.990810350529955,-0.135258453646002,0.));
#998=DIRECTION('',(0.784909291244369,-0.619610687866392,0.));
#999=DIRECTION('center_axis',(0.,0.,-1.));
#1000=DIRECTION('ref_axis',(0.133992130591362,-0.990982395877741,0.));
#1001=DIRECTION('center_axis',(0.,0.,-1.));
#1002=DIRECTION('ref_axis',(0.770682236016903,0.63721965685938,0.));
#1003=DIRECTION('center_axis',(0.,0.,-1.));
#1004=DIRECTION('ref_axis',(-1.,0.,0.));
#1005=DIRECTION('center_axis',(0.,0.,-1.));
#1006=DIRECTION('ref_axis',(-1.,0.,0.));
#1007=DIRECTION('center_axis',(0.,0.,1.));
#1008=DIRECTION('ref_axis',(0.770682236016903,0.63721965685938,0.));
#1009=DIRECTION('center_axis',(0.,0.,-1.));
#1010=DIRECTION('ref_axis',(0.770682236016903,0.63721965685938,0.));
#1011=DIRECTION('center_axis',(0.,0.,-1.));
#1012=DIRECTION('ref_axis',(0.133992130591362,-0.990982395877741,0.));
#1013=DIRECTION('',(0.,0.,-1.));
#1014=DIRECTION('center_axis',(0.,0.,-1.));
#1015=DIRECTION('ref_axis',(0.133992130591362,-0.990982395877741,0.));
#1016=DIRECTION('center_axis',(0.619610687866392,0.784909291244369,0.));
#1017=DIRECTION('ref_axis',(0.784909291244369,-0.619610687866392,0.));
#1018=DIRECTION('',(0.,0.,1.));
#1019=DIRECTION('',(0.784909291244369,-0.619610687866392,0.));
#1020=DIRECTION('center_axis',(0.,0.,1.));
#1021=DIRECTION('ref_axis',(-0.990810350529955,-0.135258453646002,0.));
#1022=DIRECTION('center_axis',(0.,0.,-1.));
#1023=DIRECTION('ref_axis',(-0.990810350529955,-0.135258453646002,0.));
#1024=DIRECTION('center_axis',(0.,0.,-1.));
#1025=DIRECTION('ref_axis',(0.147609418439367,0.989045731798076,0.));
#1026=DIRECTION('center_axis',(0.,0.,-1.));
#1027=DIRECTION('ref_axis',(0.147609418439367,0.989045731798076,0.));
#1028=DIRECTION('',(0.,0.,-1.));
#1029=DIRECTION('center_axis',(0.,0.,-1.));
#1030=DIRECTION('ref_axis',(0.147609418439367,0.989045731798076,0.));
#1031=DIRECTION('center_axis',(-0.792578553439086,-0.609769822661311,0.));
#1032=DIRECTION('ref_axis',(-0.609769822661311,0.792578553439086,0.));
#1033=DIRECTION('',(-0.609769822661311,0.792578553439086,0.));
#1034=DIRECTION('',(0.,0.,1.));
#1035=DIRECTION('',(-0.609769822661311,0.792578553439086,0.));
#1036=DIRECTION('center_axis',(0.,0.,1.));
#1037=DIRECTION('ref_axis',(1.,0.,0.));
#1038=DIRECTION('center_axis',(0.,0.,1.));
#1039=DIRECTION('ref_axis',(-0.536785827054265,0.843718540671988,0.));
#1040=DIRECTION('center_axis',(0.,0.,-1.));
#1041=DIRECTION('ref_axis',(0.989233562583521,-0.146345340405204,0.));
#1042=DIRECTION('center_axis',(0.,0.,-1.));
#1043=DIRECTION('ref_axis',(-1.,0.,0.));
#1044=DIRECTION('center_axis',(0.,0.,1.));
#1045=DIRECTION('ref_axis',(0.989233562583521,-0.146345340405204,0.));
#1046=DIRECTION('center_axis',(0.,0.,-1.));
#1047=DIRECTION('ref_axis',(0.989233562583521,-0.146345340405204,0.));
#1048=DIRECTION('center_axis',(0.,0.,1.));
#1049=DIRECTION('ref_axis',(0.0421405812084579,0.99911169116141,0.));
#1050=DIRECTION('center_axis',(0.,0.,-1.));
#1051=DIRECTION('ref_axis',(0.0421405812084579,0.99911169116141,0.));
#1052=DIRECTION('',(0.,0.,1.));
#1053=DIRECTION('center_axis',(0.68927645798139,-0.724498422684708,0.));
#1054=DIRECTION('ref_axis',(-0.724498422684708,-0.68927645798139,0.));
#1055=DIRECTION('',(-0.724498422684708,-0.68927645798139,0.));
#1056=DIRECTION('center_axis',(0.,0.,-1.));
#1057=DIRECTION('ref_axis',(0.97154769912425,0.236843974646549,0.));
#1058=DIRECTION('center_axis',(0.,0.,-1.));
#1059=DIRECTION('ref_axis',(0.97154769912425,0.236843974646549,0.));
#1060=DIRECTION('',(0.,0.,-1.));
#1061=DIRECTION('center_axis',(0.,0.,-1.));
#1062=DIRECTION('ref_axis',(0.97154769912425,0.236843974646549,0.));
#1063=DIRECTION('center_axis',(-0.845376429047405,0.534171033669046,0.));
#1064=DIRECTION('ref_axis',(0.534171033669046,0.845376429047405,0.));
#1065=DIRECTION('',(0.534171033669046,0.845376429047405,0.));
#1066=DIRECTION('',(0.,0.,1.));
#1067=DIRECTION('',(0.534171033669046,0.845376429047405,0.));
#1068=DIRECTION('center_axis',(0.,0.,1.));
#1069=DIRECTION('ref_axis',(1.,0.,0.));
#1070=DIRECTION('center_axis',(0.,0.,1.));
#1071=DIRECTION('ref_axis',(0.462288776338759,0.886729432956419,0.));
#1072=DIRECTION('center_axis',(0.,0.,-1.));
#1073=DIRECTION('ref_axis',(0.238085377015182,-0.971244229455979,0.));
#1074=DIRECTION('center_axis',(0.,0.,-1.));
#1075=DIRECTION('ref_axis',(-1.,0.,0.));
#1076=DIRECTION('center_axis',(0.,0.,1.));
#1077=DIRECTION('ref_axis',(0.238085377015182,-0.971244229455979,0.));
#1078=DIRECTION('center_axis',(0.,0.,-1.));
#1079=DIRECTION('ref_axis',(0.238085377015182,-0.971244229455979,0.));
#1080=DIRECTION('center_axis',(0.,0.,-1.));
#1081=DIRECTION('ref_axis',(1.,0.,0.));
#1082=DIRECTION('center_axis',(0.,0.,-1.));
#1083=DIRECTION('ref_axis',(1.,0.,0.));
#1084=DIRECTION('',(0.,0.,-1.));
#1085=DIRECTION('center_axis',(0.,0.,1.));
#1086=DIRECTION('ref_axis',(1.,0.,0.));
#1087=DIRECTION('center_axis',(0.,0.,-1.));
#1088=DIRECTION('ref_axis',(1.,0.,0.));
#1089=DIRECTION('center_axis',(0.,0.,-1.));
#1090=DIRECTION('ref_axis',(1.,0.,0.));
#1091=DIRECTION('',(0.,0.,-1.));
#1092=DIRECTION('center_axis',(0.,0.,1.));
#1093=DIRECTION('ref_axis',(1.,0.,0.));
#1094=DIRECTION('center_axis',(0.,0.,-1.));
#1095=DIRECTION('ref_axis',(1.,0.,0.));
#1096=DIRECTION('center_axis',(0.,0.,-1.));
#1097=DIRECTION('ref_axis',(1.,0.,0.));
#1098=DIRECTION('',(0.,0.,-1.));
#1099=DIRECTION('center_axis',(0.,0.,1.));
#1100=DIRECTION('ref_axis',(1.,0.,0.));
#1101=DIRECTION('center_axis',(0.,0.,1.));
#1102=DIRECTION('ref_axis',(1.,0.,0.));
#1103=DIRECTION('center_axis',(-0.168700802978914,0.985667306485444,0.));
#1104=DIRECTION('ref_axis',(0.985667306485444,0.168700802978914,0.));
#1105=DIRECTION('',(0.985667306485444,0.168700802978914,0.));
#1106=DIRECTION('center_axis',(0.,0.,1.));
#1107=DIRECTION('ref_axis',(1.,0.,0.));
#1108=DIRECTION('center_axis',(0.,0.,1.));
#1109=DIRECTION('ref_axis',(1.,0.,0.));
#1110=DIRECTION('center_axis',(0.,0.,1.));
#1111=DIRECTION('ref_axis',(-1.,0.,0.));
#1112=DIRECTION('',(0.,0.,-1.));
#1113=DIRECTION('center_axis',(0.,0.,-1.));
#1114=DIRECTION('ref_axis',(-1.,0.,0.));
#1115=DIRECTION('center_axis',(0.,0.,1.));
#1116=DIRECTION('ref_axis',(-1.,0.,0.));
#1117=DIRECTION('',(0.,0.,-1.));
#1118=DIRECTION('center_axis',(0.,0.,-1.));
#1119=DIRECTION('ref_axis',(-1.,0.,0.));
#1120=DIRECTION('center_axis',(0.,0.,1.));
#1121=DIRECTION('ref_axis',(-1.,0.,0.));
#1122=DIRECTION('',(0.,0.,-1.));
#1123=DIRECTION('center_axis',(0.,0.,-1.));
#1124=DIRECTION('ref_axis',(-1.,0.,0.));
#1125=DIRECTION('center_axis',(0.,0.,1.));
#1126=DIRECTION('ref_axis',(-1.,0.,0.));
#1127=DIRECTION('',(0.,0.,-1.));
#1128=DIRECTION('center_axis',(0.,0.,-1.));
#1129=DIRECTION('ref_axis',(-1.,0.,0.));
#1130=DIRECTION('center_axis',(0.,0.,1.));
#1131=DIRECTION('ref_axis',(-1.,0.,0.));
#1132=DIRECTION('',(0.,0.,-1.));
#1133=DIRECTION('center_axis',(0.,0.,-1.));
#1134=DIRECTION('ref_axis',(-1.,0.,0.));
#1135=DIRECTION('center_axis',(0.,0.,1.));
#1136=DIRECTION('ref_axis',(-1.,0.,0.));
#1137=DIRECTION('',(0.,0.,-1.));
#1138=DIRECTION('center_axis',(0.,0.,-1.));
#1139=DIRECTION('ref_axis',(-1.,0.,0.));
#1140=DIRECTION('center_axis',(0.,0.,1.));
#1141=DIRECTION('ref_axis',(-0.536785827054265,0.843718540671988,0.));
#1142=DIRECTION('center_axis',(0.,0.,1.));
#1143=DIRECTION('ref_axis',(-0.536785827054265,0.843718540671988,0.));
#1144=DIRECTION('center_axis',(0.,0.,1.));
#1145=DIRECTION('ref_axis',(0.462288776338759,0.886729432956419,0.));
#1146=DIRECTION('center_axis',(0.,0.,1.));
#1147=DIRECTION('ref_axis',(0.462288776338759,0.886729432956419,0.));
#1148=DIRECTION('center_axis',(0.,0.,1.));
#1149=DIRECTION('ref_axis',(1.,0.,0.));
#1150=CARTESIAN_POINT('',(0.,0.,0.));
#1151=CARTESIAN_POINT('Origin',(2.02966407860132,2.23414964794955,6.99353086378051E-16));
#1152=CARTESIAN_POINT('',(1.9359728164309,2.15140336469216,0.350000000000001));
#1153=CARTESIAN_POINT('',(1.94350452135365,2.32471195078514,0.350000000000001));
#1154=CARTESIAN_POINT('Origin',(2.02966407860132,2.23414964794955,0.350000000000001));
#1155=CARTESIAN_POINT('',(1.94350452135365,2.32471195078514,0.200000000000001));
#1156=CARTESIAN_POINT('',(1.94350452135365,2.32471195078514,6.99353086378051E-16));
#1157=CARTESIAN_POINT('',(1.9359728164309,2.15140336469216,0.200000000000001));
#1158=CARTESIAN_POINT('Origin',(2.02966407860132,2.23414964794955,0.200000000000001));
#1159=CARTESIAN_POINT('',(1.9359728164309,2.15140336469216,6.99353086378051E-16));
#1160=CARTESIAN_POINT('Origin',(2.05900535859273,0.0752690614976272,0.350000000000001));
#1161=CARTESIAN_POINT('',(2.68091428175037,0.666546571633039,0.350000000000001));
#1162=CARTESIAN_POINT('Origin',(-0.500000000000103,-1.27282261720805E-13,
0.350000000000001));
#1163=CARTESIAN_POINT('',(2.82434473911314,0.568974564923634,0.350000000000001));
#1164=CARTESIAN_POINT('Origin',(2.80325713874077,0.692182978234314,0.350000000000001));
#1165=CARTESIAN_POINT('',(3.07091907117049,0.611176723337903,0.350000000000001));
#1166=CARTESIAN_POINT('',(2.3510554337143,0.487969254778151,0.350000000000001));
#1167=CARTESIAN_POINT('',(3.17223945254979,0.759708762050263,0.350000000000001));
#1168=CARTESIAN_POINT('Origin',(3.04983147079813,0.734385136648583,0.350000000000001));
#1169=CARTESIAN_POINT('',(2.30438392003477,2.48956438539944,0.350000000000001));
#1170=CARTESIAN_POINT('Origin',(-0.500000000000103,-1.27282261720805E-13,
0.350000000000001));
#1171=CARTESIAN_POINT('',(2.12474489878594,2.49714120872171,0.350000000000001));
#1172=CARTESIAN_POINT('Origin',(2.21090445603361,2.40657890588612,0.350000000000001));
#1173=CARTESIAN_POINT('',(1.54883681535715,1.9492312734624,0.350000000000001));
#1174=CARTESIAN_POINT('',(2.9790498562357,0.874266018982725,0.350000000000001));
#1175=CARTESIAN_POINT('Origin',(2.8890498562357,0.874266018982725,0.350000000000001));
#1176=CARTESIAN_POINT('',(2.33045507617211,2.1771325121548,0.350000000000001));
#1177=CARTESIAN_POINT('Origin',(2.24045507617211,2.1771325121548,0.350000000000001));
#1178=CARTESIAN_POINT('Origin',(-0.500000000000103,-1.27282261720805E-13,
6.99353086378051E-16));
#1179=CARTESIAN_POINT('',(1.13310646647426,2.8098867004132,0.200000000000001));
#1180=CARTESIAN_POINT('Origin',(-0.500000000000103,-1.27282261720805E-13,
0.200000000000001));
#1181=CARTESIAN_POINT('',(1.13310646647426,2.8098867004132,0.350000000000001));
#1182=CARTESIAN_POINT('',(1.13310646647426,2.8098867004132,6.99353086378051E-16));
#1183=CARTESIAN_POINT('',(1.00243852310087,2.88187065710824,0.350000000000001));
#1184=CARTESIAN_POINT('Origin',(-0.500000000000103,-1.27282261720805E-13,
0.350000000000001));
#1185=CARTESIAN_POINT('',(1.00243852310087,2.88187065710824,6.99353086378051E-16));
#1186=CARTESIAN_POINT('',(1.00243852310087,2.88187065710824,6.99353086378051E-16));
#1187=CARTESIAN_POINT('',(1.24455393792626,-2.7420852571841,6.99353086378051E-16));
#1188=CARTESIAN_POINT('Origin',(-0.500000000000103,-1.27282261720805E-13,
6.99353086378051E-16));
#1189=CARTESIAN_POINT('',(1.24455393792626,-2.7420852571841,0.350000000000001));
#1190=CARTESIAN_POINT('',(1.24455393792626,-2.7420852571841,6.99353086378051E-16));
#1191=CARTESIAN_POINT('',(1.38498925689204,-2.64751119004282,0.350000000000001));
#1192=CARTESIAN_POINT('Origin',(-0.500000000000103,-1.27282261720805E-13,
0.350000000000001));
#1193=CARTESIAN_POINT('',(1.38498925689204,-2.64751119004282,0.200000000000001));
#1194=CARTESIAN_POINT('',(1.38498925689204,-2.64751119004282,6.99353086378051E-16));
#1195=CARTESIAN_POINT('',(2.12378773777203,-1.91787327712682,0.200000000000001));
#1196=CARTESIAN_POINT('Origin',(-0.500000000000103,-1.27282261720805E-13,
0.200000000000001));
#1197=CARTESIAN_POINT('',(2.12378773777203,-1.91787327712682,0.350000000000001));
#1198=CARTESIAN_POINT('',(2.12378773777203,-1.91787327712682,6.99353086378051E-16));
#1199=CARTESIAN_POINT('',(2.7287882457178,-0.370710755595385,0.350000000000001));
#1200=CARTESIAN_POINT('Origin',(-0.500000000000103,-1.27282261720805E-13,
0.350000000000001));
#1201=CARTESIAN_POINT('',(2.7287882457178,-0.370710755595385,0.200000000000001));
#1202=CARTESIAN_POINT('',(2.7287882457178,-0.370710755595385,6.99353086378051E-16));
#1203=CARTESIAN_POINT('',(2.68091428175037,0.666546571633039,0.200000000000001));
#1204=CARTESIAN_POINT('Origin',(-0.500000000000103,-1.27282261720805E-13,
0.200000000000001));
#1205=CARTESIAN_POINT('',(2.68091428175037,0.666546571633039,6.99353086378051E-16));
#1206=CARTESIAN_POINT('Origin',(2.80325713874077,0.692182978234314,6.99353086378051E-16));
#1207=CARTESIAN_POINT('',(2.82434473911314,0.568974564923634,0.200000000000001));
#1208=CARTESIAN_POINT('Origin',(2.80325713874077,0.692182978234314,0.200000000000001));
#1209=CARTESIAN_POINT('',(2.82434473911314,0.568974564923634,6.99353086378051E-16));
#1210=CARTESIAN_POINT('Origin',(3.04983147079813,0.734385136648583,6.99353086378051E-16));
#1211=CARTESIAN_POINT('',(3.07091907117049,0.611176723337903,0.200000000000001));
#1212=CARTESIAN_POINT('',(3.07091907117049,0.611176723337903,6.99353086378051E-16));
#1213=CARTESIAN_POINT('',(3.17223945254979,0.759708762050263,0.200000000000001));
#1214=CARTESIAN_POINT('Origin',(3.04983147079813,0.734385136648583,0.200000000000001));
#1215=CARTESIAN_POINT('',(3.17223945254979,0.759708762050263,6.99353086378051E-16));
#1216=CARTESIAN_POINT('Origin',(-0.500000000000103,-1.27282261720805E-13,
6.99353086378051E-16));
#1217=CARTESIAN_POINT('',(3.22660600357836,-0.418219672054226,0.200000000000001));
#1218=CARTESIAN_POINT('Origin',(-0.500000000000103,-1.27282261720805E-13,
0.200000000000001));
#1219=CARTESIAN_POINT('',(3.22660600357836,-0.418219672054225,0.350000000000001));
#1220=CARTESIAN_POINT('',(3.22660600357836,-0.418219672054226,6.99353086378051E-16));
#1221=CARTESIAN_POINT('',(2.52178144696711,-2.2206613624696,0.350000000000001));
#1222=CARTESIAN_POINT('Origin',(-0.500000000000103,-1.27282261720805E-13,
0.350000000000001));
#1223=CARTESIAN_POINT('',(2.52178144696711,-2.22066136246961,0.200000000000001));
#1224=CARTESIAN_POINT('',(2.52178144696711,-2.22066136246961,6.99353086378051E-16));
#1225=CARTESIAN_POINT('',(1.68278834963506,-3.04925155090522,0.200000000000001));
#1226=CARTESIAN_POINT('Origin',(-0.500000000000103,-1.27282261720805E-13,
0.200000000000001));
#1227=CARTESIAN_POINT('',(1.68278834963506,-3.04925155090522,0.350000000000001));
#1228=CARTESIAN_POINT('',(1.68278834963506,-3.04925155090522,6.99353086378051E-16));
#1229=CARTESIAN_POINT('',(1.5129468514534,-3.16394452752009,0.350000000000001));
#1230=CARTESIAN_POINT('Origin',(-0.500000000000103,-1.27282261720805E-13,
0.350000000000001));
#1231=CARTESIAN_POINT('',(1.5129468514534,-3.16394452752009,6.99353086378051E-16));
#1232=CARTESIAN_POINT('',(1.5129468514534,-3.16394452752009,6.99353086378051E-16));
#1233=CARTESIAN_POINT('',(1.23358291127025,3.32523537358645,6.99353086378051E-16));
#1234=CARTESIAN_POINT('Origin',(-0.500000000000103,-1.27282261720805E-13,
6.99353086378051E-16));
#1235=CARTESIAN_POINT('',(1.23358291127025,3.32523537358645,0.350000000000001));
#1236=CARTESIAN_POINT('',(1.23358291127025,3.32523537358645,6.99353086378051E-16));
#1237=CARTESIAN_POINT('',(1.39263417619194,3.23735013168318,0.350000000000001));
#1238=CARTESIAN_POINT('Origin',(-0.500000000000103,-1.27282261720805E-13,
0.350000000000001));
#1239=CARTESIAN_POINT('',(1.39263417619194,3.23735013168318,0.200000000000001));
#1240=CARTESIAN_POINT('',(1.39263417619194,3.23735013168318,6.99353086378051E-16));
#1241=CARTESIAN_POINT('',(2.30438392003477,2.48956438539944,0.200000000000001));
#1242=CARTESIAN_POINT('Origin',(-0.500000000000103,-1.27282261720805E-13,
0.200000000000001));
#1243=CARTESIAN_POINT('',(2.30438392003477,2.48956438539944,6.99353086378051E-16));
#1244=CARTESIAN_POINT('Origin',(2.85297240901464,-0.384968861579818,6.99353086378051E-16));
#1245=CARTESIAN_POINT('',(2.86262131896547,-0.260341823836154,0.350000000000001));
#1246=CARTESIAN_POINT('Origin',(2.85297240901464,-0.384968861579818,0.350000000000001));
#1247=CARTESIAN_POINT('',(2.86262131896547,-0.260341823836154,0.200000000000001));
#1248=CARTESIAN_POINT('',(2.86262131896547,-0.260341823836154,6.99353086378051E-16));
#1249=CARTESIAN_POINT('Origin',(2.85297240901464,-0.384968861579818,0.200000000000001));
#1250=CARTESIAN_POINT('Origin',(3.23881113230982,-0.289467298525266,0.350000000000001));
#1251=CARTESIAN_POINT('',(3.11203471340992,-0.279651978575425,0.350000000000001));
#1252=CARTESIAN_POINT('',(2.63838794709372,-0.242981163963828,0.350000000000001));
#1253=CARTESIAN_POINT('',(3.11203471340992,-0.279651978575425,0.200000000000001));
#1254=CARTESIAN_POINT('',(3.11203471340992,-0.279651978575425,6.99353086378051E-16));
#1255=CARTESIAN_POINT('',(2.74030298133517,-0.250871658721915,0.200000000000001));
#1256=CARTESIAN_POINT('Origin',(2.05900535859273,0.0752690614976272,0.350000000000001));
#1257=CARTESIAN_POINT('',(2.14725131477997,-2.08975129534493,0.350000000000001));
#1258=CARTESIAN_POINT('Origin',(2.22470265076326,-1.99163763393938,0.350000000000001));
#1259=CARTESIAN_POINT('',(2.34360406275157,-2.2447529784595,0.350000000000001));
#1260=CARTESIAN_POINT('',(1.54545382044865,-1.6146898282705,0.350000000000001));
#1261=CARTESIAN_POINT('Origin',(2.42105539873487,-2.14663931705396,0.350000000000001));
#1262=CARTESIAN_POINT('Origin',(3.10238580345908,-0.404279016319089,0.350000000000001));
#1263=CARTESIAN_POINT('',(3.04164712760475,-0.579769011328927,0.350000000000001));
#1264=CARTESIAN_POINT('Origin',(2.95164712760475,-0.579769011328927,0.350000000000001));
#1265=CARTESIAN_POINT('',(2.50742325338118,-1.93355671254571,0.350000000000001));
#1266=CARTESIAN_POINT('Origin',(2.41742325338118,-1.93355671254571,0.350000000000001));
#1267=CARTESIAN_POINT('Origin',(3.10238580345908,-0.404279016319089,6.99353086378051E-16));
#1268=CARTESIAN_POINT('Origin',(3.10238580345908,-0.404279016319089,0.200000000000001));
#1269=CARTESIAN_POINT('Origin',(2.42105539873487,-2.14663931705396,6.99353086378051E-16));
#1270=CARTESIAN_POINT('',(2.34360406275157,-2.2447529784595,0.200000000000001));
#1271=CARTESIAN_POINT('',(2.34360406275157,-2.2447529784595,6.99353086378051E-16));
#1272=CARTESIAN_POINT('Origin',(2.42105539873487,-2.14663931705396,0.200000000000001));
#1273=CARTESIAN_POINT('Origin',(2.0509551965441,-2.01373473556591,0.350000000000001));
#1274=CARTESIAN_POINT('',(2.14725131477997,-2.08975129534493,0.200000000000001));
#1275=CARTESIAN_POINT('',(2.14725131477997,-2.08975129534493,6.99353086378051E-16));
#1276=CARTESIAN_POINT('',(2.44340984216629,-2.3235400794991,0.200000000000001));
#1277=CARTESIAN_POINT('Origin',(2.22470265076326,-1.99163763393938,6.99353086378051E-16));
#1278=CARTESIAN_POINT('Origin',(2.22470265076326,-1.99163763393938,0.200000000000001));
#1279=CARTESIAN_POINT('Origin',(1.45748884369558,-2.749338543506,6.99353086378051E-16));
#1280=CARTESIAN_POINT('',(1.55656116287547,-2.67311731567334,0.350000000000001));
#1281=CARTESIAN_POINT('Origin',(1.45748884369558,-2.749338543506,0.350000000000001));
#1282=CARTESIAN_POINT('',(1.55656116287547,-2.67311731567334,0.200000000000001));
#1283=CARTESIAN_POINT('',(1.55656116287547,-2.67311731567334,6.99353086378051E-16));
#1284=CARTESIAN_POINT('Origin',(1.45748884369558,-2.749338543506,0.200000000000001));
#1285=CARTESIAN_POINT('Origin',(1.78663683497981,-2.97216957539671,0.350000000000001));
#1286=CARTESIAN_POINT('',(1.70910105716044,-2.87138860470905,0.350000000000001));
#1287=CARTESIAN_POINT('',(1.10087371639002,-2.08081496856884,0.350000000000001));
#1288=CARTESIAN_POINT('',(1.70910105716044,-2.87138860470905,0.200000000000001));
#1289=CARTESIAN_POINT('',(1.70910105716044,-2.87138860470905,6.99353086378051E-16));
#1290=CARTESIAN_POINT('',(1.48175192364916,-2.57588029867717,0.200000000000001));
#1291=CARTESIAN_POINT('Origin',(2.05900535859273,0.0752690614976272,0.350000000000001));
#1292=CARTESIAN_POINT('Origin',(1.37875039468983,-2.95301489235209,0.350000000000001));
#1293=CARTESIAN_POINT('Origin',(1.61002873798055,-2.94760983254171,0.350000000000001));
#1294=CARTESIAN_POINT('',(1.46875039468983,-2.95301489235209,0.350000000000001));
#1295=CARTESIAN_POINT('Origin',(1.37875039468983,-2.95301489235209,0.350000000000001));
#1296=CARTESIAN_POINT('Origin',(1.61002873798055,-2.94760983254171,6.99353086378051E-16));
#1297=CARTESIAN_POINT('Origin',(1.61002873798055,-2.94760983254171,0.200000000000001));
#1298=CARTESIAN_POINT('Origin',(2.21090445603361,2.40657890588612,6.99353086378051E-16));
#1299=CARTESIAN_POINT('',(2.12474489878594,2.49714120872171,0.200000000000001));
#1300=CARTESIAN_POINT('Origin',(2.21090445603361,2.40657890588612,0.200000000000001));
#1301=CARTESIAN_POINT('',(2.12474489878594,2.49714120872171,6.99353086378051E-16));
#1302=CARTESIAN_POINT('Origin',(2.21686908506756,2.58478671743009,0.350000000000001));
#1303=CARTESIAN_POINT('',(1.85461987372521,2.24014848843939,0.200000000000001));
#1304=CARTESIAN_POINT('Origin',(1.32954637031888,3.12943846062707,6.99353086378051E-16));
#1305=CARTESIAN_POINT('',(1.4352184239498,3.06266708141844,0.350000000000001));
#1306=CARTESIAN_POINT('Origin',(1.32954637031888,3.12943846062707,0.350000000000001));
#1307=CARTESIAN_POINT('',(1.4352184239498,3.06266708141844,0.200000000000001));
#1308=CARTESIAN_POINT('',(1.4352184239498,3.06266708141844,6.99353086378051E-16));
#1309=CARTESIAN_POINT('Origin',(1.32954637031888,3.12943846062707,0.200000000000001));
#1310=CARTESIAN_POINT('Origin',(1.2360558594243,2.74747339440395,0.350000000000001));
#1311=CARTESIAN_POINT('',(1.30159030727728,2.85118788660508,0.350000000000001));
#1312=CARTESIAN_POINT('',(0.750114388021746,1.97842483143965,0.350000000000001));
#1313=CARTESIAN_POINT('',(1.30159030727728,2.85118788660508,0.200000000000001));
#1314=CARTESIAN_POINT('',(1.30159030727728,2.85118788660508,6.99353086378051E-16));
#1315=CARTESIAN_POINT('',(1.50314137625883,3.17016160892765,0.200000000000001));
#1316=CARTESIAN_POINT('Origin',(2.05900535859273,0.0752690614976272,0.350000000000001));
#1317=CARTESIAN_POINT('Origin',(1.11801071718556,3.10355301534735,0.350000000000001));
#1318=CARTESIAN_POINT('Origin',(1.19591825364635,2.91795926581371,0.350000000000001));
#1319=CARTESIAN_POINT('',(1.20801071718556,3.10355301534735,0.350000000000001));
#1320=CARTESIAN_POINT('Origin',(1.11801071718556,3.10355301534735,0.350000000000001));
#1321=CARTESIAN_POINT('Origin',(1.19591825364635,2.91795926581371,6.99353086378051E-16));
#1322=CARTESIAN_POINT('Origin',(1.19591825364635,2.91795926581371,0.200000000000001));
#1323=CARTESIAN_POINT('Origin',(1.94555678433895,-2.50384744235226,0.200000000000001));
#1324=CARTESIAN_POINT('',(1.85555678433895,-2.50384744235226,0.200000000000001));
#1325=CARTESIAN_POINT('Origin',(1.94555678433895,-2.50384744235226,0.200000000000001));
#1326=CARTESIAN_POINT('',(1.85555678433895,-2.50384744235226,6.99353086378051E-16));
#1327=CARTESIAN_POINT('',(1.85555678433895,-2.50384744235226,0.200000000000001));
#1328=CARTESIAN_POINT('Origin',(1.94555678433895,-2.50384744235226,6.99353086378051E-16));
#1329=CARTESIAN_POINT('Origin',(2.9971181645585,0.142001912361413,0.200000000000001));
#1330=CARTESIAN_POINT('',(2.9071181645585,0.142001912361413,0.200000000000001));
#1331=CARTESIAN_POINT('Origin',(2.9971181645585,0.142001912361413,0.200000000000001));
#1332=CARTESIAN_POINT('',(2.9071181645585,0.142001912361413,6.99353086378051E-16));
#1333=CARTESIAN_POINT('',(2.9071181645585,0.142001912361413,0.200000000000001));
#1334=CARTESIAN_POINT('Origin',(2.9971181645585,0.142001912361413,6.99353086378051E-16));
#1335=CARTESIAN_POINT('Origin',(1.70452403049745,2.71846901747255,0.200000000000001));
#1336=CARTESIAN_POINT('',(1.61452403049745,2.71846901747255,0.200000000000001));
#1337=CARTESIAN_POINT('Origin',(1.70452403049745,2.71846901747255,0.200000000000001));
#1338=CARTESIAN_POINT('',(1.61452403049745,2.71846901747255,6.99353086378051E-16));
#1339=CARTESIAN_POINT('',(1.61452403049745,2.71846901747255,0.200000000000001));
#1340=CARTESIAN_POINT('Origin',(1.70452403049745,2.71846901747255,6.99353086378051E-16));
#1341=CARTESIAN_POINT('Origin',(1.96258088290772,-2.49295215548131,0.200000000000001));
#1342=CARTESIAN_POINT('Origin',(2.7034187460776,0.548277609681344,0.350000000000001));
#1343=CARTESIAN_POINT('',(3.19625239932032,0.632628011170801,0.200000000000001));
#1344=CARTESIAN_POINT('Origin',(2.97670937303875,0.171580356322767,0.200000000000001));
#1345=CARTESIAN_POINT('Origin',(1.72646247224593,2.70515504868352,0.200000000000001));
#1346=CARTESIAN_POINT('Origin',(1.11801071718556,3.10355301534735,6.99353086378051E-16));
#1347=CARTESIAN_POINT('',(1.20801071718556,3.10355301534735,6.99353086378051E-16));
#1348=CARTESIAN_POINT('',(1.20801071718556,3.10355301534735,6.99353086378051E-16));
#1349=CARTESIAN_POINT('Origin',(1.11801071718556,3.10355301534735,6.99353086378051E-16));
#1350=CARTESIAN_POINT('Origin',(2.24045507617211,2.1771325121548,6.99353086378051E-16));
#1351=CARTESIAN_POINT('',(2.33045507617211,2.1771325121548,6.99353086378051E-16));
#1352=CARTESIAN_POINT('',(2.33045507617211,2.1771325121548,6.99353086378051E-16));
#1353=CARTESIAN_POINT('Origin',(2.24045507617211,2.1771325121548,6.99353086378051E-16));
#1354=CARTESIAN_POINT('Origin',(2.8890498562357,0.874266018982725,6.99353086378051E-16));
#1355=CARTESIAN_POINT('',(2.9790498562357,0.874266018982725,6.99353086378051E-16));
#1356=CARTESIAN_POINT('',(2.9790498562357,0.874266018982725,6.99353086378051E-16));
#1357=CARTESIAN_POINT('Origin',(2.8890498562357,0.874266018982725,6.99353086378051E-16));
#1358=CARTESIAN_POINT('Origin',(2.95164712760475,-0.579769011328927,6.99353086378051E-16));
#1359=CARTESIAN_POINT('',(3.04164712760475,-0.579769011328927,6.99353086378051E-16));
#1360=CARTESIAN_POINT('',(3.04164712760475,-0.579769011328927,6.99353086378051E-16));
#1361=CARTESIAN_POINT('Origin',(2.95164712760475,-0.579769011328927,6.99353086378051E-16));
#1362=CARTESIAN_POINT('Origin',(2.41742325338118,-1.93355671254571,6.99353086378051E-16));
#1363=CARTESIAN_POINT('',(2.50742325338118,-1.93355671254571,6.99353086378051E-16));
#1364=CARTESIAN_POINT('',(2.50742325338118,-1.93355671254571,6.99353086378051E-16));
#1365=CARTESIAN_POINT('Origin',(2.41742325338118,-1.93355671254571,6.99353086378051E-16));
#1366=CARTESIAN_POINT('Origin',(1.37875039468983,-2.95301489235209,6.99353086378051E-16));
#1367=CARTESIAN_POINT('',(1.46875039468983,-2.95301489235209,6.99353086378051E-16));
#1368=CARTESIAN_POINT('',(1.46875039468983,-2.95301489235209,6.99353086378051E-16));
#1369=CARTESIAN_POINT('Origin',(1.37875039468983,-2.95301489235209,6.99353086378051E-16));
#1370=CARTESIAN_POINT('Origin',(1.37875039468983,-2.95301489235209,6.99353086378051E-16));
#1371=CARTESIAN_POINT('Origin',(1.37875039468983,-2.95301489235209,6.99353086378051E-16));
#1372=CARTESIAN_POINT('Origin',(1.11801071718556,3.10355301534735,6.99353086378051E-16));
#1373=CARTESIAN_POINT('Origin',(1.11801071718556,3.10355301534735,6.99353086378051E-16));
#1374=CARTESIAN_POINT('Origin',(2.05900535859273,0.0752690614976272,6.99353086378051E-16));
#1375=UNCERTAINTY_MEASURE_WITH_UNIT(LENGTH_MEASURE(0.000393700787401575),
#1381,'DISTANCE_ACCURACY_VALUE',
'Maximum model space distance between geometric entities at asserted c
onnectivities');
#1376=UNCERTAINTY_MEASURE_WITH_UNIT(LENGTH_MEASURE(0.000393700787401575),
#1381,'DISTANCE_ACCURACY_VALUE',
'Maximum model space distance between geometric entities at asserted c
onnectivities');
#1377=(
GEOMETRIC_REPRESENTATION_CONTEXT(3)
GLOBAL_UNCERTAINTY_ASSIGNED_CONTEXT((#1375))
GLOBAL_UNIT_ASSIGNED_CONTEXT((#1381,#1385,#1386))
REPRESENTATION_CONTEXT('','3D')
);
#1378=(
GEOMETRIC_REPRESENTATION_CONTEXT(3)
GLOBAL_UNCERTAINTY_ASSIGNED_CONTEXT((#1376))
GLOBAL_UNIT_ASSIGNED_CONTEXT((#1381,#1385,#1386))
REPRESENTATION_CONTEXT('','3D')
);
#1379=DIMENSIONAL_EXPONENTS(1.,0.,0.,0.,0.,0.,0.);
#1380=DIMENSIONAL_EXPONENTS(0.,1.,0.,0.,0.,0.,0.);
#1381=(
CONVERSION_BASED_UNIT('inch',#1384)
LENGTH_UNIT()
NAMED_UNIT(#1379)
);
#1382=(
LENGTH_UNIT()
NAMED_UNIT(*)
SI_UNIT(.MILLI.,.METRE.)
);
#1383=(
LENGTH_UNIT()
NAMED_UNIT(*)
SI_UNIT(.CENTI.,.METRE.)
);
#1384=LENGTH_MEASURE_WITH_UNIT(LENGTH_MEASURE(25.4),#1382);
#1385=(
NAMED_UNIT(*)
PLANE_ANGLE_UNIT()
SI_UNIT($,.RADIAN.)
);
#1386=(
NAMED_UNIT(*)
SI_UNIT($,.STERADIAN.)
SOLID_ANGLE_UNIT()
);
#1387=SHAPE_DEFINITION_REPRESENTATION(#1388,#1389);
#1388=PRODUCT_DEFINITION_SHAPE('',$,#1391);
#1389=SHAPE_REPRESENTATION('',(#795),#1377);
#1390=PRODUCT_DEFINITION_CONTEXT('part definition',#1395,'design');
#1391=PRODUCT_DEFINITION('Robert','Robert',#1392,#1390);
#1392=PRODUCT_DEFINITION_FORMATION('',$,#1397);
#1393=PRODUCT_RELATED_PRODUCT_CATEGORY('Robert','Robert',(#1397));
#1394=APPLICATION_PROTOCOL_DEFINITION('international standard',
'automotive_design',2009,#1395);
#1395=APPLICATION_CONTEXT(
'Core Data for Automotive Mechanical Design Process');
#1396=PRODUCT_CONTEXT('part definition',#1395,'mechanical');
#1397=PRODUCT('Robert','Robert',$,(#1396));
#1398=PRESENTATION_STYLE_ASSIGNMENT((#1399));
#1399=SURFACE_STYLE_USAGE(.BOTH.,#1402);
#1400=SURFACE_STYLE_RENDERING_WITH_PROPERTIES($,#1406,(#1401));
#1401=SURFACE_STYLE_TRANSPARENT(0.);
#1402=SURFACE_SIDE_STYLE('',(#1403,#1400));
#1403=SURFACE_STYLE_FILL_AREA(#1404);
#1404=FILL_AREA_STYLE('',(#1405));
#1405=FILL_AREA_STYLE_COLOUR('',#1406);
#1406=COLOUR_RGB('',0.0196078431372549,0.0196078431372549,0.0196078431372549);
ENDSEC;
END-ISO-10303-21;
