ISO-10303-21;
HEADER;
/* Generated by software containing ST-Developer
 * from STEP Tools, Inc. (www.steptools.com) 
 */

FILE_DESCRIPTION(
/* description */ (''),
/* implementation_level */ '2;1');

FILE_NAME(
/* name */ 'Stage2.stp',
/* time_stamp */ '2025-10-04T18:28:46-04:00',
/* author */ ('Teddy'),
/* organization */ (''),
/* preprocessor_version */ 'ST-DEVELOPER v20.1',
/* originating_system */ 'Autodesk Inventor 2026',
/* authorisation */ '');

FILE_SCHEMA (('AUTOMOTIVE_DESIGN { 1 0 10303 214 3 1 1 }'));
ENDSEC;

DATA;
#10=MECHANICAL_DESIGN_GEOMETRIC_PRESENTATION_REPRESENTATION('',(#13),#779);
#11=SHAPE_REPRESENTATION_RELATIONSHIP('SRR','None',#790,#12);
#12=ADVANCED_BREP_SHAPE_REPRESENTATION('',(#14),#778);
#13=STYLED_ITEM('',(#799),#14);
#14=MANIFOLD_SOLID_BREP('Solid1',#447);
#15=FACE_BOUND('',#82,.T.);
#16=FACE_BOUND('',#83,.T.);
#17=FACE_BOUND('',#84,.T.);
#18=FACE_BOUND('',#85,.T.);
#19=FACE_BOUND('',#86,.T.);
#20=FACE_BOUND('',#87,.T.);
#21=FACE_BOUND('',#88,.T.);
#22=FACE_BOUND('',#89,.T.);
#23=FACE_BOUND('',#91,.T.);
#24=FACE_BOUND('',#92,.T.);
#25=FACE_BOUND('',#93,.T.);
#26=FACE_BOUND('',#94,.T.);
#27=FACE_BOUND('',#95,.T.);
#28=FACE_BOUND('',#96,.T.);
#29=FACE_BOUND('',#97,.T.);
#30=FACE_BOUND('',#98,.T.);
#31=PLANE('',#493);
#32=PLANE('',#497);
#33=PLANE('',#501);
#34=PLANE('',#505);
#35=PLANE('',#509);
#36=PLANE('',#513);
#37=PLANE('',#517);
#38=PLANE('',#518);
#39=FACE_OUTER_BOUND('',#61,.T.);
#40=FACE_OUTER_BOUND('',#62,.T.);
#41=FACE_OUTER_BOUND('',#63,.T.);
#42=FACE_OUTER_BOUND('',#64,.T.);
#43=FACE_OUTER_BOUND('',#65,.T.);
#44=FACE_OUTER_BOUND('',#66,.T.);
#45=FACE_OUTER_BOUND('',#67,.T.);
#46=FACE_OUTER_BOUND('',#68,.T.);
#47=FACE_OUTER_BOUND('',#69,.T.);
#48=FACE_OUTER_BOUND('',#70,.T.);
#49=FACE_OUTER_BOUND('',#71,.T.);
#50=FACE_OUTER_BOUND('',#72,.T.);
#51=FACE_OUTER_BOUND('',#73,.T.);
#52=FACE_OUTER_BOUND('',#74,.T.);
#53=FACE_OUTER_BOUND('',#75,.T.);
#54=FACE_OUTER_BOUND('',#76,.T.);
#55=FACE_OUTER_BOUND('',#77,.T.);
#56=FACE_OUTER_BOUND('',#78,.T.);
#57=FACE_OUTER_BOUND('',#79,.T.);
#58=FACE_OUTER_BOUND('',#80,.T.);
#59=FACE_OUTER_BOUND('',#81,.T.);
#60=FACE_OUTER_BOUND('',#90,.T.);
#61=EDGE_LOOP('',(#291,#292,#293,#294));
#62=EDGE_LOOP('',(#295,#296,#297,#298));
#63=EDGE_LOOP('',(#299,#300,#301,#302));
#64=EDGE_LOOP('',(#303,#304,#305,#306));
#65=EDGE_LOOP('',(#307,#308,#309,#310));
#66=EDGE_LOOP('',(#311,#312,#313,#314));
#67=EDGE_LOOP('',(#315,#316,#317,#318));
#68=EDGE_LOOP('',(#319,#320,#321,#322));
#69=EDGE_LOOP('',(#323,#324,#325,#326));
#70=EDGE_LOOP('',(#327,#328,#329,#330));
#71=EDGE_LOOP('',(#331,#332,#333,#334));
#72=EDGE_LOOP('',(#335,#336,#337,#338));
#73=EDGE_LOOP('',(#339,#340,#341,#342));
#74=EDGE_LOOP('',(#343,#344,#345,#346));
#75=EDGE_LOOP('',(#347,#348,#349,#350));
#76=EDGE_LOOP('',(#351,#352,#353,#354));
#77=EDGE_LOOP('',(#355,#356,#357,#358));
#78=EDGE_LOOP('',(#359,#360,#361,#362));
#79=EDGE_LOOP('',(#363,#364,#365,#366));
#80=EDGE_LOOP('',(#367,#368,#369,#370));
#81=EDGE_LOOP('',(#371,#372,#373,#374,#375,#376,#377,#378,#379,#380,#381,
#382));
#82=EDGE_LOOP('',(#383));
#83=EDGE_LOOP('',(#384));
#84=EDGE_LOOP('',(#385));
#85=EDGE_LOOP('',(#386));
#86=EDGE_LOOP('',(#387));
#87=EDGE_LOOP('',(#388));
#88=EDGE_LOOP('',(#389));
#89=EDGE_LOOP('',(#390));
#90=EDGE_LOOP('',(#391,#392,#393,#394,#395,#396,#397,#398,#399,#400,#401,
#402));
#91=EDGE_LOOP('',(#403));
#92=EDGE_LOOP('',(#404));
#93=EDGE_LOOP('',(#405));
#94=EDGE_LOOP('',(#406));
#95=EDGE_LOOP('',(#407));
#96=EDGE_LOOP('',(#408));
#97=EDGE_LOOP('',(#409));
#98=EDGE_LOOP('',(#410));
#99=LINE('',#658,#131);
#100=LINE('',#664,#132);
#101=LINE('',#670,#133);
#102=LINE('',#676,#134);
#103=LINE('',#682,#135);
#104=LINE('',#688,#136);
#105=LINE('',#694,#137);
#106=LINE('',#700,#138);
#107=LINE('',#705,#139);
#108=LINE('',#707,#140);
#109=LINE('',#709,#141);
#110=LINE('',#710,#142);
#111=LINE('',#716,#143);
#112=LINE('',#719,#144);
#113=LINE('',#721,#145);
#114=LINE('',#722,#146);
#115=LINE('',#728,#147);
#116=LINE('',#731,#148);
#117=LINE('',#733,#149);
#118=LINE('',#734,#150);
#119=LINE('',#740,#151);
#120=LINE('',#743,#152);
#121=LINE('',#745,#153);
#122=LINE('',#746,#154);
#123=LINE('',#752,#155);
#124=LINE('',#755,#156);
#125=LINE('',#757,#157);
#126=LINE('',#758,#158);
#127=LINE('',#764,#159);
#128=LINE('',#767,#160);
#129=LINE('',#769,#161);
#130=LINE('',#770,#162);
#131=VECTOR('',#525,0.18);
#132=VECTOR('',#532,0.0953110236220472);
#133=VECTOR('',#539,0.09);
#134=VECTOR('',#546,0.09);
#135=VECTOR('',#553,0.0835);
#136=VECTOR('',#560,0.0859999999999998);
#137=VECTOR('',#567,0.0859999999999998);
#138=VECTOR('',#574,0.0859999999999998);
#139=VECTOR('',#579,0.393700787401575);
#140=VECTOR('',#580,0.393700787401575);
#141=VECTOR('',#581,0.393700787401575);
#142=VECTOR('',#582,0.393700787401575);
#143=VECTOR('',#589,0.393700787401575);
#144=VECTOR('',#592,0.393700787401575);
#145=VECTOR('',#593,0.393700787401575);
#146=VECTOR('',#594,0.393700787401575);
#147=VECTOR('',#601,0.393700787401575);
#148=VECTOR('',#604,0.393700787401575);
#149=VECTOR('',#605,0.393700787401575);
#150=VECTOR('',#606,0.393700787401575);
#151=VECTOR('',#613,0.393700787401575);
#152=VECTOR('',#616,0.393700787401575);
#153=VECTOR('',#617,0.393700787401575);
#154=VECTOR('',#618,0.393700787401575);
#155=VECTOR('',#625,0.393700787401575);
#156=VECTOR('',#628,0.393700787401575);
#157=VECTOR('',#629,0.393700787401575);
#158=VECTOR('',#630,0.393700787401575);
#159=VECTOR('',#637,0.393700787401575);
#160=VECTOR('',#640,0.393700787401575);
#161=VECTOR('',#641,0.393700787401575);
#162=VECTOR('',#642,0.393700787401575);
#163=CIRCLE('',#470,0.18);
#164=CIRCLE('',#471,0.18);
#165=CIRCLE('',#473,0.0953110236220472);
#166=CIRCLE('',#474,0.0953110236220472);
#167=CIRCLE('',#476,0.09);
#168=CIRCLE('',#477,0.09);
#169=CIRCLE('',#479,0.09);
#170=CIRCLE('',#480,0.09);
#171=CIRCLE('',#482,0.0835);
#172=CIRCLE('',#483,0.0835);
#173=CIRCLE('',#485,0.0859999999999998);
#174=CIRCLE('',#486,0.0859999999999998);
#175=CIRCLE('',#488,0.0859999999999998);
#176=CIRCLE('',#489,0.0859999999999998);
#177=CIRCLE('',#491,0.0859999999999998);
#178=CIRCLE('',#492,0.0859999999999998);
#179=CIRCLE('',#495,0.2);
#180=CIRCLE('',#496,0.2);
#181=CIRCLE('',#499,0.250000000000001);
#182=CIRCLE('',#500,0.250000000000001);
#183=CIRCLE('',#503,0.2);
#184=CIRCLE('',#504,0.2);
#185=CIRCLE('',#507,0.75);
#186=CIRCLE('',#508,0.75);
#187=CIRCLE('',#511,0.2);
#188=CIRCLE('',#512,0.2);
#189=CIRCLE('',#515,0.2);
#190=CIRCLE('',#516,0.2);
#191=VERTEX_POINT('',#655);
#192=VERTEX_POINT('',#657);
#193=VERTEX_POINT('',#661);
#194=VERTEX_POINT('',#663);
#195=VERTEX_POINT('',#667);
#196=VERTEX_POINT('',#669);
#197=VERTEX_POINT('',#673);
#198=VERTEX_POINT('',#675);
#199=VERTEX_POINT('',#679);
#200=VERTEX_POINT('',#681);
#201=VERTEX_POINT('',#685);
#202=VERTEX_POINT('',#687);
#203=VERTEX_POINT('',#691);
#204=VERTEX_POINT('',#693);
#205=VERTEX_POINT('',#697);
#206=VERTEX_POINT('',#699);
#207=VERTEX_POINT('',#703);
#208=VERTEX_POINT('',#704);
#209=VERTEX_POINT('',#706);
#210=VERTEX_POINT('',#708);
#211=VERTEX_POINT('',#712);
#212=VERTEX_POINT('',#714);
#213=VERTEX_POINT('',#718);
#214=VERTEX_POINT('',#720);
#215=VERTEX_POINT('',#724);
#216=VERTEX_POINT('',#726);
#217=VERTEX_POINT('',#730);
#218=VERTEX_POINT('',#732);
#219=VERTEX_POINT('',#736);
#220=VERTEX_POINT('',#738);
#221=VERTEX_POINT('',#742);
#222=VERTEX_POINT('',#744);
#223=VERTEX_POINT('',#748);
#224=VERTEX_POINT('',#750);
#225=VERTEX_POINT('',#754);
#226=VERTEX_POINT('',#756);
#227=VERTEX_POINT('',#760);
#228=VERTEX_POINT('',#762);
#229=VERTEX_POINT('',#766);
#230=VERTEX_POINT('',#768);
#231=EDGE_CURVE('',#191,#191,#163,.T.);
#232=EDGE_CURVE('',#191,#192,#99,.T.);
#233=EDGE_CURVE('',#192,#192,#164,.T.);
#234=EDGE_CURVE('',#193,#193,#165,.T.);
#235=EDGE_CURVE('',#193,#194,#100,.T.);
#236=EDGE_CURVE('',#194,#194,#166,.T.);
#237=EDGE_CURVE('',#195,#195,#167,.T.);
#238=EDGE_CURVE('',#195,#196,#101,.T.);
#239=EDGE_CURVE('',#196,#196,#168,.T.);
#240=EDGE_CURVE('',#197,#197,#169,.T.);
#241=EDGE_CURVE('',#197,#198,#102,.T.);
#242=EDGE_CURVE('',#198,#198,#170,.T.);
#243=EDGE_CURVE('',#199,#199,#171,.T.);
#244=EDGE_CURVE('',#199,#200,#103,.T.);
#245=EDGE_CURVE('',#200,#200,#172,.T.);
#246=EDGE_CURVE('',#201,#201,#173,.T.);
#247=EDGE_CURVE('',#201,#202,#104,.T.);
#248=EDGE_CURVE('',#202,#202,#174,.T.);
#249=EDGE_CURVE('',#203,#203,#175,.T.);
#250=EDGE_CURVE('',#203,#204,#105,.T.);
#251=EDGE_CURVE('',#204,#204,#176,.T.);
#252=EDGE_CURVE('',#205,#205,#177,.T.);
#253=EDGE_CURVE('',#205,#206,#106,.T.);
#254=EDGE_CURVE('',#206,#206,#178,.T.);
#255=EDGE_CURVE('',#207,#208,#107,.T.);
#256=EDGE_CURVE('',#208,#209,#108,.T.);
#257=EDGE_CURVE('',#210,#209,#109,.T.);
#258=EDGE_CURVE('',#207,#210,#110,.T.);
#259=EDGE_CURVE('',#211,#207,#179,.T.);
#260=EDGE_CURVE('',#212,#210,#180,.T.);
#261=EDGE_CURVE('',#211,#212,#111,.T.);
#262=EDGE_CURVE('',#213,#211,#112,.T.);
#263=EDGE_CURVE('',#214,#212,#113,.T.);
#264=EDGE_CURVE('',#213,#214,#114,.T.);
#265=EDGE_CURVE('',#215,#213,#181,.T.);
#266=EDGE_CURVE('',#216,#214,#182,.T.);
#267=EDGE_CURVE('',#215,#216,#115,.T.);
#268=EDGE_CURVE('',#217,#215,#116,.T.);
#269=EDGE_CURVE('',#218,#216,#117,.T.);
#270=EDGE_CURVE('',#217,#218,#118,.T.);
#271=EDGE_CURVE('',#219,#217,#183,.T.);
#272=EDGE_CURVE('',#220,#218,#184,.T.);
#273=EDGE_CURVE('',#219,#220,#119,.T.);
#274=EDGE_CURVE('',#221,#219,#120,.T.);
#275=EDGE_CURVE('',#222,#220,#121,.T.);
#276=EDGE_CURVE('',#221,#222,#122,.T.);
#277=EDGE_CURVE('',#223,#221,#185,.T.);
#278=EDGE_CURVE('',#224,#222,#186,.T.);
#279=EDGE_CURVE('',#223,#224,#123,.T.);
#280=EDGE_CURVE('',#225,#223,#124,.T.);
#281=EDGE_CURVE('',#226,#224,#125,.T.);
#282=EDGE_CURVE('',#225,#226,#126,.T.);
#283=EDGE_CURVE('',#227,#225,#187,.T.);
#284=EDGE_CURVE('',#228,#226,#188,.T.);
#285=EDGE_CURVE('',#227,#228,#127,.T.);
#286=EDGE_CURVE('',#229,#227,#128,.T.);
#287=EDGE_CURVE('',#230,#228,#129,.T.);
#288=EDGE_CURVE('',#229,#230,#130,.T.);
#289=EDGE_CURVE('',#208,#229,#189,.T.);
#290=EDGE_CURVE('',#209,#230,#190,.T.);
#291=ORIENTED_EDGE('',*,*,#231,.F.);
#292=ORIENTED_EDGE('',*,*,#232,.T.);
#293=ORIENTED_EDGE('',*,*,#233,.T.);
#294=ORIENTED_EDGE('',*,*,#232,.F.);
#295=ORIENTED_EDGE('',*,*,#234,.F.);
#296=ORIENTED_EDGE('',*,*,#235,.T.);
#297=ORIENTED_EDGE('',*,*,#236,.T.);
#298=ORIENTED_EDGE('',*,*,#235,.F.);
#299=ORIENTED_EDGE('',*,*,#237,.F.);
#300=ORIENTED_EDGE('',*,*,#238,.T.);
#301=ORIENTED_EDGE('',*,*,#239,.T.);
#302=ORIENTED_EDGE('',*,*,#238,.F.);
#303=ORIENTED_EDGE('',*,*,#240,.F.);
#304=ORIENTED_EDGE('',*,*,#241,.T.);
#305=ORIENTED_EDGE('',*,*,#242,.T.);
#306=ORIENTED_EDGE('',*,*,#241,.F.);
#307=ORIENTED_EDGE('',*,*,#243,.F.);
#308=ORIENTED_EDGE('',*,*,#244,.T.);
#309=ORIENTED_EDGE('',*,*,#245,.T.);
#310=ORIENTED_EDGE('',*,*,#244,.F.);
#311=ORIENTED_EDGE('',*,*,#246,.F.);
#312=ORIENTED_EDGE('',*,*,#247,.T.);
#313=ORIENTED_EDGE('',*,*,#248,.T.);
#314=ORIENTED_EDGE('',*,*,#247,.F.);
#315=ORIENTED_EDGE('',*,*,#249,.F.);
#316=ORIENTED_EDGE('',*,*,#250,.T.);
#317=ORIENTED_EDGE('',*,*,#251,.T.);
#318=ORIENTED_EDGE('',*,*,#250,.F.);
#319=ORIENTED_EDGE('',*,*,#252,.F.);
#320=ORIENTED_EDGE('',*,*,#253,.T.);
#321=ORIENTED_EDGE('',*,*,#254,.T.);
#322=ORIENTED_EDGE('',*,*,#253,.F.);
#323=ORIENTED_EDGE('',*,*,#255,.T.);
#324=ORIENTED_EDGE('',*,*,#256,.T.);
#325=ORIENTED_EDGE('',*,*,#257,.F.);
#326=ORIENTED_EDGE('',*,*,#258,.F.);
#327=ORIENTED_EDGE('',*,*,#259,.T.);
#328=ORIENTED_EDGE('',*,*,#258,.T.);
#329=ORIENTED_EDGE('',*,*,#260,.F.);
#330=ORIENTED_EDGE('',*,*,#261,.F.);
#331=ORIENTED_EDGE('',*,*,#262,.T.);
#332=ORIENTED_EDGE('',*,*,#261,.T.);
#333=ORIENTED_EDGE('',*,*,#263,.F.);
#334=ORIENTED_EDGE('',*,*,#264,.F.);
#335=ORIENTED_EDGE('',*,*,#265,.T.);
#336=ORIENTED_EDGE('',*,*,#264,.T.);
#337=ORIENTED_EDGE('',*,*,#266,.F.);
#338=ORIENTED_EDGE('',*,*,#267,.F.);
#339=ORIENTED_EDGE('',*,*,#268,.T.);
#340=ORIENTED_EDGE('',*,*,#267,.T.);
#341=ORIENTED_EDGE('',*,*,#269,.F.);
#342=ORIENTED_EDGE('',*,*,#270,.F.);
#343=ORIENTED_EDGE('',*,*,#271,.T.);
#344=ORIENTED_EDGE('',*,*,#270,.T.);
#345=ORIENTED_EDGE('',*,*,#272,.F.);
#346=ORIENTED_EDGE('',*,*,#273,.F.);
#347=ORIENTED_EDGE('',*,*,#274,.T.);
#348=ORIENTED_EDGE('',*,*,#273,.T.);
#349=ORIENTED_EDGE('',*,*,#275,.F.);
#350=ORIENTED_EDGE('',*,*,#276,.F.);
#351=ORIENTED_EDGE('',*,*,#277,.T.);
#352=ORIENTED_EDGE('',*,*,#276,.T.);
#353=ORIENTED_EDGE('',*,*,#278,.F.);
#354=ORIENTED_EDGE('',*,*,#279,.F.);
#355=ORIENTED_EDGE('',*,*,#280,.T.);
#356=ORIENTED_EDGE('',*,*,#279,.T.);
#357=ORIENTED_EDGE('',*,*,#281,.F.);
#358=ORIENTED_EDGE('',*,*,#282,.F.);
#359=ORIENTED_EDGE('',*,*,#283,.T.);
#360=ORIENTED_EDGE('',*,*,#282,.T.);
#361=ORIENTED_EDGE('',*,*,#284,.F.);
#362=ORIENTED_EDGE('',*,*,#285,.F.);
#363=ORIENTED_EDGE('',*,*,#286,.T.);
#364=ORIENTED_EDGE('',*,*,#285,.T.);
#365=ORIENTED_EDGE('',*,*,#287,.F.);
#366=ORIENTED_EDGE('',*,*,#288,.F.);
#367=ORIENTED_EDGE('',*,*,#289,.T.);
#368=ORIENTED_EDGE('',*,*,#288,.T.);
#369=ORIENTED_EDGE('',*,*,#290,.F.);
#370=ORIENTED_EDGE('',*,*,#256,.F.);
#371=ORIENTED_EDGE('',*,*,#290,.T.);
#372=ORIENTED_EDGE('',*,*,#287,.T.);
#373=ORIENTED_EDGE('',*,*,#284,.T.);
#374=ORIENTED_EDGE('',*,*,#281,.T.);
#375=ORIENTED_EDGE('',*,*,#278,.T.);
#376=ORIENTED_EDGE('',*,*,#275,.T.);
#377=ORIENTED_EDGE('',*,*,#272,.T.);
#378=ORIENTED_EDGE('',*,*,#269,.T.);
#379=ORIENTED_EDGE('',*,*,#266,.T.);
#380=ORIENTED_EDGE('',*,*,#263,.T.);
#381=ORIENTED_EDGE('',*,*,#260,.T.);
#382=ORIENTED_EDGE('',*,*,#257,.T.);
#383=ORIENTED_EDGE('',*,*,#252,.T.);
#384=ORIENTED_EDGE('',*,*,#249,.T.);
#385=ORIENTED_EDGE('',*,*,#246,.T.);
#386=ORIENTED_EDGE('',*,*,#243,.T.);
#387=ORIENTED_EDGE('',*,*,#240,.T.);
#388=ORIENTED_EDGE('',*,*,#237,.T.);
#389=ORIENTED_EDGE('',*,*,#234,.T.);
#390=ORIENTED_EDGE('',*,*,#231,.T.);
#391=ORIENTED_EDGE('',*,*,#289,.F.);
#392=ORIENTED_EDGE('',*,*,#255,.F.);
#393=ORIENTED_EDGE('',*,*,#259,.F.);
#394=ORIENTED_EDGE('',*,*,#262,.F.);
#395=ORIENTED_EDGE('',*,*,#265,.F.);
#396=ORIENTED_EDGE('',*,*,#268,.F.);
#397=ORIENTED_EDGE('',*,*,#271,.F.);
#398=ORIENTED_EDGE('',*,*,#274,.F.);
#399=ORIENTED_EDGE('',*,*,#277,.F.);
#400=ORIENTED_EDGE('',*,*,#280,.F.);
#401=ORIENTED_EDGE('',*,*,#283,.F.);
#402=ORIENTED_EDGE('',*,*,#286,.F.);
#403=ORIENTED_EDGE('',*,*,#254,.F.);
#404=ORIENTED_EDGE('',*,*,#251,.F.);
#405=ORIENTED_EDGE('',*,*,#248,.F.);
#406=ORIENTED_EDGE('',*,*,#245,.F.);
#407=ORIENTED_EDGE('',*,*,#242,.F.);
#408=ORIENTED_EDGE('',*,*,#239,.F.);
#409=ORIENTED_EDGE('',*,*,#236,.F.);
#410=ORIENTED_EDGE('',*,*,#233,.F.);
#411=CYLINDRICAL_SURFACE('',#469,0.18);
#412=CYLINDRICAL_SURFACE('',#472,0.0953110236220472);
#413=CYLINDRICAL_SURFACE('',#475,0.09);
#414=CYLINDRICAL_SURFACE('',#478,0.09);
#415=CYLINDRICAL_SURFACE('',#481,0.0835);
#416=CYLINDRICAL_SURFACE('',#484,0.0859999999999998);
#417=CYLINDRICAL_SURFACE('',#487,0.0859999999999998);
#418=CYLINDRICAL_SURFACE('',#490,0.0859999999999998);
#419=CYLINDRICAL_SURFACE('',#494,0.2);
#420=CYLINDRICAL_SURFACE('',#498,0.250000000000001);
#421=CYLINDRICAL_SURFACE('',#502,0.2);
#422=CYLINDRICAL_SURFACE('',#506,0.75);
#423=CYLINDRICAL_SURFACE('',#510,0.2);
#424=CYLINDRICAL_SURFACE('',#514,0.2);
#425=ADVANCED_FACE('',(#39),#411,.F.);
#426=ADVANCED_FACE('',(#40),#412,.F.);
#427=ADVANCED_FACE('',(#41),#413,.F.);
#428=ADVANCED_FACE('',(#42),#414,.F.);
#429=ADVANCED_FACE('',(#43),#415,.F.);
#430=ADVANCED_FACE('',(#44),#416,.F.);
#431=ADVANCED_FACE('',(#45),#417,.F.);
#432=ADVANCED_FACE('',(#46),#418,.F.);
#433=ADVANCED_FACE('',(#47),#31,.T.);
#434=ADVANCED_FACE('',(#48),#419,.T.);
#435=ADVANCED_FACE('',(#49),#32,.T.);
#436=ADVANCED_FACE('',(#50),#420,.F.);
#437=ADVANCED_FACE('',(#51),#33,.T.);
#438=ADVANCED_FACE('',(#52),#421,.T.);
#439=ADVANCED_FACE('',(#53),#34,.T.);
#440=ADVANCED_FACE('',(#54),#422,.T.);
#441=ADVANCED_FACE('',(#55),#35,.T.);
#442=ADVANCED_FACE('',(#56),#423,.T.);
#443=ADVANCED_FACE('',(#57),#36,.T.);
#444=ADVANCED_FACE('',(#58),#424,.T.);
#445=ADVANCED_FACE('',(#59,#15,#16,#17,#18,#19,#20,#21,#22),#37,.T.);
#446=ADVANCED_FACE('',(#60,#23,#24,#25,#26,#27,#28,#29,#30),#38,.F.);
#447=CLOSED_SHELL('',(#425,#426,#427,#428,#429,#430,#431,#432,#433,#434,
#435,#436,#437,#438,#439,#440,#441,#442,#443,#444,#445,#446));
#448=DERIVED_UNIT_ELEMENT(#450,1.);
#449=DERIVED_UNIT_ELEMENT(#784,-3.);
#450=(
CONVERSION_BASED_UNIT('gram',#452)
MASS_UNIT()
NAMED_UNIT(#781)
);
#451=(
MASS_UNIT()
NAMED_UNIT(*)
SI_UNIT(.KILO.,.GRAM.)
);
#452=MASS_MEASURE_WITH_UNIT(MASS_MEASURE(0.001),#451);
#453=DERIVED_UNIT((#448,#449));
#454=MEASURE_REPRESENTATION_ITEM('density measure',
POSITIVE_RATIO_MEASURE(0.952),#453);
#455=PROPERTY_DEFINITION_REPRESENTATION(#460,#457);
#456=PROPERTY_DEFINITION_REPRESENTATION(#461,#458);
#457=REPRESENTATION('material name',(#459),#778);
#458=REPRESENTATION('density',(#454),#778);
#459=DESCRIPTIVE_REPRESENTATION_ITEM('Plastic, Opaque Black',
'Plastic, Opaque Black');
#460=PROPERTY_DEFINITION('material property','material name',#792);
#461=PROPERTY_DEFINITION('material property','density of part',#792);
#462=DATE_TIME_ROLE('creation_date');
#463=APPLIED_DATE_AND_TIME_ASSIGNMENT(#464,#462,(#792));
#464=DATE_AND_TIME(#465,#466);
#465=CALENDAR_DATE(2025,4,10);
#466=LOCAL_TIME(0,0,0.,#467);
#467=COORDINATED_UNIVERSAL_TIME_OFFSET(0,0,.BEHIND.);
#468=AXIS2_PLACEMENT_3D('',#653,#519,#520);
#469=AXIS2_PLACEMENT_3D('',#654,#521,#522);
#470=AXIS2_PLACEMENT_3D('',#656,#523,#524);
#471=AXIS2_PLACEMENT_3D('',#659,#526,#527);
#472=AXIS2_PLACEMENT_3D('',#660,#528,#529);
#473=AXIS2_PLACEMENT_3D('',#662,#530,#531);
#474=AXIS2_PLACEMENT_3D('',#665,#533,#534);
#475=AXIS2_PLACEMENT_3D('',#666,#535,#536);
#476=AXIS2_PLACEMENT_3D('',#668,#537,#538);
#477=AXIS2_PLACEMENT_3D('',#671,#540,#541);
#478=AXIS2_PLACEMENT_3D('',#672,#542,#543);
#479=AXIS2_PLACEMENT_3D('',#674,#544,#545);
#480=AXIS2_PLACEMENT_3D('',#677,#547,#548);
#481=AXIS2_PLACEMENT_3D('',#678,#549,#550);
#482=AXIS2_PLACEMENT_3D('',#680,#551,#552);
#483=AXIS2_PLACEMENT_3D('',#683,#554,#555);
#484=AXIS2_PLACEMENT_3D('',#684,#556,#557);
#485=AXIS2_PLACEMENT_3D('',#686,#558,#559);
#486=AXIS2_PLACEMENT_3D('',#689,#561,#562);
#487=AXIS2_PLACEMENT_3D('',#690,#563,#564);
#488=AXIS2_PLACEMENT_3D('',#692,#565,#566);
#489=AXIS2_PLACEMENT_3D('',#695,#568,#569);
#490=AXIS2_PLACEMENT_3D('',#696,#570,#571);
#491=AXIS2_PLACEMENT_3D('',#698,#572,#573);
#492=AXIS2_PLACEMENT_3D('',#701,#575,#576);
#493=AXIS2_PLACEMENT_3D('',#702,#577,#578);
#494=AXIS2_PLACEMENT_3D('',#711,#583,#584);
#495=AXIS2_PLACEMENT_3D('',#713,#585,#586);
#496=AXIS2_PLACEMENT_3D('',#715,#587,#588);
#497=AXIS2_PLACEMENT_3D('',#717,#590,#591);
#498=AXIS2_PLACEMENT_3D('',#723,#595,#596);
#499=AXIS2_PLACEMENT_3D('',#725,#597,#598);
#500=AXIS2_PLACEMENT_3D('',#727,#599,#600);
#501=AXIS2_PLACEMENT_3D('',#729,#602,#603);
#502=AXIS2_PLACEMENT_3D('',#735,#607,#608);
#503=AXIS2_PLACEMENT_3D('',#737,#609,#610);
#504=AXIS2_PLACEMENT_3D('',#739,#611,#612);
#505=AXIS2_PLACEMENT_3D('',#741,#614,#615);
#506=AXIS2_PLACEMENT_3D('',#747,#619,#620);
#507=AXIS2_PLACEMENT_3D('',#749,#621,#622);
#508=AXIS2_PLACEMENT_3D('',#751,#623,#624);
#509=AXIS2_PLACEMENT_3D('',#753,#626,#627);
#510=AXIS2_PLACEMENT_3D('',#759,#631,#632);
#511=AXIS2_PLACEMENT_3D('',#761,#633,#634);
#512=AXIS2_PLACEMENT_3D('',#763,#635,#636);
#513=AXIS2_PLACEMENT_3D('',#765,#638,#639);
#514=AXIS2_PLACEMENT_3D('',#771,#643,#644);
#515=AXIS2_PLACEMENT_3D('',#772,#645,#646);
#516=AXIS2_PLACEMENT_3D('',#773,#647,#648);
#517=AXIS2_PLACEMENT_3D('',#774,#649,#650);
#518=AXIS2_PLACEMENT_3D('',#775,#651,#652);
#519=DIRECTION('axis',(0.,0.,1.));
#520=DIRECTION('refdir',(1.,0.,0.));
#521=DIRECTION('center_axis',(0.,0.,1.));
#522=DIRECTION('ref_axis',(-1.,5.74349293821442E-33,0.));
#523=DIRECTION('center_axis',(-4.93038065763132E-32,-3.13214728112963E-53,
-1.));
#524=DIRECTION('ref_axis',(-1.,5.74349293821442E-33,4.93038065763132E-32));
#525=DIRECTION('',(0.,0.,-1.));
#526=DIRECTION('center_axis',(-4.93038065763132E-32,-3.13214728112963E-53,
-1.));
#527=DIRECTION('ref_axis',(-1.,5.74349293821442E-33,4.93038065763132E-32));
#528=DIRECTION('center_axis',(0.,0.,1.));
#529=DIRECTION('ref_axis',(-1.,5.74349293821442E-33,0.));
#530=DIRECTION('center_axis',(-4.93038065763132E-32,-3.13214728112963E-53,
-1.));
#531=DIRECTION('ref_axis',(-1.,5.74349293821442E-33,4.93038065763132E-32));
#532=DIRECTION('',(0.,0.,-1.));
#533=DIRECTION('center_axis',(-4.93038065763132E-32,-3.13214728112963E-53,
-1.));
#534=DIRECTION('ref_axis',(-1.,5.74349293821442E-33,4.93038065763132E-32));
#535=DIRECTION('center_axis',(0.,0.,1.));
#536=DIRECTION('ref_axis',(-1.,5.74349293821442E-33,0.));
#537=DIRECTION('center_axis',(-4.93038065763132E-32,-3.13214728112963E-53,
-1.));
#538=DIRECTION('ref_axis',(-1.,5.74349293821442E-33,4.93038065763132E-32));
#539=DIRECTION('',(0.,0.,-1.));
#540=DIRECTION('center_axis',(-4.93038065763132E-32,-3.13214728112963E-53,
-1.));
#541=DIRECTION('ref_axis',(-1.,5.74349293821442E-33,4.93038065763132E-32));
#542=DIRECTION('center_axis',(0.,0.,1.));
#543=DIRECTION('ref_axis',(-1.,5.74349293821442E-33,0.));
#544=DIRECTION('center_axis',(-4.93038065763132E-32,-3.13214728112963E-53,
-1.));
#545=DIRECTION('ref_axis',(-1.,5.74349293821442E-33,4.93038065763132E-32));
#546=DIRECTION('',(0.,0.,-1.));
#547=DIRECTION('center_axis',(-4.93038065763132E-32,-3.13214728112963E-53,
-1.));
#548=DIRECTION('ref_axis',(-1.,5.74349293821442E-33,4.93038065763132E-32));
#549=DIRECTION('center_axis',(0.,0.,1.));
#550=DIRECTION('ref_axis',(-1.,5.74349293821442E-33,0.));
#551=DIRECTION('center_axis',(-4.93038065763132E-32,-3.13214728112963E-53,
-1.));
#552=DIRECTION('ref_axis',(-1.,5.74349293821442E-33,4.93038065763132E-32));
#553=DIRECTION('',(0.,0.,-1.));
#554=DIRECTION('center_axis',(-4.93038065763132E-32,-3.13214728112963E-53,
-1.));
#555=DIRECTION('ref_axis',(-1.,5.74349293821442E-33,4.93038065763132E-32));
#556=DIRECTION('center_axis',(0.,0.,1.));
#557=DIRECTION('ref_axis',(-1.,5.74349293821442E-33,0.));
#558=DIRECTION('center_axis',(-4.93038065763132E-32,-3.13214728112963E-53,
-1.));
#559=DIRECTION('ref_axis',(-1.,5.74349293821442E-33,4.93038065763132E-32));
#560=DIRECTION('',(0.,0.,-1.));
#561=DIRECTION('center_axis',(-4.93038065763132E-32,-3.13214728112963E-53,
-1.));
#562=DIRECTION('ref_axis',(-1.,5.74349293821442E-33,4.93038065763132E-32));
#563=DIRECTION('center_axis',(0.,0.,1.));
#564=DIRECTION('ref_axis',(-1.,5.74349293821442E-33,0.));
#565=DIRECTION('center_axis',(-4.93038065763132E-32,-3.13214728112963E-53,
-1.));
#566=DIRECTION('ref_axis',(-1.,5.74349293821442E-33,4.93038065763132E-32));
#567=DIRECTION('',(0.,0.,-1.));
#568=DIRECTION('center_axis',(-4.93038065763132E-32,-3.13214728112963E-53,
-1.));
#569=DIRECTION('ref_axis',(-1.,5.74349293821442E-33,4.93038065763132E-32));
#570=DIRECTION('center_axis',(0.,0.,1.));
#571=DIRECTION('ref_axis',(-1.,5.74349293821442E-33,0.));
#572=DIRECTION('center_axis',(-4.93038065763132E-32,-3.13214728112963E-53,
-1.));
#573=DIRECTION('ref_axis',(-1.,5.74349293821442E-33,4.93038065763132E-32));
#574=DIRECTION('',(0.,0.,-1.));
#575=DIRECTION('center_axis',(-4.93038065763132E-32,-3.13214728112963E-53,
-1.));
#576=DIRECTION('ref_axis',(-1.,5.74349293821442E-33,4.93038065763132E-32));
#577=DIRECTION('center_axis',(-1.,5.74349293821442E-33,0.));
#578=DIRECTION('ref_axis',(-5.74349293821442E-33,-1.,3.13214728115795E-53));
#579=DIRECTION('',(-5.74349293821442E-33,-1.,3.13214728115795E-53));
#580=DIRECTION('',(0.,0.,1.));
#581=DIRECTION('',(-5.74349293821442E-33,-1.,3.13214728115795E-53));
#582=DIRECTION('',(0.,0.,1.));
#583=DIRECTION('center_axis',(0.,0.,1.));
#584=DIRECTION('ref_axis',(1.,-5.74349293821442E-33,0.));
#585=DIRECTION('center_axis',(4.93038065763132E-32,3.13214728112963E-53,
1.));
#586=DIRECTION('ref_axis',(1.,-5.74349293821442E-33,-4.93038065763132E-32));
#587=DIRECTION('center_axis',(4.93038065763132E-32,3.13214728112963E-53,
1.));
#588=DIRECTION('ref_axis',(1.,-5.74349293821442E-33,-4.93038065763132E-32));
#589=DIRECTION('',(0.,0.,1.));
#590=DIRECTION('center_axis',(-0.14054312935761,0.990074557187675,0.));
#591=DIRECTION('ref_axis',(-0.990074557187675,-0.14054312935761,4.881444446371E-32));
#592=DIRECTION('',(-0.990074557187675,-0.14054312935761,4.88144444637101E-32));
#593=DIRECTION('',(-0.990074557187675,-0.14054312935761,4.88144444637101E-32));
#594=DIRECTION('',(0.,0.,1.));
#595=DIRECTION('center_axis',(0.,0.,1.));
#596=DIRECTION('ref_axis',(-0.140543129357612,0.990074557187674,0.));
#597=DIRECTION('center_axis',(-4.93038065763132E-32,0.,-1.));
#598=DIRECTION('ref_axis',(-0.140543129357612,0.990074557187674,6.92931126547749E-33));
#599=DIRECTION('center_axis',(-4.93038065763132E-32,0.,-1.));
#600=DIRECTION('ref_axis',(-0.140543129357612,0.990074557187674,6.92931126547749E-33));
#601=DIRECTION('',(0.,0.,1.));
#602=DIRECTION('center_axis',(-0.755835199016666,0.654761904761904,0.));
#603=DIRECTION('ref_axis',(-0.654761904761904,-0.755835199016666,3.22822543059193E-32));
#604=DIRECTION('',(-0.654761904761904,-0.755835199016666,3.22822543059193E-32));
#605=DIRECTION('',(-0.654761904761904,-0.755835199016666,3.22822543059193E-32));
#606=DIRECTION('',(0.,0.,1.));
#607=DIRECTION('center_axis',(0.,0.,1.));
#608=DIRECTION('ref_axis',(0.755835199016666,0.654761904761905,0.));
#609=DIRECTION('center_axis',(4.93038065763132E-32,0.,1.));
#610=DIRECTION('ref_axis',(0.755835199016666,0.654761904761905,-3.72655524558869E-32));
#611=DIRECTION('center_axis',(4.93038065763132E-32,0.,1.));
#612=DIRECTION('ref_axis',(0.755835199016666,0.654761904761905,-3.72655524558869E-32));
#613=DIRECTION('',(0.,0.,1.));
#614=DIRECTION('center_axis',(0.755835199016665,0.654761904761905,0.));
#615=DIRECTION('ref_axis',(-0.654761904761905,0.755835199016665,3.22822543059194E-32));
#616=DIRECTION('',(-0.654761904761905,0.755835199016665,3.22822543059194E-32));
#617=DIRECTION('',(-0.654761904761905,0.755835199016665,3.22822543059194E-32));
#618=DIRECTION('',(0.,0.,1.));
#619=DIRECTION('center_axis',(0.,0.,1.));
#620=DIRECTION('ref_axis',(0.278627879507564,-0.960399138255089,0.));
#621=DIRECTION('center_axis',(4.93038065763132E-32,-2.73691106313441E-48,
1.));
#622=DIRECTION('ref_axis',(0.278627879507564,-0.960399138255089,-1.37374150780092E-32));
#623=DIRECTION('center_axis',(4.93038065763132E-32,-2.73691106313441E-48,
1.));
#624=DIRECTION('ref_axis',(0.278627879507564,-0.960399138255089,-1.37374150780092E-32));
#625=DIRECTION('',(0.,0.,1.));
#626=DIRECTION('center_axis',(0.278627879507564,-0.960399138255089,0.));
#627=DIRECTION('ref_axis',(0.960399138255089,0.278627879507564,-4.73513333485868E-32));
#628=DIRECTION('',(0.960399138255089,0.278627879507564,-4.73513333485868E-32));
#629=DIRECTION('',(0.960399138255089,0.278627879507564,-4.73513333485868E-32));
#630=DIRECTION('',(0.,0.,1.));
#631=DIRECTION('center_axis',(0.,0.,1.));
#632=DIRECTION('ref_axis',(-0.446970753412671,-0.894548570841018,0.));
#633=DIRECTION('center_axis',(4.93038065763132E-32,0.,1.));
#634=DIRECTION('ref_axis',(-0.446970753412671,-0.894548570841018,2.20373595715273E-32));
#635=DIRECTION('center_axis',(4.93038065763132E-32,0.,1.));
#636=DIRECTION('ref_axis',(-0.446970753412671,-0.894548570841018,2.20373595715273E-32));
#637=DIRECTION('',(0.,0.,1.));
#638=DIRECTION('center_axis',(-0.446970753412671,-0.894548570841019,0.));
#639=DIRECTION('ref_axis',(0.894548570841019,-0.446970753412671,-4.4104649709863E-32));
#640=DIRECTION('',(0.894548570841019,-0.446970753412671,-4.4104649709863E-32));
#641=DIRECTION('',(0.894548570841019,-0.446970753412671,-4.4104649709863E-32));
#642=DIRECTION('',(0.,0.,1.));
#643=DIRECTION('center_axis',(0.,0.,1.));
#644=DIRECTION('ref_axis',(-1.,5.74349293821442E-33,0.));
#645=DIRECTION('center_axis',(4.93038065763132E-32,3.13214728112963E-53,
1.));
#646=DIRECTION('ref_axis',(-1.,5.74349293821442E-33,4.93038065763132E-32));
#647=DIRECTION('center_axis',(4.93038065763132E-32,3.13214728112963E-53,
1.));
#648=DIRECTION('ref_axis',(-1.,5.74349293821442E-33,4.93038065763132E-32));
#649=DIRECTION('center_axis',(4.93038065763132E-32,3.13214728112963E-53,
1.));
#650=DIRECTION('ref_axis',(1.,0.,-4.93038065763132E-32));
#651=DIRECTION('center_axis',(4.93038065763132E-32,3.13214728112963E-53,
1.));
#652=DIRECTION('ref_axis',(1.,0.,-4.93038065763132E-32));
#653=CARTESIAN_POINT('',(0.,0.,0.));
#654=CARTESIAN_POINT('Origin',(1.84526714559938,-1.29999998820965,4.37095678986281E-17));
#655=CARTESIAN_POINT('',(2.02526714559938,-1.29999998820965,0.15));
#656=CARTESIAN_POINT('Origin',(1.84526714559938,-1.29999998820965,0.15));
#657=CARTESIAN_POINT('',(2.02526714559938,-1.29999998820965,4.37095678986281E-17));
#658=CARTESIAN_POINT('',(2.02526714559938,-1.29999998820965,4.37095678986281E-17));
#659=CARTESIAN_POINT('Origin',(1.84526714559938,-1.29999998820965,4.37095678986281E-17));
#660=CARTESIAN_POINT('Origin',(1.34526714559938,-1.29999998820966,4.37095678986281E-17));
#661=CARTESIAN_POINT('',(1.44057816922142,-1.29999998820966,0.15));
#662=CARTESIAN_POINT('Origin',(1.34526714559938,-1.29999998820966,0.15));
#663=CARTESIAN_POINT('',(1.44057816922142,-1.29999998820966,4.37095678986281E-17));
#664=CARTESIAN_POINT('',(1.44057816922142,-1.29999998820966,4.37095678986281E-17));
#665=CARTESIAN_POINT('Origin',(1.34526714559938,-1.29999998820966,4.37095678986281E-17));
#666=CARTESIAN_POINT('Origin',(1.84526714559937,-0.459999988209652,4.37095678986281E-17));
#667=CARTESIAN_POINT('',(1.93526714559937,-0.459999988209652,0.15));
#668=CARTESIAN_POINT('Origin',(1.84526714559937,-0.459999988209652,0.15));
#669=CARTESIAN_POINT('',(1.93526714559937,-0.459999988209652,4.37095678986281E-17));
#670=CARTESIAN_POINT('',(1.93526714559937,-0.459999988209652,4.37095678986281E-17));
#671=CARTESIAN_POINT('Origin',(1.84526714559937,-0.459999988209652,4.37095678986281E-17));
#672=CARTESIAN_POINT('Origin',(0.545267145599375,-2.24983033168247,4.37095678986282E-17));
#673=CARTESIAN_POINT('',(0.635267145599375,-2.24983033168247,0.15));
#674=CARTESIAN_POINT('Origin',(0.545267145599375,-2.24983033168247,0.15));
#675=CARTESIAN_POINT('',(0.635267145599375,-2.24983033168247,4.37095678986282E-17));
#676=CARTESIAN_POINT('',(0.635267145599375,-2.24983033168247,4.37095678986282E-17));
#677=CARTESIAN_POINT('Origin',(0.545267145599375,-2.24983033168247,4.37095678986282E-17));
#678=CARTESIAN_POINT('Origin',(2.34526714559938,-1.29999998820964,4.37095678986281E-17));
#679=CARTESIAN_POINT('',(2.42876714559938,-1.29999998820964,0.15));
#680=CARTESIAN_POINT('Origin',(2.34526714559938,-1.29999998820964,0.15));
#681=CARTESIAN_POINT('',(2.42876714559938,-1.29999998820964,4.37095678986281E-17));
#682=CARTESIAN_POINT('',(2.42876714559938,-1.29999998820964,4.37095678986281E-17));
#683=CARTESIAN_POINT('Origin',(2.34526714559938,-1.29999998820964,4.37095678986281E-17));
#684=CARTESIAN_POINT('Origin',(0.0452671455993753,-0.999999988209652,4.37095678986282E-17));
#685=CARTESIAN_POINT('',(0.131267145599375,-0.999999988209652,0.15));
#686=CARTESIAN_POINT('Origin',(0.0452671455993753,-0.999999988209652,0.15));
#687=CARTESIAN_POINT('',(0.131267145599375,-0.999999988209652,4.37095678986282E-17));
#688=CARTESIAN_POINT('',(0.131267145599375,-0.999999988209652,4.37095678986282E-17));
#689=CARTESIAN_POINT('Origin',(0.0452671455993753,-0.999999988209652,4.37095678986282E-17));
#690=CARTESIAN_POINT('Origin',(0.0452671455993763,-1.99999998820965,4.37095678986282E-17));
#691=CARTESIAN_POINT('',(0.131267145599376,-1.99999998820965,0.15));
#692=CARTESIAN_POINT('Origin',(0.0452671455993763,-1.99999998820965,0.15));
#693=CARTESIAN_POINT('',(0.131267145599376,-1.99999998820965,4.37095678986282E-17));
#694=CARTESIAN_POINT('',(0.131267145599376,-1.99999998820965,4.37095678986282E-17));
#695=CARTESIAN_POINT('Origin',(0.0452671455993763,-1.99999998820965,4.37095678986282E-17));
#696=CARTESIAN_POINT('Origin',(0.045267145599376,-1.49999998820965,4.37095678986282E-17));
#697=CARTESIAN_POINT('',(0.131267145599376,-1.49999998820965,0.15));
#698=CARTESIAN_POINT('Origin',(0.045267145599376,-1.49999998820965,0.15));
#699=CARTESIAN_POINT('',(0.131267145599376,-1.49999998820965,4.37095678986282E-17));
#700=CARTESIAN_POINT('',(0.131267145599376,-1.49999998820965,4.37095678986282E-17));
#701=CARTESIAN_POINT('Origin',(0.045267145599376,-1.49999998820965,4.37095678986282E-17));
#702=CARTESIAN_POINT('Origin',(-0.154732854400625,-0.999999988209652,4.37095678986282E-17));
#703=CARTESIAN_POINT('',(-0.154732854400625,-0.999999988209652,4.37095678986282E-17));
#704=CARTESIAN_POINT('',(-0.154732854400625,-1.99999998820965,4.37095678986282E-17));
#705=CARTESIAN_POINT('',(-0.154732854400625,-0.999999988209652,4.37095678986282E-17));
#706=CARTESIAN_POINT('',(-0.154732854400625,-1.99999998820965,0.15));
#707=CARTESIAN_POINT('',(-0.154732854400625,-1.99999998820965,4.37095678986282E-17));
#708=CARTESIAN_POINT('',(-0.154732854400625,-0.999999988209652,0.15));
#709=CARTESIAN_POINT('',(-0.154732854400625,-0.999999988209652,0.15));
#710=CARTESIAN_POINT('',(-0.154732854400625,-0.999999988209652,4.37095678986282E-17));
#711=CARTESIAN_POINT('Origin',(0.0452671455993753,-0.999999988209652,4.37095678986282E-17));
#712=CARTESIAN_POINT('',(0.0171585197278533,-0.801985076772117,4.37095678986282E-17));
#713=CARTESIAN_POINT('Origin',(0.0452671455993753,-0.999999988209652,4.37095678986282E-17));
#714=CARTESIAN_POINT('',(0.0171585197278533,-0.801985076772117,0.15));
#715=CARTESIAN_POINT('Origin',(0.0452671455993753,-0.999999988209652,0.15));
#716=CARTESIAN_POINT('',(0.0171585197278533,-0.801985076772117,4.37095678986282E-17));
#717=CARTESIAN_POINT('Origin',(1.36949773675848,-0.610017730338755,4.37095678986281E-17));
#718=CARTESIAN_POINT('',(1.36949773675848,-0.610017730338755,4.37095678986281E-17));
#719=CARTESIAN_POINT('',(1.36949773675848,-0.610017730338755,4.37095678986281E-17));
#720=CARTESIAN_POINT('',(1.36949773675848,-0.610017730338755,0.15));
#721=CARTESIAN_POINT('',(1.36949773675848,-0.610017730338755,0.15));
#722=CARTESIAN_POINT('',(1.36949773675848,-0.610017730338755,4.37095678986281E-17));
#723=CARTESIAN_POINT('Origin',(1.33436195441908,-0.362499091041836,4.37095678986281E-17));
#724=CARTESIAN_POINT('',(1.52332075417325,-0.526189567232312,4.37095678986281E-17));
#725=CARTESIAN_POINT('Origin',(1.33436195441908,-0.362499091041836,4.37095678986281E-17));
#726=CARTESIAN_POINT('',(1.52332075417325,-0.526189567232312,0.15));
#727=CARTESIAN_POINT('Origin',(1.33436195441908,-0.362499091041836,0.15));
#728=CARTESIAN_POINT('',(1.52332075417325,-0.526189567232312,4.37095678986281E-17));
#729=CARTESIAN_POINT('Origin',(1.69410010579604,-0.329047607257271,4.37095678986281E-17));
#730=CARTESIAN_POINT('',(1.69410010579604,-0.329047607257271,4.37095678986281E-17));
#731=CARTESIAN_POINT('',(1.69410010579604,-0.329047607257271,4.37095678986281E-17));
#732=CARTESIAN_POINT('',(1.69410010579604,-0.329047607257271,0.15));
#733=CARTESIAN_POINT('',(1.69410010579604,-0.329047607257271,0.15));
#734=CARTESIAN_POINT('',(1.69410010579604,-0.329047607257271,4.37095678986281E-17));
#735=CARTESIAN_POINT('Origin',(1.84526714559937,-0.459999988209652,4.37095678986281E-17));
#736=CARTESIAN_POINT('',(1.99643418540271,-0.329047607257271,4.37095678986281E-17));
#737=CARTESIAN_POINT('Origin',(1.84526714559937,-0.459999988209652,4.37095678986281E-17));
#738=CARTESIAN_POINT('',(1.99643418540271,-0.329047607257271,0.15));
#739=CARTESIAN_POINT('Origin',(1.84526714559937,-0.459999988209652,0.15));
#740=CARTESIAN_POINT('',(1.99643418540271,-0.329047607257271,4.37095678986281E-17));
#741=CARTESIAN_POINT('Origin',(2.41214354486187,-0.808928559638223,4.37095678986281E-17));
#742=CARTESIAN_POINT('',(2.41214354486187,-0.808928559638223,4.37095678986281E-17));
#743=CARTESIAN_POINT('',(2.41214354486187,-0.808928559638223,4.37095678986281E-17));
#744=CARTESIAN_POINT('',(2.41214354486187,-0.808928559638223,0.15));
#745=CARTESIAN_POINT('',(2.41214354486187,-0.808928559638223,0.15));
#746=CARTESIAN_POINT('',(2.41214354486187,-0.808928559638223,4.37095678986281E-17));
#747=CARTESIAN_POINT('Origin',(1.84526714559938,-1.29999998820965,4.37095678986281E-17));
#748=CARTESIAN_POINT('',(2.05423805523005,-2.02029934190097,4.37095678986281E-17));
#749=CARTESIAN_POINT('Origin',(1.84526714559938,-1.29999998820965,4.37095678986281E-17));
#750=CARTESIAN_POINT('',(2.05423805523005,-2.02029934190097,0.15));
#751=CARTESIAN_POINT('Origin',(1.84526714559938,-1.29999998820965,0.15));
#752=CARTESIAN_POINT('',(2.05423805523005,-2.02029934190097,4.37095678986281E-17));
#753=CARTESIAN_POINT('Origin',(0.600992721500888,-2.44191015933349,4.37095678986282E-17));
#754=CARTESIAN_POINT('',(0.600992721500888,-2.44191015933349,4.37095678986282E-17));
#755=CARTESIAN_POINT('',(0.600992721500888,-2.44191015933349,4.37095678986282E-17));
#756=CARTESIAN_POINT('',(0.600992721500888,-2.44191015933349,0.15));
#757=CARTESIAN_POINT('',(0.600992721500888,-2.44191015933349,0.15));
#758=CARTESIAN_POINT('',(0.600992721500888,-2.44191015933349,4.37095678986282E-17));
#759=CARTESIAN_POINT('Origin',(0.545267145599375,-2.24983033168247,4.37095678986282E-17));
#760=CARTESIAN_POINT('',(0.455872994916841,-2.42874004585068,4.37095678986282E-17));
#761=CARTESIAN_POINT('Origin',(0.545267145599375,-2.24983033168247,4.37095678986282E-17));
#762=CARTESIAN_POINT('',(0.455872994916841,-2.42874004585068,0.15));
#763=CARTESIAN_POINT('Origin',(0.545267145599375,-2.24983033168247,0.15));
#764=CARTESIAN_POINT('',(0.455872994916841,-2.42874004585068,4.37095678986282E-17));
#765=CARTESIAN_POINT('Origin',(-0.0441270050831578,-2.17890970237785,4.37095678986282E-17));
#766=CARTESIAN_POINT('',(-0.0441270050831578,-2.17890970237785,4.37095678986282E-17));
#767=CARTESIAN_POINT('',(-0.0441270050831578,-2.17890970237785,4.37095678986282E-17));
#768=CARTESIAN_POINT('',(-0.0441270050831578,-2.17890970237785,0.15));
#769=CARTESIAN_POINT('',(-0.0441270050831578,-2.17890970237785,0.15));
#770=CARTESIAN_POINT('',(-0.0441270050831578,-2.17890970237785,4.37095678986282E-17));
#771=CARTESIAN_POINT('Origin',(0.0452671455993763,-1.99999998820965,4.37095678986282E-17));
#772=CARTESIAN_POINT('Origin',(0.0452671455993763,-1.99999998820965,4.37095678986282E-17));
#773=CARTESIAN_POINT('Origin',(0.0452671455993763,-1.99999998820965,0.15));
#774=CARTESIAN_POINT('Origin',(0.0452671455993758,-1.49999998820965,0.15));
#775=CARTESIAN_POINT('Origin',(0.0452671455993758,-1.49999998820965,4.37095678986282E-17));
#776=UNCERTAINTY_MEASURE_WITH_UNIT(LENGTH_MEASURE(0.000393700787401575),
#782,'DISTANCE_ACCURACY_VALUE',
'Maximum model space distance between geometric entities at asserted c
onnectivities');
#777=UNCERTAINTY_MEASURE_WITH_UNIT(LENGTH_MEASURE(0.000393700787401575),
#782,'DISTANCE_ACCURACY_VALUE',
'Maximum model space distance between geometric entities at asserted c
onnectivities');
#778=(
GEOMETRIC_REPRESENTATION_CONTEXT(3)
GLOBAL_UNCERTAINTY_ASSIGNED_CONTEXT((#776))
GLOBAL_UNIT_ASSIGNED_CONTEXT((#782,#786,#787))
REPRESENTATION_CONTEXT('','3D')
);
#779=(
GEOMETRIC_REPRESENTATION_CONTEXT(3)
GLOBAL_UNCERTAINTY_ASSIGNED_CONTEXT((#777))
GLOBAL_UNIT_ASSIGNED_CONTEXT((#782,#786,#787))
REPRESENTATION_CONTEXT('','3D')
);
#780=DIMENSIONAL_EXPONENTS(1.,0.,0.,0.,0.,0.,0.);
#781=DIMENSIONAL_EXPONENTS(0.,1.,0.,0.,0.,0.,0.);
#782=(
CONVERSION_BASED_UNIT('inch',#785)
LENGTH_UNIT()
NAMED_UNIT(#780)
);
#783=(
LENGTH_UNIT()
NAMED_UNIT(*)
SI_UNIT(.MILLI.,.METRE.)
);
#784=(
LENGTH_UNIT()
NAMED_UNIT(*)
SI_UNIT(.CENTI.,.METRE.)
);
#785=LENGTH_MEASURE_WITH_UNIT(LENGTH_MEASURE(25.4),#783);
#786=(
NAMED_UNIT(*)
PLANE_ANGLE_UNIT()
SI_UNIT($,.RADIAN.)
);
#787=(
NAMED_UNIT(*)
SI_UNIT($,.STERADIAN.)
SOLID_ANGLE_UNIT()
);
#788=SHAPE_DEFINITION_REPRESENTATION(#789,#790);
#789=PRODUCT_DEFINITION_SHAPE('',$,#792);
#790=SHAPE_REPRESENTATION('',(#468),#778);
#791=PRODUCT_DEFINITION_CONTEXT('part definition',#796,'design');
#792=PRODUCT_DEFINITION('Stage2','Stage2',#793,#791);
#793=PRODUCT_DEFINITION_FORMATION('',$,#798);
#794=PRODUCT_RELATED_PRODUCT_CATEGORY('Stage2','Stage2',(#798));
#795=APPLICATION_PROTOCOL_DEFINITION('international standard',
'automotive_design',2009,#796);
#796=APPLICATION_CONTEXT(
'Core Data for Automotive Mechanical Design Process');
#797=PRODUCT_CONTEXT('part definition',#796,'mechanical');
#798=PRODUCT('Stage2','Stage2',$,(#797));
#799=PRESENTATION_STYLE_ASSIGNMENT((#800));
#800=SURFACE_STYLE_USAGE(.BOTH.,#803);
#801=SURFACE_STYLE_RENDERING_WITH_PROPERTIES($,#807,(#802));
#802=SURFACE_STYLE_TRANSPARENT(0.);
#803=SURFACE_SIDE_STYLE('',(#804,#801));
#804=SURFACE_STYLE_FILL_AREA(#805);
#805=FILL_AREA_STYLE('',(#806));
#806=FILL_AREA_STYLE_COLOUR('',#807);
#807=COLOUR_RGB('',0.0196078431372549,0.0196078431372549,0.0196078431372549);
ENDSEC;
END-ISO-10303-21;
