ISO-10303-21;
HEADER;
/* Generated by software containing ST-Developer
 * from STEP Tools, Inc. (www.steptools.com) 
 */

FILE_DESCRIPTION(
/* description */ (''),
/* implementation_level */ '2;1');

FILE_NAME(
/* name */ 'Clamp3.stp',
/* time_stamp */ '2025-10-05T00:09:03-04:00',
/* author */ ('Teddy'),
/* organization */ (''),
/* preprocessor_version */ 'ST-DEVELOPER v20.1',
/* originating_system */ 'Autodesk Inventor 2026',
/* authorisation */ '');

FILE_SCHEMA (('AUTOMOTIVE_DESIGN { 1 0 10303 214 3 1 1 }'));
ENDSEC;

DATA;
#10=MECHANICAL_DESIGN_GEOMETRIC_PRESENTATION_REPRESENTATION('',(#13),#821);
#11=SHAPE_REPRESENTATION_RELATIONSHIP('SRR','None',#832,#12);
#12=ADVANCED_BREP_SHAPE_REPRESENTATION('',(#14),#820);
#13=STYLED_ITEM('',(#841),#14);
#14=MANIFOLD_SOLID_BREP('Solid1',#473);
#15=FACE_BOUND('',#84,.T.);
#16=FACE_BOUND('',#85,.T.);
#17=FACE_BOUND('',#86,.T.);
#18=FACE_BOUND('',#100,.T.);
#19=FACE_BOUND('',#101,.T.);
#20=FACE_BOUND('',#102,.T.);
#21=CIRCLE('',#512,0.25);
#22=CIRCLE('',#513,0.25);
#23=CIRCLE('',#516,0.25);
#24=CIRCLE('',#517,0.25);
#25=CIRCLE('',#518,0.25);
#26=CIRCLE('',#519,0.25);
#27=CIRCLE('',#520,0.25);
#28=CIRCLE('',#521,0.0899999999999999);
#29=CIRCLE('',#522,0.09);
#30=CIRCLE('',#524,0.25);
#31=CIRCLE('',#527,0.25);
#32=CIRCLE('',#529,0.25);
#33=CIRCLE('',#532,0.09);
#34=CIRCLE('',#534,0.0899999999999999);
#35=CIRCLE('',#537,0.25);
#36=CIRCLE('',#541,0.25);
#37=PLANE('',#498);
#38=PLANE('',#502);
#39=PLANE('',#503);
#40=PLANE('',#510);
#41=PLANE('',#514);
#42=PLANE('',#515);
#43=PLANE('',#525);
#44=PLANE('',#530);
#45=PLANE('',#535);
#46=PLANE('',#538);
#47=PLANE('',#539);
#48=PLANE('',#542);
#49=FACE_OUTER_BOUND('',#73,.T.);
#50=FACE_OUTER_BOUND('',#74,.T.);
#51=FACE_OUTER_BOUND('',#75,.T.);
#52=FACE_OUTER_BOUND('',#76,.T.);
#53=FACE_OUTER_BOUND('',#77,.T.);
#54=FACE_OUTER_BOUND('',#78,.T.);
#55=FACE_OUTER_BOUND('',#79,.T.);
#56=FACE_OUTER_BOUND('',#80,.T.);
#57=FACE_OUTER_BOUND('',#81,.T.);
#58=FACE_OUTER_BOUND('',#82,.T.);
#59=FACE_OUTER_BOUND('',#83,.T.);
#60=FACE_OUTER_BOUND('',#87,.T.);
#61=FACE_OUTER_BOUND('',#88,.T.);
#62=FACE_OUTER_BOUND('',#89,.T.);
#63=FACE_OUTER_BOUND('',#90,.T.);
#64=FACE_OUTER_BOUND('',#91,.T.);
#65=FACE_OUTER_BOUND('',#92,.T.);
#66=FACE_OUTER_BOUND('',#93,.T.);
#67=FACE_OUTER_BOUND('',#94,.T.);
#68=FACE_OUTER_BOUND('',#95,.T.);
#69=FACE_OUTER_BOUND('',#96,.T.);
#70=FACE_OUTER_BOUND('',#97,.T.);
#71=FACE_OUTER_BOUND('',#98,.T.);
#72=FACE_OUTER_BOUND('',#99,.T.);
#73=EDGE_LOOP('',(#305,#306,#307,#308));
#74=EDGE_LOOP('',(#309,#310,#311,#312));
#75=EDGE_LOOP('',(#313,#314,#315,#316));
#76=EDGE_LOOP('',(#317,#318,#319,#320));
#77=EDGE_LOOP('',(#321,#322,#323,#324));
#78=EDGE_LOOP('',(#325,#326,#327,#328));
#79=EDGE_LOOP('',(#329,#330,#331,#332));
#80=EDGE_LOOP('',(#333,#334,#335,#336));
#81=EDGE_LOOP('',(#337,#338,#339,#340));
#82=EDGE_LOOP('',(#341,#342,#343,#344));
#83=EDGE_LOOP('',(#345,#346,#347,#348,#349,#350,#351,#352,#353,#354,#355,
#356));
#84=EDGE_LOOP('',(#357,#358,#359,#360,#361,#362,#363,#364));
#85=EDGE_LOOP('',(#365));
#86=EDGE_LOOP('',(#366));
#87=EDGE_LOOP('',(#367,#368,#369,#370));
#88=EDGE_LOOP('',(#371,#372,#373,#374));
#89=EDGE_LOOP('',(#375,#376,#377,#378));
#90=EDGE_LOOP('',(#379,#380,#381,#382));
#91=EDGE_LOOP('',(#383,#384,#385,#386));
#92=EDGE_LOOP('',(#387,#388,#389,#390));
#93=EDGE_LOOP('',(#391,#392,#393,#394));
#94=EDGE_LOOP('',(#395,#396,#397,#398));
#95=EDGE_LOOP('',(#399,#400,#401,#402));
#96=EDGE_LOOP('',(#403,#404,#405,#406));
#97=EDGE_LOOP('',(#407,#408,#409,#410));
#98=EDGE_LOOP('',(#411,#412,#413,#414));
#99=EDGE_LOOP('',(#415,#416,#417,#418,#419,#420,#421,#422,#423,#424,#425,
#426));
#100=EDGE_LOOP('',(#427,#428,#429,#430,#431,#432,#433,#434));
#101=EDGE_LOOP('',(#435));
#102=EDGE_LOOP('',(#436));
#103=LINE('',#689,#145);
#104=LINE('',#692,#146);
#105=LINE('',#695,#147);
#106=LINE('',#697,#148);
#107=LINE('',#698,#149);
#108=LINE('',#704,#150);
#109=LINE('',#707,#151);
#110=LINE('',#709,#152);
#111=LINE('',#710,#153);
#112=LINE('',#713,#154);
#113=LINE('',#715,#155);
#114=LINE('',#716,#156);
#115=LINE('',#721,#157);
#116=LINE('',#728,#158);
#117=LINE('',#730,#159);
#118=LINE('',#731,#160);
#119=LINE('',#737,#161);
#120=LINE('',#740,#162);
#121=LINE('',#743,#163);
#122=LINE('',#745,#164);
#123=LINE('',#746,#165);
#124=LINE('',#749,#166);
#125=LINE('',#753,#167);
#126=LINE('',#757,#168);
#127=LINE('',#761,#169);
#128=LINE('',#765,#170);
#129=LINE('',#775,#171);
#130=LINE('',#776,#172);
#131=LINE('',#779,#173);
#132=LINE('',#780,#174);
#133=LINE('',#784,#175);
#134=LINE('',#789,#176);
#135=LINE('',#790,#177);
#136=LINE('',#793,#178);
#137=LINE('',#794,#179);
#138=LINE('',#798,#180);
#139=LINE('',#802,#181);
#140=LINE('',#805,#182);
#141=LINE('',#806,#183);
#142=LINE('',#810,#184);
#143=LINE('',#813,#185);
#144=LINE('',#814,#186);
#145=VECTOR('',#549,0.393700787401575);
#146=VECTOR('',#552,0.393700787401575);
#147=VECTOR('',#555,0.393700787401575);
#148=VECTOR('',#556,0.393700787401575);
#149=VECTOR('',#557,0.393700787401575);
#150=VECTOR('',#564,0.393700787401575);
#151=VECTOR('',#567,0.393700787401575);
#152=VECTOR('',#568,0.393700787401575);
#153=VECTOR('',#569,0.393700787401575);
#154=VECTOR('',#572,0.393700787401575);
#155=VECTOR('',#573,0.393700787401575);
#156=VECTOR('',#574,0.393700787401575);
#157=VECTOR('',#579,0.393700787401575);
#158=VECTOR('',#588,0.393700787401575);
#159=VECTOR('',#591,0.393700787401575);
#160=VECTOR('',#592,0.393700787401575);
#161=VECTOR('',#597,0.393700787401575);
#162=VECTOR('',#600,0.393700787401575);
#163=VECTOR('',#603,0.393700787401575);
#164=VECTOR('',#604,0.393700787401575);
#165=VECTOR('',#605,0.393700787401575);
#166=VECTOR('',#608,0.393700787401575);
#167=VECTOR('',#611,0.393700787401575);
#168=VECTOR('',#614,0.393700787401575);
#169=VECTOR('',#617,0.393700787401575);
#170=VECTOR('',#620,0.393700787401575);
#171=VECTOR('',#631,0.393700787401575);
#172=VECTOR('',#632,0.393700787401575);
#173=VECTOR('',#635,0.393700787401575);
#174=VECTOR('',#636,0.393700787401575);
#175=VECTOR('',#641,0.393700787401575);
#176=VECTOR('',#646,0.393700787401575);
#177=VECTOR('',#647,0.393700787401575);
#178=VECTOR('',#650,0.393700787401575);
#179=VECTOR('',#651,0.393700787401575);
#180=VECTOR('',#656,0.09);
#181=VECTOR('',#661,0.0899999999999999);
#182=VECTOR('',#664,0.393700787401575);
#183=VECTOR('',#665,0.393700787401575);
#184=VECTOR('',#672,0.393700787401575);
#185=VECTOR('',#675,0.393700787401575);
#186=VECTOR('',#676,0.393700787401575);
#187=ELLIPSE('',#496,0.0500156663333316,0.05);
#188=ELLIPSE('',#497,0.0500156663333316,0.05);
#189=ELLIPSE('',#500,0.0500152223689166,0.0500000000003534);
#190=ELLIPSE('',#501,0.0500152223689166,0.0500000000003534);
#191=ELLIPSE('',#505,0.0500156761499258,0.05);
#192=ELLIPSE('',#506,0.0500156761499258,0.05);
#193=ELLIPSE('',#508,0.0500152316441992,0.0500000000003533);
#194=ELLIPSE('',#509,0.0500152316441992,0.0500000000003533);
#195=VERTEX_POINT('',#685);
#196=VERTEX_POINT('',#686);
#197=VERTEX_POINT('',#688);
#198=VERTEX_POINT('',#690);
#199=VERTEX_POINT('',#694);
#200=VERTEX_POINT('',#696);
#201=VERTEX_POINT('',#700);
#202=VERTEX_POINT('',#702);
#203=VERTEX_POINT('',#706);
#204=VERTEX_POINT('',#708);
#205=VERTEX_POINT('',#712);
#206=VERTEX_POINT('',#714);
#207=VERTEX_POINT('',#718);
#208=VERTEX_POINT('',#720);
#209=VERTEX_POINT('',#724);
#210=VERTEX_POINT('',#726);
#211=VERTEX_POINT('',#733);
#212=VERTEX_POINT('',#734);
#213=VERTEX_POINT('',#736);
#214=VERTEX_POINT('',#738);
#215=VERTEX_POINT('',#742);
#216=VERTEX_POINT('',#744);
#217=VERTEX_POINT('',#748);
#218=VERTEX_POINT('',#750);
#219=VERTEX_POINT('',#752);
#220=VERTEX_POINT('',#754);
#221=VERTEX_POINT('',#756);
#222=VERTEX_POINT('',#758);
#223=VERTEX_POINT('',#760);
#224=VERTEX_POINT('',#762);
#225=VERTEX_POINT('',#764);
#226=VERTEX_POINT('',#767);
#227=VERTEX_POINT('',#769);
#228=VERTEX_POINT('',#772);
#229=VERTEX_POINT('',#773);
#230=VERTEX_POINT('',#778);
#231=VERTEX_POINT('',#782);
#232=VERTEX_POINT('',#786);
#233=VERTEX_POINT('',#787);
#234=VERTEX_POINT('',#792);
#235=VERTEX_POINT('',#796);
#236=VERTEX_POINT('',#800);
#237=VERTEX_POINT('',#804);
#238=VERTEX_POINT('',#812);
#239=EDGE_CURVE('',#195,#196,#187,.T.);
#240=EDGE_CURVE('',#197,#195,#103,.T.);
#241=EDGE_CURVE('',#198,#197,#188,.T.);
#242=EDGE_CURVE('',#196,#198,#104,.T.);
#243=EDGE_CURVE('',#196,#199,#105,.T.);
#244=EDGE_CURVE('',#200,#198,#106,.T.);
#245=EDGE_CURVE('',#200,#199,#107,.T.);
#246=EDGE_CURVE('',#199,#201,#189,.T.);
#247=EDGE_CURVE('',#202,#200,#190,.T.);
#248=EDGE_CURVE('',#201,#202,#108,.T.);
#249=EDGE_CURVE('',#201,#203,#109,.T.);
#250=EDGE_CURVE('',#204,#202,#110,.T.);
#251=EDGE_CURVE('',#204,#203,#111,.T.);
#252=EDGE_CURVE('',#205,#195,#112,.T.);
#253=EDGE_CURVE('',#205,#206,#113,.T.);
#254=EDGE_CURVE('',#197,#206,#114,.T.);
#255=EDGE_CURVE('',#207,#205,#191,.T.);
#256=EDGE_CURVE('',#208,#207,#115,.T.);
#257=EDGE_CURVE('',#206,#208,#192,.T.);
#258=EDGE_CURVE('',#203,#209,#193,.T.);
#259=EDGE_CURVE('',#210,#204,#194,.T.);
#260=EDGE_CURVE('',#209,#210,#116,.T.);
#261=EDGE_CURVE('',#209,#207,#117,.T.);
#262=EDGE_CURVE('',#208,#210,#118,.T.);
#263=EDGE_CURVE('',#211,#212,#21,.T.);
#264=EDGE_CURVE('',#212,#213,#119,.T.);
#265=EDGE_CURVE('',#213,#214,#22,.T.);
#266=EDGE_CURVE('',#214,#211,#120,.T.);
#267=EDGE_CURVE('',#214,#215,#121,.T.);
#268=EDGE_CURVE('',#215,#216,#122,.T.);
#269=EDGE_CURVE('',#211,#216,#123,.T.);
#270=EDGE_CURVE('',#217,#213,#124,.T.);
#271=EDGE_CURVE('',#218,#217,#23,.T.);
#272=EDGE_CURVE('',#219,#218,#125,.T.);
#273=EDGE_CURVE('',#220,#219,#24,.T.);
#274=EDGE_CURVE('',#221,#220,#126,.T.);
#275=EDGE_CURVE('',#222,#221,#25,.T.);
#276=EDGE_CURVE('',#223,#222,#127,.T.);
#277=EDGE_CURVE('',#224,#223,#26,.T.);
#278=EDGE_CURVE('',#225,#224,#128,.T.);
#279=EDGE_CURVE('',#215,#225,#27,.T.);
#280=EDGE_CURVE('',#226,#226,#28,.T.);
#281=EDGE_CURVE('',#227,#227,#29,.T.);
#282=EDGE_CURVE('',#228,#229,#30,.T.);
#283=EDGE_CURVE('',#229,#218,#129,.T.);
#284=EDGE_CURVE('',#217,#228,#130,.T.);
#285=EDGE_CURVE('',#230,#229,#131,.T.);
#286=EDGE_CURVE('',#219,#230,#132,.T.);
#287=EDGE_CURVE('',#230,#231,#31,.T.);
#288=EDGE_CURVE('',#231,#220,#133,.T.);
#289=EDGE_CURVE('',#232,#233,#32,.T.);
#290=EDGE_CURVE('',#233,#224,#134,.T.);
#291=EDGE_CURVE('',#223,#232,#135,.T.);
#292=EDGE_CURVE('',#234,#233,#136,.T.);
#293=EDGE_CURVE('',#225,#234,#137,.T.);
#294=EDGE_CURVE('',#235,#235,#33,.T.);
#295=EDGE_CURVE('',#235,#227,#138,.T.);
#296=EDGE_CURVE('',#236,#236,#34,.T.);
#297=EDGE_CURVE('',#236,#226,#139,.T.);
#298=EDGE_CURVE('',#222,#237,#140,.T.);
#299=EDGE_CURVE('',#232,#237,#141,.T.);
#300=EDGE_CURVE('',#216,#234,#35,.T.);
#301=EDGE_CURVE('',#228,#212,#142,.T.);
#302=EDGE_CURVE('',#238,#231,#143,.T.);
#303=EDGE_CURVE('',#221,#238,#144,.T.);
#304=EDGE_CURVE('',#237,#238,#36,.T.);
#305=ORIENTED_EDGE('',*,*,#239,.F.);
#306=ORIENTED_EDGE('',*,*,#240,.F.);
#307=ORIENTED_EDGE('',*,*,#241,.F.);
#308=ORIENTED_EDGE('',*,*,#242,.F.);
#309=ORIENTED_EDGE('',*,*,#243,.F.);
#310=ORIENTED_EDGE('',*,*,#242,.T.);
#311=ORIENTED_EDGE('',*,*,#244,.F.);
#312=ORIENTED_EDGE('',*,*,#245,.T.);
#313=ORIENTED_EDGE('',*,*,#246,.F.);
#314=ORIENTED_EDGE('',*,*,#245,.F.);
#315=ORIENTED_EDGE('',*,*,#247,.F.);
#316=ORIENTED_EDGE('',*,*,#248,.F.);
#317=ORIENTED_EDGE('',*,*,#249,.F.);
#318=ORIENTED_EDGE('',*,*,#248,.T.);
#319=ORIENTED_EDGE('',*,*,#250,.F.);
#320=ORIENTED_EDGE('',*,*,#251,.T.);
#321=ORIENTED_EDGE('',*,*,#252,.F.);
#322=ORIENTED_EDGE('',*,*,#253,.T.);
#323=ORIENTED_EDGE('',*,*,#254,.F.);
#324=ORIENTED_EDGE('',*,*,#240,.T.);
#325=ORIENTED_EDGE('',*,*,#255,.F.);
#326=ORIENTED_EDGE('',*,*,#256,.F.);
#327=ORIENTED_EDGE('',*,*,#257,.F.);
#328=ORIENTED_EDGE('',*,*,#253,.F.);
#329=ORIENTED_EDGE('',*,*,#258,.F.);
#330=ORIENTED_EDGE('',*,*,#251,.F.);
#331=ORIENTED_EDGE('',*,*,#259,.F.);
#332=ORIENTED_EDGE('',*,*,#260,.F.);
#333=ORIENTED_EDGE('',*,*,#261,.F.);
#334=ORIENTED_EDGE('',*,*,#260,.T.);
#335=ORIENTED_EDGE('',*,*,#262,.F.);
#336=ORIENTED_EDGE('',*,*,#256,.T.);
#337=ORIENTED_EDGE('',*,*,#263,.T.);
#338=ORIENTED_EDGE('',*,*,#264,.T.);
#339=ORIENTED_EDGE('',*,*,#265,.T.);
#340=ORIENTED_EDGE('',*,*,#266,.T.);
#341=ORIENTED_EDGE('',*,*,#266,.F.);
#342=ORIENTED_EDGE('',*,*,#267,.T.);
#343=ORIENTED_EDGE('',*,*,#268,.T.);
#344=ORIENTED_EDGE('',*,*,#269,.F.);
#345=ORIENTED_EDGE('',*,*,#265,.F.);
#346=ORIENTED_EDGE('',*,*,#270,.F.);
#347=ORIENTED_EDGE('',*,*,#271,.F.);
#348=ORIENTED_EDGE('',*,*,#272,.F.);
#349=ORIENTED_EDGE('',*,*,#273,.F.);
#350=ORIENTED_EDGE('',*,*,#274,.F.);
#351=ORIENTED_EDGE('',*,*,#275,.F.);
#352=ORIENTED_EDGE('',*,*,#276,.F.);
#353=ORIENTED_EDGE('',*,*,#277,.F.);
#354=ORIENTED_EDGE('',*,*,#278,.F.);
#355=ORIENTED_EDGE('',*,*,#279,.F.);
#356=ORIENTED_EDGE('',*,*,#267,.F.);
#357=ORIENTED_EDGE('',*,*,#258,.T.);
#358=ORIENTED_EDGE('',*,*,#261,.T.);
#359=ORIENTED_EDGE('',*,*,#255,.T.);
#360=ORIENTED_EDGE('',*,*,#252,.T.);
#361=ORIENTED_EDGE('',*,*,#239,.T.);
#362=ORIENTED_EDGE('',*,*,#243,.T.);
#363=ORIENTED_EDGE('',*,*,#246,.T.);
#364=ORIENTED_EDGE('',*,*,#249,.T.);
#365=ORIENTED_EDGE('',*,*,#280,.F.);
#366=ORIENTED_EDGE('',*,*,#281,.F.);
#367=ORIENTED_EDGE('',*,*,#282,.T.);
#368=ORIENTED_EDGE('',*,*,#283,.T.);
#369=ORIENTED_EDGE('',*,*,#271,.T.);
#370=ORIENTED_EDGE('',*,*,#284,.T.);
#371=ORIENTED_EDGE('',*,*,#283,.F.);
#372=ORIENTED_EDGE('',*,*,#285,.F.);
#373=ORIENTED_EDGE('',*,*,#286,.F.);
#374=ORIENTED_EDGE('',*,*,#272,.T.);
#375=ORIENTED_EDGE('',*,*,#287,.T.);
#376=ORIENTED_EDGE('',*,*,#288,.T.);
#377=ORIENTED_EDGE('',*,*,#273,.T.);
#378=ORIENTED_EDGE('',*,*,#286,.T.);
#379=ORIENTED_EDGE('',*,*,#289,.T.);
#380=ORIENTED_EDGE('',*,*,#290,.T.);
#381=ORIENTED_EDGE('',*,*,#277,.T.);
#382=ORIENTED_EDGE('',*,*,#291,.T.);
#383=ORIENTED_EDGE('',*,*,#290,.F.);
#384=ORIENTED_EDGE('',*,*,#292,.F.);
#385=ORIENTED_EDGE('',*,*,#293,.F.);
#386=ORIENTED_EDGE('',*,*,#278,.T.);
#387=ORIENTED_EDGE('',*,*,#294,.F.);
#388=ORIENTED_EDGE('',*,*,#295,.T.);
#389=ORIENTED_EDGE('',*,*,#281,.T.);
#390=ORIENTED_EDGE('',*,*,#295,.F.);
#391=ORIENTED_EDGE('',*,*,#296,.F.);
#392=ORIENTED_EDGE('',*,*,#297,.T.);
#393=ORIENTED_EDGE('',*,*,#280,.T.);
#394=ORIENTED_EDGE('',*,*,#297,.F.);
#395=ORIENTED_EDGE('',*,*,#291,.F.);
#396=ORIENTED_EDGE('',*,*,#276,.T.);
#397=ORIENTED_EDGE('',*,*,#298,.T.);
#398=ORIENTED_EDGE('',*,*,#299,.F.);
#399=ORIENTED_EDGE('',*,*,#279,.T.);
#400=ORIENTED_EDGE('',*,*,#293,.T.);
#401=ORIENTED_EDGE('',*,*,#300,.F.);
#402=ORIENTED_EDGE('',*,*,#268,.F.);
#403=ORIENTED_EDGE('',*,*,#264,.F.);
#404=ORIENTED_EDGE('',*,*,#301,.F.);
#405=ORIENTED_EDGE('',*,*,#284,.F.);
#406=ORIENTED_EDGE('',*,*,#270,.T.);
#407=ORIENTED_EDGE('',*,*,#288,.F.);
#408=ORIENTED_EDGE('',*,*,#302,.F.);
#409=ORIENTED_EDGE('',*,*,#303,.F.);
#410=ORIENTED_EDGE('',*,*,#274,.T.);
#411=ORIENTED_EDGE('',*,*,#275,.T.);
#412=ORIENTED_EDGE('',*,*,#303,.T.);
#413=ORIENTED_EDGE('',*,*,#304,.F.);
#414=ORIENTED_EDGE('',*,*,#298,.F.);
#415=ORIENTED_EDGE('',*,*,#263,.F.);
#416=ORIENTED_EDGE('',*,*,#269,.T.);
#417=ORIENTED_EDGE('',*,*,#300,.T.);
#418=ORIENTED_EDGE('',*,*,#292,.T.);
#419=ORIENTED_EDGE('',*,*,#289,.F.);
#420=ORIENTED_EDGE('',*,*,#299,.T.);
#421=ORIENTED_EDGE('',*,*,#304,.T.);
#422=ORIENTED_EDGE('',*,*,#302,.T.);
#423=ORIENTED_EDGE('',*,*,#287,.F.);
#424=ORIENTED_EDGE('',*,*,#285,.T.);
#425=ORIENTED_EDGE('',*,*,#282,.F.);
#426=ORIENTED_EDGE('',*,*,#301,.T.);
#427=ORIENTED_EDGE('',*,*,#259,.T.);
#428=ORIENTED_EDGE('',*,*,#250,.T.);
#429=ORIENTED_EDGE('',*,*,#247,.T.);
#430=ORIENTED_EDGE('',*,*,#244,.T.);
#431=ORIENTED_EDGE('',*,*,#241,.T.);
#432=ORIENTED_EDGE('',*,*,#254,.T.);
#433=ORIENTED_EDGE('',*,*,#257,.T.);
#434=ORIENTED_EDGE('',*,*,#262,.T.);
#435=ORIENTED_EDGE('',*,*,#296,.T.);
#436=ORIENTED_EDGE('',*,*,#294,.T.);
#437=CYLINDRICAL_SURFACE('',#495,0.05);
#438=CYLINDRICAL_SURFACE('',#499,0.05);
#439=CYLINDRICAL_SURFACE('',#504,0.05);
#440=CYLINDRICAL_SURFACE('',#507,0.05);
#441=CYLINDRICAL_SURFACE('',#511,0.25);
#442=CYLINDRICAL_SURFACE('',#523,0.25);
#443=CYLINDRICAL_SURFACE('',#526,0.25);
#444=CYLINDRICAL_SURFACE('',#528,0.25);
#445=CYLINDRICAL_SURFACE('',#531,0.09);
#446=CYLINDRICAL_SURFACE('',#533,0.0899999999999999);
#447=CYLINDRICAL_SURFACE('',#536,0.25);
#448=CYLINDRICAL_SURFACE('',#540,0.25);
#449=ADVANCED_FACE('',(#49),#437,.F.);
#450=ADVANCED_FACE('',(#50),#37,.F.);
#451=ADVANCED_FACE('',(#51),#438,.F.);
#452=ADVANCED_FACE('',(#52),#38,.F.);
#453=ADVANCED_FACE('',(#53),#39,.F.);
#454=ADVANCED_FACE('',(#54),#439,.F.);
#455=ADVANCED_FACE('',(#55),#440,.F.);
#456=ADVANCED_FACE('',(#56),#40,.F.);
#457=ADVANCED_FACE('',(#57),#441,.T.);
#458=ADVANCED_FACE('',(#58),#41,.T.);
#459=ADVANCED_FACE('',(#59,#15,#16,#17),#42,.F.);
#460=ADVANCED_FACE('',(#60),#442,.T.);
#461=ADVANCED_FACE('',(#61),#43,.T.);
#462=ADVANCED_FACE('',(#62),#443,.T.);
#463=ADVANCED_FACE('',(#63),#444,.T.);
#464=ADVANCED_FACE('',(#64),#44,.T.);
#465=ADVANCED_FACE('',(#65),#445,.F.);
#466=ADVANCED_FACE('',(#66),#446,.F.);
#467=ADVANCED_FACE('',(#67),#45,.T.);
#468=ADVANCED_FACE('',(#68),#447,.T.);
#469=ADVANCED_FACE('',(#69),#46,.T.);
#470=ADVANCED_FACE('',(#70),#47,.T.);
#471=ADVANCED_FACE('',(#71),#448,.T.);
#472=ADVANCED_FACE('',(#72,#18,#19,#20),#48,.T.);
#473=CLOSED_SHELL('',(#449,#450,#451,#452,#453,#454,#455,#456,#457,#458,
#459,#460,#461,#462,#463,#464,#465,#466,#467,#468,#469,#470,#471,#472));
#474=DERIVED_UNIT_ELEMENT(#476,1.);
#475=DERIVED_UNIT_ELEMENT(#826,-3.);
#476=(
CONVERSION_BASED_UNIT('gram',#478)
MASS_UNIT()
NAMED_UNIT(#823)
);
#477=(
MASS_UNIT()
NAMED_UNIT(*)
SI_UNIT(.KILO.,.GRAM.)
);
#478=MASS_MEASURE_WITH_UNIT(MASS_MEASURE(0.001),#477);
#479=DERIVED_UNIT((#474,#475));
#480=MEASURE_REPRESENTATION_ITEM('density measure',
POSITIVE_RATIO_MEASURE(0.952),#479);
#481=PROPERTY_DEFINITION_REPRESENTATION(#486,#483);
#482=PROPERTY_DEFINITION_REPRESENTATION(#487,#484);
#483=REPRESENTATION('material name',(#485),#820);
#484=REPRESENTATION('density',(#480),#820);
#485=DESCRIPTIVE_REPRESENTATION_ITEM('Plastic, Opaque Black',
'Plastic, Opaque Black');
#486=PROPERTY_DEFINITION('material property','material name',#834);
#487=PROPERTY_DEFINITION('material property','density of part',#834);
#488=DATE_TIME_ROLE('creation_date');
#489=APPLIED_DATE_AND_TIME_ASSIGNMENT(#490,#488,(#834));
#490=DATE_AND_TIME(#491,#492);
#491=CALENDAR_DATE(2025,3,9);
#492=LOCAL_TIME(0,0,0.,#493);
#493=COORDINATED_UNIVERSAL_TIME_OFFSET(0,0,.BEHIND.);
#494=AXIS2_PLACEMENT_3D('',#683,#543,#544);
#495=AXIS2_PLACEMENT_3D('',#684,#545,#546);
#496=AXIS2_PLACEMENT_3D('',#687,#547,#548);
#497=AXIS2_PLACEMENT_3D('',#691,#550,#551);
#498=AXIS2_PLACEMENT_3D('',#693,#553,#554);
#499=AXIS2_PLACEMENT_3D('',#699,#558,#559);
#500=AXIS2_PLACEMENT_3D('',#701,#560,#561);
#501=AXIS2_PLACEMENT_3D('',#703,#562,#563);
#502=AXIS2_PLACEMENT_3D('',#705,#565,#566);
#503=AXIS2_PLACEMENT_3D('',#711,#570,#571);
#504=AXIS2_PLACEMENT_3D('',#717,#575,#576);
#505=AXIS2_PLACEMENT_3D('',#719,#577,#578);
#506=AXIS2_PLACEMENT_3D('',#722,#580,#581);
#507=AXIS2_PLACEMENT_3D('',#723,#582,#583);
#508=AXIS2_PLACEMENT_3D('',#725,#584,#585);
#509=AXIS2_PLACEMENT_3D('',#727,#586,#587);
#510=AXIS2_PLACEMENT_3D('',#729,#589,#590);
#511=AXIS2_PLACEMENT_3D('',#732,#593,#594);
#512=AXIS2_PLACEMENT_3D('',#735,#595,#596);
#513=AXIS2_PLACEMENT_3D('',#739,#598,#599);
#514=AXIS2_PLACEMENT_3D('',#741,#601,#602);
#515=AXIS2_PLACEMENT_3D('',#747,#606,#607);
#516=AXIS2_PLACEMENT_3D('',#751,#609,#610);
#517=AXIS2_PLACEMENT_3D('',#755,#612,#613);
#518=AXIS2_PLACEMENT_3D('',#759,#615,#616);
#519=AXIS2_PLACEMENT_3D('',#763,#618,#619);
#520=AXIS2_PLACEMENT_3D('',#766,#621,#622);
#521=AXIS2_PLACEMENT_3D('',#768,#623,#624);
#522=AXIS2_PLACEMENT_3D('',#770,#625,#626);
#523=AXIS2_PLACEMENT_3D('',#771,#627,#628);
#524=AXIS2_PLACEMENT_3D('',#774,#629,#630);
#525=AXIS2_PLACEMENT_3D('',#777,#633,#634);
#526=AXIS2_PLACEMENT_3D('',#781,#637,#638);
#527=AXIS2_PLACEMENT_3D('',#783,#639,#640);
#528=AXIS2_PLACEMENT_3D('',#785,#642,#643);
#529=AXIS2_PLACEMENT_3D('',#788,#644,#645);
#530=AXIS2_PLACEMENT_3D('',#791,#648,#649);
#531=AXIS2_PLACEMENT_3D('',#795,#652,#653);
#532=AXIS2_PLACEMENT_3D('',#797,#654,#655);
#533=AXIS2_PLACEMENT_3D('',#799,#657,#658);
#534=AXIS2_PLACEMENT_3D('',#801,#659,#660);
#535=AXIS2_PLACEMENT_3D('',#803,#662,#663);
#536=AXIS2_PLACEMENT_3D('',#807,#666,#667);
#537=AXIS2_PLACEMENT_3D('',#808,#668,#669);
#538=AXIS2_PLACEMENT_3D('',#809,#670,#671);
#539=AXIS2_PLACEMENT_3D('',#811,#673,#674);
#540=AXIS2_PLACEMENT_3D('',#815,#677,#678);
#541=AXIS2_PLACEMENT_3D('',#816,#679,#680);
#542=AXIS2_PLACEMENT_3D('',#817,#681,#682);
#543=DIRECTION('axis',(0.,0.,1.));
#544=DIRECTION('refdir',(1.,0.,0.));
#545=DIRECTION('center_axis',(-0.0174495965711064,0.0179407501226836,0.999686771476217));
#546=DIRECTION('ref_axis',(0.706999187538313,-0.70677147172144,0.0250246994162933));
#547=DIRECTION('center_axis',(9.86076131526265E-32,-7.04206187324321E-63,
1.));
#548=DIRECTION('ref_axis',(0.697226286001465,-0.716851104559799,0.));
#549=DIRECTION('',(0.0174495965711064,-0.0179407501226836,-0.999686771476217));
#550=DIRECTION('center_axis',(-9.86076131526265E-32,7.04206187324321E-63,
-1.));
#551=DIRECTION('ref_axis',(0.697226286001465,-0.716851104559799,0.));
#552=DIRECTION('',(-0.0174495965711064,0.0179407501226836,0.999686771476217));
#553=DIRECTION('center_axis',(0.999847695172673,1.06865162692691E-18,0.0174524055045264));
#554=DIRECTION('ref_axis',(0.0174524055045264,0.,-0.999847695172673));
#555=DIRECTION('',(-1.06881441252146E-18,1.,1.05393238121874E-49));
#556=DIRECTION('',(1.06881441252146E-18,-1.,-1.05393238121874E-49));
#557=DIRECTION('',(0.0174497514638251,0.0174391224793253,-0.999695645274602));
#558=DIRECTION('center_axis',(0.0174497514638251,0.0174391224793253,-0.999695645274602));
#559=DIRECTION('ref_axis',(0.706999183741769,0.70678393967577,0.0246701602116837));
#560=DIRECTION('center_axis',(9.86076131526265E-32,-7.04206187324321E-63,
1.));
#561=DIRECTION('ref_axis',(0.707214493368606,0.706999052594404,0.));
#562=DIRECTION('center_axis',(-9.86076131526265E-32,7.04206187324321E-63,
-1.));
#563=DIRECTION('ref_axis',(0.707214493368606,0.706999052594404,0.));
#564=DIRECTION('',(-0.0174497514638251,-0.0174391224793253,0.999695645274602));
#565=DIRECTION('center_axis',(0.00030454011458088,0.999847741535795,0.0174470914793659));
#566=DIRECTION('ref_axis',(0.0174497491606825,-0.0174497491606828,0.999695459881887));
#567=DIRECTION('',(-0.999999953613538,0.000304586476323444,9.86076085785682E-32));
#568=DIRECTION('',(0.999999953613538,-0.000304586476323444,-9.86076085785682E-32));
#569=DIRECTION('',(-0.0174497491606825,0.0174497491606828,-0.999695459881887));
#570=DIRECTION('center_axis',(0.000313300055400316,-0.999838855567878,0.0179489481527991));
#571=DIRECTION('ref_axis',(-0.0174495940791588,-0.0179516822809614,-0.999686575267346));
#572=DIRECTION('',(0.99999995090572,0.000313350534713046,-9.86076083115567E-32));
#573=DIRECTION('',(0.0174495940791588,0.0179516822809614,0.999686575267346));
#574=DIRECTION('',(-0.99999995090572,-0.000313350534713046,9.86076083115567E-32));
#575=DIRECTION('center_axis',(0.0174495940791588,0.0179516822809614,0.999686575267346));
#576=DIRECTION('ref_axis',(-0.706777548805108,-0.70699283486584,0.0250325378938381));
#577=DIRECTION('center_axis',(9.86076131526265E-32,-7.04206187324321E-63,
1.));
#578=DIRECTION('ref_axis',(-0.697007949117557,-0.717063399475204,0.));
#579=DIRECTION('',(-0.0174495940791588,-0.0179516822809614,-0.999686575267346));
#580=DIRECTION('center_axis',(-9.86076131526265E-32,7.04206187324321E-63,
-1.));
#581=DIRECTION('ref_axis',(-0.697007949117557,-0.717063399475204,0.));
#582=DIRECTION('center_axis',(-0.0174497491606825,0.0174497491606828,-0.999695459881888));
#583=DIRECTION('ref_axis',(-0.706783743018659,0.706999118194017,0.0246776716368684));
#584=DIRECTION('center_axis',(9.86076131526265E-32,-7.04206187324321E-63,
1.));
#585=DIRECTION('ref_axis',(-0.706999118199006,0.707214427783984,0.));
#586=DIRECTION('center_axis',(-9.86076131526265E-32,7.04206187324321E-63,
-1.));
#587=DIRECTION('ref_axis',(-0.706999118199006,0.707214427783984,0.));
#588=DIRECTION('',(0.0174497491606825,-0.0174497491606828,0.999695459881887));
#589=DIRECTION('center_axis',(-0.999847695156391,1.06865168404197E-18,0.0174524064372833));
#590=DIRECTION('ref_axis',(0.0174524064372833,0.,0.999847695156391));
#591=DIRECTION('',(-1.06881446966262E-18,-1.,1.05393243756414E-49));
#592=DIRECTION('',(1.06881446966262E-18,1.,-1.05393243756414E-49));
#593=DIRECTION('center_axis',(0.,0.,1.));
#594=DIRECTION('ref_axis',(0.472706386072399,-0.881219991016076,0.));
#595=DIRECTION('center_axis',(-9.86076131526265E-32,7.04206187324321E-63,
-1.));
#596=DIRECTION('ref_axis',(0.472706386072399,-0.881219991016076,0.));
#597=DIRECTION('',(0.,0.,-1.));
#598=DIRECTION('center_axis',(9.86076131526265E-32,-7.04206187324321E-63,
1.));
#599=DIRECTION('ref_axis',(0.472706386072399,-0.881219991016076,0.));
#600=DIRECTION('',(0.,0.,1.));
#601=DIRECTION('center_axis',(0.833116634575922,-0.553097345132744,0.));
#602=DIRECTION('ref_axis',(0.553097345132744,0.833116634575922,-5.45396090445943E-32));
#603=DIRECTION('',(0.553097345132744,0.833116634575922,-5.45396090445943E-32));
#604=DIRECTION('',(0.,0.,1.));
#605=DIRECTION('',(0.553097345132744,0.833116634575922,-5.45396090445943E-32));
#606=DIRECTION('center_axis',(9.86076131526265E-32,-7.04206187324321E-63,
1.));
#607=DIRECTION('ref_axis',(1.,0.,-9.86076131526265E-32));
#608=DIRECTION('',(1.,1.34310175989639E-16,-9.86076131526265E-32));
#609=DIRECTION('center_axis',(9.86076131526265E-32,-7.04206187324321E-63,
1.));
#610=DIRECTION('ref_axis',(-0.707106781186547,-0.707106781186548,0.));
#611=DIRECTION('',(-7.14149916836886E-32,-1.,-1.07952106938681E-78));
#612=DIRECTION('center_axis',(9.86076131526265E-32,-7.04206187324321E-63,
1.));
#613=DIRECTION('ref_axis',(-0.755119194959246,0.655587523831944,0.));
#614=DIRECTION('',(-0.990093446442607,-0.1404099971918,9.76307515517632E-32));
#615=DIRECTION('center_axis',(9.86076131526265E-32,0.,1.));
#616=DIRECTION('ref_axis',(0.303766707168894,0.952746444556875,-2.99537099491575E-32));
#617=DIRECTION('',(-0.952746444556875,0.303766707168894,9.39480528374047E-32));
#618=DIRECTION('center_axis',(9.86076131526265E-32,-7.04206187324321E-63,
1.));
#619=DIRECTION('ref_axis',(0.739503131281248,0.673153116924544,0.));
#620=DIRECTION('',(-0.213128729752771,0.977024126904741,2.10161153351719E-32));
#621=DIRECTION('center_axis',(9.86076131526265E-32,0.,1.));
#622=DIRECTION('ref_axis',(0.833116634575922,-0.553097345132744,-8.21516428132806E-32));
#623=DIRECTION('center_axis',(-9.86076131526265E-32,7.04206187324321E-63,
-1.));
#624=DIRECTION('ref_axis',(1.,-7.14149916836886E-32,-9.86076131526265E-32));
#625=DIRECTION('center_axis',(-9.86076131526265E-32,7.04206187324321E-63,
-1.));
#626=DIRECTION('ref_axis',(1.,-7.14149916836886E-32,-9.86076131526265E-32));
#627=DIRECTION('center_axis',(0.,0.,1.));
#628=DIRECTION('ref_axis',(-0.707106781186547,-0.707106781186548,0.));
#629=DIRECTION('center_axis',(-9.86076131526265E-32,7.04206187324321E-63,
-1.));
#630=DIRECTION('ref_axis',(-0.707106781186547,-0.707106781186548,0.));
#631=DIRECTION('',(0.,0.,-1.));
#632=DIRECTION('',(0.,0.,1.));
#633=DIRECTION('center_axis',(-1.,7.14149916836886E-32,0.));
#634=DIRECTION('ref_axis',(-7.14149916836886E-32,-1.,-1.07952106938681E-78));
#635=DIRECTION('',(-7.14149916836886E-32,-1.,-1.07952106938681E-78));
#636=DIRECTION('',(0.,0.,1.));
#637=DIRECTION('center_axis',(0.,0.,1.));
#638=DIRECTION('ref_axis',(-0.755119194959246,0.655587523831944,0.));
#639=DIRECTION('center_axis',(-9.86076131526265E-32,7.04206187324321E-63,
-1.));
#640=DIRECTION('ref_axis',(-0.755119194959246,0.655587523831944,0.));
#641=DIRECTION('',(0.,0.,-1.));
#642=DIRECTION('center_axis',(0.,0.,1.));
#643=DIRECTION('ref_axis',(0.739503131281248,0.673153116924544,0.));
#644=DIRECTION('center_axis',(-9.86076131526265E-32,7.04206187324321E-63,
-1.));
#645=DIRECTION('ref_axis',(0.739503131281248,0.673153116924544,0.));
#646=DIRECTION('',(0.,0.,-1.));
#647=DIRECTION('',(0.,0.,1.));
#648=DIRECTION('center_axis',(0.97702412690474,0.213128729752771,0.));
#649=DIRECTION('ref_axis',(-0.213128729752771,0.977024126904741,2.10161153351719E-32));
#650=DIRECTION('',(-0.213128729752771,0.977024126904741,2.10161153351719E-32));
#651=DIRECTION('',(0.,0.,1.));
#652=DIRECTION('center_axis',(0.,0.,1.));
#653=DIRECTION('ref_axis',(1.,-7.14149916836886E-32,0.));
#654=DIRECTION('center_axis',(-9.86076131526265E-32,7.04206187324321E-63,
-1.));
#655=DIRECTION('ref_axis',(1.,-7.14149916836886E-32,-9.86076131526265E-32));
#656=DIRECTION('',(0.,0.,-1.));
#657=DIRECTION('center_axis',(0.,0.,1.));
#658=DIRECTION('ref_axis',(1.,-7.14149916836886E-32,0.));
#659=DIRECTION('center_axis',(-9.86076131526265E-32,7.04206187324321E-63,
-1.));
#660=DIRECTION('ref_axis',(1.,-7.14149916836886E-32,-9.86076131526265E-32));
#661=DIRECTION('',(0.,0.,-1.));
#662=DIRECTION('center_axis',(0.303766707168894,0.952746444556875,0.));
#663=DIRECTION('ref_axis',(-0.952746444556875,0.303766707168894,9.39480528374047E-32));
#664=DIRECTION('',(0.,0.,1.));
#665=DIRECTION('',(-0.952746444556875,0.303766707168894,9.39480528374047E-32));
#666=DIRECTION('center_axis',(0.,0.,1.));
#667=DIRECTION('ref_axis',(0.833116634575922,-0.553097345132744,0.));
#668=DIRECTION('center_axis',(9.86076131526265E-32,0.,1.));
#669=DIRECTION('ref_axis',(0.833116634575922,-0.553097345132744,-8.21516428132806E-32));
#670=DIRECTION('center_axis',(1.34310175989639E-16,-1.,0.));
#671=DIRECTION('ref_axis',(1.,1.34310175989639E-16,-9.86076131526265E-32));
#672=DIRECTION('',(1.,1.34310175989639E-16,-9.86076131526265E-32));
#673=DIRECTION('center_axis',(-0.1404099971918,0.990093446442607,0.));
#674=DIRECTION('ref_axis',(-0.990093446442607,-0.1404099971918,9.76307515517632E-32));
#675=DIRECTION('',(-0.990093446442607,-0.1404099971918,9.76307515517632E-32));
#676=DIRECTION('',(0.,0.,1.));
#677=DIRECTION('center_axis',(0.,0.,1.));
#678=DIRECTION('ref_axis',(0.303766707168894,0.952746444556875,0.));
#679=DIRECTION('center_axis',(9.86076131526265E-32,0.,1.));
#680=DIRECTION('ref_axis',(0.303766707168894,0.952746444556875,-2.99537099491575E-32));
#681=DIRECTION('center_axis',(9.86076131526265E-32,-7.04206187324321E-63,
1.));
#682=DIRECTION('ref_axis',(1.,0.,-9.86076131526265E-32));
#683=CARTESIAN_POINT('',(0.,0.,0.));
#684=CARTESIAN_POINT('Origin',(0.777315337727131,-0.421800494264914,1.09149099080067));
#685=CARTESIAN_POINT('',(0.796398712826262,-0.491396845710098,-1.74838271594513E-16));
#686=CARTESIAN_POINT('',(0.846374999222941,-0.441404457374764,-1.74838271594513E-16));
#687=CARTESIAN_POINT('Origin',(0.79636738282156,-0.441388797007181,-1.74838271594513E-16));
#688=CARTESIAN_POINT('',(0.792034946827504,-0.486910252850569,0.25));
#689=CARTESIAN_POINT('',(0.777331002729901,-0.471792437043308,1.09238843820831));
#690=CARTESIAN_POINT('',(0.842011233224183,-0.436917864515235,0.25));
#691=CARTESIAN_POINT('Origin',(0.792003616822801,-0.436902204147652,0.25));
#692=CARTESIAN_POINT('',(0.827307722485765,-0.421800494264914,1.0923636110759));
#693=CARTESIAN_POINT('Origin',(0.837670779958068,0.158200695882673,0.498664414369934));
#694=CARTESIAN_POINT('',(0.846374999222941,0.758107718318402,-1.74838271594513E-16));
#695=CARTESIAN_POINT('',(0.846374999222941,0.227226996113399,-1.74838271594513E-16));
#696=CARTESIAN_POINT('',(0.842011233224183,0.75374661037476,0.25));
#697=CARTESIAN_POINT('',(0.842011233224183,0.227226996113399,0.25));
#698=CARTESIAN_POINT('',(0.846503398348349,0.758236039233394,-0.00735598136129935));
#699=CARTESIAN_POINT('Origin',(0.796511013589715,0.758236039233394,-0.00822860163652567));
#700=CARTESIAN_POINT('',(0.796397836832204,0.808100100760184,-1.74838271594513E-16));
#701=CARTESIAN_POINT('Origin',(0.79636738282156,0.758092495953546,-1.74838271594513E-16));
#702=CARTESIAN_POINT('',(0.792034070833446,0.803738992816542,0.25));
#703=CARTESIAN_POINT('Origin',(0.792003616822802,0.753731388009904,0.25));
#704=CARTESIAN_POINT('',(0.796526240595445,0.808228426310184,-0.00735624706255737));
#705=CARTESIAN_POINT('Origin',(-1.42044373017129,0.818591060271695,-0.562514674776103));
#706=CARTESIAN_POINT('',(-1.3606173835978,0.808757098456027,-1.74838271594513E-16));
#707=CARTESIAN_POINT('',(-0.787832865003288,0.808582636029723,-1.74838271594513E-16));
#708=CARTESIAN_POINT('',(-1.35625361736575,0.804393332223972,0.25));
#709=CARTESIAN_POINT('',(-0.787834193742567,0.804220199346626,0.25));
#710=CARTESIAN_POINT('',(-1.36075117734447,0.808890892202691,-0.00766503861284833));
#711=CARTESIAN_POINT('Origin',(-1.38203353170152,-0.462674269113672,1.63800412178709));
#712=CARTESIAN_POINT('',(-1.3606173835978,-0.49207274789048,-1.74838271594513E-16));
#713=CARTESIAN_POINT('',(-0.768576206767877,-0.491887231462041,-3.49676543189026E-16));
#714=CARTESIAN_POINT('',(-1.35625361736575,-0.487583420253925,0.25));
#715=CARTESIAN_POINT('',(-1.34154335760814,-0.472449892892714,1.09275021709188));
#716=CARTESIAN_POINT('',(-0.768577613072551,-0.487399271654702,0.25));
#717=CARTESIAN_POINT('Origin',(-1.34155902261091,-0.42245795011432,1.09185276968424));
#718=CARTESIAN_POINT('',(-1.410625,-0.442080359284397,-1.74838271594513E-16));
#719=CARTESIAN_POINT('Origin',(-1.3606173835978,-0.442064689370288,-1.74838271594513E-16));
#720=CARTESIAN_POINT('',(-1.40626123376794,-0.437591031647842,0.25));
#721=CARTESIAN_POINT('',(-1.39155140736873,-0.42245795011432,1.0927253900061));
#722=CARTESIAN_POINT('Origin',(-1.35625361736575,-0.437575361733734,0.25));
#723=CARTESIAN_POINT('Origin',(-1.3607664043502,0.758898505125902,-0.00853739318681663));
#724=CARTESIAN_POINT('',(-1.410625,0.758764716017884,-1.74838271594513E-16));
#725=CARTESIAN_POINT('Origin',(-1.3606173835978,0.758749484373508,-1.74838271594513E-16));
#726=CARTESIAN_POINT('',(-1.40626123376794,0.754400949785829,0.25));
#727=CARTESIAN_POINT('Origin',(-1.35625361736575,0.754385718141453,0.25));
#728=CARTESIAN_POINT('',(-1.41075878910802,0.758898505125902,-0.00766477286495246));
#729=CARTESIAN_POINT('Origin',(-1.4012386309364,0.158200695882673,0.537744723505494));
#730=CARTESIAN_POINT('',(-1.410625,0.227226996113399,-1.31128703695885E-16));
#731=CARTESIAN_POINT('',(-1.40626123376794,0.227226996113399,0.25));
#732=CARTESIAN_POINT('Origin',(0.887269330901597,-0.391246703655876,-1.74838271594513E-16));
#733=CARTESIAN_POINT('',(1.09554848954558,-0.529521039939061,0.25));
#734=CARTESIAN_POINT('',(0.887269330901597,-0.641246703655876,0.25));
#735=CARTESIAN_POINT('Origin',(0.887269330901597,-0.391246703655876,0.25));
#736=CARTESIAN_POINT('',(0.887269330901597,-0.641246703655876,-1.74838271594513E-16));
#737=CARTESIAN_POINT('',(0.887269330901597,-0.641246703655876,-1.74838271594513E-16));
#738=CARTESIAN_POINT('',(1.09554848954558,-0.529521039939061,-1.74838271594513E-16));
#739=CARTESIAN_POINT('Origin',(0.887269330901597,-0.391246703655876,-1.74838271594513E-16));
#740=CARTESIAN_POINT('',(1.09554848954558,-0.529521039939061,-1.74838271594513E-16));
#741=CARTESIAN_POINT('Origin',(1.021375,-0.641246703655876,-1.74838271594513E-16));
#742=CARTESIAN_POINT('',(1.22965415864398,-0.327521039939062,-1.74838271594513E-16));
#743=CARTESIAN_POINT('',(1.021375,-0.641246703655876,-1.74838271594513E-16));
#744=CARTESIAN_POINT('',(1.22965415864398,-0.327521039939062,0.25));
#745=CARTESIAN_POINT('',(1.22965415864398,-0.327521039939062,-1.74838271594513E-16));
#746=CARTESIAN_POINT('',(1.021375,-0.641246703655876,0.25));
#747=CARTESIAN_POINT('Origin',(-0.155375,0.296253296344124,-1.74838271594513E-16));
#748=CARTESIAN_POINT('',(-1.332125,-0.641246703655876,-1.74838271594513E-16));
#749=CARTESIAN_POINT('',(-1.582125,-0.641246703655876,-1.74838271594513E-16));
#750=CARTESIAN_POINT('',(-1.582125,-0.391246703655876,-1.74838271594513E-16));
#751=CARTESIAN_POINT('Origin',(-1.332125,-0.391246703655876,-1.74838271594513E-16));
#752=CARTESIAN_POINT('',(-1.582125,0.766705601023875,-1.74838271594513E-16));
#753=CARTESIAN_POINT('',(-1.582125,0.983753296344124,-1.74838271594513E-16));
#754=CARTESIAN_POINT('',(-1.36722749929795,1.01422896263453,-1.74838271594513E-16));
#755=CARTESIAN_POINT('Origin',(-1.332125,0.766705601023875,-1.74838271594513E-16));
#756=CARTESIAN_POINT('',(0.16327250070205,1.23127665795478,-1.74838271594513E-16));
#757=CARTESIAN_POINT('',(0.16327250070205,1.23127665795478,-1.74838271594513E-16));
#758=CARTESIAN_POINT('',(0.274316676792224,1.22193990748334,-1.74838271594513E-16));
#759=CARTESIAN_POINT('Origin',(0.198375,0.983753296344124,-1.74838271594513E-16));
#760=CARTESIAN_POINT('',(0.883829483323079,1.02760730275422,-1.74838271594513E-16));
#761=CARTESIAN_POINT('',(1.021375,0.983753296344124,-1.74838271594513E-16));
#762=CARTESIAN_POINT('',(1.05214383825704,0.842702874053193,-1.74838271594513E-16));
#763=CARTESIAN_POINT('Origin',(0.807887806530855,0.789420691615001,-1.74838271594513E-16));
#764=CARTESIAN_POINT('',(1.26563103172619,-0.135964521217683,-1.74838271594513E-16));
#765=CARTESIAN_POINT('',(1.26563103172619,-0.135964521217683,-1.74838271594513E-16));
#766=CARTESIAN_POINT('Origin',(1.021375,-0.189246703655876,-1.74838271594513E-16));
#767=CARTESIAN_POINT('',(0.931375,-0.189246703655876,-1.74838271594513E-16));
#768=CARTESIAN_POINT('Origin',(1.021375,-0.189246703655876,-1.74838271594513E-16));
#769=CARTESIAN_POINT('',(0.108375,0.983753296344124,-1.74838271594513E-16));
#770=CARTESIAN_POINT('Origin',(0.198375,0.983753296344124,-1.74838271594513E-16));
#771=CARTESIAN_POINT('Origin',(-1.332125,-0.391246703655876,-1.74838271594513E-16));
#772=CARTESIAN_POINT('',(-1.332125,-0.641246703655876,0.25));
#773=CARTESIAN_POINT('',(-1.582125,-0.391246703655876,0.25));
#774=CARTESIAN_POINT('Origin',(-1.332125,-0.391246703655876,0.25));
#775=CARTESIAN_POINT('',(-1.582125,-0.391246703655876,-1.74838271594513E-16));
#776=CARTESIAN_POINT('',(-1.332125,-0.641246703655876,-1.74838271594513E-16));
#777=CARTESIAN_POINT('Origin',(-1.582125,0.983753296344124,-1.74838271594513E-16));
#778=CARTESIAN_POINT('',(-1.582125,0.766705601023875,0.25));
#779=CARTESIAN_POINT('',(-1.582125,0.983753296344124,0.25));
#780=CARTESIAN_POINT('',(-1.582125,0.766705601023875,-1.74838271594513E-16));
#781=CARTESIAN_POINT('Origin',(-1.332125,0.766705601023875,-1.74838271594513E-16));
#782=CARTESIAN_POINT('',(-1.36722749929795,1.01422896263453,0.25));
#783=CARTESIAN_POINT('Origin',(-1.332125,0.766705601023875,0.25));
#784=CARTESIAN_POINT('',(-1.36722749929795,1.01422896263453,-1.74838271594513E-16));
#785=CARTESIAN_POINT('Origin',(0.807887806530855,0.789420691615001,-1.74838271594513E-16));
#786=CARTESIAN_POINT('',(0.883829483323079,1.02760730275422,0.25));
#787=CARTESIAN_POINT('',(1.05214383825704,0.842702874053193,0.25));
#788=CARTESIAN_POINT('Origin',(0.807887806530855,0.789420691615001,0.25));
#789=CARTESIAN_POINT('',(1.05214383825704,0.842702874053193,-1.74838271594513E-16));
#790=CARTESIAN_POINT('',(0.883829483323079,1.02760730275422,-1.74838271594513E-16));
#791=CARTESIAN_POINT('Origin',(1.26563103172619,-0.135964521217683,-1.74838271594513E-16));
#792=CARTESIAN_POINT('',(1.26563103172619,-0.135964521217683,0.25));
#793=CARTESIAN_POINT('',(1.26563103172619,-0.135964521217683,0.25));
#794=CARTESIAN_POINT('',(1.26563103172619,-0.135964521217683,-1.74838271594513E-16));
#795=CARTESIAN_POINT('Origin',(0.198375,0.983753296344124,-1.74838271594513E-16));
#796=CARTESIAN_POINT('',(0.108375,0.983753296344124,0.25));
#797=CARTESIAN_POINT('Origin',(0.198375,0.983753296344124,0.25));
#798=CARTESIAN_POINT('',(0.108375,0.983753296344124,-1.74838271594513E-16));
#799=CARTESIAN_POINT('Origin',(1.021375,-0.189246703655876,-1.74838271594513E-16));
#800=CARTESIAN_POINT('',(0.931375,-0.189246703655876,0.25));
#801=CARTESIAN_POINT('Origin',(1.021375,-0.189246703655876,0.25));
#802=CARTESIAN_POINT('',(0.931375,-0.189246703655876,-1.74838271594513E-16));
#803=CARTESIAN_POINT('Origin',(1.021375,0.983753296344124,-1.74838271594513E-16));
#804=CARTESIAN_POINT('',(0.274316676792224,1.22193990748334,0.25));
#805=CARTESIAN_POINT('',(0.274316676792224,1.22193990748334,-1.74838271594513E-16));
#806=CARTESIAN_POINT('',(1.021375,0.983753296344124,0.25));
#807=CARTESIAN_POINT('Origin',(1.021375,-0.189246703655876,-1.74838271594513E-16));
#808=CARTESIAN_POINT('Origin',(1.021375,-0.189246703655876,0.25));
#809=CARTESIAN_POINT('Origin',(-1.582125,-0.641246703655876,-1.74838271594513E-16));
#810=CARTESIAN_POINT('',(-1.582125,-0.641246703655876,0.25));
#811=CARTESIAN_POINT('Origin',(0.16327250070205,1.23127665795478,-1.74838271594513E-16));
#812=CARTESIAN_POINT('',(0.16327250070205,1.23127665795478,0.25));
#813=CARTESIAN_POINT('',(0.16327250070205,1.23127665795478,0.25));
#814=CARTESIAN_POINT('',(0.16327250070205,1.23127665795478,-1.74838271594513E-16));
#815=CARTESIAN_POINT('Origin',(0.198375,0.983753296344124,-1.74838271594513E-16));
#816=CARTESIAN_POINT('Origin',(0.198375,0.983753296344124,0.25));
#817=CARTESIAN_POINT('Origin',(-0.155375,0.296253296344124,0.25));
#818=UNCERTAINTY_MEASURE_WITH_UNIT(LENGTH_MEASURE(0.000393700787401575),
#824,'DISTANCE_ACCURACY_VALUE',
'Maximum model space distance between geometric entities at asserted c
onnectivities');
#819=UNCERTAINTY_MEASURE_WITH_UNIT(LENGTH_MEASURE(0.000393700787401575),
#824,'DISTANCE_ACCURACY_VALUE',
'Maximum model space distance between geometric entities at asserted c
onnectivities');
#820=(
GEOMETRIC_REPRESENTATION_CONTEXT(3)
GLOBAL_UNCERTAINTY_ASSIGNED_CONTEXT((#818))
GLOBAL_UNIT_ASSIGNED_CONTEXT((#824,#828,#829))
REPRESENTATION_CONTEXT('','3D')
);
#821=(
GEOMETRIC_REPRESENTATION_CONTEXT(3)
GLOBAL_UNCERTAINTY_ASSIGNED_CONTEXT((#819))
GLOBAL_UNIT_ASSIGNED_CONTEXT((#824,#828,#829))
REPRESENTATION_CONTEXT('','3D')
);
#822=DIMENSIONAL_EXPONENTS(1.,0.,0.,0.,0.,0.,0.);
#823=DIMENSIONAL_EXPONENTS(0.,1.,0.,0.,0.,0.,0.);
#824=(
CONVERSION_BASED_UNIT('inch',#827)
LENGTH_UNIT()
NAMED_UNIT(#822)
);
#825=(
LENGTH_UNIT()
NAMED_UNIT(*)
SI_UNIT(.MILLI.,.METRE.)
);
#826=(
LENGTH_UNIT()
NAMED_UNIT(*)
SI_UNIT(.CENTI.,.METRE.)
);
#827=LENGTH_MEASURE_WITH_UNIT(LENGTH_MEASURE(25.4),#825);
#828=(
NAMED_UNIT(*)
PLANE_ANGLE_UNIT()
SI_UNIT($,.RADIAN.)
);
#829=(
NAMED_UNIT(*)
SI_UNIT($,.STERADIAN.)
SOLID_ANGLE_UNIT()
);
#830=SHAPE_DEFINITION_REPRESENTATION(#831,#832);
#831=PRODUCT_DEFINITION_SHAPE('',$,#834);
#832=SHAPE_REPRESENTATION('',(#494),#820);
#833=PRODUCT_DEFINITION_CONTEXT('part definition',#838,'design');
#834=PRODUCT_DEFINITION('Clamp3','Clamp3',#835,#833);
#835=PRODUCT_DEFINITION_FORMATION('',$,#840);
#836=PRODUCT_RELATED_PRODUCT_CATEGORY('Clamp3','Clamp3',(#840));
#837=APPLICATION_PROTOCOL_DEFINITION('international standard',
'automotive_design',2009,#838);
#838=APPLICATION_CONTEXT(
'Core Data for Automotive Mechanical Design Process');
#839=PRODUCT_CONTEXT('part definition',#838,'mechanical');
#840=PRODUCT('Clamp3','Clamp3',$,(#839));
#841=PRESENTATION_STYLE_ASSIGNMENT((#842));
#842=SURFACE_STYLE_USAGE(.BOTH.,#845);
#843=SURFACE_STYLE_RENDERING_WITH_PROPERTIES($,#849,(#844));
#844=SURFACE_STYLE_TRANSPARENT(0.);
#845=SURFACE_SIDE_STYLE('',(#846,#843));
#846=SURFACE_STYLE_FILL_AREA(#847);
#847=FILL_AREA_STYLE('',(#848));
#848=FILL_AREA_STYLE_COLOUR('',#849);
#849=COLOUR_RGB('',0.250980392156863,0.250980392156863,0.250980392156863);
ENDSEC;
END-ISO-10303-21;
