ISO-10303-21;
HEADER;
/* Generated by software containing ST-Developer
 * from STEP Tools, Inc. (www.steptools.com) 
 */

FILE_DESCRIPTION(
/* description */ (''),
/* implementation_level */ '2;1');

FILE_NAME(
/* name */ 'OdomPods.stp',
/* time_stamp */ '2025-10-16T15:36:36-04:00',
/* author */ ('Teddy'),
/* organization */ (''),
/* preprocessor_version */ 'ST-DEVELOPER v20.1',
/* originating_system */ 'Autodesk Inventor 2026',
/* authorisation */ '');

FILE_SCHEMA (('AUTOMOTIVE_DESIGN { 1 0 10303 214 3 1 1 }'));
ENDSEC;

DATA;
#10=MECHANICAL_DESIGN_GEOMETRIC_PRESENTATION_REPRESENTATION('',(#13),#565);
#11=SHAPE_REPRESENTATION_RELATIONSHIP('SRR','None',#576,#12);
#12=ADVANCED_BREP_SHAPE_REPRESENTATION('',(#14),#564);
#13=STYLED_ITEM('',(#585),#14);
#14=MANIFOLD_SOLID_BREP('Solid1',#321);
#15=FACE_BOUND('',#64,.T.);
#16=FACE_BOUND('',#65,.T.);
#17=FACE_BOUND('',#66,.T.);
#18=FACE_BOUND('',#67,.T.);
#19=FACE_BOUND('',#68,.T.);
#20=FACE_BOUND('',#69,.T.);
#21=FACE_BOUND('',#71,.T.);
#22=FACE_BOUND('',#72,.T.);
#23=FACE_BOUND('',#73,.T.);
#24=FACE_BOUND('',#74,.T.);
#25=FACE_BOUND('',#75,.T.);
#26=FACE_BOUND('',#76,.T.);
#27=PLANE('',#361);
#28=PLANE('',#365);
#29=PLANE('',#369);
#30=PLANE('',#373);
#31=PLANE('',#377);
#32=PLANE('',#378);
#33=FACE_OUTER_BOUND('',#49,.T.);
#34=FACE_OUTER_BOUND('',#50,.T.);
#35=FACE_OUTER_BOUND('',#51,.T.);
#36=FACE_OUTER_BOUND('',#52,.T.);
#37=FACE_OUTER_BOUND('',#53,.T.);
#38=FACE_OUTER_BOUND('',#54,.T.);
#39=FACE_OUTER_BOUND('',#55,.T.);
#40=FACE_OUTER_BOUND('',#56,.T.);
#41=FACE_OUTER_BOUND('',#57,.T.);
#42=FACE_OUTER_BOUND('',#58,.T.);
#43=FACE_OUTER_BOUND('',#59,.T.);
#44=FACE_OUTER_BOUND('',#60,.T.);
#45=FACE_OUTER_BOUND('',#61,.T.);
#46=FACE_OUTER_BOUND('',#62,.T.);
#47=FACE_OUTER_BOUND('',#63,.T.);
#48=FACE_OUTER_BOUND('',#70,.T.);
#49=EDGE_LOOP('',(#211,#212,#213,#214));
#50=EDGE_LOOP('',(#215,#216,#217,#218));
#51=EDGE_LOOP('',(#219,#220,#221,#222));
#52=EDGE_LOOP('',(#223,#224,#225,#226));
#53=EDGE_LOOP('',(#227,#228,#229,#230));
#54=EDGE_LOOP('',(#231,#232,#233,#234));
#55=EDGE_LOOP('',(#235,#236,#237,#238));
#56=EDGE_LOOP('',(#239,#240,#241,#242));
#57=EDGE_LOOP('',(#243,#244,#245,#246));
#58=EDGE_LOOP('',(#247,#248,#249,#250));
#59=EDGE_LOOP('',(#251,#252,#253,#254));
#60=EDGE_LOOP('',(#255,#256,#257,#258));
#61=EDGE_LOOP('',(#259,#260,#261,#262));
#62=EDGE_LOOP('',(#263,#264,#265,#266));
#63=EDGE_LOOP('',(#267,#268,#269,#270,#271,#272,#273,#274));
#64=EDGE_LOOP('',(#275));
#65=EDGE_LOOP('',(#276));
#66=EDGE_LOOP('',(#277));
#67=EDGE_LOOP('',(#278));
#68=EDGE_LOOP('',(#279));
#69=EDGE_LOOP('',(#280));
#70=EDGE_LOOP('',(#281,#282,#283,#284,#285,#286,#287,#288));
#71=EDGE_LOOP('',(#289));
#72=EDGE_LOOP('',(#290));
#73=EDGE_LOOP('',(#291));
#74=EDGE_LOOP('',(#292));
#75=EDGE_LOOP('',(#293));
#76=EDGE_LOOP('',(#294));
#77=LINE('',#480,#99);
#78=LINE('',#486,#100);
#79=LINE('',#492,#101);
#80=LINE('',#498,#102);
#81=LINE('',#504,#103);
#82=LINE('',#510,#104);
#83=LINE('',#515,#105);
#84=LINE('',#517,#106);
#85=LINE('',#519,#107);
#86=LINE('',#520,#108);
#87=LINE('',#526,#109);
#88=LINE('',#529,#110);
#89=LINE('',#531,#111);
#90=LINE('',#532,#112);
#91=LINE('',#538,#113);
#92=LINE('',#541,#114);
#93=LINE('',#543,#115);
#94=LINE('',#544,#116);
#95=LINE('',#550,#117);
#96=LINE('',#553,#118);
#97=LINE('',#555,#119);
#98=LINE('',#556,#120);
#99=VECTOR('',#385,0.09);
#100=VECTOR('',#392,0.09);
#101=VECTOR('',#399,0.09);
#102=VECTOR('',#406,0.09);
#103=VECTOR('',#413,0.09);
#104=VECTOR('',#420,0.09);
#105=VECTOR('',#425,0.393700787401575);
#106=VECTOR('',#426,0.393700787401575);
#107=VECTOR('',#427,0.393700787401575);
#108=VECTOR('',#428,0.393700787401575);
#109=VECTOR('',#435,0.393700787401575);
#110=VECTOR('',#438,0.393700787401575);
#111=VECTOR('',#439,0.393700787401575);
#112=VECTOR('',#440,0.393700787401575);
#113=VECTOR('',#447,0.393700787401575);
#114=VECTOR('',#450,0.393700787401575);
#115=VECTOR('',#451,0.393700787401575);
#116=VECTOR('',#452,0.393700787401575);
#117=VECTOR('',#459,0.393700787401575);
#118=VECTOR('',#462,0.393700787401575);
#119=VECTOR('',#463,0.393700787401575);
#120=VECTOR('',#464,0.393700787401575);
#121=CIRCLE('',#344,0.09);
#122=CIRCLE('',#345,0.09);
#123=CIRCLE('',#347,0.09);
#124=CIRCLE('',#348,0.09);
#125=CIRCLE('',#350,0.09);
#126=CIRCLE('',#351,0.09);
#127=CIRCLE('',#353,0.09);
#128=CIRCLE('',#354,0.09);
#129=CIRCLE('',#356,0.09);
#130=CIRCLE('',#357,0.09);
#131=CIRCLE('',#359,0.09);
#132=CIRCLE('',#360,0.09);
#133=CIRCLE('',#363,0.2);
#134=CIRCLE('',#364,0.2);
#135=CIRCLE('',#367,0.2);
#136=CIRCLE('',#368,0.2);
#137=CIRCLE('',#371,0.125);
#138=CIRCLE('',#372,0.125);
#139=CIRCLE('',#375,0.125);
#140=CIRCLE('',#376,0.125);
#141=VERTEX_POINT('',#477);
#142=VERTEX_POINT('',#479);
#143=VERTEX_POINT('',#483);
#144=VERTEX_POINT('',#485);
#145=VERTEX_POINT('',#489);
#146=VERTEX_POINT('',#491);
#147=VERTEX_POINT('',#495);
#148=VERTEX_POINT('',#497);
#149=VERTEX_POINT('',#501);
#150=VERTEX_POINT('',#503);
#151=VERTEX_POINT('',#507);
#152=VERTEX_POINT('',#509);
#153=VERTEX_POINT('',#513);
#154=VERTEX_POINT('',#514);
#155=VERTEX_POINT('',#516);
#156=VERTEX_POINT('',#518);
#157=VERTEX_POINT('',#522);
#158=VERTEX_POINT('',#524);
#159=VERTEX_POINT('',#528);
#160=VERTEX_POINT('',#530);
#161=VERTEX_POINT('',#534);
#162=VERTEX_POINT('',#536);
#163=VERTEX_POINT('',#540);
#164=VERTEX_POINT('',#542);
#165=VERTEX_POINT('',#546);
#166=VERTEX_POINT('',#548);
#167=VERTEX_POINT('',#552);
#168=VERTEX_POINT('',#554);
#169=EDGE_CURVE('',#141,#141,#121,.T.);
#170=EDGE_CURVE('',#141,#142,#77,.T.);
#171=EDGE_CURVE('',#142,#142,#122,.T.);
#172=EDGE_CURVE('',#143,#143,#123,.T.);
#173=EDGE_CURVE('',#143,#144,#78,.T.);
#174=EDGE_CURVE('',#144,#144,#124,.T.);
#175=EDGE_CURVE('',#145,#145,#125,.T.);
#176=EDGE_CURVE('',#145,#146,#79,.T.);
#177=EDGE_CURVE('',#146,#146,#126,.T.);
#178=EDGE_CURVE('',#147,#147,#127,.T.);
#179=EDGE_CURVE('',#147,#148,#80,.T.);
#180=EDGE_CURVE('',#148,#148,#128,.T.);
#181=EDGE_CURVE('',#149,#149,#129,.T.);
#182=EDGE_CURVE('',#149,#150,#81,.T.);
#183=EDGE_CURVE('',#150,#150,#130,.T.);
#184=EDGE_CURVE('',#151,#151,#131,.T.);
#185=EDGE_CURVE('',#151,#152,#82,.T.);
#186=EDGE_CURVE('',#152,#152,#132,.T.);
#187=EDGE_CURVE('',#153,#154,#83,.T.);
#188=EDGE_CURVE('',#154,#155,#84,.T.);
#189=EDGE_CURVE('',#156,#155,#85,.T.);
#190=EDGE_CURVE('',#153,#156,#86,.T.);
#191=EDGE_CURVE('',#157,#153,#133,.T.);
#192=EDGE_CURVE('',#158,#156,#134,.T.);
#193=EDGE_CURVE('',#157,#158,#87,.T.);
#194=EDGE_CURVE('',#159,#157,#88,.T.);
#195=EDGE_CURVE('',#160,#158,#89,.T.);
#196=EDGE_CURVE('',#159,#160,#90,.T.);
#197=EDGE_CURVE('',#161,#159,#135,.T.);
#198=EDGE_CURVE('',#162,#160,#136,.T.);
#199=EDGE_CURVE('',#161,#162,#91,.T.);
#200=EDGE_CURVE('',#163,#161,#92,.T.);
#201=EDGE_CURVE('',#164,#162,#93,.T.);
#202=EDGE_CURVE('',#163,#164,#94,.T.);
#203=EDGE_CURVE('',#165,#163,#137,.T.);
#204=EDGE_CURVE('',#166,#164,#138,.T.);
#205=EDGE_CURVE('',#165,#166,#95,.T.);
#206=EDGE_CURVE('',#167,#165,#96,.T.);
#207=EDGE_CURVE('',#168,#166,#97,.T.);
#208=EDGE_CURVE('',#167,#168,#98,.T.);
#209=EDGE_CURVE('',#154,#167,#139,.T.);
#210=EDGE_CURVE('',#155,#168,#140,.T.);
#211=ORIENTED_EDGE('',*,*,#169,.F.);
#212=ORIENTED_EDGE('',*,*,#170,.T.);
#213=ORIENTED_EDGE('',*,*,#171,.T.);
#214=ORIENTED_EDGE('',*,*,#170,.F.);
#215=ORIENTED_EDGE('',*,*,#172,.F.);
#216=ORIENTED_EDGE('',*,*,#173,.T.);
#217=ORIENTED_EDGE('',*,*,#174,.T.);
#218=ORIENTED_EDGE('',*,*,#173,.F.);
#219=ORIENTED_EDGE('',*,*,#175,.F.);
#220=ORIENTED_EDGE('',*,*,#176,.T.);
#221=ORIENTED_EDGE('',*,*,#177,.T.);
#222=ORIENTED_EDGE('',*,*,#176,.F.);
#223=ORIENTED_EDGE('',*,*,#178,.F.);
#224=ORIENTED_EDGE('',*,*,#179,.T.);
#225=ORIENTED_EDGE('',*,*,#180,.T.);
#226=ORIENTED_EDGE('',*,*,#179,.F.);
#227=ORIENTED_EDGE('',*,*,#181,.F.);
#228=ORIENTED_EDGE('',*,*,#182,.T.);
#229=ORIENTED_EDGE('',*,*,#183,.T.);
#230=ORIENTED_EDGE('',*,*,#182,.F.);
#231=ORIENTED_EDGE('',*,*,#184,.F.);
#232=ORIENTED_EDGE('',*,*,#185,.T.);
#233=ORIENTED_EDGE('',*,*,#186,.T.);
#234=ORIENTED_EDGE('',*,*,#185,.F.);
#235=ORIENTED_EDGE('',*,*,#187,.T.);
#236=ORIENTED_EDGE('',*,*,#188,.T.);
#237=ORIENTED_EDGE('',*,*,#189,.F.);
#238=ORIENTED_EDGE('',*,*,#190,.F.);
#239=ORIENTED_EDGE('',*,*,#191,.T.);
#240=ORIENTED_EDGE('',*,*,#190,.T.);
#241=ORIENTED_EDGE('',*,*,#192,.F.);
#242=ORIENTED_EDGE('',*,*,#193,.F.);
#243=ORIENTED_EDGE('',*,*,#194,.T.);
#244=ORIENTED_EDGE('',*,*,#193,.T.);
#245=ORIENTED_EDGE('',*,*,#195,.F.);
#246=ORIENTED_EDGE('',*,*,#196,.F.);
#247=ORIENTED_EDGE('',*,*,#197,.T.);
#248=ORIENTED_EDGE('',*,*,#196,.T.);
#249=ORIENTED_EDGE('',*,*,#198,.F.);
#250=ORIENTED_EDGE('',*,*,#199,.F.);
#251=ORIENTED_EDGE('',*,*,#200,.T.);
#252=ORIENTED_EDGE('',*,*,#199,.T.);
#253=ORIENTED_EDGE('',*,*,#201,.F.);
#254=ORIENTED_EDGE('',*,*,#202,.F.);
#255=ORIENTED_EDGE('',*,*,#203,.T.);
#256=ORIENTED_EDGE('',*,*,#202,.T.);
#257=ORIENTED_EDGE('',*,*,#204,.F.);
#258=ORIENTED_EDGE('',*,*,#205,.F.);
#259=ORIENTED_EDGE('',*,*,#206,.T.);
#260=ORIENTED_EDGE('',*,*,#205,.T.);
#261=ORIENTED_EDGE('',*,*,#207,.F.);
#262=ORIENTED_EDGE('',*,*,#208,.F.);
#263=ORIENTED_EDGE('',*,*,#209,.T.);
#264=ORIENTED_EDGE('',*,*,#208,.T.);
#265=ORIENTED_EDGE('',*,*,#210,.F.);
#266=ORIENTED_EDGE('',*,*,#188,.F.);
#267=ORIENTED_EDGE('',*,*,#210,.T.);
#268=ORIENTED_EDGE('',*,*,#207,.T.);
#269=ORIENTED_EDGE('',*,*,#204,.T.);
#270=ORIENTED_EDGE('',*,*,#201,.T.);
#271=ORIENTED_EDGE('',*,*,#198,.T.);
#272=ORIENTED_EDGE('',*,*,#195,.T.);
#273=ORIENTED_EDGE('',*,*,#192,.T.);
#274=ORIENTED_EDGE('',*,*,#189,.T.);
#275=ORIENTED_EDGE('',*,*,#184,.T.);
#276=ORIENTED_EDGE('',*,*,#181,.T.);
#277=ORIENTED_EDGE('',*,*,#178,.T.);
#278=ORIENTED_EDGE('',*,*,#175,.T.);
#279=ORIENTED_EDGE('',*,*,#172,.T.);
#280=ORIENTED_EDGE('',*,*,#169,.T.);
#281=ORIENTED_EDGE('',*,*,#209,.F.);
#282=ORIENTED_EDGE('',*,*,#187,.F.);
#283=ORIENTED_EDGE('',*,*,#191,.F.);
#284=ORIENTED_EDGE('',*,*,#194,.F.);
#285=ORIENTED_EDGE('',*,*,#197,.F.);
#286=ORIENTED_EDGE('',*,*,#200,.F.);
#287=ORIENTED_EDGE('',*,*,#203,.F.);
#288=ORIENTED_EDGE('',*,*,#206,.F.);
#289=ORIENTED_EDGE('',*,*,#186,.F.);
#290=ORIENTED_EDGE('',*,*,#183,.F.);
#291=ORIENTED_EDGE('',*,*,#180,.F.);
#292=ORIENTED_EDGE('',*,*,#177,.F.);
#293=ORIENTED_EDGE('',*,*,#174,.F.);
#294=ORIENTED_EDGE('',*,*,#171,.F.);
#295=CYLINDRICAL_SURFACE('',#343,0.09);
#296=CYLINDRICAL_SURFACE('',#346,0.09);
#297=CYLINDRICAL_SURFACE('',#349,0.09);
#298=CYLINDRICAL_SURFACE('',#352,0.09);
#299=CYLINDRICAL_SURFACE('',#355,0.09);
#300=CYLINDRICAL_SURFACE('',#358,0.09);
#301=CYLINDRICAL_SURFACE('',#362,0.2);
#302=CYLINDRICAL_SURFACE('',#366,0.2);
#303=CYLINDRICAL_SURFACE('',#370,0.125);
#304=CYLINDRICAL_SURFACE('',#374,0.125);
#305=ADVANCED_FACE('',(#33),#295,.F.);
#306=ADVANCED_FACE('',(#34),#296,.F.);
#307=ADVANCED_FACE('',(#35),#297,.F.);
#308=ADVANCED_FACE('',(#36),#298,.F.);
#309=ADVANCED_FACE('',(#37),#299,.F.);
#310=ADVANCED_FACE('',(#38),#300,.F.);
#311=ADVANCED_FACE('',(#39),#27,.T.);
#312=ADVANCED_FACE('',(#40),#301,.T.);
#313=ADVANCED_FACE('',(#41),#28,.T.);
#314=ADVANCED_FACE('',(#42),#302,.T.);
#315=ADVANCED_FACE('',(#43),#29,.T.);
#316=ADVANCED_FACE('',(#44),#303,.T.);
#317=ADVANCED_FACE('',(#45),#30,.T.);
#318=ADVANCED_FACE('',(#46),#304,.T.);
#319=ADVANCED_FACE('',(#47,#15,#16,#17,#18,#19,#20),#31,.T.);
#320=ADVANCED_FACE('',(#48,#21,#22,#23,#24,#25,#26),#32,.F.);
#321=CLOSED_SHELL('',(#305,#306,#307,#308,#309,#310,#311,#312,#313,#314,
#315,#316,#317,#318,#319,#320));
#322=DERIVED_UNIT_ELEMENT(#324,1.);
#323=DERIVED_UNIT_ELEMENT(#570,-3.);
#324=(
CONVERSION_BASED_UNIT('gram',#326)
MASS_UNIT()
NAMED_UNIT(#567)
);
#325=(
MASS_UNIT()
NAMED_UNIT(*)
SI_UNIT(.KILO.,.GRAM.)
);
#326=MASS_MEASURE_WITH_UNIT(MASS_MEASURE(0.001),#325);
#327=DERIVED_UNIT((#322,#323));
#328=MEASURE_REPRESENTATION_ITEM('density measure',
POSITIVE_RATIO_MEASURE(0.952),#327);
#329=PROPERTY_DEFINITION_REPRESENTATION(#334,#331);
#330=PROPERTY_DEFINITION_REPRESENTATION(#335,#332);
#331=REPRESENTATION('material name',(#333),#564);
#332=REPRESENTATION('density',(#328),#564);
#333=DESCRIPTIVE_REPRESENTATION_ITEM('Plastic, Opaque Black',
'Plastic, Opaque Black');
#334=PROPERTY_DEFINITION('material property','material name',#578);
#335=PROPERTY_DEFINITION('material property','density of part',#578);
#336=DATE_TIME_ROLE('creation_date');
#337=APPLIED_DATE_AND_TIME_ASSIGNMENT(#338,#336,(#578));
#338=DATE_AND_TIME(#339,#340);
#339=CALENDAR_DATE(2025,6,10);
#340=LOCAL_TIME(0,0,0.,#341);
#341=COORDINATED_UNIVERSAL_TIME_OFFSET(0,0,.BEHIND.);
#342=AXIS2_PLACEMENT_3D('',#475,#379,#380);
#343=AXIS2_PLACEMENT_3D('',#476,#381,#382);
#344=AXIS2_PLACEMENT_3D('',#478,#383,#384);
#345=AXIS2_PLACEMENT_3D('',#481,#386,#387);
#346=AXIS2_PLACEMENT_3D('',#482,#388,#389);
#347=AXIS2_PLACEMENT_3D('',#484,#390,#391);
#348=AXIS2_PLACEMENT_3D('',#487,#393,#394);
#349=AXIS2_PLACEMENT_3D('',#488,#395,#396);
#350=AXIS2_PLACEMENT_3D('',#490,#397,#398);
#351=AXIS2_PLACEMENT_3D('',#493,#400,#401);
#352=AXIS2_PLACEMENT_3D('',#494,#402,#403);
#353=AXIS2_PLACEMENT_3D('',#496,#404,#405);
#354=AXIS2_PLACEMENT_3D('',#499,#407,#408);
#355=AXIS2_PLACEMENT_3D('',#500,#409,#410);
#356=AXIS2_PLACEMENT_3D('',#502,#411,#412);
#357=AXIS2_PLACEMENT_3D('',#505,#414,#415);
#358=AXIS2_PLACEMENT_3D('',#506,#416,#417);
#359=AXIS2_PLACEMENT_3D('',#508,#418,#419);
#360=AXIS2_PLACEMENT_3D('',#511,#421,#422);
#361=AXIS2_PLACEMENT_3D('',#512,#423,#424);
#362=AXIS2_PLACEMENT_3D('',#521,#429,#430);
#363=AXIS2_PLACEMENT_3D('',#523,#431,#432);
#364=AXIS2_PLACEMENT_3D('',#525,#433,#434);
#365=AXIS2_PLACEMENT_3D('',#527,#436,#437);
#366=AXIS2_PLACEMENT_3D('',#533,#441,#442);
#367=AXIS2_PLACEMENT_3D('',#535,#443,#444);
#368=AXIS2_PLACEMENT_3D('',#537,#445,#446);
#369=AXIS2_PLACEMENT_3D('',#539,#448,#449);
#370=AXIS2_PLACEMENT_3D('',#545,#453,#454);
#371=AXIS2_PLACEMENT_3D('',#547,#455,#456);
#372=AXIS2_PLACEMENT_3D('',#549,#457,#458);
#373=AXIS2_PLACEMENT_3D('',#551,#460,#461);
#374=AXIS2_PLACEMENT_3D('',#557,#465,#466);
#375=AXIS2_PLACEMENT_3D('',#558,#467,#468);
#376=AXIS2_PLACEMENT_3D('',#559,#469,#470);
#377=AXIS2_PLACEMENT_3D('',#560,#471,#472);
#378=AXIS2_PLACEMENT_3D('',#561,#473,#474);
#379=DIRECTION('axis',(0.,0.,1.));
#380=DIRECTION('refdir',(1.,0.,0.));
#381=DIRECTION('center_axis',(0.,0.,1.));
#382=DIRECTION('ref_axis',(-0.999878794063609,-0.0155691098622666,0.));
#383=DIRECTION('center_axis',(6.06076621781169E-20,-9.51036837215564E-18,
-1.));
#384=DIRECTION('ref_axis',(-0.999878794063609,-0.0155691098622666,8.74676538470465E-20));
#385=DIRECTION('',(0.,0.,-1.));
#386=DIRECTION('center_axis',(6.06076621781169E-20,-9.51036837215564E-18,
-1.));
#387=DIRECTION('ref_axis',(-0.999878794063609,-0.0155691098622666,8.74676538470465E-20));
#388=DIRECTION('center_axis',(0.,0.,1.));
#389=DIRECTION('ref_axis',(-0.999878794063609,-0.0155691098622666,0.));
#390=DIRECTION('center_axis',(6.06076621781169E-20,-9.51036837215564E-18,
-1.));
#391=DIRECTION('ref_axis',(-0.999878794063609,-0.0155691098622666,8.74676538470465E-20));
#392=DIRECTION('',(0.,0.,-1.));
#393=DIRECTION('center_axis',(6.06076621781169E-20,-9.51036837215564E-18,
-1.));
#394=DIRECTION('ref_axis',(-0.999878794063609,-0.0155691098622666,8.74676538470465E-20));
#395=DIRECTION('center_axis',(0.,0.,1.));
#396=DIRECTION('ref_axis',(-0.999878794063609,-0.0155691098622666,0.));
#397=DIRECTION('center_axis',(6.06076621781169E-20,-9.51036837215564E-18,
-1.));
#398=DIRECTION('ref_axis',(-0.999878794063609,-0.0155691098622666,8.74676538470465E-20));
#399=DIRECTION('',(0.,0.,-1.));
#400=DIRECTION('center_axis',(6.06076621781169E-20,-9.51036837215564E-18,
-1.));
#401=DIRECTION('ref_axis',(-0.999878794063609,-0.0155691098622666,8.74676538470465E-20));
#402=DIRECTION('center_axis',(0.,0.,1.));
#403=DIRECTION('ref_axis',(-0.999878794063609,-0.0155691098622666,0.));
#404=DIRECTION('center_axis',(6.06076621781169E-20,-9.51036837215564E-18,
-1.));
#405=DIRECTION('ref_axis',(-0.999878794063609,-0.0155691098622666,8.74676538470465E-20));
#406=DIRECTION('',(0.,0.,-1.));
#407=DIRECTION('center_axis',(6.06076621781169E-20,-9.51036837215564E-18,
-1.));
#408=DIRECTION('ref_axis',(-0.999878794063609,-0.0155691098622666,8.74676538470465E-20));
#409=DIRECTION('center_axis',(0.,0.,1.));
#410=DIRECTION('ref_axis',(-0.999878794063609,-0.0155691098622666,0.));
#411=DIRECTION('center_axis',(6.06076621781169E-20,-9.51036837215564E-18,
-1.));
#412=DIRECTION('ref_axis',(-0.999878794063609,-0.0155691098622666,8.74676538470465E-20));
#413=DIRECTION('',(0.,0.,-1.));
#414=DIRECTION('center_axis',(6.06076621781169E-20,-9.51036837215564E-18,
-1.));
#415=DIRECTION('ref_axis',(-0.999878794063609,-0.0155691098622666,8.74676538470465E-20));
#416=DIRECTION('center_axis',(0.,0.,1.));
#417=DIRECTION('ref_axis',(-0.999878794063609,-0.0155691098622666,0.));
#418=DIRECTION('center_axis',(6.06076621781169E-20,-9.51036837215564E-18,
-1.));
#419=DIRECTION('ref_axis',(-0.999878794063609,-0.0155691098622666,8.74676538470465E-20));
#420=DIRECTION('',(0.,0.,-1.));
#421=DIRECTION('center_axis',(6.06076621781169E-20,-9.51036837215564E-18,
-1.));
#422=DIRECTION('ref_axis',(-0.999878794063609,-0.0155691098622666,8.74676538470465E-20));
#423=DIRECTION('center_axis',(-0.0151146627220969,0.999885766960805,0.));
#424=DIRECTION('ref_axis',(-0.999885766960805,-0.0151146627220969,8.31452715273626E-20));
#425=DIRECTION('',(-0.999885766960805,-0.0151146627220969,8.31452715273626E-20));
#426=DIRECTION('',(0.,0.,1.));
#427=DIRECTION('',(-0.999885766960805,-0.0151146627220969,8.31452715273626E-20));
#428=DIRECTION('',(0.,0.,1.));
#429=DIRECTION('center_axis',(0.,0.,1.));
#430=DIRECTION('ref_axis',(0.999999875000024,-0.000499999937495971,0.));
#431=DIRECTION('center_axis',(-6.06076621781168E-20,9.51036837215564E-18,
1.));
#432=DIRECTION('ref_axis',(0.999999875000024,-0.000499999937495971,6.5362838193802E-20));
#433=DIRECTION('center_axis',(-6.06076621781168E-20,9.51036837215564E-18,
1.));
#434=DIRECTION('ref_axis',(0.999999875000024,-0.000499999937495971,6.5362838193802E-20));
#435=DIRECTION('',(0.,0.,1.));
#436=DIRECTION('center_axis',(0.999999875000023,-0.000499999937496277,0.));
#437=DIRECTION('ref_axis',(0.000499999937496277,0.999999875000024,-9.51033687953252E-18));
#438=DIRECTION('',(0.000499999937496277,0.999999875000024,-9.51033687953252E-18));
#439=DIRECTION('',(0.000499999937496277,0.999999875000024,-9.51033687953252E-18));
#440=DIRECTION('',(0.,0.,1.));
#441=DIRECTION('center_axis',(0.,0.,1.));
#442=DIRECTION('ref_axis',(-0.999999875000024,0.000499999937496418,0.));
#443=DIRECTION('center_axis',(-6.06076621781168E-20,9.51036837215564E-18,
1.));
#444=DIRECTION('ref_axis',(-0.999999875000024,0.000499999937496418,-6.53628381938062E-20));
#445=DIRECTION('center_axis',(-6.06076621781168E-20,9.51036837215564E-18,
1.));
#446=DIRECTION('ref_axis',(-0.999999875000024,0.000499999937496418,-6.53628381938062E-20));
#447=DIRECTION('',(0.,0.,1.));
#448=DIRECTION('center_axis',(0.0155691098622665,-0.999878794063609,0.));
#449=DIRECTION('ref_axis',(0.999878794063609,0.0155691098622665,-8.74676538470454E-20));
#450=DIRECTION('',(0.999878794063609,0.0155691098622665,-8.74676538470454E-20));
#451=DIRECTION('',(0.999878794063609,0.0155691098622665,-8.74676538470454E-20));
#452=DIRECTION('',(0.,0.,1.));
#453=DIRECTION('center_axis',(0.,0.,1.));
#454=DIRECTION('ref_axis',(-0.999878794063609,-0.0155691098622666,0.));
#455=DIRECTION('center_axis',(-6.06076621781169E-20,9.51036837215564E-18,
1.));
#456=DIRECTION('ref_axis',(-0.999878794063609,-0.0155691098622666,8.74676538470465E-20));
#457=DIRECTION('center_axis',(-6.06076621781169E-20,9.51036837215564E-18,
1.));
#458=DIRECTION('ref_axis',(-0.999878794063609,-0.0155691098622666,8.74676538470465E-20));
#459=DIRECTION('',(0.,0.,1.));
#460=DIRECTION('center_axis',(-0.999878794063609,-0.0155691098622666,0.));
#461=DIRECTION('ref_axis',(0.0155691098622666,-0.999878794063609,9.51015926640261E-18));
#462=DIRECTION('',(0.0155691098622666,-0.999878794063609,9.51015926640261E-18));
#463=DIRECTION('',(0.0155691098622666,-0.999878794063609,9.51015926640261E-18));
#464=DIRECTION('',(0.,0.,1.));
#465=DIRECTION('center_axis',(0.,0.,1.));
#466=DIRECTION('ref_axis',(-0.0151146627220959,0.999885766960805,0.));
#467=DIRECTION('center_axis',(-6.06076621781169E-20,9.51036837215564E-18,
1.));
#468=DIRECTION('ref_axis',(-0.0151146627220959,0.999885766960805,-9.51019803824482E-18));
#469=DIRECTION('center_axis',(-6.06076621781169E-20,9.51036837215564E-18,
1.));
#470=DIRECTION('ref_axis',(-0.0151146627220959,0.999885766960805,-9.51019803824482E-18));
#471=DIRECTION('center_axis',(-6.06076621781169E-20,9.51036837215564E-18,
1.));
#472=DIRECTION('ref_axis',(1.,0.,6.06076621781169E-20));
#473=DIRECTION('center_axis',(-6.06076621781169E-20,9.51036837215564E-18,
1.));
#474=DIRECTION('ref_axis',(1.,0.,6.06076621781169E-20));
#475=CARTESIAN_POINT('',(0.,0.,0.));
#476=CARTESIAN_POINT('Origin',(-0.156426946818826,0.458532956485981,-4.62135384404926E-18));
#477=CARTESIAN_POINT('',(-0.0664378553531008,0.459934176373585,0.25));
#478=CARTESIAN_POINT('Origin',(-0.156426946818826,0.458532956485981,0.25));
#479=CARTESIAN_POINT('',(-0.0664378553531008,0.459934176373585,-4.62922593289549E-18));
#480=CARTESIAN_POINT('',(-0.0664378553531008,0.459934176373585,-4.62135384404926E-18));
#481=CARTESIAN_POINT('Origin',(-0.156426946818826,0.458532956485981,-4.62135384404926E-18));
#482=CARTESIAN_POINT('Origin',(-0.172618644283877,1.49839554840176,-1.45118114905229E-17));
#483=CARTESIAN_POINT('',(-0.0826295528181519,1.49979676828936,0.25));
#484=CARTESIAN_POINT('Origin',(-0.172618644283877,1.49839554840176,0.25));
#485=CARTESIAN_POINT('',(-0.0826295528181519,1.49979676828936,-1.45196835793691E-17));
#486=CARTESIAN_POINT('',(-0.0826295528181519,1.49979676828936,-1.45118114905229E-17));
#487=CARTESIAN_POINT('Origin',(-0.172618644283877,1.49839554840176,-1.45118114905229E-17));
#488=CARTESIAN_POINT('Origin',(-0.164521437217239,0.978377017561081,-9.5657529490904E-18));
#489=CARTESIAN_POINT('',(-0.0745323457515142,0.979778237448685,0.25));
#490=CARTESIAN_POINT('Origin',(-0.164521437217239,0.978377017561081,0.25));
#491=CARTESIAN_POINT('',(-0.0745323457515142,0.979778237448685,-9.57362503793664E-18));
#492=CARTESIAN_POINT('',(-0.0745323457515142,0.979778237448685,-9.5657529490904E-18));
#493=CARTESIAN_POINT('Origin',(-0.164521437217239,0.978377017561081,-9.5657529490904E-18));
#494=CARTESIAN_POINT('Origin',(0.196933070866142,1.48400393700818,-1.43525442991919E-17));
#495=CARTESIAN_POINT('',(0.286922162331867,1.48540515689578,0.25));
#496=CARTESIAN_POINT('Origin',(0.196933070866142,1.48400393700818,0.25));
#497=CARTESIAN_POINT('',(0.286922162331867,1.48540515689578,-1.43604163880381E-17));
#498=CARTESIAN_POINT('',(0.286922162331867,1.48540515689578,-1.43525442991919E-17));
#499=CARTESIAN_POINT('Origin',(0.196933070866142,1.48400393700818,-1.43525442991919E-17));
#500=CARTESIAN_POINT('Origin',(0.196516761344489,0.984004020162014,-9.59738613548453E-18));
#501=CARTESIAN_POINT('',(0.286505852810214,0.985405240049618,0.25));
#502=CARTESIAN_POINT('Origin',(0.196516761344489,0.984004020162014,0.25));
#503=CARTESIAN_POINT('',(0.286505852810214,0.985405240049618,-9.60525822433077E-18));
#504=CARTESIAN_POINT('',(0.286505852810214,0.985405240049618,-9.59738613548453E-18));
#505=CARTESIAN_POINT('Origin',(0.196516761344489,0.984004020162014,-9.59738613548453E-18));
#506=CARTESIAN_POINT('Origin',(0.196433070866145,0.48400393700633,-4.84220623084976E-18));
#507=CARTESIAN_POINT('',(0.286422162331869,0.485405156893934,0.25));
#508=CARTESIAN_POINT('Origin',(0.196433070866145,0.48400393700633,0.25));
#509=CARTESIAN_POINT('',(0.28642216233187,0.485405156893934,-4.85007831969599E-18));
#510=CARTESIAN_POINT('',(0.28642216233187,0.485405156893934,-4.84220623084976E-18));
#511=CARTESIAN_POINT('Origin',(0.196433070866145,0.48400393700633,-4.84220623084976E-18));
#512=CARTESIAN_POINT('Origin',(0.197033070853641,1.68400391200818,-1.62546116750984E-17));
#513=CARTESIAN_POINT('',(0.197033070853641,1.68400391200818,-1.62546116750984E-17));
#514=CARTESIAN_POINT('',(-0.200361425010868,1.67799674201829,-1.62215664269771E-17));
#515=CARTESIAN_POINT('',(0.197033070853641,1.68400391200818,-1.62546116750984E-17));
#516=CARTESIAN_POINT('',(-0.200361425010868,1.67799674201829,0.25));
#517=CARTESIAN_POINT('',(-0.200361425010868,1.67799674201829,-1.62215664269771E-17));
#518=CARTESIAN_POINT('',(0.197033070853641,1.68400391200818,0.25));
#519=CARTESIAN_POINT('',(0.197033070853641,1.68400391200818,0.25));
#520=CARTESIAN_POINT('',(0.197033070853641,1.68400391200818,-1.62546116750984E-17));
#521=CARTESIAN_POINT('Origin',(0.196933070866142,1.48400393700818,-1.43525442991919E-17));
#522=CARTESIAN_POINT('',(0.396933045866147,1.48390393702068,-1.43394717315531E-17));
#523=CARTESIAN_POINT('Origin',(0.196933070866142,1.48400393700818,-1.43525442991919E-17));
#524=CARTESIAN_POINT('',(0.396933045866147,1.48390393702068,0.25));
#525=CARTESIAN_POINT('Origin',(0.196933070866142,1.48400393700818,0.25));
#526=CARTESIAN_POINT('',(0.396933045866147,1.48390393702068,-1.43394717315531E-17));
#527=CARTESIAN_POINT('Origin',(0.396433045866149,0.48390393701883,-4.829133663211E-18));
#528=CARTESIAN_POINT('',(0.396433045866149,0.48390393701883,-4.829133663211E-18));
#529=CARTESIAN_POINT('',(0.396433045866149,0.48390393701883,-4.829133663211E-18));
#530=CARTESIAN_POINT('',(0.396433045866149,0.48390393701883,0.25));
#531=CARTESIAN_POINT('',(0.396433045866149,0.48390393701883,0.25));
#532=CARTESIAN_POINT('',(0.396433045866149,0.48390393701883,-4.829133663211E-18));
#533=CARTESIAN_POINT('Origin',(0.196433070866145,0.48400393700633,-4.84220623084976E-18));
#534=CARTESIAN_POINT('',(0.196333070878645,0.284003962006325,-2.94013885494325E-18));
#535=CARTESIAN_POINT('Origin',(0.196433070866145,0.48400393700633,-4.84220623084976E-18));
#536=CARTESIAN_POINT('',(0.196333070878645,0.284003962006325,0.25));
#537=CARTESIAN_POINT('Origin',(0.196433070866145,0.48400393700633,0.25));
#538=CARTESIAN_POINT('',(0.196333070878645,0.284003962006325,-2.94013885494325E-18));
#539=CARTESIAN_POINT('Origin',(-0.178621476895208,0.278165545807975,-2.90733848475061E-18));
#540=CARTESIAN_POINT('',(-0.178621476895208,0.278165545807975,-2.90733848475061E-18));
#541=CARTESIAN_POINT('',(-0.178621476895208,0.278165545807975,-2.90733848475061E-18));
#542=CARTESIAN_POINT('',(-0.178621476895208,0.278165545807975,0.25));
#543=CARTESIAN_POINT('',(-0.178621476895208,0.278165545807975,0.25));
#544=CARTESIAN_POINT('',(-0.178621476895208,0.278165545807975,-2.90733848475061E-18));
#545=CARTESIAN_POINT('Origin',(-0.180567615627991,0.403150395065926,-4.09610839305094E-18));
#546=CARTESIAN_POINT('',(-0.305552464885942,0.401204256333143,-4.08517493632006E-18));
#547=CARTESIAN_POINT('Origin',(-0.180567615627991,0.403150395065926,-4.09610839305094E-18));
#548=CARTESIAN_POINT('',(-0.305552464885942,0.401204256333143,0.25));
#549=CARTESIAN_POINT('Origin',(-0.180567615627991,0.403150395065926,0.25));
#550=CARTESIAN_POINT('',(-0.305552464885942,0.401204256333143,-4.08517493632006E-18));
#551=CARTESIAN_POINT('Origin',(-0.323456941428557,1.5510648824154,-1.50218582154657E-17));
#552=CARTESIAN_POINT('',(-0.323456941428557,1.5510648824154,-1.50218582154657E-17));
#553=CARTESIAN_POINT('',(-0.323456941428557,1.5510648824154,-1.50218582154657E-17));
#554=CARTESIAN_POINT('',(-0.323456941428557,1.5510648824154,0.25));
#555=CARTESIAN_POINT('',(-0.323456941428557,1.5510648824154,0.25));
#556=CARTESIAN_POINT('',(-0.323456941428557,1.5510648824154,-1.50218582154657E-17));
#557=CARTESIAN_POINT('Origin',(-0.198472092170606,1.55301102114819,-1.50327916721965E-17));
#558=CARTESIAN_POINT('Origin',(-0.198472092170606,1.55301102114819,-1.50327916721965E-17));
#559=CARTESIAN_POINT('Origin',(-0.198472092170606,1.55301102114819,0.25));
#560=CARTESIAN_POINT('Origin',(0.0367304893477682,0.981077153537054,0.25));
#561=CARTESIAN_POINT('Origin',(0.0367304893477682,0.981077153537054,-9.57923482809887E-18));
#562=UNCERTAINTY_MEASURE_WITH_UNIT(LENGTH_MEASURE(0.000393700787401575),
#568,'DISTANCE_ACCURACY_VALUE',
'Maximum model space distance between geometric entities at asserted c
onnectivities');
#563=UNCERTAINTY_MEASURE_WITH_UNIT(LENGTH_MEASURE(0.000393700787401575),
#568,'DISTANCE_ACCURACY_VALUE',
'Maximum model space distance between geometric entities at asserted c
onnectivities');
#564=(
GEOMETRIC_REPRESENTATION_CONTEXT(3)
GLOBAL_UNCERTAINTY_ASSIGNED_CONTEXT((#562))
GLOBAL_UNIT_ASSIGNED_CONTEXT((#568,#572,#573))
REPRESENTATION_CONTEXT('','3D')
);
#565=(
GEOMETRIC_REPRESENTATION_CONTEXT(3)
GLOBAL_UNCERTAINTY_ASSIGNED_CONTEXT((#563))
GLOBAL_UNIT_ASSIGNED_CONTEXT((#568,#572,#573))
REPRESENTATION_CONTEXT('','3D')
);
#566=DIMENSIONAL_EXPONENTS(1.,0.,0.,0.,0.,0.,0.);
#567=DIMENSIONAL_EXPONENTS(0.,1.,0.,0.,0.,0.,0.);
#568=(
CONVERSION_BASED_UNIT('inch',#571)
LENGTH_UNIT()
NAMED_UNIT(#566)
);
#569=(
LENGTH_UNIT()
NAMED_UNIT(*)
SI_UNIT(.MILLI.,.METRE.)
);
#570=(
LENGTH_UNIT()
NAMED_UNIT(*)
SI_UNIT(.CENTI.,.METRE.)
);
#571=LENGTH_MEASURE_WITH_UNIT(LENGTH_MEASURE(25.4),#569);
#572=(
NAMED_UNIT(*)
PLANE_ANGLE_UNIT()
SI_UNIT($,.RADIAN.)
);
#573=(
NAMED_UNIT(*)
SI_UNIT($,.STERADIAN.)
SOLID_ANGLE_UNIT()
);
#574=SHAPE_DEFINITION_REPRESENTATION(#575,#576);
#575=PRODUCT_DEFINITION_SHAPE('',$,#578);
#576=SHAPE_REPRESENTATION('',(#342),#564);
#577=PRODUCT_DEFINITION_CONTEXT('part definition',#582,'design');
#578=PRODUCT_DEFINITION('OdomPods','OdomPods',#579,#577);
#579=PRODUCT_DEFINITION_FORMATION('',$,#584);
#580=PRODUCT_RELATED_PRODUCT_CATEGORY('OdomPods','OdomPods',(#584));
#581=APPLICATION_PROTOCOL_DEFINITION('international standard',
'automotive_design',2009,#582);
#582=APPLICATION_CONTEXT(
'Core Data for Automotive Mechanical Design Process');
#583=PRODUCT_CONTEXT('part definition',#582,'mechanical');
#584=PRODUCT('OdomPods','OdomPods',$,(#583));
#585=PRESENTATION_STYLE_ASSIGNMENT((#586));
#586=SURFACE_STYLE_USAGE(.BOTH.,#589);
#587=SURFACE_STYLE_RENDERING_WITH_PROPERTIES($,#593,(#588));
#588=SURFACE_STYLE_TRANSPARENT(0.);
#589=SURFACE_SIDE_STYLE('',(#590,#587));
#590=SURFACE_STYLE_FILL_AREA(#591);
#591=FILL_AREA_STYLE('',(#592));
#592=FILL_AREA_STYLE_COLOUR('',#593);
#593=COLOUR_RGB('',0.0196078431372549,0.0196078431372549,0.0196078431372549);
ENDSEC;
END-ISO-10303-21;
